M48
; DRILL file {KiCad (5.1.4)-1} date 05/26/22 12:08:46
; FORMAT={-:-/ absolute / inch / decimal}
; #@! TF.CreationDate,2022-05-26T12:08:46-08:00
; #@! TF.GenerationSoftware,Kicad,Pcbnew,(5.1.4)-1
; #@! TF.FileFunction,NonPlated,1,2,NPTH
FMAT,2
INCH
T1C0.0689
T2C0.1570
%
G90
G05
T1
X6.9681Y-2.5977
X7.3681Y-2.5977
X7.7201Y-3.2289
X8.1201Y-3.2289
X6.97Y-3.3459
X7.37Y-3.3459
X3.1341Y-2.1619
X3.5341Y-2.1619
X3.5103Y-2.9084
X3.9103Y-2.9084
X3.1346Y-3.6611
X3.5346Y-3.6611
X7.7173Y-2.4777
X8.1173Y-2.4777
X2.7588Y-2.9108
X3.1588Y-2.9108
T2
X7.1681Y-2.5977
X7.9201Y-3.2289
X7.17Y-3.3459
X3.3341Y-2.1619
X3.7103Y-2.9084
X3.3346Y-3.6611
X7.9173Y-2.4777
X2.9588Y-2.9108
T0
M30
