%FSLAX45Y45*%
G04 Gerber Fmt 4.5, Leading zero omitted, Abs format (unit mm)*
G04 Created by KiCad (PCBNEW (5.1.4)-1) date 2022-05-26 19:20:16*
%MOMM*%
%LPD*%
G04 APERTURE LIST*
%ADD10C,0.120000*%
%ADD11C,0.200000*%
%ADD12C,0.300000*%
G04 APERTURE END LIST*
D10*
X6781459Y-3895695D02*
X20855068Y-3894489D01*
X6066599Y-10183027D02*
X6067084Y-4610070D01*
X20854260Y-10893790D02*
X6778657Y-10894232D01*
X21567126Y-4605695D02*
X21565465Y-10181732D01*
X20855457Y-3894490D02*
G75*
G02X21567126Y-4605695I-390J-712058D01*
G01*
X21565465Y-10182122D02*
G75*
G02X20854260Y-10893790I-712058J390D01*
G01*
X6778268Y-10894232D02*
G75*
G02X6066599Y-10183027I390J712058D01*
G01*
X6067084Y-4610070D02*
G75*
G02X6781459Y-3895695I714375J0D01*
G01*
D11*
X19514446Y-6205957D02*
X19689446Y-6380957D01*
X19689446Y-6205957D02*
X19514446Y-6380957D01*
X20530446Y-6205957D02*
X20705446Y-6380957D01*
X20705446Y-6205957D02*
X20530446Y-6380957D01*
X6919970Y-7306053D02*
X7094970Y-7481053D01*
X7094970Y-7306053D02*
X6919970Y-7481053D01*
X19521451Y-8113812D02*
X19696451Y-8288812D01*
X19696451Y-8113812D02*
X19521451Y-8288812D01*
X7874276Y-9211597D02*
X8049276Y-9386597D01*
X8049276Y-9211597D02*
X7874276Y-9386597D01*
X8890276Y-9211597D02*
X9065276Y-9386597D01*
X9065276Y-9211597D02*
X8890276Y-9386597D01*
X7873014Y-5403716D02*
X8048014Y-5578716D01*
X8048014Y-5403716D02*
X7873014Y-5578716D01*
X8889014Y-5403716D02*
X9064014Y-5578716D01*
X9064014Y-5403716D02*
X8889014Y-5578716D01*
X17616349Y-8411028D02*
X17791349Y-8586028D01*
X17791349Y-8411028D02*
X17616349Y-8586028D01*
X18632349Y-8411028D02*
X18807349Y-8586028D01*
X18807349Y-8411028D02*
X18632349Y-8586028D01*
X7935970Y-7306053D02*
X8110970Y-7481053D01*
X8110970Y-7306053D02*
X7935970Y-7481053D01*
X17611479Y-6510681D02*
X17786479Y-6685681D01*
X17786479Y-6510681D02*
X17611479Y-6685681D01*
X18627479Y-6510681D02*
X18802479Y-6685681D01*
X18802479Y-6510681D02*
X18627479Y-6685681D01*
X20537451Y-8113812D02*
X20712451Y-8288812D01*
X20712451Y-8113812D02*
X20537451Y-8288812D01*
X8828582Y-7299916D02*
X9003582Y-7474916D01*
X9003582Y-7299916D02*
X8828582Y-7474916D01*
X9844582Y-7299916D02*
X10019582Y-7474916D01*
X10019582Y-7299916D02*
X9844582Y-7474916D01*
X18411239Y-8498528D02*
G75*
G03X18411239Y-8498528I-199390J0D01*
G01*
X20309336Y-6293457D02*
G75*
G03X20309336Y-6293457I-199390J0D01*
G01*
X18406369Y-6598181D02*
G75*
G03X18406369Y-6598181I-199390J0D01*
G01*
X20316341Y-8201312D02*
G75*
G03X20316341Y-8201312I-199390J0D01*
G01*
X9623472Y-7387416D02*
G75*
G03X9623472Y-7387416I-199390J0D01*
G01*
X8669166Y-9299097D02*
G75*
G03X8669166Y-9299097I-199390J0D01*
G01*
X8667904Y-5491216D02*
G75*
G03X8667904Y-5491216I-199390J0D01*
G01*
X7714860Y-7393553D02*
G75*
G03X7714860Y-7393553I-199390J0D01*
G01*
D12*
X6347028Y-11365946D02*
X6347028Y-11065946D01*
X6418456Y-11065946D01*
X6461313Y-11080232D01*
X6489885Y-11108803D01*
X6504171Y-11137375D01*
X6518456Y-11194518D01*
X6518456Y-11237375D01*
X6504171Y-11294518D01*
X6489885Y-11323089D01*
X6461313Y-11351660D01*
X6418456Y-11365946D01*
X6347028Y-11365946D01*
X6647028Y-11365946D02*
X6647028Y-11165946D01*
X6647028Y-11223089D02*
X6661313Y-11194518D01*
X6675599Y-11180232D01*
X6704171Y-11165946D01*
X6732742Y-11165946D01*
X6832742Y-11365946D02*
X6832742Y-11165946D01*
X6832742Y-11065946D02*
X6818456Y-11080232D01*
X6832742Y-11094518D01*
X6847028Y-11080232D01*
X6832742Y-11065946D01*
X6832742Y-11094518D01*
X7018456Y-11365946D02*
X6989885Y-11351660D01*
X6975599Y-11323089D01*
X6975599Y-11065946D01*
X7175599Y-11365946D02*
X7147028Y-11351660D01*
X7132742Y-11323089D01*
X7132742Y-11065946D01*
X7518456Y-11365946D02*
X7518456Y-11065946D01*
X7618456Y-11280232D01*
X7718456Y-11065946D01*
X7718456Y-11365946D01*
X7989885Y-11365946D02*
X7989885Y-11208803D01*
X7975599Y-11180232D01*
X7947028Y-11165946D01*
X7889885Y-11165946D01*
X7861313Y-11180232D01*
X7989885Y-11351660D02*
X7961313Y-11365946D01*
X7889885Y-11365946D01*
X7861313Y-11351660D01*
X7847028Y-11323089D01*
X7847028Y-11294518D01*
X7861313Y-11265946D01*
X7889885Y-11251660D01*
X7961313Y-11251660D01*
X7989885Y-11237375D01*
X8132742Y-11165946D02*
X8132742Y-11465946D01*
X8132742Y-11180232D02*
X8161313Y-11165946D01*
X8218456Y-11165946D01*
X8247028Y-11180232D01*
X8261313Y-11194518D01*
X8275599Y-11223089D01*
X8275599Y-11308803D01*
X8261313Y-11337375D01*
X8247028Y-11351660D01*
X8218456Y-11365946D01*
X8161313Y-11365946D01*
X8132742Y-11351660D01*
X8404171Y-11337375D02*
X8418456Y-11351660D01*
X8404171Y-11365946D01*
X8389885Y-11351660D01*
X8404171Y-11337375D01*
X8404171Y-11365946D01*
X8404171Y-11180232D02*
X8418456Y-11194518D01*
X8404171Y-11208803D01*
X8389885Y-11194518D01*
X8404171Y-11180232D01*
X8404171Y-11208803D01*
X5885599Y-11772732D02*
X6060599Y-11947732D01*
X6060599Y-11772732D02*
X5885599Y-11947732D01*
X6504171Y-11995946D02*
X6332742Y-11995946D01*
X6418456Y-11995946D02*
X6418456Y-11695946D01*
X6389885Y-11738803D01*
X6361313Y-11767375D01*
X6332742Y-11781660D01*
X6632742Y-11967375D02*
X6647028Y-11981660D01*
X6632742Y-11995946D01*
X6618456Y-11981660D01*
X6632742Y-11967375D01*
X6632742Y-11995946D01*
X6747028Y-11695946D02*
X6947028Y-11695946D01*
X6818456Y-11995946D01*
X7204171Y-11695946D02*
X7061313Y-11695946D01*
X7047028Y-11838803D01*
X7061313Y-11824518D01*
X7089885Y-11810232D01*
X7161313Y-11810232D01*
X7189885Y-11824518D01*
X7204171Y-11838803D01*
X7218456Y-11867375D01*
X7218456Y-11938803D01*
X7204171Y-11967375D01*
X7189885Y-11981660D01*
X7161313Y-11995946D01*
X7089885Y-11995946D01*
X7061313Y-11981660D01*
X7047028Y-11967375D01*
X7347028Y-11995946D02*
X7347028Y-11795946D01*
X7347028Y-11824518D02*
X7361313Y-11810232D01*
X7389885Y-11795946D01*
X7432742Y-11795946D01*
X7461313Y-11810232D01*
X7475599Y-11838803D01*
X7475599Y-11995946D01*
X7475599Y-11838803D02*
X7489885Y-11810232D01*
X7518456Y-11795946D01*
X7561313Y-11795946D01*
X7589885Y-11810232D01*
X7604171Y-11838803D01*
X7604171Y-11995946D01*
X7747028Y-11995946D02*
X7747028Y-11795946D01*
X7747028Y-11824518D02*
X7761313Y-11810232D01*
X7789885Y-11795946D01*
X7832742Y-11795946D01*
X7861313Y-11810232D01*
X7875599Y-11838803D01*
X7875599Y-11995946D01*
X7875599Y-11838803D02*
X7889885Y-11810232D01*
X7918456Y-11795946D01*
X7961313Y-11795946D01*
X7989885Y-11810232D01*
X8004171Y-11838803D01*
X8004171Y-11995946D01*
X8589885Y-11681660D02*
X8332742Y-12067375D01*
X8975599Y-11695946D02*
X9004171Y-11695946D01*
X9032742Y-11710232D01*
X9047028Y-11724518D01*
X9061313Y-11753089D01*
X9075599Y-11810232D01*
X9075599Y-11881660D01*
X9061313Y-11938803D01*
X9047028Y-11967375D01*
X9032742Y-11981660D01*
X9004171Y-11995946D01*
X8975599Y-11995946D01*
X8947028Y-11981660D01*
X8932742Y-11967375D01*
X8918456Y-11938803D01*
X8904171Y-11881660D01*
X8904171Y-11810232D01*
X8918456Y-11753089D01*
X8932742Y-11724518D01*
X8947028Y-11710232D01*
X8975599Y-11695946D01*
X9204171Y-11967375D02*
X9218456Y-11981660D01*
X9204171Y-11995946D01*
X9189885Y-11981660D01*
X9204171Y-11967375D01*
X9204171Y-11995946D01*
X9404171Y-11695946D02*
X9432742Y-11695946D01*
X9461313Y-11710232D01*
X9475599Y-11724518D01*
X9489885Y-11753089D01*
X9504171Y-11810232D01*
X9504171Y-11881660D01*
X9489885Y-11938803D01*
X9475599Y-11967375D01*
X9461313Y-11981660D01*
X9432742Y-11995946D01*
X9404171Y-11995946D01*
X9375599Y-11981660D01*
X9361313Y-11967375D01*
X9347028Y-11938803D01*
X9332742Y-11881660D01*
X9332742Y-11810232D01*
X9347028Y-11753089D01*
X9361313Y-11724518D01*
X9375599Y-11710232D01*
X9404171Y-11695946D01*
X9761313Y-11695946D02*
X9704171Y-11695946D01*
X9675599Y-11710232D01*
X9661313Y-11724518D01*
X9632742Y-11767375D01*
X9618456Y-11824518D01*
X9618456Y-11938803D01*
X9632742Y-11967375D01*
X9647028Y-11981660D01*
X9675599Y-11995946D01*
X9732742Y-11995946D01*
X9761313Y-11981660D01*
X9775599Y-11967375D01*
X9789885Y-11938803D01*
X9789885Y-11867375D01*
X9775599Y-11838803D01*
X9761313Y-11824518D01*
X9732742Y-11810232D01*
X9675599Y-11810232D01*
X9647028Y-11824518D01*
X9632742Y-11838803D01*
X9618456Y-11867375D01*
X9932742Y-11995946D02*
X9989885Y-11995946D01*
X10018456Y-11981660D01*
X10032742Y-11967375D01*
X10061313Y-11924518D01*
X10075599Y-11867375D01*
X10075599Y-11753089D01*
X10061313Y-11724518D01*
X10047028Y-11710232D01*
X10018456Y-11695946D01*
X9961313Y-11695946D01*
X9932742Y-11710232D01*
X9918456Y-11724518D01*
X9904171Y-11753089D01*
X9904171Y-11824518D01*
X9918456Y-11853089D01*
X9932742Y-11867375D01*
X9961313Y-11881660D01*
X10018456Y-11881660D01*
X10047028Y-11867375D01*
X10061313Y-11853089D01*
X10075599Y-11824518D01*
X10189885Y-11695946D02*
X10189885Y-11753089D01*
X10304171Y-11695946D02*
X10304171Y-11753089D01*
X10747028Y-12110232D02*
X10732742Y-12095946D01*
X10704171Y-12053089D01*
X10689885Y-12024518D01*
X10675599Y-11981660D01*
X10661313Y-11910232D01*
X10661313Y-11853089D01*
X10675599Y-11781660D01*
X10689885Y-11738803D01*
X10704171Y-11710232D01*
X10732742Y-11667375D01*
X10747028Y-11653089D01*
X11018456Y-11995946D02*
X10847028Y-11995946D01*
X10932742Y-11995946D02*
X10932742Y-11695946D01*
X10904171Y-11738803D01*
X10875599Y-11767375D01*
X10847028Y-11781660D01*
X11275599Y-11695946D02*
X11218456Y-11695946D01*
X11189885Y-11710232D01*
X11175599Y-11724518D01*
X11147028Y-11767375D01*
X11132742Y-11824518D01*
X11132742Y-11938803D01*
X11147028Y-11967375D01*
X11161313Y-11981660D01*
X11189885Y-11995946D01*
X11247028Y-11995946D01*
X11275599Y-11981660D01*
X11289885Y-11967375D01*
X11304171Y-11938803D01*
X11304171Y-11867375D01*
X11289885Y-11838803D01*
X11275599Y-11824518D01*
X11247028Y-11810232D01*
X11189885Y-11810232D01*
X11161313Y-11824518D01*
X11147028Y-11838803D01*
X11132742Y-11867375D01*
X11661313Y-11995946D02*
X11661313Y-11695946D01*
X11789885Y-11995946D02*
X11789885Y-11838803D01*
X11775599Y-11810232D01*
X11747028Y-11795946D01*
X11704171Y-11795946D01*
X11675599Y-11810232D01*
X11661313Y-11824518D01*
X11975599Y-11995946D02*
X11947028Y-11981660D01*
X11932742Y-11967375D01*
X11918456Y-11938803D01*
X11918456Y-11853089D01*
X11932742Y-11824518D01*
X11947028Y-11810232D01*
X11975599Y-11795946D01*
X12018456Y-11795946D01*
X12047028Y-11810232D01*
X12061313Y-11824518D01*
X12075599Y-11853089D01*
X12075599Y-11938803D01*
X12061313Y-11967375D01*
X12047028Y-11981660D01*
X12018456Y-11995946D01*
X11975599Y-11995946D01*
X12247028Y-11995946D02*
X12218456Y-11981660D01*
X12204171Y-11953089D01*
X12204171Y-11695946D01*
X12475599Y-11981660D02*
X12447028Y-11995946D01*
X12389885Y-11995946D01*
X12361313Y-11981660D01*
X12347028Y-11953089D01*
X12347028Y-11838803D01*
X12361313Y-11810232D01*
X12389885Y-11795946D01*
X12447028Y-11795946D01*
X12475599Y-11810232D01*
X12489885Y-11838803D01*
X12489885Y-11867375D01*
X12347028Y-11895946D01*
X12604171Y-11981660D02*
X12632742Y-11995946D01*
X12689885Y-11995946D01*
X12718456Y-11981660D01*
X12732742Y-11953089D01*
X12732742Y-11938803D01*
X12718456Y-11910232D01*
X12689885Y-11895946D01*
X12647028Y-11895946D01*
X12618456Y-11881660D01*
X12604171Y-11853089D01*
X12604171Y-11838803D01*
X12618456Y-11810232D01*
X12647028Y-11795946D01*
X12689885Y-11795946D01*
X12718456Y-11810232D01*
X12832742Y-12110232D02*
X12847028Y-12095946D01*
X12875599Y-12053089D01*
X12889885Y-12024518D01*
X12904171Y-11981660D01*
X12918456Y-11910232D01*
X12918456Y-11853089D01*
X12904171Y-11781660D01*
X12889885Y-11738803D01*
X12875599Y-11710232D01*
X12847028Y-11667375D01*
X12832742Y-11653089D01*
X13375599Y-12110232D02*
X13361313Y-12095946D01*
X13332742Y-12053089D01*
X13318456Y-12024518D01*
X13304171Y-11981660D01*
X13289885Y-11910232D01*
X13289885Y-11853089D01*
X13304171Y-11781660D01*
X13318456Y-11738803D01*
X13332742Y-11710232D01*
X13361313Y-11667375D01*
X13375599Y-11653089D01*
X13489885Y-11795946D02*
X13489885Y-11995946D01*
X13489885Y-11824518D02*
X13504171Y-11810232D01*
X13532742Y-11795946D01*
X13575599Y-11795946D01*
X13604171Y-11810232D01*
X13618456Y-11838803D01*
X13618456Y-11995946D01*
X13804171Y-11995946D02*
X13775599Y-11981660D01*
X13761313Y-11967375D01*
X13747028Y-11938803D01*
X13747028Y-11853089D01*
X13761313Y-11824518D01*
X13775599Y-11810232D01*
X13804171Y-11795946D01*
X13847028Y-11795946D01*
X13875599Y-11810232D01*
X13889885Y-11824518D01*
X13904171Y-11853089D01*
X13904171Y-11938803D01*
X13889885Y-11967375D01*
X13875599Y-11981660D01*
X13847028Y-11995946D01*
X13804171Y-11995946D01*
X13989885Y-11795946D02*
X14104171Y-11795946D01*
X14032742Y-11695946D02*
X14032742Y-11953089D01*
X14047028Y-11981660D01*
X14075599Y-11995946D01*
X14104171Y-11995946D01*
X14432742Y-11795946D02*
X14432742Y-12095946D01*
X14432742Y-11810232D02*
X14461313Y-11795946D01*
X14518456Y-11795946D01*
X14547028Y-11810232D01*
X14561313Y-11824518D01*
X14575599Y-11853089D01*
X14575599Y-11938803D01*
X14561313Y-11967375D01*
X14547028Y-11981660D01*
X14518456Y-11995946D01*
X14461313Y-11995946D01*
X14432742Y-11981660D01*
X14747028Y-11995946D02*
X14718456Y-11981660D01*
X14704171Y-11953089D01*
X14704171Y-11695946D01*
X14989885Y-11995946D02*
X14989885Y-11838803D01*
X14975599Y-11810232D01*
X14947028Y-11795946D01*
X14889885Y-11795946D01*
X14861313Y-11810232D01*
X14989885Y-11981660D02*
X14961313Y-11995946D01*
X14889885Y-11995946D01*
X14861313Y-11981660D01*
X14847028Y-11953089D01*
X14847028Y-11924518D01*
X14861313Y-11895946D01*
X14889885Y-11881660D01*
X14961313Y-11881660D01*
X14989885Y-11867375D01*
X15089885Y-11795946D02*
X15204171Y-11795946D01*
X15132742Y-11695946D02*
X15132742Y-11953089D01*
X15147028Y-11981660D01*
X15175599Y-11995946D01*
X15204171Y-11995946D01*
X15418456Y-11981660D02*
X15389885Y-11995946D01*
X15332742Y-11995946D01*
X15304171Y-11981660D01*
X15289885Y-11953089D01*
X15289885Y-11838803D01*
X15304171Y-11810232D01*
X15332742Y-11795946D01*
X15389885Y-11795946D01*
X15418456Y-11810232D01*
X15432742Y-11838803D01*
X15432742Y-11867375D01*
X15289885Y-11895946D01*
X15689885Y-11995946D02*
X15689885Y-11695946D01*
X15689885Y-11981660D02*
X15661313Y-11995946D01*
X15604171Y-11995946D01*
X15575599Y-11981660D01*
X15561313Y-11967375D01*
X15547028Y-11938803D01*
X15547028Y-11853089D01*
X15561313Y-11824518D01*
X15575599Y-11810232D01*
X15604171Y-11795946D01*
X15661313Y-11795946D01*
X15689885Y-11810232D01*
X15804171Y-12110232D02*
X15818456Y-12095946D01*
X15847028Y-12053089D01*
X15861313Y-12024518D01*
X15875599Y-11981660D01*
X15889885Y-11910232D01*
X15889885Y-11853089D01*
X15875599Y-11781660D01*
X15861313Y-11738803D01*
X15847028Y-11710232D01*
X15818456Y-11667375D01*
X15804171Y-11653089D01*
X6060599Y-12256232D02*
G75*
G03X6060599Y-12256232I-199390J0D01*
G01*
X6318456Y-12091946D02*
X6504171Y-12091946D01*
X6404171Y-12206232D01*
X6447028Y-12206232D01*
X6475599Y-12220518D01*
X6489885Y-12234803D01*
X6504171Y-12263375D01*
X6504171Y-12334803D01*
X6489885Y-12363375D01*
X6475599Y-12377660D01*
X6447028Y-12391946D01*
X6361313Y-12391946D01*
X6332742Y-12377660D01*
X6318456Y-12363375D01*
X6632742Y-12363375D02*
X6647028Y-12377660D01*
X6632742Y-12391946D01*
X6618456Y-12377660D01*
X6632742Y-12363375D01*
X6632742Y-12391946D01*
X6789885Y-12391946D02*
X6847028Y-12391946D01*
X6875599Y-12377660D01*
X6889885Y-12363375D01*
X6918456Y-12320518D01*
X6932742Y-12263375D01*
X6932742Y-12149089D01*
X6918456Y-12120518D01*
X6904171Y-12106232D01*
X6875599Y-12091946D01*
X6818456Y-12091946D01*
X6789885Y-12106232D01*
X6775599Y-12120518D01*
X6761313Y-12149089D01*
X6761313Y-12220518D01*
X6775599Y-12249089D01*
X6789885Y-12263375D01*
X6818456Y-12277660D01*
X6875599Y-12277660D01*
X6904171Y-12263375D01*
X6918456Y-12249089D01*
X6932742Y-12220518D01*
X7075599Y-12391946D02*
X7132742Y-12391946D01*
X7161313Y-12377660D01*
X7175599Y-12363375D01*
X7204171Y-12320518D01*
X7218456Y-12263375D01*
X7218456Y-12149089D01*
X7204171Y-12120518D01*
X7189885Y-12106232D01*
X7161313Y-12091946D01*
X7104171Y-12091946D01*
X7075599Y-12106232D01*
X7061313Y-12120518D01*
X7047028Y-12149089D01*
X7047028Y-12220518D01*
X7061313Y-12249089D01*
X7075599Y-12263375D01*
X7104171Y-12277660D01*
X7161313Y-12277660D01*
X7189885Y-12263375D01*
X7204171Y-12249089D01*
X7218456Y-12220518D01*
X7347028Y-12391946D02*
X7347028Y-12191946D01*
X7347028Y-12220518D02*
X7361313Y-12206232D01*
X7389885Y-12191946D01*
X7432742Y-12191946D01*
X7461313Y-12206232D01*
X7475599Y-12234803D01*
X7475599Y-12391946D01*
X7475599Y-12234803D02*
X7489885Y-12206232D01*
X7518456Y-12191946D01*
X7561313Y-12191946D01*
X7589885Y-12206232D01*
X7604171Y-12234803D01*
X7604171Y-12391946D01*
X7747028Y-12391946D02*
X7747028Y-12191946D01*
X7747028Y-12220518D02*
X7761313Y-12206232D01*
X7789885Y-12191946D01*
X7832742Y-12191946D01*
X7861313Y-12206232D01*
X7875599Y-12234803D01*
X7875599Y-12391946D01*
X7875599Y-12234803D02*
X7889885Y-12206232D01*
X7918456Y-12191946D01*
X7961313Y-12191946D01*
X7989885Y-12206232D01*
X8004171Y-12234803D01*
X8004171Y-12391946D01*
X8589885Y-12077660D02*
X8332742Y-12463375D01*
X8975599Y-12091946D02*
X9004171Y-12091946D01*
X9032742Y-12106232D01*
X9047028Y-12120518D01*
X9061313Y-12149089D01*
X9075599Y-12206232D01*
X9075599Y-12277660D01*
X9061313Y-12334803D01*
X9047028Y-12363375D01*
X9032742Y-12377660D01*
X9004171Y-12391946D01*
X8975599Y-12391946D01*
X8947028Y-12377660D01*
X8932742Y-12363375D01*
X8918456Y-12334803D01*
X8904171Y-12277660D01*
X8904171Y-12206232D01*
X8918456Y-12149089D01*
X8932742Y-12120518D01*
X8947028Y-12106232D01*
X8975599Y-12091946D01*
X9204171Y-12363375D02*
X9218456Y-12377660D01*
X9204171Y-12391946D01*
X9189885Y-12377660D01*
X9204171Y-12363375D01*
X9204171Y-12391946D01*
X9504171Y-12391946D02*
X9332742Y-12391946D01*
X9418456Y-12391946D02*
X9418456Y-12091946D01*
X9389885Y-12134803D01*
X9361313Y-12163375D01*
X9332742Y-12177660D01*
X9775599Y-12091946D02*
X9632742Y-12091946D01*
X9618456Y-12234803D01*
X9632742Y-12220518D01*
X9661313Y-12206232D01*
X9732742Y-12206232D01*
X9761313Y-12220518D01*
X9775599Y-12234803D01*
X9789885Y-12263375D01*
X9789885Y-12334803D01*
X9775599Y-12363375D01*
X9761313Y-12377660D01*
X9732742Y-12391946D01*
X9661313Y-12391946D01*
X9632742Y-12377660D01*
X9618456Y-12363375D01*
X9889885Y-12091946D02*
X10089885Y-12091946D01*
X9961313Y-12391946D01*
X10189885Y-12091946D02*
X10189885Y-12149089D01*
X10304171Y-12091946D02*
X10304171Y-12149089D01*
X10747028Y-12506232D02*
X10732742Y-12491946D01*
X10704171Y-12449089D01*
X10689885Y-12420518D01*
X10675599Y-12377660D01*
X10661313Y-12306232D01*
X10661313Y-12249089D01*
X10675599Y-12177660D01*
X10689885Y-12134803D01*
X10704171Y-12106232D01*
X10732742Y-12063375D01*
X10747028Y-12049089D01*
X10904171Y-12220518D02*
X10875599Y-12206232D01*
X10861313Y-12191946D01*
X10847028Y-12163375D01*
X10847028Y-12149089D01*
X10861313Y-12120518D01*
X10875599Y-12106232D01*
X10904171Y-12091946D01*
X10961313Y-12091946D01*
X10989885Y-12106232D01*
X11004171Y-12120518D01*
X11018456Y-12149089D01*
X11018456Y-12163375D01*
X11004171Y-12191946D01*
X10989885Y-12206232D01*
X10961313Y-12220518D01*
X10904171Y-12220518D01*
X10875599Y-12234803D01*
X10861313Y-12249089D01*
X10847028Y-12277660D01*
X10847028Y-12334803D01*
X10861313Y-12363375D01*
X10875599Y-12377660D01*
X10904171Y-12391946D01*
X10961313Y-12391946D01*
X10989885Y-12377660D01*
X11004171Y-12363375D01*
X11018456Y-12334803D01*
X11018456Y-12277660D01*
X11004171Y-12249089D01*
X10989885Y-12234803D01*
X10961313Y-12220518D01*
X11375599Y-12391946D02*
X11375599Y-12091946D01*
X11504171Y-12391946D02*
X11504171Y-12234803D01*
X11489885Y-12206232D01*
X11461313Y-12191946D01*
X11418456Y-12191946D01*
X11389885Y-12206232D01*
X11375599Y-12220518D01*
X11689885Y-12391946D02*
X11661313Y-12377660D01*
X11647028Y-12363375D01*
X11632742Y-12334803D01*
X11632742Y-12249089D01*
X11647028Y-12220518D01*
X11661313Y-12206232D01*
X11689885Y-12191946D01*
X11732742Y-12191946D01*
X11761313Y-12206232D01*
X11775599Y-12220518D01*
X11789885Y-12249089D01*
X11789885Y-12334803D01*
X11775599Y-12363375D01*
X11761313Y-12377660D01*
X11732742Y-12391946D01*
X11689885Y-12391946D01*
X11961313Y-12391946D02*
X11932742Y-12377660D01*
X11918456Y-12349089D01*
X11918456Y-12091946D01*
X12189885Y-12377660D02*
X12161313Y-12391946D01*
X12104171Y-12391946D01*
X12075599Y-12377660D01*
X12061313Y-12349089D01*
X12061313Y-12234803D01*
X12075599Y-12206232D01*
X12104171Y-12191946D01*
X12161313Y-12191946D01*
X12189885Y-12206232D01*
X12204171Y-12234803D01*
X12204171Y-12263375D01*
X12061313Y-12291946D01*
X12318456Y-12377660D02*
X12347028Y-12391946D01*
X12404171Y-12391946D01*
X12432742Y-12377660D01*
X12447028Y-12349089D01*
X12447028Y-12334803D01*
X12432742Y-12306232D01*
X12404171Y-12291946D01*
X12361313Y-12291946D01*
X12332742Y-12277660D01*
X12318456Y-12249089D01*
X12318456Y-12234803D01*
X12332742Y-12206232D01*
X12361313Y-12191946D01*
X12404171Y-12191946D01*
X12432742Y-12206232D01*
X12547028Y-12506232D02*
X12561313Y-12491946D01*
X12589885Y-12449089D01*
X12604171Y-12420518D01*
X12618456Y-12377660D01*
X12632742Y-12306232D01*
X12632742Y-12249089D01*
X12618456Y-12177660D01*
X12604171Y-12134803D01*
X12589885Y-12106232D01*
X12561313Y-12063375D01*
X12547028Y-12049089D01*
X13089885Y-12506232D02*
X13075599Y-12491946D01*
X13047028Y-12449089D01*
X13032742Y-12420518D01*
X13018456Y-12377660D01*
X13004171Y-12306232D01*
X13004171Y-12249089D01*
X13018456Y-12177660D01*
X13032742Y-12134803D01*
X13047028Y-12106232D01*
X13075599Y-12063375D01*
X13089885Y-12049089D01*
X13204171Y-12191946D02*
X13204171Y-12391946D01*
X13204171Y-12220518D02*
X13218456Y-12206232D01*
X13247028Y-12191946D01*
X13289885Y-12191946D01*
X13318456Y-12206232D01*
X13332742Y-12234803D01*
X13332742Y-12391946D01*
X13518456Y-12391946D02*
X13489885Y-12377660D01*
X13475599Y-12363375D01*
X13461313Y-12334803D01*
X13461313Y-12249089D01*
X13475599Y-12220518D01*
X13489885Y-12206232D01*
X13518456Y-12191946D01*
X13561313Y-12191946D01*
X13589885Y-12206232D01*
X13604171Y-12220518D01*
X13618456Y-12249089D01*
X13618456Y-12334803D01*
X13604171Y-12363375D01*
X13589885Y-12377660D01*
X13561313Y-12391946D01*
X13518456Y-12391946D01*
X13704171Y-12191946D02*
X13818456Y-12191946D01*
X13747028Y-12091946D02*
X13747028Y-12349089D01*
X13761313Y-12377660D01*
X13789885Y-12391946D01*
X13818456Y-12391946D01*
X14147028Y-12191946D02*
X14147028Y-12491946D01*
X14147028Y-12206232D02*
X14175599Y-12191946D01*
X14232742Y-12191946D01*
X14261313Y-12206232D01*
X14275599Y-12220518D01*
X14289885Y-12249089D01*
X14289885Y-12334803D01*
X14275599Y-12363375D01*
X14261313Y-12377660D01*
X14232742Y-12391946D01*
X14175599Y-12391946D01*
X14147028Y-12377660D01*
X14461313Y-12391946D02*
X14432742Y-12377660D01*
X14418456Y-12349089D01*
X14418456Y-12091946D01*
X14704171Y-12391946D02*
X14704171Y-12234803D01*
X14689885Y-12206232D01*
X14661313Y-12191946D01*
X14604171Y-12191946D01*
X14575599Y-12206232D01*
X14704171Y-12377660D02*
X14675599Y-12391946D01*
X14604171Y-12391946D01*
X14575599Y-12377660D01*
X14561313Y-12349089D01*
X14561313Y-12320518D01*
X14575599Y-12291946D01*
X14604171Y-12277660D01*
X14675599Y-12277660D01*
X14704171Y-12263375D01*
X14804171Y-12191946D02*
X14918456Y-12191946D01*
X14847028Y-12091946D02*
X14847028Y-12349089D01*
X14861313Y-12377660D01*
X14889885Y-12391946D01*
X14918456Y-12391946D01*
X15132742Y-12377660D02*
X15104171Y-12391946D01*
X15047028Y-12391946D01*
X15018456Y-12377660D01*
X15004171Y-12349089D01*
X15004171Y-12234803D01*
X15018456Y-12206232D01*
X15047028Y-12191946D01*
X15104171Y-12191946D01*
X15132742Y-12206232D01*
X15147028Y-12234803D01*
X15147028Y-12263375D01*
X15004171Y-12291946D01*
X15404171Y-12391946D02*
X15404171Y-12091946D01*
X15404171Y-12377660D02*
X15375599Y-12391946D01*
X15318456Y-12391946D01*
X15289885Y-12377660D01*
X15275599Y-12363375D01*
X15261313Y-12334803D01*
X15261313Y-12249089D01*
X15275599Y-12220518D01*
X15289885Y-12206232D01*
X15318456Y-12191946D01*
X15375599Y-12191946D01*
X15404171Y-12206232D01*
X15518456Y-12506232D02*
X15532742Y-12491946D01*
X15561313Y-12449089D01*
X15575599Y-12420518D01*
X15589885Y-12377660D01*
X15604171Y-12306232D01*
X15604171Y-12249089D01*
X15589885Y-12177660D01*
X15575599Y-12134803D01*
X15561313Y-12106232D01*
X15532742Y-12063375D01*
X15518456Y-12049089D01*
M02*
