G04 #@! TF.GenerationSoftware,KiCad,Pcbnew,(5.1.4)-1*
G04 #@! TF.CreationDate,2022-05-26T12:08:07-08:00*
G04 #@! TF.ProjectId,No2 controller PCB,4e6f3220-636f-46e7-9472-6f6c6c657220,rev?*
G04 #@! TF.SameCoordinates,Original*
G04 #@! TF.FileFunction,Legend,Top*
G04 #@! TF.FilePolarity,Positive*
%FSLAX46Y46*%
G04 Gerber Fmt 4.6, Leading zero omitted, Abs format (unit mm)*
G04 Created by KiCad (PCBNEW (5.1.4)-1) date 2022-05-26 12:08:07*
%MOMM*%
%LPD*%
G04 APERTURE LIST*
%ADD10C,0.150000*%
%ADD11C,1.852000*%
%ADD12C,4.089800*%
%ADD13C,1.702000*%
%ADD14R,1.702000X1.702000*%
%ADD15R,1.902000X1.202000*%
G04 APERTURE END LIST*
D10*
X146489611Y-72548750D02*
X128709611Y-72548750D01*
X146489611Y-42068750D02*
X146489611Y-72548750D01*
X141409611Y-42068750D02*
X146489611Y-42068750D01*
X141409611Y-39528750D02*
X141409611Y-42068750D01*
X133789611Y-39528750D02*
X141409611Y-39528750D01*
X133789611Y-42068750D02*
X133789611Y-39528750D01*
X128709611Y-42068750D02*
X133789611Y-42068750D01*
X128709611Y-42068750D02*
X128709611Y-72548750D01*
X149323750Y-80108750D02*
X154523750Y-80108750D01*
X154523750Y-80108750D02*
X154523750Y-85308750D01*
X154523750Y-85308750D02*
X149323750Y-85308750D01*
X149323750Y-85308750D02*
X149323750Y-80108750D01*
X152923750Y-82708750D02*
G75*
G03X152923750Y-82708750I-1000000J0D01*
G01*
X121542500Y-80108750D02*
X126742500Y-80108750D01*
X126742500Y-80108750D02*
X126742500Y-85308750D01*
X126742500Y-85308750D02*
X121542500Y-85308750D01*
X121542500Y-85308750D02*
X121542500Y-80108750D01*
X125142500Y-82708750D02*
G75*
G03X125142500Y-82708750I-1000000J0D01*
G01*
X150590416Y-87177511D02*
X150733273Y-87225130D01*
X150971369Y-87225130D01*
X151066607Y-87177511D01*
X151114226Y-87129892D01*
X151161845Y-87034654D01*
X151161845Y-86939416D01*
X151114226Y-86844178D01*
X151066607Y-86796559D01*
X150971369Y-86748940D01*
X150780892Y-86701321D01*
X150685654Y-86653702D01*
X150638035Y-86606083D01*
X150590416Y-86510845D01*
X150590416Y-86415607D01*
X150638035Y-86320369D01*
X150685654Y-86272750D01*
X150780892Y-86225130D01*
X151018988Y-86225130D01*
X151161845Y-86272750D01*
X151495178Y-86225130D02*
X151733273Y-87225130D01*
X151923750Y-86510845D01*
X152114226Y-87225130D01*
X152352321Y-86225130D01*
X152685654Y-86320369D02*
X152733273Y-86272750D01*
X152828511Y-86225130D01*
X153066607Y-86225130D01*
X153161845Y-86272750D01*
X153209464Y-86320369D01*
X153257083Y-86415607D01*
X153257083Y-86510845D01*
X153209464Y-86653702D01*
X152638035Y-87225130D01*
X153257083Y-87225130D01*
X122809166Y-87177511D02*
X122952023Y-87225130D01*
X123190119Y-87225130D01*
X123285357Y-87177511D01*
X123332976Y-87129892D01*
X123380595Y-87034654D01*
X123380595Y-86939416D01*
X123332976Y-86844178D01*
X123285357Y-86796559D01*
X123190119Y-86748940D01*
X122999642Y-86701321D01*
X122904404Y-86653702D01*
X122856785Y-86606083D01*
X122809166Y-86510845D01*
X122809166Y-86415607D01*
X122856785Y-86320369D01*
X122904404Y-86272750D01*
X122999642Y-86225130D01*
X123237738Y-86225130D01*
X123380595Y-86272750D01*
X123713928Y-86225130D02*
X123952023Y-87225130D01*
X124142500Y-86510845D01*
X124332976Y-87225130D01*
X124571071Y-86225130D01*
X125475833Y-87225130D02*
X124904404Y-87225130D01*
X125190119Y-87225130D02*
X125190119Y-86225130D01*
X125094880Y-86367988D01*
X124999642Y-86463226D01*
X124904404Y-86510845D01*
%LPC*%
D11*
X89777762Y-92990971D03*
X79617762Y-92990971D03*
D12*
X84697762Y-92990971D03*
D11*
X99320823Y-73874165D03*
X89160823Y-73874165D03*
D12*
X94240823Y-73874165D03*
D13*
X145219611Y-43338750D03*
X145219611Y-45878750D03*
X145219611Y-48418750D03*
X145219611Y-50958750D03*
X145219611Y-53498750D03*
X145219611Y-56038750D03*
X145219611Y-58578750D03*
X145219611Y-61118750D03*
X145219611Y-63658750D03*
X145219611Y-66198750D03*
X145219611Y-68738750D03*
X145219611Y-71278750D03*
X129979611Y-71278750D03*
X129979611Y-68738750D03*
X129979611Y-66198750D03*
X129979611Y-63658750D03*
X129979611Y-61118750D03*
X129979611Y-58578750D03*
X129979611Y-56038750D03*
X129979611Y-53498750D03*
X129979611Y-50958750D03*
X129979611Y-48418750D03*
X129979611Y-45878750D03*
D14*
X129979611Y-43338750D03*
D15*
X148823750Y-84558750D03*
X155023750Y-80858750D03*
X148823750Y-80858750D03*
X155023750Y-84558750D03*
X121042500Y-84558750D03*
X127242500Y-80858750D03*
X121042500Y-80858750D03*
X127242500Y-84558750D03*
D11*
X206249505Y-82013124D03*
X196089505Y-82013124D03*
D12*
X201169505Y-82013124D03*
D11*
X206179463Y-62934575D03*
X196019463Y-62934575D03*
D12*
X201099463Y-62934575D03*
D11*
X187198491Y-84985281D03*
X177038491Y-84985281D03*
D12*
X182118491Y-84985281D03*
D11*
X187149785Y-65981811D03*
X176989785Y-65981811D03*
D12*
X182069785Y-65981811D03*
D11*
X89765138Y-54912158D03*
X79605138Y-54912158D03*
D12*
X84685138Y-54912158D03*
D11*
X80234702Y-73935535D03*
X70074702Y-73935535D03*
D12*
X75154702Y-73935535D03*
M02*
