G04 #@! TF.GenerationSoftware,KiCad,Pcbnew,(5.1.4)-1*
G04 #@! TF.CreationDate,2022-05-26T12:08:07-08:00*
G04 #@! TF.ProjectId,No2 controller PCB,4e6f3220-636f-46e7-9472-6f6c6c657220,rev?*
G04 #@! TF.SameCoordinates,Original*
G04 #@! TF.FileFunction,Soldermask,Bot*
G04 #@! TF.FilePolarity,Negative*
%FSLAX46Y46*%
G04 Gerber Fmt 4.6, Leading zero omitted, Abs format (unit mm)*
G04 Created by KiCad (PCBNEW (5.1.4)-1) date 2022-05-26 12:08:07*
%MOMM*%
%LPD*%
G04 APERTURE LIST*
%ADD10C,0.100000*%
G04 APERTURE END LIST*
D10*
G36*
X86971262Y-99074471D02*
G01*
X84964262Y-99074471D01*
X84964262Y-97067471D01*
X86971262Y-97067471D01*
X86971262Y-99074471D01*
X86971262Y-99074471D01*
G37*
G36*
X83554187Y-97072959D02*
G01*
X83720472Y-97106034D01*
X83903098Y-97181680D01*
X84067456Y-97291501D01*
X84207232Y-97431277D01*
X84317053Y-97595635D01*
X84392699Y-97778261D01*
X84431262Y-97972135D01*
X84431262Y-98169807D01*
X84392699Y-98363681D01*
X84317053Y-98546307D01*
X84207232Y-98710665D01*
X84067456Y-98850441D01*
X83903098Y-98960262D01*
X83720472Y-99035908D01*
X83554187Y-99068983D01*
X83526599Y-99074471D01*
X83328925Y-99074471D01*
X83301337Y-99068983D01*
X83135052Y-99035908D01*
X82952426Y-98960262D01*
X82788068Y-98850441D01*
X82648292Y-98710665D01*
X82538471Y-98546307D01*
X82462825Y-98363681D01*
X82424262Y-98169807D01*
X82424262Y-97972135D01*
X82462825Y-97778261D01*
X82538471Y-97595635D01*
X82648292Y-97431277D01*
X82788068Y-97291501D01*
X82952426Y-97181680D01*
X83135052Y-97106034D01*
X83301337Y-97072959D01*
X83328925Y-97067471D01*
X83526599Y-97067471D01*
X83554187Y-97072959D01*
X83554187Y-97072959D01*
G37*
G36*
X85294236Y-91024655D02*
G01*
X85400765Y-91068781D01*
X85666385Y-91178804D01*
X86001310Y-91402594D01*
X86286139Y-91687423D01*
X86509929Y-92022348D01*
X86542324Y-92100557D01*
X86664078Y-92394497D01*
X86742662Y-92789565D01*
X86742662Y-93192377D01*
X86664078Y-93587445D01*
X86613213Y-93710243D01*
X86509929Y-93959594D01*
X86286139Y-94294519D01*
X86001310Y-94579348D01*
X85666385Y-94803138D01*
X85512236Y-94866988D01*
X85294236Y-94957287D01*
X84899168Y-95035871D01*
X84496356Y-95035871D01*
X84101288Y-94957287D01*
X83883288Y-94866988D01*
X83729139Y-94803138D01*
X83394214Y-94579348D01*
X83109385Y-94294519D01*
X82885595Y-93959594D01*
X82782311Y-93710243D01*
X82731446Y-93587445D01*
X82652862Y-93192377D01*
X82652862Y-92789565D01*
X82731446Y-92394497D01*
X82853200Y-92100557D01*
X82885595Y-92022348D01*
X83109385Y-91687423D01*
X83394214Y-91402594D01*
X83729139Y-91178804D01*
X83994759Y-91068781D01*
X84101288Y-91024655D01*
X84496356Y-90946071D01*
X84899168Y-90946071D01*
X85294236Y-91024655D01*
X85294236Y-91024655D01*
G37*
G36*
X90047866Y-92100556D02*
G01*
X90216388Y-92170360D01*
X90368053Y-92271699D01*
X90497034Y-92400680D01*
X90598373Y-92552345D01*
X90668177Y-92720867D01*
X90703762Y-92899768D01*
X90703762Y-93082174D01*
X90668177Y-93261075D01*
X90598373Y-93429597D01*
X90497034Y-93581262D01*
X90368053Y-93710243D01*
X90216388Y-93811582D01*
X90047866Y-93881386D01*
X89868965Y-93916971D01*
X89686559Y-93916971D01*
X89507658Y-93881386D01*
X89339136Y-93811582D01*
X89187471Y-93710243D01*
X89058490Y-93581262D01*
X88957151Y-93429597D01*
X88887347Y-93261075D01*
X88851762Y-93082174D01*
X88851762Y-92899768D01*
X88887347Y-92720867D01*
X88957151Y-92552345D01*
X89058490Y-92400680D01*
X89187471Y-92271699D01*
X89339136Y-92170360D01*
X89507658Y-92100556D01*
X89686559Y-92064971D01*
X89868965Y-92064971D01*
X90047866Y-92100556D01*
X90047866Y-92100556D01*
G37*
G36*
X79887866Y-92100556D02*
G01*
X80056388Y-92170360D01*
X80208053Y-92271699D01*
X80337034Y-92400680D01*
X80438373Y-92552345D01*
X80508177Y-92720867D01*
X80543762Y-92899768D01*
X80543762Y-93082174D01*
X80508177Y-93261075D01*
X80438373Y-93429597D01*
X80337034Y-93581262D01*
X80208053Y-93710243D01*
X80056388Y-93811582D01*
X79887866Y-93881386D01*
X79708965Y-93916971D01*
X79526559Y-93916971D01*
X79347658Y-93881386D01*
X79179136Y-93811582D01*
X79027471Y-93710243D01*
X78898490Y-93581262D01*
X78797151Y-93429597D01*
X78727347Y-93261075D01*
X78691762Y-93082174D01*
X78691762Y-92899768D01*
X78727347Y-92720867D01*
X78797151Y-92552345D01*
X78898490Y-92400680D01*
X79027471Y-92271699D01*
X79179136Y-92170360D01*
X79347658Y-92100556D01*
X79526559Y-92064971D01*
X79708965Y-92064971D01*
X79887866Y-92100556D01*
X79887866Y-92100556D01*
G37*
G36*
X82220967Y-87814852D02*
G01*
X82226407Y-87814971D01*
X82313590Y-87814971D01*
X82329859Y-87818207D01*
X82348718Y-87820486D01*
X82365294Y-87821217D01*
X82449985Y-87841981D01*
X82455280Y-87843155D01*
X82540789Y-87860164D01*
X82556124Y-87866516D01*
X82574163Y-87872426D01*
X82590283Y-87876378D01*
X82669266Y-87913251D01*
X82674256Y-87915448D01*
X82754807Y-87948813D01*
X82768603Y-87958031D01*
X82785155Y-87967353D01*
X82800188Y-87974371D01*
X82870456Y-88025942D01*
X82874954Y-88029093D01*
X82947418Y-88077512D01*
X82959145Y-88089239D01*
X82973571Y-88101619D01*
X82986941Y-88111432D01*
X82986942Y-88111433D01*
X83045783Y-88175704D01*
X83049591Y-88179685D01*
X83111221Y-88241315D01*
X83120436Y-88255106D01*
X83132158Y-88270049D01*
X83143367Y-88282292D01*
X83188561Y-88356845D01*
X83191508Y-88361472D01*
X83239920Y-88433926D01*
X83246267Y-88449248D01*
X83254854Y-88466202D01*
X83263453Y-88480388D01*
X83293240Y-88562339D01*
X83295214Y-88567419D01*
X83328569Y-88647944D01*
X83328569Y-88647945D01*
X83331803Y-88664204D01*
X83336920Y-88682513D01*
X83342587Y-88698105D01*
X83355817Y-88784316D01*
X83356763Y-88789684D01*
X83373762Y-88875144D01*
X83373762Y-88891723D01*
X83375206Y-88910663D01*
X83377725Y-88927075D01*
X83373882Y-89014220D01*
X83373762Y-89019660D01*
X83373762Y-89106796D01*
X83370528Y-89123054D01*
X83368250Y-89141912D01*
X83367518Y-89158502D01*
X83346750Y-89243208D01*
X83345574Y-89248508D01*
X83328569Y-89333998D01*
X83322219Y-89349328D01*
X83316311Y-89367364D01*
X83312357Y-89383491D01*
X83275473Y-89462497D01*
X83273273Y-89467494D01*
X83239920Y-89548016D01*
X83230706Y-89561806D01*
X83221384Y-89578358D01*
X83214364Y-89593395D01*
X83162773Y-89663691D01*
X83159628Y-89668181D01*
X83111223Y-89740625D01*
X83054222Y-89797626D01*
X83049573Y-89802534D01*
X82618073Y-90283441D01*
X81724485Y-91279347D01*
X81596441Y-91396573D01*
X81497392Y-91456617D01*
X81398345Y-91516660D01*
X81180628Y-91595794D01*
X80951657Y-91630932D01*
X80720232Y-91620725D01*
X80495243Y-91565564D01*
X80390489Y-91516660D01*
X80285341Y-91467573D01*
X80188600Y-91396573D01*
X80098585Y-91330510D01*
X80024156Y-91249212D01*
X79942160Y-91159650D01*
X79860326Y-91024656D01*
X79822073Y-90961554D01*
X79742939Y-90743837D01*
X79707801Y-90514866D01*
X79718008Y-90283441D01*
X79773169Y-90058452D01*
X79824734Y-89947999D01*
X79871160Y-89848551D01*
X79871162Y-89848548D01*
X79973876Y-89708593D01*
X80729007Y-88866998D01*
X81260549Y-88274592D01*
X81271443Y-88260560D01*
X81284301Y-88241317D01*
X81341335Y-88184283D01*
X81345985Y-88179374D01*
X81361040Y-88162595D01*
X81382463Y-88142982D01*
X81386444Y-88139174D01*
X81448108Y-88077510D01*
X81461905Y-88068291D01*
X81476864Y-88056556D01*
X81489083Y-88045369D01*
X81521147Y-88025932D01*
X81563592Y-88000202D01*
X81568183Y-87997279D01*
X81640717Y-87948813D01*
X81656062Y-87942457D01*
X81673010Y-87933872D01*
X81687178Y-87925283D01*
X81687179Y-87925283D01*
X81687180Y-87925282D01*
X81769074Y-87895516D01*
X81774172Y-87893534D01*
X81854735Y-87860164D01*
X81871014Y-87856926D01*
X81889304Y-87851815D01*
X81904897Y-87846148D01*
X81991062Y-87832925D01*
X81996425Y-87831980D01*
X82081935Y-87814971D01*
X82098528Y-87814971D01*
X82117471Y-87813526D01*
X82133868Y-87811010D01*
X82220967Y-87814852D01*
X82220967Y-87814852D01*
G37*
G36*
X180974916Y-89067269D02*
G01*
X181141201Y-89100344D01*
X181323827Y-89175990D01*
X181488185Y-89285811D01*
X181627961Y-89425587D01*
X181737782Y-89589945D01*
X181813428Y-89772571D01*
X181851991Y-89966445D01*
X181851991Y-90164117D01*
X181813428Y-90357991D01*
X181737782Y-90540617D01*
X181627961Y-90704975D01*
X181488185Y-90844751D01*
X181323827Y-90954572D01*
X181141201Y-91030218D01*
X180974916Y-91063293D01*
X180947328Y-91068781D01*
X180749654Y-91068781D01*
X180722066Y-91063293D01*
X180555781Y-91030218D01*
X180373155Y-90954572D01*
X180208797Y-90844751D01*
X180069021Y-90704975D01*
X179959200Y-90540617D01*
X179883554Y-90357991D01*
X179844991Y-90164117D01*
X179844991Y-89966445D01*
X179883554Y-89772571D01*
X179959200Y-89589945D01*
X180069021Y-89425587D01*
X180208797Y-89285811D01*
X180373155Y-89175990D01*
X180555781Y-89100344D01*
X180722066Y-89067269D01*
X180749654Y-89061781D01*
X180947328Y-89061781D01*
X180974916Y-89067269D01*
X180974916Y-89067269D01*
G37*
G36*
X184391991Y-91068781D02*
G01*
X182384991Y-91068781D01*
X182384991Y-89061781D01*
X184391991Y-89061781D01*
X184391991Y-91068781D01*
X184391991Y-91068781D01*
G37*
G36*
X87325889Y-86733232D02*
G01*
X87346662Y-86734971D01*
X87353589Y-86734971D01*
X87448516Y-86753853D01*
X87452110Y-86754513D01*
X87547492Y-86770595D01*
X87553965Y-86773056D01*
X87573990Y-86778812D01*
X87580789Y-86780164D01*
X87622516Y-86797448D01*
X87670205Y-86817201D01*
X87673606Y-86818552D01*
X87764017Y-86852932D01*
X87769889Y-86856611D01*
X87788398Y-86866158D01*
X87794807Y-86868813D01*
X87875325Y-86922613D01*
X87878316Y-86924549D01*
X87960319Y-86975930D01*
X87965346Y-86980671D01*
X87981658Y-86993662D01*
X87987414Y-86997508D01*
X88055872Y-87065966D01*
X88058451Y-87068470D01*
X88128852Y-87134860D01*
X88132857Y-87140490D01*
X88146321Y-87156415D01*
X88151221Y-87161315D01*
X88205006Y-87241810D01*
X88207053Y-87244778D01*
X88263142Y-87323616D01*
X88265976Y-87329929D01*
X88276070Y-87348164D01*
X88279920Y-87353926D01*
X88316982Y-87443401D01*
X88318386Y-87446656D01*
X88358027Y-87534944D01*
X88359577Y-87541696D01*
X88365914Y-87561533D01*
X88368569Y-87567944D01*
X88387454Y-87662888D01*
X88388200Y-87666372D01*
X88409860Y-87760722D01*
X88409860Y-87760725D01*
X88410062Y-87767625D01*
X88412409Y-87788341D01*
X88413762Y-87795145D01*
X88413762Y-87891957D01*
X88413815Y-87895555D01*
X88414950Y-87934248D01*
X88414057Y-87947196D01*
X88413762Y-87955768D01*
X88413762Y-88026797D01*
X88407843Y-88056556D01*
X88407366Y-88058950D01*
X88405262Y-88074721D01*
X88367000Y-88629516D01*
X88338138Y-88800701D01*
X88255800Y-89017226D01*
X88132803Y-89213528D01*
X87973873Y-89382061D01*
X87785117Y-89516351D01*
X87573789Y-89611236D01*
X87348011Y-89663069D01*
X87116460Y-89669860D01*
X87116459Y-89669860D01*
X87070774Y-89662157D01*
X86888032Y-89631347D01*
X86671507Y-89549009D01*
X86475205Y-89426012D01*
X86306672Y-89267082D01*
X86172382Y-89078326D01*
X86077497Y-88866998D01*
X86025664Y-88641220D01*
X86020574Y-88467694D01*
X86061466Y-87874765D01*
X86061762Y-87866167D01*
X86061762Y-87795146D01*
X86080644Y-87700221D01*
X86081306Y-87696616D01*
X86086993Y-87662888D01*
X86097386Y-87601241D01*
X86099847Y-87594770D01*
X86105604Y-87574738D01*
X86106853Y-87568460D01*
X86106955Y-87567944D01*
X86144026Y-87478447D01*
X86145315Y-87475201D01*
X86179724Y-87384716D01*
X86183398Y-87378852D01*
X86192949Y-87360336D01*
X86195604Y-87353926D01*
X86249419Y-87273386D01*
X86251339Y-87270420D01*
X86302721Y-87188414D01*
X86307473Y-87183375D01*
X86320451Y-87167078D01*
X86324299Y-87161319D01*
X86392755Y-87092863D01*
X86395308Y-87090233D01*
X86415785Y-87068519D01*
X86461651Y-87019881D01*
X86467283Y-87015874D01*
X86483209Y-87002409D01*
X86488108Y-86997510D01*
X86549774Y-86956307D01*
X86568595Y-86943730D01*
X86571568Y-86941681D01*
X86650407Y-86885591D01*
X86656717Y-86882758D01*
X86674956Y-86872662D01*
X86680713Y-86868815D01*
X86680716Y-86868814D01*
X86680717Y-86868813D01*
X86770191Y-86831752D01*
X86773449Y-86830346D01*
X86861735Y-86790706D01*
X86868487Y-86789156D01*
X86888324Y-86782819D01*
X86894735Y-86780164D01*
X86989661Y-86761282D01*
X86993208Y-86760522D01*
X87087513Y-86738872D01*
X87089892Y-86738802D01*
X87094427Y-86738669D01*
X87115143Y-86736322D01*
X87121936Y-86734971D01*
X87218721Y-86734971D01*
X87222346Y-86734918D01*
X87319064Y-86732081D01*
X87325889Y-86733232D01*
X87325889Y-86733232D01*
G37*
G36*
X200025930Y-86095112D02*
G01*
X200192215Y-86128187D01*
X200374841Y-86203833D01*
X200539199Y-86313654D01*
X200678975Y-86453430D01*
X200788796Y-86617788D01*
X200864442Y-86800414D01*
X200892536Y-86941656D01*
X200902881Y-86993662D01*
X200903005Y-86994288D01*
X200903005Y-87191960D01*
X200864442Y-87385834D01*
X200788796Y-87568460D01*
X200678975Y-87732818D01*
X200539199Y-87872594D01*
X200374841Y-87982415D01*
X200192215Y-88058061D01*
X200025930Y-88091136D01*
X199998342Y-88096624D01*
X199800668Y-88096624D01*
X199773080Y-88091136D01*
X199606795Y-88058061D01*
X199424169Y-87982415D01*
X199259811Y-87872594D01*
X199120035Y-87732818D01*
X199010214Y-87568460D01*
X198934568Y-87385834D01*
X198896005Y-87191960D01*
X198896005Y-86994288D01*
X198896130Y-86993662D01*
X198906474Y-86941656D01*
X198934568Y-86800414D01*
X199010214Y-86617788D01*
X199120035Y-86453430D01*
X199259811Y-86313654D01*
X199424169Y-86203833D01*
X199606795Y-86128187D01*
X199773080Y-86095112D01*
X199800668Y-86089624D01*
X199998342Y-86089624D01*
X200025930Y-86095112D01*
X200025930Y-86095112D01*
G37*
G36*
X203443005Y-88096624D02*
G01*
X201436005Y-88096624D01*
X201436005Y-86089624D01*
X203443005Y-86089624D01*
X203443005Y-88096624D01*
X203443005Y-88096624D01*
G37*
G36*
X182714965Y-83018965D02*
G01*
X182932965Y-83109264D01*
X183087114Y-83173114D01*
X183422039Y-83396904D01*
X183706868Y-83681733D01*
X183930658Y-84016658D01*
X183963053Y-84094867D01*
X184084807Y-84388807D01*
X184163391Y-84783875D01*
X184163391Y-85186687D01*
X184084807Y-85581755D01*
X184033942Y-85704553D01*
X183930658Y-85953904D01*
X183706868Y-86288829D01*
X183422039Y-86573658D01*
X183087114Y-86797448D01*
X182932965Y-86861298D01*
X182714965Y-86951597D01*
X182319897Y-87030181D01*
X181917085Y-87030181D01*
X181522017Y-86951597D01*
X181304017Y-86861298D01*
X181149868Y-86797448D01*
X180814943Y-86573658D01*
X180530114Y-86288829D01*
X180306324Y-85953904D01*
X180203040Y-85704553D01*
X180152175Y-85581755D01*
X180073591Y-85186687D01*
X180073591Y-84783875D01*
X180152175Y-84388807D01*
X180273929Y-84094867D01*
X180306324Y-84016658D01*
X180530114Y-83681733D01*
X180814943Y-83396904D01*
X181149868Y-83173114D01*
X181304017Y-83109264D01*
X181522017Y-83018965D01*
X181917085Y-82940381D01*
X182319897Y-82940381D01*
X182714965Y-83018965D01*
X182714965Y-83018965D01*
G37*
G36*
X177308595Y-84094866D02*
G01*
X177477117Y-84164670D01*
X177628782Y-84266009D01*
X177757763Y-84394990D01*
X177859102Y-84546655D01*
X177928906Y-84715177D01*
X177964491Y-84894078D01*
X177964491Y-85076484D01*
X177928906Y-85255385D01*
X177859102Y-85423907D01*
X177757763Y-85575572D01*
X177628782Y-85704553D01*
X177477117Y-85805892D01*
X177308595Y-85875696D01*
X177129694Y-85911281D01*
X176947288Y-85911281D01*
X176768387Y-85875696D01*
X176599865Y-85805892D01*
X176448200Y-85704553D01*
X176319219Y-85575572D01*
X176217880Y-85423907D01*
X176148076Y-85255385D01*
X176112491Y-85076484D01*
X176112491Y-84894078D01*
X176148076Y-84715177D01*
X176217880Y-84546655D01*
X176319219Y-84394990D01*
X176448200Y-84266009D01*
X176599865Y-84164670D01*
X176768387Y-84094866D01*
X176947288Y-84059281D01*
X177129694Y-84059281D01*
X177308595Y-84094866D01*
X177308595Y-84094866D01*
G37*
G36*
X187468595Y-84094866D02*
G01*
X187637117Y-84164670D01*
X187788782Y-84266009D01*
X187917763Y-84394990D01*
X188019102Y-84546655D01*
X188088906Y-84715177D01*
X188124491Y-84894078D01*
X188124491Y-85076484D01*
X188088906Y-85255385D01*
X188019102Y-85423907D01*
X187917763Y-85575572D01*
X187788782Y-85704553D01*
X187637117Y-85805892D01*
X187468595Y-85875696D01*
X187289694Y-85911281D01*
X187107288Y-85911281D01*
X186928387Y-85875696D01*
X186759865Y-85805892D01*
X186608200Y-85704553D01*
X186479219Y-85575572D01*
X186377880Y-85423907D01*
X186308076Y-85255385D01*
X186272491Y-85076484D01*
X186272491Y-84894078D01*
X186308076Y-84715177D01*
X186377880Y-84546655D01*
X186479219Y-84394990D01*
X186608200Y-84266009D01*
X186759865Y-84164670D01*
X186928387Y-84094866D01*
X187107288Y-84059281D01*
X187289694Y-84059281D01*
X187468595Y-84094866D01*
X187468595Y-84094866D01*
G37*
G36*
X201765979Y-80046808D02*
G01*
X201908258Y-80105742D01*
X202138128Y-80200957D01*
X202473053Y-80424747D01*
X202757882Y-80709576D01*
X202981672Y-81044501D01*
X203014067Y-81122710D01*
X203135821Y-81416650D01*
X203214405Y-81811718D01*
X203214405Y-82214530D01*
X203135821Y-82609598D01*
X203084956Y-82732396D01*
X202981672Y-82981747D01*
X202757882Y-83316672D01*
X202473053Y-83601501D01*
X202138128Y-83825291D01*
X201983979Y-83889141D01*
X201765979Y-83979440D01*
X201370911Y-84058024D01*
X200968099Y-84058024D01*
X200573031Y-83979440D01*
X200355031Y-83889141D01*
X200200882Y-83825291D01*
X199865957Y-83601501D01*
X199581128Y-83316672D01*
X199357338Y-82981747D01*
X199254054Y-82732396D01*
X199203189Y-82609598D01*
X199124605Y-82214530D01*
X199124605Y-81811718D01*
X199203189Y-81416650D01*
X199324943Y-81122710D01*
X199357338Y-81044501D01*
X199581128Y-80709576D01*
X199865957Y-80424747D01*
X200200882Y-80200957D01*
X200430752Y-80105742D01*
X200573031Y-80046808D01*
X200968099Y-79968224D01*
X201370911Y-79968224D01*
X201765979Y-80046808D01*
X201765979Y-80046808D01*
G37*
G36*
X179641696Y-79809162D02*
G01*
X179647136Y-79809281D01*
X179734319Y-79809281D01*
X179750588Y-79812517D01*
X179769447Y-79814796D01*
X179786023Y-79815527D01*
X179870714Y-79836291D01*
X179876009Y-79837465D01*
X179961518Y-79854474D01*
X179976853Y-79860826D01*
X179994892Y-79866736D01*
X180011012Y-79870688D01*
X180089995Y-79907561D01*
X180094985Y-79909758D01*
X180175536Y-79943123D01*
X180189332Y-79952341D01*
X180205884Y-79961663D01*
X180220917Y-79968681D01*
X180291185Y-80020252D01*
X180295681Y-80023402D01*
X180336784Y-80050866D01*
X180368147Y-80071822D01*
X180379874Y-80083549D01*
X180394300Y-80095929D01*
X180407670Y-80105742D01*
X180407671Y-80105743D01*
X180466512Y-80170014D01*
X180470320Y-80173995D01*
X180531950Y-80235625D01*
X180541165Y-80249416D01*
X180552887Y-80264359D01*
X180564096Y-80276602D01*
X180609290Y-80351155D01*
X180612237Y-80355782D01*
X180660649Y-80428236D01*
X180666996Y-80443558D01*
X180675583Y-80460512D01*
X180684182Y-80474698D01*
X180713969Y-80556649D01*
X180715943Y-80561729D01*
X180749298Y-80642254D01*
X180749298Y-80642255D01*
X180752532Y-80658514D01*
X180757649Y-80676823D01*
X180763316Y-80692415D01*
X180776546Y-80778626D01*
X180777492Y-80783994D01*
X180794491Y-80869454D01*
X180794491Y-80886033D01*
X180795935Y-80904973D01*
X180798454Y-80921385D01*
X180794611Y-81008530D01*
X180794491Y-81013970D01*
X180794491Y-81101106D01*
X180791257Y-81117364D01*
X180788979Y-81136222D01*
X180788247Y-81152812D01*
X180767479Y-81237518D01*
X180766303Y-81242818D01*
X180749298Y-81328308D01*
X180742948Y-81343638D01*
X180737040Y-81361674D01*
X180733086Y-81377801D01*
X180696202Y-81456807D01*
X180694002Y-81461804D01*
X180660649Y-81542326D01*
X180651435Y-81556116D01*
X180642113Y-81572668D01*
X180635093Y-81587705D01*
X180583502Y-81658001D01*
X180580357Y-81662491D01*
X180531952Y-81734935D01*
X180474951Y-81791936D01*
X180470302Y-81796844D01*
X180095529Y-82214529D01*
X179145214Y-83273657D01*
X179017170Y-83390883D01*
X178918122Y-83450926D01*
X178819074Y-83510970D01*
X178601357Y-83590104D01*
X178372386Y-83625242D01*
X178140961Y-83615035D01*
X177915972Y-83559874D01*
X177811218Y-83510970D01*
X177706070Y-83461883D01*
X177609329Y-83390883D01*
X177519314Y-83324820D01*
X177444885Y-83243522D01*
X177362889Y-83153960D01*
X177281055Y-83018966D01*
X177242802Y-82955864D01*
X177163668Y-82738147D01*
X177128530Y-82509176D01*
X177138737Y-82277751D01*
X177193898Y-82052762D01*
X177254981Y-81921921D01*
X177291889Y-81842861D01*
X177291891Y-81842858D01*
X177394605Y-81702903D01*
X178149736Y-80861308D01*
X178681278Y-80268902D01*
X178692172Y-80254870D01*
X178705030Y-80235627D01*
X178762064Y-80178593D01*
X178766714Y-80173684D01*
X178781769Y-80156905D01*
X178803192Y-80137292D01*
X178807173Y-80133484D01*
X178868837Y-80071820D01*
X178882634Y-80062601D01*
X178897593Y-80050866D01*
X178909812Y-80039679D01*
X178943867Y-80019035D01*
X178984321Y-79994512D01*
X178988912Y-79991589D01*
X179061446Y-79943123D01*
X179076791Y-79936767D01*
X179093739Y-79928182D01*
X179107907Y-79919593D01*
X179107908Y-79919593D01*
X179107909Y-79919592D01*
X179189803Y-79889826D01*
X179194901Y-79887844D01*
X179275464Y-79854474D01*
X179291743Y-79851236D01*
X179310033Y-79846125D01*
X179325626Y-79840458D01*
X179411791Y-79827235D01*
X179417154Y-79826290D01*
X179502664Y-79809281D01*
X179519257Y-79809281D01*
X179538200Y-79807836D01*
X179554597Y-79805320D01*
X179641696Y-79809162D01*
X179641696Y-79809162D01*
G37*
G36*
X206519609Y-81122709D02*
G01*
X206688131Y-81192513D01*
X206839796Y-81293852D01*
X206968777Y-81422833D01*
X207070116Y-81574498D01*
X207139920Y-81743020D01*
X207175505Y-81921921D01*
X207175505Y-82104327D01*
X207139920Y-82283228D01*
X207070116Y-82451750D01*
X206968777Y-82603415D01*
X206839796Y-82732396D01*
X206688131Y-82833735D01*
X206519609Y-82903539D01*
X206340708Y-82939124D01*
X206158302Y-82939124D01*
X205979401Y-82903539D01*
X205810879Y-82833735D01*
X205659214Y-82732396D01*
X205530233Y-82603415D01*
X205428894Y-82451750D01*
X205359090Y-82283228D01*
X205323505Y-82104327D01*
X205323505Y-81921921D01*
X205359090Y-81743020D01*
X205428894Y-81574498D01*
X205530233Y-81422833D01*
X205659214Y-81293852D01*
X205810879Y-81192513D01*
X205979401Y-81122709D01*
X206158302Y-81087124D01*
X206340708Y-81087124D01*
X206519609Y-81122709D01*
X206519609Y-81122709D01*
G37*
G36*
X196359609Y-81122709D02*
G01*
X196528131Y-81192513D01*
X196679796Y-81293852D01*
X196808777Y-81422833D01*
X196910116Y-81574498D01*
X196979920Y-81743020D01*
X197015505Y-81921921D01*
X197015505Y-82104327D01*
X196979920Y-82283228D01*
X196910116Y-82451750D01*
X196808777Y-82603415D01*
X196679796Y-82732396D01*
X196528131Y-82833735D01*
X196359609Y-82903539D01*
X196180708Y-82939124D01*
X195998302Y-82939124D01*
X195819401Y-82903539D01*
X195650879Y-82833735D01*
X195499214Y-82732396D01*
X195370233Y-82603415D01*
X195268894Y-82451750D01*
X195199090Y-82283228D01*
X195163505Y-82104327D01*
X195163505Y-81921921D01*
X195199090Y-81743020D01*
X195268894Y-81574498D01*
X195370233Y-81422833D01*
X195499214Y-81293852D01*
X195650879Y-81192513D01*
X195819401Y-81122709D01*
X195998302Y-81087124D01*
X196180708Y-81087124D01*
X196359609Y-81122709D01*
X196359609Y-81122709D01*
G37*
G36*
X184746618Y-78727542D02*
G01*
X184767391Y-78729281D01*
X184774318Y-78729281D01*
X184869245Y-78748163D01*
X184872839Y-78748823D01*
X184968221Y-78764905D01*
X184974694Y-78767366D01*
X184994719Y-78773122D01*
X185001518Y-78774474D01*
X185063905Y-78800315D01*
X185090934Y-78811511D01*
X185094335Y-78812862D01*
X185184746Y-78847242D01*
X185190618Y-78850921D01*
X185209127Y-78860468D01*
X185215536Y-78863123D01*
X185296054Y-78916923D01*
X185299045Y-78918859D01*
X185381048Y-78970240D01*
X185386075Y-78974981D01*
X185402387Y-78987972D01*
X185408143Y-78991818D01*
X185476601Y-79060276D01*
X185479180Y-79062780D01*
X185549581Y-79129170D01*
X185553586Y-79134800D01*
X185567050Y-79150725D01*
X185571950Y-79155625D01*
X185625735Y-79236120D01*
X185627782Y-79239088D01*
X185683871Y-79317926D01*
X185686705Y-79324239D01*
X185696799Y-79342474D01*
X185700649Y-79348236D01*
X185737711Y-79437711D01*
X185739115Y-79440966D01*
X185778756Y-79529254D01*
X185780306Y-79536006D01*
X185786643Y-79555843D01*
X185789298Y-79562254D01*
X185808183Y-79657198D01*
X185808929Y-79660682D01*
X185830589Y-79755032D01*
X185830589Y-79755035D01*
X185830791Y-79761935D01*
X185833138Y-79782651D01*
X185834491Y-79789455D01*
X185834491Y-79886267D01*
X185834544Y-79889865D01*
X185835679Y-79928558D01*
X185834786Y-79941506D01*
X185834491Y-79950078D01*
X185834491Y-80021107D01*
X185828572Y-80050866D01*
X185828095Y-80053260D01*
X185825991Y-80069031D01*
X185787729Y-80623826D01*
X185758867Y-80795011D01*
X185676529Y-81011536D01*
X185553532Y-81207838D01*
X185394602Y-81376371D01*
X185205846Y-81510661D01*
X184994518Y-81605546D01*
X184768740Y-81657379D01*
X184537189Y-81664170D01*
X184537188Y-81664170D01*
X184491503Y-81656467D01*
X184308761Y-81625657D01*
X184092236Y-81543319D01*
X183895934Y-81420322D01*
X183727401Y-81261392D01*
X183593111Y-81072636D01*
X183498226Y-80861308D01*
X183446393Y-80635530D01*
X183441303Y-80462004D01*
X183482195Y-79869075D01*
X183482491Y-79860477D01*
X183482491Y-79789456D01*
X183487010Y-79766736D01*
X183501379Y-79694500D01*
X183502035Y-79690926D01*
X183507722Y-79657198D01*
X183518115Y-79595551D01*
X183520576Y-79589080D01*
X183526333Y-79569048D01*
X183527684Y-79562255D01*
X183530334Y-79555857D01*
X183564755Y-79472757D01*
X183566044Y-79469511D01*
X183600453Y-79379026D01*
X183604127Y-79373162D01*
X183613678Y-79354646D01*
X183616333Y-79348236D01*
X183670148Y-79267696D01*
X183672068Y-79264730D01*
X183723450Y-79182724D01*
X183728202Y-79177685D01*
X183741180Y-79161388D01*
X183745028Y-79155629D01*
X183813484Y-79087173D01*
X183816037Y-79084543D01*
X183819751Y-79080605D01*
X183882380Y-79014191D01*
X183888012Y-79010184D01*
X183903938Y-78996719D01*
X183908837Y-78991820D01*
X183989315Y-78938047D01*
X183992297Y-78935991D01*
X184071136Y-78879901D01*
X184077446Y-78877068D01*
X184095685Y-78866972D01*
X184101442Y-78863125D01*
X184101445Y-78863124D01*
X184101446Y-78863123D01*
X184190920Y-78826062D01*
X184194178Y-78824656D01*
X184282464Y-78785016D01*
X184289216Y-78783466D01*
X184309053Y-78777129D01*
X184315464Y-78774474D01*
X184410390Y-78755592D01*
X184413937Y-78754832D01*
X184508242Y-78733182D01*
X184510621Y-78733112D01*
X184515156Y-78732979D01*
X184535872Y-78730632D01*
X184542665Y-78729281D01*
X184639450Y-78729281D01*
X184643075Y-78729228D01*
X184739793Y-78726391D01*
X184746618Y-78727542D01*
X184746618Y-78727542D01*
G37*
G36*
X198692710Y-76837005D02*
G01*
X198698150Y-76837124D01*
X198785333Y-76837124D01*
X198801602Y-76840360D01*
X198820461Y-76842639D01*
X198837037Y-76843370D01*
X198921728Y-76864134D01*
X198927023Y-76865308D01*
X199012532Y-76882317D01*
X199027867Y-76888669D01*
X199045906Y-76894579D01*
X199062026Y-76898531D01*
X199141009Y-76935404D01*
X199145999Y-76937601D01*
X199226550Y-76970966D01*
X199240346Y-76980184D01*
X199256898Y-76989506D01*
X199271931Y-76996524D01*
X199342199Y-77048095D01*
X199346697Y-77051246D01*
X199419161Y-77099665D01*
X199430888Y-77111392D01*
X199445314Y-77123772D01*
X199458684Y-77133585D01*
X199458685Y-77133586D01*
X199517526Y-77197857D01*
X199521334Y-77201838D01*
X199582964Y-77263468D01*
X199592179Y-77277259D01*
X199603901Y-77292202D01*
X199615110Y-77304445D01*
X199660304Y-77378998D01*
X199663251Y-77383625D01*
X199711663Y-77456079D01*
X199718010Y-77471401D01*
X199726597Y-77488355D01*
X199735196Y-77502541D01*
X199764983Y-77584492D01*
X199766957Y-77589572D01*
X199800312Y-77670097D01*
X199800312Y-77670098D01*
X199803546Y-77686357D01*
X199808663Y-77704666D01*
X199814330Y-77720258D01*
X199827560Y-77806469D01*
X199828506Y-77811837D01*
X199845505Y-77897297D01*
X199845505Y-77913876D01*
X199846949Y-77932816D01*
X199849468Y-77949228D01*
X199845625Y-78036373D01*
X199845505Y-78041813D01*
X199845505Y-78128949D01*
X199842271Y-78145207D01*
X199839993Y-78164065D01*
X199839261Y-78180655D01*
X199818493Y-78265361D01*
X199817317Y-78270661D01*
X199800312Y-78356151D01*
X199793962Y-78371481D01*
X199788054Y-78389517D01*
X199784100Y-78405644D01*
X199747216Y-78484650D01*
X199745016Y-78489647D01*
X199711663Y-78570169D01*
X199702449Y-78583959D01*
X199693127Y-78600511D01*
X199686107Y-78615548D01*
X199634516Y-78685844D01*
X199631371Y-78690334D01*
X199582966Y-78762778D01*
X199525965Y-78819779D01*
X199521316Y-78824687D01*
X199045811Y-79354638D01*
X198196228Y-80301500D01*
X198068184Y-80418726D01*
X197975852Y-80474698D01*
X197870088Y-80538813D01*
X197652371Y-80617947D01*
X197423400Y-80653085D01*
X197191975Y-80642878D01*
X196966986Y-80587717D01*
X196862232Y-80538813D01*
X196757084Y-80489726D01*
X196701815Y-80449163D01*
X196570328Y-80352663D01*
X196493644Y-80268902D01*
X196413903Y-80181803D01*
X196335980Y-80053260D01*
X196293816Y-79983707D01*
X196214682Y-79765990D01*
X196179544Y-79537019D01*
X196189751Y-79305594D01*
X196244912Y-79080605D01*
X196312436Y-78935966D01*
X196342903Y-78870704D01*
X196354187Y-78855329D01*
X196445619Y-78730746D01*
X197200750Y-77889151D01*
X197732292Y-77296745D01*
X197743186Y-77282713D01*
X197756044Y-77263470D01*
X197813078Y-77206436D01*
X197817728Y-77201527D01*
X197832783Y-77184748D01*
X197854206Y-77165135D01*
X197858187Y-77161327D01*
X197919851Y-77099663D01*
X197933648Y-77090444D01*
X197948607Y-77078709D01*
X197960826Y-77067522D01*
X197992890Y-77048085D01*
X198035335Y-77022355D01*
X198039926Y-77019432D01*
X198112460Y-76970966D01*
X198127805Y-76964610D01*
X198144753Y-76956025D01*
X198158921Y-76947436D01*
X198158922Y-76947436D01*
X198158923Y-76947435D01*
X198240817Y-76917669D01*
X198245915Y-76915687D01*
X198326478Y-76882317D01*
X198342757Y-76879079D01*
X198361047Y-76873968D01*
X198376640Y-76868301D01*
X198462805Y-76855078D01*
X198468168Y-76854133D01*
X198553678Y-76837124D01*
X198570271Y-76837124D01*
X198589214Y-76835679D01*
X198605611Y-76833163D01*
X198692710Y-76837005D01*
X198692710Y-76837005D01*
G37*
G36*
X77428202Y-80019035D02*
G01*
X75421202Y-80019035D01*
X75421202Y-78012035D01*
X77428202Y-78012035D01*
X77428202Y-80019035D01*
X77428202Y-80019035D01*
G37*
G36*
X74011127Y-78017523D02*
G01*
X74177412Y-78050598D01*
X74360038Y-78126244D01*
X74524396Y-78236065D01*
X74664172Y-78375841D01*
X74773993Y-78540199D01*
X74849639Y-78722825D01*
X74888202Y-78916699D01*
X74888202Y-79114371D01*
X74849639Y-79308245D01*
X74773993Y-79490871D01*
X74664172Y-79655229D01*
X74524396Y-79795005D01*
X74360038Y-79904826D01*
X74177412Y-79980472D01*
X74011127Y-80013547D01*
X73983539Y-80019035D01*
X73785865Y-80019035D01*
X73758277Y-80013547D01*
X73591992Y-79980472D01*
X73409366Y-79904826D01*
X73245008Y-79795005D01*
X73105232Y-79655229D01*
X72995411Y-79490871D01*
X72919765Y-79308245D01*
X72881202Y-79114371D01*
X72881202Y-78916699D01*
X72919765Y-78722825D01*
X72995411Y-78540199D01*
X73105232Y-78375841D01*
X73245008Y-78236065D01*
X73409366Y-78126244D01*
X73591992Y-78050598D01*
X73758277Y-78017523D01*
X73785865Y-78012035D01*
X73983539Y-78012035D01*
X74011127Y-78017523D01*
X74011127Y-78017523D01*
G37*
G36*
X96514323Y-79957665D02*
G01*
X94507323Y-79957665D01*
X94507323Y-77950665D01*
X96514323Y-77950665D01*
X96514323Y-79957665D01*
X96514323Y-79957665D01*
G37*
G36*
X93097248Y-77956153D02*
G01*
X93263533Y-77989228D01*
X93446159Y-78064874D01*
X93610517Y-78174695D01*
X93750293Y-78314471D01*
X93860114Y-78478829D01*
X93935760Y-78661455D01*
X93965607Y-78811511D01*
X93972715Y-78847242D01*
X93974323Y-78855329D01*
X93974323Y-79053001D01*
X93935760Y-79246875D01*
X93860114Y-79429501D01*
X93750293Y-79593859D01*
X93610517Y-79733635D01*
X93446159Y-79843456D01*
X93263533Y-79919102D01*
X93107802Y-79950078D01*
X93069660Y-79957665D01*
X92871986Y-79957665D01*
X92833844Y-79950078D01*
X92678113Y-79919102D01*
X92495487Y-79843456D01*
X92331129Y-79733635D01*
X92191353Y-79593859D01*
X92081532Y-79429501D01*
X92005886Y-79246875D01*
X91967323Y-79053001D01*
X91967323Y-78855329D01*
X91968932Y-78847242D01*
X91976039Y-78811511D01*
X92005886Y-78661455D01*
X92081532Y-78478829D01*
X92191353Y-78314471D01*
X92331129Y-78174695D01*
X92495487Y-78064874D01*
X92678113Y-77989228D01*
X92844398Y-77956153D01*
X92871986Y-77950665D01*
X93069660Y-77950665D01*
X93097248Y-77956153D01*
X93097248Y-77956153D01*
G37*
G36*
X203797632Y-75755385D02*
G01*
X203818405Y-75757124D01*
X203825332Y-75757124D01*
X203920259Y-75776006D01*
X203923853Y-75776666D01*
X204019235Y-75792748D01*
X204025708Y-75795209D01*
X204045733Y-75800965D01*
X204052532Y-75802317D01*
X204114919Y-75828158D01*
X204141948Y-75839354D01*
X204145349Y-75840705D01*
X204235760Y-75875085D01*
X204241632Y-75878764D01*
X204260141Y-75888311D01*
X204266550Y-75890966D01*
X204347068Y-75944766D01*
X204350059Y-75946702D01*
X204432062Y-75998083D01*
X204437089Y-76002824D01*
X204453401Y-76015815D01*
X204459157Y-76019661D01*
X204527615Y-76088119D01*
X204530194Y-76090623D01*
X204600595Y-76157013D01*
X204604600Y-76162643D01*
X204618064Y-76178568D01*
X204622964Y-76183468D01*
X204676749Y-76263963D01*
X204678796Y-76266931D01*
X204734885Y-76345769D01*
X204737719Y-76352082D01*
X204747813Y-76370317D01*
X204751663Y-76376079D01*
X204788725Y-76465554D01*
X204790129Y-76468809D01*
X204829770Y-76557097D01*
X204831320Y-76563849D01*
X204837657Y-76583686D01*
X204840312Y-76590097D01*
X204859197Y-76685041D01*
X204859943Y-76688525D01*
X204881603Y-76782875D01*
X204881603Y-76782878D01*
X204881805Y-76789778D01*
X204884152Y-76810494D01*
X204885505Y-76817298D01*
X204885505Y-76914110D01*
X204885558Y-76917708D01*
X204886693Y-76956401D01*
X204885800Y-76969349D01*
X204885505Y-76977921D01*
X204885505Y-77048950D01*
X204879586Y-77078709D01*
X204879109Y-77081103D01*
X204877005Y-77096874D01*
X204838743Y-77651669D01*
X204809881Y-77822854D01*
X204727543Y-78039379D01*
X204604546Y-78235681D01*
X204445616Y-78404214D01*
X204256860Y-78538504D01*
X204045532Y-78633389D01*
X203819754Y-78685222D01*
X203588203Y-78692013D01*
X203588202Y-78692013D01*
X203542517Y-78684310D01*
X203359775Y-78653500D01*
X203143250Y-78571162D01*
X202946948Y-78448165D01*
X202778415Y-78289235D01*
X202644125Y-78100479D01*
X202549240Y-77889151D01*
X202497407Y-77663373D01*
X202492317Y-77489847D01*
X202533209Y-76896918D01*
X202533505Y-76888320D01*
X202533505Y-76817299D01*
X202552387Y-76722374D01*
X202553049Y-76718769D01*
X202558736Y-76685041D01*
X202569129Y-76623394D01*
X202571590Y-76616923D01*
X202577347Y-76596891D01*
X202578698Y-76590098D01*
X202581348Y-76583700D01*
X202615769Y-76500600D01*
X202617058Y-76497354D01*
X202651467Y-76406869D01*
X202655141Y-76401005D01*
X202664692Y-76382489D01*
X202667347Y-76376079D01*
X202721162Y-76295539D01*
X202723082Y-76292573D01*
X202774464Y-76210567D01*
X202779216Y-76205528D01*
X202792194Y-76189231D01*
X202796042Y-76183472D01*
X202864498Y-76115016D01*
X202867051Y-76112386D01*
X202887528Y-76090672D01*
X202933394Y-76042034D01*
X202939026Y-76038027D01*
X202954952Y-76024562D01*
X202959851Y-76019663D01*
X203040329Y-75965890D01*
X203043311Y-75963834D01*
X203122150Y-75907744D01*
X203128460Y-75904911D01*
X203146699Y-75894815D01*
X203152456Y-75890968D01*
X203152459Y-75890967D01*
X203152460Y-75890966D01*
X203241934Y-75853905D01*
X203245192Y-75852499D01*
X203333478Y-75812859D01*
X203340230Y-75811309D01*
X203360067Y-75804972D01*
X203366478Y-75802317D01*
X203461404Y-75783435D01*
X203464951Y-75782675D01*
X203559256Y-75761025D01*
X203561635Y-75760955D01*
X203566170Y-75760822D01*
X203586886Y-75758475D01*
X203593679Y-75757124D01*
X203690464Y-75757124D01*
X203694089Y-75757071D01*
X203790807Y-75754234D01*
X203797632Y-75755385D01*
X203797632Y-75755385D01*
G37*
G36*
X75751176Y-71969219D02*
G01*
X75890063Y-72026748D01*
X76123325Y-72123368D01*
X76458250Y-72347158D01*
X76743079Y-72631987D01*
X76966869Y-72966912D01*
X76999264Y-73045121D01*
X77121018Y-73339061D01*
X77199602Y-73734129D01*
X77199602Y-74136941D01*
X77121018Y-74532009D01*
X77030719Y-74750009D01*
X76966869Y-74904158D01*
X76743079Y-75239083D01*
X76458250Y-75523912D01*
X76123325Y-75747702D01*
X75994734Y-75800966D01*
X75751176Y-75901851D01*
X75356108Y-75980435D01*
X74953296Y-75980435D01*
X74558228Y-75901851D01*
X74314670Y-75800966D01*
X74186079Y-75747702D01*
X73851154Y-75523912D01*
X73566325Y-75239083D01*
X73342535Y-74904158D01*
X73278685Y-74750009D01*
X73188386Y-74532009D01*
X73109802Y-74136941D01*
X73109802Y-73734129D01*
X73188386Y-73339061D01*
X73310140Y-73045121D01*
X73342535Y-72966912D01*
X73566325Y-72631987D01*
X73851154Y-72347158D01*
X74186079Y-72123368D01*
X74419341Y-72026748D01*
X74558228Y-71969219D01*
X74953296Y-71890635D01*
X75356108Y-71890635D01*
X75751176Y-71969219D01*
X75751176Y-71969219D01*
G37*
G36*
X94837297Y-71907849D02*
G01*
X94985457Y-71969219D01*
X95209446Y-72061998D01*
X95544371Y-72285788D01*
X95829200Y-72570617D01*
X96052990Y-72905542D01*
X96085385Y-72983751D01*
X96207139Y-73277691D01*
X96285723Y-73672759D01*
X96285723Y-74075571D01*
X96207139Y-74470639D01*
X96156274Y-74593437D01*
X96052990Y-74842788D01*
X95829200Y-75177713D01*
X95544371Y-75462542D01*
X95209446Y-75686332D01*
X95061285Y-75747702D01*
X94837297Y-75840481D01*
X94442229Y-75919065D01*
X94039417Y-75919065D01*
X93644349Y-75840481D01*
X93420361Y-75747702D01*
X93272200Y-75686332D01*
X92937275Y-75462542D01*
X92652446Y-75177713D01*
X92428656Y-74842788D01*
X92325372Y-74593437D01*
X92274507Y-74470639D01*
X92195923Y-74075571D01*
X92195923Y-73672759D01*
X92274507Y-73277691D01*
X92396261Y-72983751D01*
X92428656Y-72905542D01*
X92652446Y-72570617D01*
X92937275Y-72285788D01*
X93272200Y-72061998D01*
X93496189Y-71969219D01*
X93644349Y-71907849D01*
X94039417Y-71829265D01*
X94442229Y-71829265D01*
X94837297Y-71907849D01*
X94837297Y-71907849D01*
G37*
G36*
X70344806Y-73045120D02*
G01*
X70513328Y-73114924D01*
X70664993Y-73216263D01*
X70793974Y-73345244D01*
X70895313Y-73496909D01*
X70965117Y-73665431D01*
X71000702Y-73844332D01*
X71000702Y-74026738D01*
X70965117Y-74205639D01*
X70895313Y-74374161D01*
X70793974Y-74525826D01*
X70664993Y-74654807D01*
X70513328Y-74756146D01*
X70344806Y-74825950D01*
X70165905Y-74861535D01*
X69983499Y-74861535D01*
X69804598Y-74825950D01*
X69636076Y-74756146D01*
X69484411Y-74654807D01*
X69355430Y-74525826D01*
X69254091Y-74374161D01*
X69184287Y-74205639D01*
X69148702Y-74026738D01*
X69148702Y-73844332D01*
X69184287Y-73665431D01*
X69254091Y-73496909D01*
X69355430Y-73345244D01*
X69484411Y-73216263D01*
X69636076Y-73114924D01*
X69804598Y-73045120D01*
X69983499Y-73009535D01*
X70165905Y-73009535D01*
X70344806Y-73045120D01*
X70344806Y-73045120D01*
G37*
G36*
X80504806Y-73045120D02*
G01*
X80673328Y-73114924D01*
X80824993Y-73216263D01*
X80953974Y-73345244D01*
X81055313Y-73496909D01*
X81125117Y-73665431D01*
X81160702Y-73844332D01*
X81160702Y-74026738D01*
X81125117Y-74205639D01*
X81055313Y-74374161D01*
X80953974Y-74525826D01*
X80824993Y-74654807D01*
X80673328Y-74756146D01*
X80504806Y-74825950D01*
X80325905Y-74861535D01*
X80143499Y-74861535D01*
X79964598Y-74825950D01*
X79796076Y-74756146D01*
X79644411Y-74654807D01*
X79515430Y-74525826D01*
X79414091Y-74374161D01*
X79344287Y-74205639D01*
X79308702Y-74026738D01*
X79308702Y-73844332D01*
X79344287Y-73665431D01*
X79414091Y-73496909D01*
X79515430Y-73345244D01*
X79644411Y-73216263D01*
X79796076Y-73114924D01*
X79964598Y-73045120D01*
X80143499Y-73009535D01*
X80325905Y-73009535D01*
X80504806Y-73045120D01*
X80504806Y-73045120D01*
G37*
G36*
X89430927Y-72983750D02*
G01*
X89599449Y-73053554D01*
X89751114Y-73154893D01*
X89880095Y-73283874D01*
X89981434Y-73435539D01*
X90051238Y-73604061D01*
X90086823Y-73782962D01*
X90086823Y-73965368D01*
X90051238Y-74144269D01*
X89981434Y-74312791D01*
X89880095Y-74464456D01*
X89751114Y-74593437D01*
X89599449Y-74694776D01*
X89430927Y-74764580D01*
X89252026Y-74800165D01*
X89069620Y-74800165D01*
X88890719Y-74764580D01*
X88722197Y-74694776D01*
X88570532Y-74593437D01*
X88441551Y-74464456D01*
X88340212Y-74312791D01*
X88270408Y-74144269D01*
X88234823Y-73965368D01*
X88234823Y-73782962D01*
X88270408Y-73604061D01*
X88340212Y-73435539D01*
X88441551Y-73283874D01*
X88570532Y-73154893D01*
X88722197Y-73053554D01*
X88890719Y-72983750D01*
X89069620Y-72948165D01*
X89252026Y-72948165D01*
X89430927Y-72983750D01*
X89430927Y-72983750D01*
G37*
G36*
X99590927Y-72983750D02*
G01*
X99759449Y-73053554D01*
X99911114Y-73154893D01*
X100040095Y-73283874D01*
X100141434Y-73435539D01*
X100211238Y-73604061D01*
X100246823Y-73782962D01*
X100246823Y-73965368D01*
X100211238Y-74144269D01*
X100141434Y-74312791D01*
X100040095Y-74464456D01*
X99911114Y-74593437D01*
X99759449Y-74694776D01*
X99590927Y-74764580D01*
X99412026Y-74800165D01*
X99229620Y-74800165D01*
X99050719Y-74764580D01*
X98882197Y-74694776D01*
X98730532Y-74593437D01*
X98601551Y-74464456D01*
X98500212Y-74312791D01*
X98430408Y-74144269D01*
X98394823Y-73965368D01*
X98394823Y-73782962D01*
X98430408Y-73604061D01*
X98500212Y-73435539D01*
X98601551Y-73283874D01*
X98730532Y-73154893D01*
X98882197Y-73053554D01*
X99050719Y-72983750D01*
X99229620Y-72948165D01*
X99412026Y-72948165D01*
X99590927Y-72983750D01*
X99590927Y-72983750D01*
G37*
G36*
X72677907Y-68759416D02*
G01*
X72683347Y-68759535D01*
X72770530Y-68759535D01*
X72786799Y-68762771D01*
X72805658Y-68765050D01*
X72822234Y-68765781D01*
X72906925Y-68786545D01*
X72912220Y-68787719D01*
X72997729Y-68804728D01*
X73013064Y-68811080D01*
X73031103Y-68816990D01*
X73047223Y-68820942D01*
X73126206Y-68857815D01*
X73131196Y-68860012D01*
X73211747Y-68893377D01*
X73225543Y-68902595D01*
X73242095Y-68911917D01*
X73257128Y-68918935D01*
X73327396Y-68970506D01*
X73331894Y-68973657D01*
X73404358Y-69022076D01*
X73416085Y-69033803D01*
X73430511Y-69046183D01*
X73443881Y-69055996D01*
X73443882Y-69055997D01*
X73502723Y-69120268D01*
X73506531Y-69124249D01*
X73568161Y-69185879D01*
X73577376Y-69199670D01*
X73589098Y-69214613D01*
X73600307Y-69226856D01*
X73645501Y-69301409D01*
X73648448Y-69306036D01*
X73696860Y-69378490D01*
X73703207Y-69393812D01*
X73711794Y-69410766D01*
X73720393Y-69424952D01*
X73750180Y-69506903D01*
X73752154Y-69511983D01*
X73785509Y-69592508D01*
X73785509Y-69592509D01*
X73788743Y-69608768D01*
X73793860Y-69627077D01*
X73799527Y-69642669D01*
X73812757Y-69728880D01*
X73813703Y-69734248D01*
X73830702Y-69819708D01*
X73830702Y-69836287D01*
X73832146Y-69855227D01*
X73834665Y-69871639D01*
X73830822Y-69958784D01*
X73830702Y-69964224D01*
X73830702Y-70051361D01*
X73829320Y-70058311D01*
X73827468Y-70067618D01*
X73825190Y-70086476D01*
X73824458Y-70103066D01*
X73803690Y-70187772D01*
X73802514Y-70193072D01*
X73785509Y-70278562D01*
X73779159Y-70293892D01*
X73773251Y-70311928D01*
X73769297Y-70328055D01*
X73732413Y-70407061D01*
X73730213Y-70412058D01*
X73696860Y-70492580D01*
X73687646Y-70506370D01*
X73678324Y-70522922D01*
X73671304Y-70537959D01*
X73619713Y-70608255D01*
X73616568Y-70612745D01*
X73568163Y-70685189D01*
X73511162Y-70742190D01*
X73506513Y-70747098D01*
X73104687Y-71194934D01*
X72181425Y-72223911D01*
X72053381Y-72341137D01*
X71956521Y-72399854D01*
X71855285Y-72461224D01*
X71637568Y-72540358D01*
X71408597Y-72575496D01*
X71177172Y-72565289D01*
X70952183Y-72510128D01*
X70847429Y-72461224D01*
X70742281Y-72412137D01*
X70687012Y-72371574D01*
X70555525Y-72275074D01*
X70422479Y-72129750D01*
X70399100Y-72104214D01*
X70317266Y-71969220D01*
X70279013Y-71906118D01*
X70199879Y-71688401D01*
X70164741Y-71459430D01*
X70174948Y-71228005D01*
X70230109Y-71003016D01*
X70289569Y-70875650D01*
X70328100Y-70793115D01*
X70332130Y-70787624D01*
X70430816Y-70653157D01*
X71218827Y-69774917D01*
X71717489Y-69219156D01*
X71728383Y-69205124D01*
X71741241Y-69185881D01*
X71798275Y-69128847D01*
X71802925Y-69123938D01*
X71817980Y-69107159D01*
X71839403Y-69087546D01*
X71843384Y-69083738D01*
X71905048Y-69022074D01*
X71918845Y-69012855D01*
X71933804Y-69001120D01*
X71946023Y-68989933D01*
X71978087Y-68970496D01*
X72020532Y-68944766D01*
X72025123Y-68941843D01*
X72097657Y-68893377D01*
X72113002Y-68887021D01*
X72129950Y-68878436D01*
X72144118Y-68869847D01*
X72144119Y-68869847D01*
X72144120Y-68869846D01*
X72226014Y-68840080D01*
X72231112Y-68838098D01*
X72311675Y-68804728D01*
X72327954Y-68801490D01*
X72346244Y-68796379D01*
X72361837Y-68790712D01*
X72448002Y-68777489D01*
X72453365Y-68776544D01*
X72538875Y-68759535D01*
X72555468Y-68759535D01*
X72574411Y-68758090D01*
X72590808Y-68755574D01*
X72677907Y-68759416D01*
X72677907Y-68759416D01*
G37*
G36*
X91764028Y-68698046D02*
G01*
X91769468Y-68698165D01*
X91856651Y-68698165D01*
X91872920Y-68701401D01*
X91891779Y-68703680D01*
X91908355Y-68704411D01*
X91993046Y-68725175D01*
X91998341Y-68726349D01*
X92083850Y-68743358D01*
X92099185Y-68749710D01*
X92117224Y-68755620D01*
X92133344Y-68759572D01*
X92212327Y-68796445D01*
X92217317Y-68798642D01*
X92297868Y-68832007D01*
X92311664Y-68841225D01*
X92328216Y-68850547D01*
X92343249Y-68857565D01*
X92413517Y-68909136D01*
X92418015Y-68912287D01*
X92490479Y-68960706D01*
X92502206Y-68972433D01*
X92516632Y-68984813D01*
X92530002Y-68994626D01*
X92586188Y-69055996D01*
X92588844Y-69058898D01*
X92592652Y-69062879D01*
X92654282Y-69124509D01*
X92663497Y-69138300D01*
X92675219Y-69153243D01*
X92686428Y-69165486D01*
X92731622Y-69240039D01*
X92734569Y-69244666D01*
X92782981Y-69317120D01*
X92789328Y-69332442D01*
X92797915Y-69349396D01*
X92806514Y-69363582D01*
X92836301Y-69445533D01*
X92838275Y-69450613D01*
X92871630Y-69531138D01*
X92871630Y-69531139D01*
X92874864Y-69547398D01*
X92879981Y-69565707D01*
X92885648Y-69581299D01*
X92898878Y-69667510D01*
X92899824Y-69672878D01*
X92916823Y-69758338D01*
X92916823Y-69774917D01*
X92918267Y-69793857D01*
X92920786Y-69810269D01*
X92916943Y-69897414D01*
X92916823Y-69902854D01*
X92916823Y-69989990D01*
X92913589Y-70006248D01*
X92911311Y-70025106D01*
X92910579Y-70041696D01*
X92889811Y-70126402D01*
X92888635Y-70131702D01*
X92871630Y-70217192D01*
X92865280Y-70232522D01*
X92859372Y-70250558D01*
X92855418Y-70266685D01*
X92818534Y-70345691D01*
X92816334Y-70350688D01*
X92782981Y-70431210D01*
X92773767Y-70445000D01*
X92764445Y-70461552D01*
X92757425Y-70476589D01*
X92705834Y-70546885D01*
X92702689Y-70551375D01*
X92654284Y-70623819D01*
X92597283Y-70680820D01*
X92592634Y-70685728D01*
X91985334Y-71362565D01*
X91267546Y-72162541D01*
X91139502Y-72279767D01*
X91040453Y-72339811D01*
X90941406Y-72399854D01*
X90723689Y-72478988D01*
X90494718Y-72514126D01*
X90263293Y-72503919D01*
X90038304Y-72448758D01*
X89933550Y-72399854D01*
X89828402Y-72350767D01*
X89731661Y-72279767D01*
X89641646Y-72213704D01*
X89558942Y-72123368D01*
X89485221Y-72042844D01*
X89403387Y-71907850D01*
X89365134Y-71844748D01*
X89286000Y-71627031D01*
X89250862Y-71398060D01*
X89261069Y-71166635D01*
X89316230Y-70941646D01*
X89385571Y-70793115D01*
X89414221Y-70731745D01*
X89414223Y-70731742D01*
X89516937Y-70591787D01*
X90286374Y-69734248D01*
X90803610Y-69157786D01*
X90814504Y-69143754D01*
X90827362Y-69124511D01*
X90884396Y-69067477D01*
X90889046Y-69062568D01*
X90904101Y-69045789D01*
X90925524Y-69026176D01*
X90929505Y-69022368D01*
X90991169Y-68960704D01*
X91004966Y-68951485D01*
X91019925Y-68939750D01*
X91032144Y-68928563D01*
X91072885Y-68903866D01*
X91106653Y-68883396D01*
X91111244Y-68880473D01*
X91183778Y-68832007D01*
X91199123Y-68825651D01*
X91216071Y-68817066D01*
X91230239Y-68808477D01*
X91230240Y-68808477D01*
X91230241Y-68808476D01*
X91312135Y-68778710D01*
X91317233Y-68776728D01*
X91397796Y-68743358D01*
X91414075Y-68740120D01*
X91432365Y-68735009D01*
X91447958Y-68729342D01*
X91534123Y-68716119D01*
X91539486Y-68715174D01*
X91624996Y-68698165D01*
X91641589Y-68698165D01*
X91660532Y-68696720D01*
X91676929Y-68694204D01*
X91764028Y-68698046D01*
X91764028Y-68698046D01*
G37*
G36*
X130227839Y-70460453D02*
G01*
X130382711Y-70524603D01*
X130522092Y-70617735D01*
X130640626Y-70736269D01*
X130733758Y-70875650D01*
X130797908Y-71030522D01*
X130830611Y-71194934D01*
X130830611Y-71362566D01*
X130797908Y-71526978D01*
X130733758Y-71681850D01*
X130640626Y-71821231D01*
X130522092Y-71939765D01*
X130382711Y-72032897D01*
X130227839Y-72097047D01*
X130063427Y-72129750D01*
X129895795Y-72129750D01*
X129731383Y-72097047D01*
X129576511Y-72032897D01*
X129437130Y-71939765D01*
X129318596Y-71821231D01*
X129225464Y-71681850D01*
X129161314Y-71526978D01*
X129128611Y-71362566D01*
X129128611Y-71194934D01*
X129161314Y-71030522D01*
X129225464Y-70875650D01*
X129318596Y-70736269D01*
X129437130Y-70617735D01*
X129576511Y-70524603D01*
X129731383Y-70460453D01*
X129895795Y-70427750D01*
X130063427Y-70427750D01*
X130227839Y-70460453D01*
X130227839Y-70460453D01*
G37*
G36*
X145467839Y-70460453D02*
G01*
X145622711Y-70524603D01*
X145762092Y-70617735D01*
X145880626Y-70736269D01*
X145973758Y-70875650D01*
X146037908Y-71030522D01*
X146070611Y-71194934D01*
X146070611Y-71362566D01*
X146037908Y-71526978D01*
X145973758Y-71681850D01*
X145880626Y-71821231D01*
X145762092Y-71939765D01*
X145622711Y-72032897D01*
X145467839Y-72097047D01*
X145303427Y-72129750D01*
X145135795Y-72129750D01*
X144971383Y-72097047D01*
X144816511Y-72032897D01*
X144677130Y-71939765D01*
X144558596Y-71821231D01*
X144465464Y-71681850D01*
X144401314Y-71526978D01*
X144368611Y-71362566D01*
X144368611Y-71194934D01*
X144401314Y-71030522D01*
X144465464Y-70875650D01*
X144558596Y-70736269D01*
X144677130Y-70617735D01*
X144816511Y-70524603D01*
X144971383Y-70460453D01*
X145135795Y-70427750D01*
X145303427Y-70427750D01*
X145467839Y-70460453D01*
X145467839Y-70460453D01*
G37*
G36*
X184343285Y-72065311D02*
G01*
X182336285Y-72065311D01*
X182336285Y-70058311D01*
X184343285Y-70058311D01*
X184343285Y-72065311D01*
X184343285Y-72065311D01*
G37*
G36*
X180926210Y-70063799D02*
G01*
X181092495Y-70096874D01*
X181275121Y-70172520D01*
X181439479Y-70282341D01*
X181579255Y-70422117D01*
X181689076Y-70586475D01*
X181764722Y-70769101D01*
X181803285Y-70962975D01*
X181803285Y-71160647D01*
X181764722Y-71354521D01*
X181689076Y-71537147D01*
X181579255Y-71701505D01*
X181439479Y-71841281D01*
X181275121Y-71951102D01*
X181092495Y-72026748D01*
X180926210Y-72059823D01*
X180898622Y-72065311D01*
X180700948Y-72065311D01*
X180673360Y-72059823D01*
X180507075Y-72026748D01*
X180324449Y-71951102D01*
X180160091Y-71841281D01*
X180020315Y-71701505D01*
X179910494Y-71537147D01*
X179834848Y-71354521D01*
X179796285Y-71160647D01*
X179796285Y-70962975D01*
X179834848Y-70769101D01*
X179910494Y-70586475D01*
X180020315Y-70422117D01*
X180160091Y-70282341D01*
X180324449Y-70172520D01*
X180507075Y-70096874D01*
X180673360Y-70063799D01*
X180700948Y-70058311D01*
X180898622Y-70058311D01*
X180926210Y-70063799D01*
X180926210Y-70063799D01*
G37*
G36*
X77782829Y-67677796D02*
G01*
X77803602Y-67679535D01*
X77810529Y-67679535D01*
X77905456Y-67698417D01*
X77909050Y-67699077D01*
X78004432Y-67715159D01*
X78010905Y-67717620D01*
X78030930Y-67723376D01*
X78037729Y-67724728D01*
X78097194Y-67749359D01*
X78127145Y-67761765D01*
X78130546Y-67763116D01*
X78220957Y-67797496D01*
X78226829Y-67801175D01*
X78245338Y-67810722D01*
X78251747Y-67813377D01*
X78332265Y-67867177D01*
X78335256Y-67869113D01*
X78417259Y-67920494D01*
X78422286Y-67925235D01*
X78438598Y-67938226D01*
X78444354Y-67942072D01*
X78512812Y-68010530D01*
X78515391Y-68013034D01*
X78585792Y-68079424D01*
X78589797Y-68085054D01*
X78603261Y-68100979D01*
X78608161Y-68105879D01*
X78640007Y-68153539D01*
X78661946Y-68186374D01*
X78663993Y-68189342D01*
X78720082Y-68268180D01*
X78722916Y-68274493D01*
X78733010Y-68292728D01*
X78736860Y-68298490D01*
X78773922Y-68387965D01*
X78775326Y-68391220D01*
X78814967Y-68479508D01*
X78816517Y-68486260D01*
X78822854Y-68506097D01*
X78825509Y-68512508D01*
X78838896Y-68579810D01*
X78844394Y-68607452D01*
X78845140Y-68610936D01*
X78866800Y-68705286D01*
X78866800Y-68705289D01*
X78867002Y-68712189D01*
X78869349Y-68732905D01*
X78870702Y-68739709D01*
X78870702Y-68836521D01*
X78870755Y-68840119D01*
X78871890Y-68878812D01*
X78870997Y-68891760D01*
X78870702Y-68900332D01*
X78870702Y-68971361D01*
X78864783Y-69001120D01*
X78864306Y-69003514D01*
X78862202Y-69019285D01*
X78823940Y-69574080D01*
X78795078Y-69745265D01*
X78712740Y-69961790D01*
X78589743Y-70158092D01*
X78430813Y-70326625D01*
X78242057Y-70460915D01*
X78030729Y-70555800D01*
X77804951Y-70607633D01*
X77573400Y-70614424D01*
X77573399Y-70614424D01*
X77527714Y-70606721D01*
X77344972Y-70575911D01*
X77128447Y-70493573D01*
X76932145Y-70370576D01*
X76763612Y-70211646D01*
X76629322Y-70022890D01*
X76534437Y-69811562D01*
X76482604Y-69585784D01*
X76477514Y-69412258D01*
X76518406Y-68819329D01*
X76518702Y-68810731D01*
X76518702Y-68739710D01*
X76521359Y-68726351D01*
X76537590Y-68644754D01*
X76538246Y-68641180D01*
X76543933Y-68607452D01*
X76554326Y-68545805D01*
X76556787Y-68539334D01*
X76562544Y-68519302D01*
X76563895Y-68512509D01*
X76573002Y-68490522D01*
X76600966Y-68423011D01*
X76602255Y-68419765D01*
X76636664Y-68329280D01*
X76640338Y-68323416D01*
X76649889Y-68304900D01*
X76652544Y-68298490D01*
X76706359Y-68217950D01*
X76708279Y-68214984D01*
X76759661Y-68132978D01*
X76764413Y-68127939D01*
X76777391Y-68111642D01*
X76781239Y-68105883D01*
X76849695Y-68037427D01*
X76852248Y-68034797D01*
X76862728Y-68023684D01*
X76918591Y-67964445D01*
X76924223Y-67960438D01*
X76940149Y-67946973D01*
X76945048Y-67942074D01*
X77025526Y-67888301D01*
X77028508Y-67886245D01*
X77107347Y-67830155D01*
X77113657Y-67827322D01*
X77131896Y-67817226D01*
X77137653Y-67813379D01*
X77137656Y-67813378D01*
X77137657Y-67813377D01*
X77227131Y-67776316D01*
X77230389Y-67774910D01*
X77318675Y-67735270D01*
X77325427Y-67733720D01*
X77345264Y-67727383D01*
X77351675Y-67724728D01*
X77446601Y-67705846D01*
X77450148Y-67705086D01*
X77544453Y-67683436D01*
X77546832Y-67683366D01*
X77551367Y-67683233D01*
X77572083Y-67680886D01*
X77578876Y-67679535D01*
X77675661Y-67679535D01*
X77679286Y-67679482D01*
X77776004Y-67676645D01*
X77782829Y-67677796D01*
X77782829Y-67677796D01*
G37*
G36*
X96868950Y-67616426D02*
G01*
X96889723Y-67618165D01*
X96896650Y-67618165D01*
X96991577Y-67637047D01*
X96995171Y-67637707D01*
X97090553Y-67653789D01*
X97097026Y-67656250D01*
X97117051Y-67662006D01*
X97123850Y-67663358D01*
X97186237Y-67689199D01*
X97213266Y-67700395D01*
X97216667Y-67701746D01*
X97307078Y-67736126D01*
X97312950Y-67739805D01*
X97331459Y-67749352D01*
X97337868Y-67752007D01*
X97418386Y-67805807D01*
X97421377Y-67807743D01*
X97503380Y-67859124D01*
X97508407Y-67863865D01*
X97524719Y-67876856D01*
X97530475Y-67880702D01*
X97598933Y-67949160D01*
X97601512Y-67951664D01*
X97671913Y-68018054D01*
X97675918Y-68023684D01*
X97689382Y-68039609D01*
X97694282Y-68044509D01*
X97740322Y-68113412D01*
X97748067Y-68125004D01*
X97750101Y-68127954D01*
X97806203Y-68206810D01*
X97809037Y-68213123D01*
X97819131Y-68231358D01*
X97822981Y-68237120D01*
X97860043Y-68326595D01*
X97861447Y-68329850D01*
X97901088Y-68418138D01*
X97902638Y-68424890D01*
X97908975Y-68444727D01*
X97911630Y-68451138D01*
X97930515Y-68546082D01*
X97931261Y-68549566D01*
X97952921Y-68643916D01*
X97952921Y-68643919D01*
X97953123Y-68650819D01*
X97955470Y-68671535D01*
X97956823Y-68678339D01*
X97956823Y-68775151D01*
X97956876Y-68778749D01*
X97958011Y-68817442D01*
X97957118Y-68830390D01*
X97956823Y-68838962D01*
X97956823Y-68909991D01*
X97950904Y-68939750D01*
X97950427Y-68942144D01*
X97948323Y-68957915D01*
X97910061Y-69512710D01*
X97881199Y-69683895D01*
X97798861Y-69900420D01*
X97675864Y-70096722D01*
X97516934Y-70265255D01*
X97328178Y-70399545D01*
X97116850Y-70494430D01*
X96891072Y-70546263D01*
X96659521Y-70553054D01*
X96659520Y-70553054D01*
X96613835Y-70545351D01*
X96431093Y-70514541D01*
X96214568Y-70432203D01*
X96018266Y-70309206D01*
X95849733Y-70150276D01*
X95715443Y-69961520D01*
X95620558Y-69750192D01*
X95568725Y-69524414D01*
X95563635Y-69350888D01*
X95604527Y-68757959D01*
X95604823Y-68749361D01*
X95604823Y-68678340D01*
X95609342Y-68655620D01*
X95623711Y-68583384D01*
X95624367Y-68579810D01*
X95630054Y-68546082D01*
X95640447Y-68484435D01*
X95642908Y-68477964D01*
X95648665Y-68457932D01*
X95650016Y-68451139D01*
X95652666Y-68444741D01*
X95687087Y-68361641D01*
X95688376Y-68358395D01*
X95722785Y-68267910D01*
X95726459Y-68262046D01*
X95736010Y-68243530D01*
X95738665Y-68237120D01*
X95792480Y-68156580D01*
X95794400Y-68153614D01*
X95845782Y-68071608D01*
X95850534Y-68066569D01*
X95863512Y-68050272D01*
X95867360Y-68044513D01*
X95935816Y-67976057D01*
X95938369Y-67973427D01*
X95958846Y-67951713D01*
X96004712Y-67903075D01*
X96010344Y-67899068D01*
X96026270Y-67885603D01*
X96031169Y-67880704D01*
X96111647Y-67826931D01*
X96114629Y-67824875D01*
X96193468Y-67768785D01*
X96199778Y-67765952D01*
X96218017Y-67755856D01*
X96223774Y-67752009D01*
X96223777Y-67752008D01*
X96223778Y-67752007D01*
X96313252Y-67714946D01*
X96316510Y-67713540D01*
X96404796Y-67673900D01*
X96411548Y-67672350D01*
X96431385Y-67666013D01*
X96437796Y-67663358D01*
X96532722Y-67644476D01*
X96536269Y-67643716D01*
X96630574Y-67622066D01*
X96632953Y-67621996D01*
X96637488Y-67621863D01*
X96658204Y-67619516D01*
X96664997Y-67618165D01*
X96761782Y-67618165D01*
X96765407Y-67618112D01*
X96862125Y-67615275D01*
X96868950Y-67616426D01*
X96868950Y-67616426D01*
G37*
G36*
X130227839Y-67920453D02*
G01*
X130382711Y-67984603D01*
X130522092Y-68077735D01*
X130640626Y-68196269D01*
X130733758Y-68335650D01*
X130797908Y-68490522D01*
X130830611Y-68654934D01*
X130830611Y-68822566D01*
X130797908Y-68986978D01*
X130733758Y-69141850D01*
X130640626Y-69281231D01*
X130522092Y-69399765D01*
X130382711Y-69492897D01*
X130227839Y-69557047D01*
X130063427Y-69589750D01*
X129895795Y-69589750D01*
X129731383Y-69557047D01*
X129576511Y-69492897D01*
X129437130Y-69399765D01*
X129318596Y-69281231D01*
X129225464Y-69141850D01*
X129161314Y-68986978D01*
X129128611Y-68822566D01*
X129128611Y-68654934D01*
X129161314Y-68490522D01*
X129225464Y-68335650D01*
X129318596Y-68196269D01*
X129437130Y-68077735D01*
X129576511Y-67984603D01*
X129731383Y-67920453D01*
X129895795Y-67887750D01*
X130063427Y-67887750D01*
X130227839Y-67920453D01*
X130227839Y-67920453D01*
G37*
G36*
X145467839Y-67920453D02*
G01*
X145622711Y-67984603D01*
X145762092Y-68077735D01*
X145880626Y-68196269D01*
X145973758Y-68335650D01*
X146037908Y-68490522D01*
X146070611Y-68654934D01*
X146070611Y-68822566D01*
X146037908Y-68986978D01*
X145973758Y-69141850D01*
X145880626Y-69281231D01*
X145762092Y-69399765D01*
X145622711Y-69492897D01*
X145467839Y-69557047D01*
X145303427Y-69589750D01*
X145135795Y-69589750D01*
X144971383Y-69557047D01*
X144816511Y-69492897D01*
X144677130Y-69399765D01*
X144558596Y-69281231D01*
X144465464Y-69141850D01*
X144401314Y-68986978D01*
X144368611Y-68822566D01*
X144368611Y-68654934D01*
X144401314Y-68490522D01*
X144465464Y-68335650D01*
X144558596Y-68196269D01*
X144677130Y-68077735D01*
X144816511Y-67984603D01*
X144971383Y-67920453D01*
X145135795Y-67887750D01*
X145303427Y-67887750D01*
X145467839Y-67920453D01*
X145467839Y-67920453D01*
G37*
G36*
X199955888Y-67016563D02*
G01*
X200122173Y-67049638D01*
X200304799Y-67125284D01*
X200469157Y-67235105D01*
X200608933Y-67374881D01*
X200718754Y-67539239D01*
X200794400Y-67721865D01*
X200832963Y-67915739D01*
X200832963Y-68113411D01*
X200794400Y-68307285D01*
X200718754Y-68489911D01*
X200608933Y-68654269D01*
X200469157Y-68794045D01*
X200304799Y-68903866D01*
X200122173Y-68979512D01*
X199955888Y-69012587D01*
X199928300Y-69018075D01*
X199730626Y-69018075D01*
X199703038Y-69012587D01*
X199536753Y-68979512D01*
X199354127Y-68903866D01*
X199189769Y-68794045D01*
X199049993Y-68654269D01*
X198940172Y-68489911D01*
X198864526Y-68307285D01*
X198825963Y-68113411D01*
X198825963Y-67915739D01*
X198864526Y-67721865D01*
X198940172Y-67539239D01*
X199049993Y-67374881D01*
X199189769Y-67235105D01*
X199354127Y-67125284D01*
X199536753Y-67049638D01*
X199703038Y-67016563D01*
X199730626Y-67011075D01*
X199928300Y-67011075D01*
X199955888Y-67016563D01*
X199955888Y-67016563D01*
G37*
G36*
X203372963Y-69018075D02*
G01*
X201365963Y-69018075D01*
X201365963Y-67011075D01*
X203372963Y-67011075D01*
X203372963Y-69018075D01*
X203372963Y-69018075D01*
G37*
G36*
X182666259Y-64015495D02*
G01*
X182884259Y-64105794D01*
X183038408Y-64169644D01*
X183373333Y-64393434D01*
X183658162Y-64678263D01*
X183881952Y-65013188D01*
X183914347Y-65091397D01*
X184036101Y-65385337D01*
X184114685Y-65780405D01*
X184114685Y-66183217D01*
X184036101Y-66578285D01*
X183985236Y-66701083D01*
X183881952Y-66950434D01*
X183658162Y-67285359D01*
X183373333Y-67570188D01*
X183038408Y-67793978D01*
X182884259Y-67857828D01*
X182666259Y-67948127D01*
X182271191Y-68026711D01*
X181868379Y-68026711D01*
X181473311Y-67948127D01*
X181255311Y-67857828D01*
X181101162Y-67793978D01*
X180766237Y-67570188D01*
X180481408Y-67285359D01*
X180257618Y-66950434D01*
X180154334Y-66701083D01*
X180103469Y-66578285D01*
X180024885Y-66183217D01*
X180024885Y-65780405D01*
X180103469Y-65385337D01*
X180225223Y-65091397D01*
X180257618Y-65013188D01*
X180481408Y-64678263D01*
X180766237Y-64393434D01*
X181101162Y-64169644D01*
X181255311Y-64105794D01*
X181473311Y-64015495D01*
X181868379Y-63936911D01*
X182271191Y-63936911D01*
X182666259Y-64015495D01*
X182666259Y-64015495D01*
G37*
G36*
X130227839Y-65380453D02*
G01*
X130382711Y-65444603D01*
X130522092Y-65537735D01*
X130640626Y-65656269D01*
X130733758Y-65795650D01*
X130797908Y-65950522D01*
X130830611Y-66114934D01*
X130830611Y-66282566D01*
X130797908Y-66446978D01*
X130733758Y-66601850D01*
X130640626Y-66741231D01*
X130522092Y-66859765D01*
X130382711Y-66952897D01*
X130227839Y-67017047D01*
X130063427Y-67049750D01*
X129895795Y-67049750D01*
X129731383Y-67017047D01*
X129576511Y-66952897D01*
X129437130Y-66859765D01*
X129318596Y-66741231D01*
X129225464Y-66601850D01*
X129161314Y-66446978D01*
X129128611Y-66282566D01*
X129128611Y-66114934D01*
X129161314Y-65950522D01*
X129225464Y-65795650D01*
X129318596Y-65656269D01*
X129437130Y-65537735D01*
X129576511Y-65444603D01*
X129731383Y-65380453D01*
X129895795Y-65347750D01*
X130063427Y-65347750D01*
X130227839Y-65380453D01*
X130227839Y-65380453D01*
G37*
G36*
X145467839Y-65380453D02*
G01*
X145622711Y-65444603D01*
X145762092Y-65537735D01*
X145880626Y-65656269D01*
X145973758Y-65795650D01*
X146037908Y-65950522D01*
X146070611Y-66114934D01*
X146070611Y-66282566D01*
X146037908Y-66446978D01*
X145973758Y-66601850D01*
X145880626Y-66741231D01*
X145762092Y-66859765D01*
X145622711Y-66952897D01*
X145467839Y-67017047D01*
X145303427Y-67049750D01*
X145135795Y-67049750D01*
X144971383Y-67017047D01*
X144816511Y-66952897D01*
X144677130Y-66859765D01*
X144558596Y-66741231D01*
X144465464Y-66601850D01*
X144401314Y-66446978D01*
X144368611Y-66282566D01*
X144368611Y-66114934D01*
X144401314Y-65950522D01*
X144465464Y-65795650D01*
X144558596Y-65656269D01*
X144677130Y-65537735D01*
X144816511Y-65444603D01*
X144971383Y-65380453D01*
X145135795Y-65347750D01*
X145303427Y-65347750D01*
X145467839Y-65380453D01*
X145467839Y-65380453D01*
G37*
G36*
X187419889Y-65091396D02*
G01*
X187588411Y-65161200D01*
X187740076Y-65262539D01*
X187869057Y-65391520D01*
X187970396Y-65543185D01*
X188040200Y-65711707D01*
X188075785Y-65890608D01*
X188075785Y-66073014D01*
X188040200Y-66251915D01*
X187970396Y-66420437D01*
X187869057Y-66572102D01*
X187740076Y-66701083D01*
X187588411Y-66802422D01*
X187419889Y-66872226D01*
X187240988Y-66907811D01*
X187058582Y-66907811D01*
X186879681Y-66872226D01*
X186711159Y-66802422D01*
X186559494Y-66701083D01*
X186430513Y-66572102D01*
X186329174Y-66420437D01*
X186259370Y-66251915D01*
X186223785Y-66073014D01*
X186223785Y-65890608D01*
X186259370Y-65711707D01*
X186329174Y-65543185D01*
X186430513Y-65391520D01*
X186559494Y-65262539D01*
X186711159Y-65161200D01*
X186879681Y-65091396D01*
X187058582Y-65055811D01*
X187240988Y-65055811D01*
X187419889Y-65091396D01*
X187419889Y-65091396D01*
G37*
G36*
X177259889Y-65091396D02*
G01*
X177428411Y-65161200D01*
X177580076Y-65262539D01*
X177709057Y-65391520D01*
X177810396Y-65543185D01*
X177880200Y-65711707D01*
X177915785Y-65890608D01*
X177915785Y-66073014D01*
X177880200Y-66251915D01*
X177810396Y-66420437D01*
X177709057Y-66572102D01*
X177580076Y-66701083D01*
X177428411Y-66802422D01*
X177259889Y-66872226D01*
X177080988Y-66907811D01*
X176898582Y-66907811D01*
X176719681Y-66872226D01*
X176551159Y-66802422D01*
X176399494Y-66701083D01*
X176270513Y-66572102D01*
X176169174Y-66420437D01*
X176099370Y-66251915D01*
X176063785Y-66073014D01*
X176063785Y-65890608D01*
X176099370Y-65711707D01*
X176169174Y-65543185D01*
X176270513Y-65391520D01*
X176399494Y-65262539D01*
X176551159Y-65161200D01*
X176719681Y-65091396D01*
X176898582Y-65055811D01*
X177080988Y-65055811D01*
X177259889Y-65091396D01*
X177259889Y-65091396D01*
G37*
G36*
X201695937Y-60968259D02*
G01*
X201886990Y-61047396D01*
X202068086Y-61122408D01*
X202403011Y-61346198D01*
X202687840Y-61631027D01*
X202911630Y-61965952D01*
X202954382Y-62069166D01*
X203065779Y-62338101D01*
X203144363Y-62733169D01*
X203144363Y-63135981D01*
X203065779Y-63531049D01*
X203014914Y-63653847D01*
X202911630Y-63903198D01*
X202687840Y-64238123D01*
X202403011Y-64522952D01*
X202068086Y-64746742D01*
X201913937Y-64810592D01*
X201695937Y-64900891D01*
X201300869Y-64979475D01*
X200898057Y-64979475D01*
X200502989Y-64900891D01*
X200284989Y-64810592D01*
X200130840Y-64746742D01*
X199795915Y-64522952D01*
X199511086Y-64238123D01*
X199287296Y-63903198D01*
X199184012Y-63653847D01*
X199133147Y-63531049D01*
X199054563Y-63135981D01*
X199054563Y-62733169D01*
X199133147Y-62338101D01*
X199244544Y-62069166D01*
X199287296Y-61965952D01*
X199511086Y-61631027D01*
X199795915Y-61346198D01*
X200130840Y-61122408D01*
X200311936Y-61047396D01*
X200502989Y-60968259D01*
X200898057Y-60889675D01*
X201300869Y-60889675D01*
X201695937Y-60968259D01*
X201695937Y-60968259D01*
G37*
G36*
X179592990Y-60805692D02*
G01*
X179598430Y-60805811D01*
X179685613Y-60805811D01*
X179701882Y-60809047D01*
X179720741Y-60811326D01*
X179737317Y-60812057D01*
X179822008Y-60832821D01*
X179827303Y-60833995D01*
X179912812Y-60851004D01*
X179928147Y-60857356D01*
X179946186Y-60863266D01*
X179962306Y-60867218D01*
X180041289Y-60904091D01*
X180046279Y-60906288D01*
X180126830Y-60939653D01*
X180140626Y-60948871D01*
X180157178Y-60958193D01*
X180172211Y-60965211D01*
X180242479Y-61016782D01*
X180246977Y-61019933D01*
X180319441Y-61068352D01*
X180331168Y-61080079D01*
X180345594Y-61092459D01*
X180358964Y-61102272D01*
X180358965Y-61102273D01*
X180417806Y-61166544D01*
X180421614Y-61170525D01*
X180483244Y-61232155D01*
X180492459Y-61245946D01*
X180504181Y-61260889D01*
X180515390Y-61273132D01*
X180560584Y-61347685D01*
X180563531Y-61352312D01*
X180611943Y-61424766D01*
X180618290Y-61440088D01*
X180626877Y-61457042D01*
X180635476Y-61471228D01*
X180665263Y-61553179D01*
X180667237Y-61558259D01*
X180700592Y-61638784D01*
X180700592Y-61638785D01*
X180703826Y-61655044D01*
X180708943Y-61673353D01*
X180714610Y-61688945D01*
X180727840Y-61775156D01*
X180728786Y-61780524D01*
X180745785Y-61865984D01*
X180745785Y-61882563D01*
X180747229Y-61901503D01*
X180749748Y-61917915D01*
X180745905Y-62005060D01*
X180745785Y-62010500D01*
X180745785Y-62097636D01*
X180742551Y-62113894D01*
X180740273Y-62132752D01*
X180739541Y-62149342D01*
X180718773Y-62234048D01*
X180717597Y-62239348D01*
X180700592Y-62324838D01*
X180694242Y-62340168D01*
X180688334Y-62358204D01*
X180684380Y-62374331D01*
X180647496Y-62453337D01*
X180645296Y-62458334D01*
X180611943Y-62538856D01*
X180602729Y-62552646D01*
X180593407Y-62569198D01*
X180586387Y-62584235D01*
X180534796Y-62654531D01*
X180531651Y-62659021D01*
X180483246Y-62731465D01*
X180426245Y-62788466D01*
X180421596Y-62793374D01*
X180052549Y-63204678D01*
X179096508Y-64270187D01*
X178968464Y-64387413D01*
X178869416Y-64447456D01*
X178770368Y-64507500D01*
X178552651Y-64586634D01*
X178323680Y-64621772D01*
X178092255Y-64611565D01*
X177867266Y-64556404D01*
X177786582Y-64518737D01*
X177657364Y-64458413D01*
X177560623Y-64387413D01*
X177470608Y-64321350D01*
X177394412Y-64238122D01*
X177314183Y-64150490D01*
X177232349Y-64015496D01*
X177194096Y-63952394D01*
X177114962Y-63734677D01*
X177079824Y-63505706D01*
X177090031Y-63274281D01*
X177145192Y-63049292D01*
X177196757Y-62938839D01*
X177243183Y-62839391D01*
X177243185Y-62839388D01*
X177345899Y-62699433D01*
X178004023Y-61965953D01*
X178632572Y-61265432D01*
X178643466Y-61251400D01*
X178656324Y-61232157D01*
X178713358Y-61175123D01*
X178718008Y-61170214D01*
X178733063Y-61153435D01*
X178754486Y-61133822D01*
X178758467Y-61130014D01*
X178820131Y-61068350D01*
X178833928Y-61059131D01*
X178848887Y-61047396D01*
X178861106Y-61036209D01*
X178928000Y-60995658D01*
X178935615Y-60991042D01*
X178940206Y-60988119D01*
X179012740Y-60939653D01*
X179028085Y-60933297D01*
X179045033Y-60924712D01*
X179059201Y-60916123D01*
X179059202Y-60916123D01*
X179059203Y-60916122D01*
X179141097Y-60886356D01*
X179146195Y-60884374D01*
X179226758Y-60851004D01*
X179243037Y-60847766D01*
X179261327Y-60842655D01*
X179276920Y-60836988D01*
X179363085Y-60823765D01*
X179368448Y-60822820D01*
X179453958Y-60805811D01*
X179470551Y-60805811D01*
X179489494Y-60804366D01*
X179505891Y-60801850D01*
X179592990Y-60805692D01*
X179592990Y-60805692D01*
G37*
G36*
X145467839Y-62840453D02*
G01*
X145622711Y-62904603D01*
X145762092Y-62997735D01*
X145880626Y-63116269D01*
X145973758Y-63255650D01*
X146037908Y-63410522D01*
X146070611Y-63574934D01*
X146070611Y-63742566D01*
X146037908Y-63906978D01*
X145973758Y-64061850D01*
X145880626Y-64201231D01*
X145762092Y-64319765D01*
X145622711Y-64412897D01*
X145467839Y-64477047D01*
X145303427Y-64509750D01*
X145135795Y-64509750D01*
X144971383Y-64477047D01*
X144816511Y-64412897D01*
X144677130Y-64319765D01*
X144558596Y-64201231D01*
X144465464Y-64061850D01*
X144401314Y-63906978D01*
X144368611Y-63742566D01*
X144368611Y-63574934D01*
X144401314Y-63410522D01*
X144465464Y-63255650D01*
X144558596Y-63116269D01*
X144677130Y-62997735D01*
X144816511Y-62904603D01*
X144971383Y-62840453D01*
X145135795Y-62807750D01*
X145303427Y-62807750D01*
X145467839Y-62840453D01*
X145467839Y-62840453D01*
G37*
G36*
X130227839Y-62840453D02*
G01*
X130382711Y-62904603D01*
X130522092Y-62997735D01*
X130640626Y-63116269D01*
X130733758Y-63255650D01*
X130797908Y-63410522D01*
X130830611Y-63574934D01*
X130830611Y-63742566D01*
X130797908Y-63906978D01*
X130733758Y-64061850D01*
X130640626Y-64201231D01*
X130522092Y-64319765D01*
X130382711Y-64412897D01*
X130227839Y-64477047D01*
X130063427Y-64509750D01*
X129895795Y-64509750D01*
X129731383Y-64477047D01*
X129576511Y-64412897D01*
X129437130Y-64319765D01*
X129318596Y-64201231D01*
X129225464Y-64061850D01*
X129161314Y-63906978D01*
X129128611Y-63742566D01*
X129128611Y-63574934D01*
X129161314Y-63410522D01*
X129225464Y-63255650D01*
X129318596Y-63116269D01*
X129437130Y-62997735D01*
X129576511Y-62904603D01*
X129731383Y-62840453D01*
X129895795Y-62807750D01*
X130063427Y-62807750D01*
X130227839Y-62840453D01*
X130227839Y-62840453D01*
G37*
G36*
X196289567Y-62044160D02*
G01*
X196458089Y-62113964D01*
X196609754Y-62215303D01*
X196738735Y-62344284D01*
X196840074Y-62495949D01*
X196909878Y-62664471D01*
X196945463Y-62843372D01*
X196945463Y-63025778D01*
X196909878Y-63204679D01*
X196840074Y-63373201D01*
X196738735Y-63524866D01*
X196609754Y-63653847D01*
X196458089Y-63755186D01*
X196289567Y-63824990D01*
X196110666Y-63860575D01*
X195928260Y-63860575D01*
X195749359Y-63824990D01*
X195580837Y-63755186D01*
X195429172Y-63653847D01*
X195300191Y-63524866D01*
X195198852Y-63373201D01*
X195129048Y-63204679D01*
X195093463Y-63025778D01*
X195093463Y-62843372D01*
X195129048Y-62664471D01*
X195198852Y-62495949D01*
X195300191Y-62344284D01*
X195429172Y-62215303D01*
X195580837Y-62113964D01*
X195749359Y-62044160D01*
X195928260Y-62008575D01*
X196110666Y-62008575D01*
X196289567Y-62044160D01*
X196289567Y-62044160D01*
G37*
G36*
X206449567Y-62044160D02*
G01*
X206618089Y-62113964D01*
X206769754Y-62215303D01*
X206898735Y-62344284D01*
X207000074Y-62495949D01*
X207069878Y-62664471D01*
X207105463Y-62843372D01*
X207105463Y-63025778D01*
X207069878Y-63204679D01*
X207000074Y-63373201D01*
X206898735Y-63524866D01*
X206769754Y-63653847D01*
X206618089Y-63755186D01*
X206449567Y-63824990D01*
X206270666Y-63860575D01*
X206088260Y-63860575D01*
X205909359Y-63824990D01*
X205740837Y-63755186D01*
X205589172Y-63653847D01*
X205460191Y-63524866D01*
X205358852Y-63373201D01*
X205289048Y-63204679D01*
X205253463Y-63025778D01*
X205253463Y-62843372D01*
X205289048Y-62664471D01*
X205358852Y-62495949D01*
X205460191Y-62344284D01*
X205589172Y-62215303D01*
X205740837Y-62113964D01*
X205909359Y-62044160D01*
X206088260Y-62008575D01*
X206270666Y-62008575D01*
X206449567Y-62044160D01*
X206449567Y-62044160D01*
G37*
G36*
X184697912Y-59724072D02*
G01*
X184718685Y-59725811D01*
X184725612Y-59725811D01*
X184820539Y-59744693D01*
X184824133Y-59745353D01*
X184919515Y-59761435D01*
X184925988Y-59763896D01*
X184946013Y-59769652D01*
X184952812Y-59771004D01*
X185003868Y-59792152D01*
X185042228Y-59808041D01*
X185045629Y-59809392D01*
X185136040Y-59843772D01*
X185141912Y-59847451D01*
X185160421Y-59856998D01*
X185166830Y-59859653D01*
X185247348Y-59913453D01*
X185250339Y-59915389D01*
X185332342Y-59966770D01*
X185337369Y-59971511D01*
X185353681Y-59984502D01*
X185359437Y-59988348D01*
X185427895Y-60056806D01*
X185430474Y-60059310D01*
X185500875Y-60125700D01*
X185504880Y-60131330D01*
X185518344Y-60147255D01*
X185523244Y-60152155D01*
X185577029Y-60232650D01*
X185579076Y-60235618D01*
X185635165Y-60314456D01*
X185637999Y-60320769D01*
X185648093Y-60339004D01*
X185651943Y-60344766D01*
X185689005Y-60434241D01*
X185690409Y-60437496D01*
X185730050Y-60525784D01*
X185731600Y-60532536D01*
X185737937Y-60552373D01*
X185740592Y-60558784D01*
X185755126Y-60631852D01*
X185759477Y-60653728D01*
X185760223Y-60657212D01*
X185781883Y-60751562D01*
X185781883Y-60751565D01*
X185782085Y-60758465D01*
X185784432Y-60779181D01*
X185785785Y-60785985D01*
X185785785Y-60882797D01*
X185785838Y-60886395D01*
X185786973Y-60925088D01*
X185786080Y-60938036D01*
X185785785Y-60946608D01*
X185785785Y-61017637D01*
X185779866Y-61047396D01*
X185779389Y-61049790D01*
X185777285Y-61065561D01*
X185739023Y-61620356D01*
X185710161Y-61791541D01*
X185627823Y-62008066D01*
X185504826Y-62204368D01*
X185345896Y-62372901D01*
X185157140Y-62507191D01*
X184945812Y-62602076D01*
X184720034Y-62653909D01*
X184488483Y-62660700D01*
X184488482Y-62660700D01*
X184442797Y-62652997D01*
X184260055Y-62622187D01*
X184043530Y-62539849D01*
X183847228Y-62416852D01*
X183678695Y-62257922D01*
X183544405Y-62069166D01*
X183449520Y-61857838D01*
X183397687Y-61632060D01*
X183392597Y-61458534D01*
X183433489Y-60865605D01*
X183433785Y-60857007D01*
X183433785Y-60785986D01*
X183447775Y-60715653D01*
X183452673Y-60691030D01*
X183453329Y-60687456D01*
X183453331Y-60687446D01*
X183469409Y-60592081D01*
X183471870Y-60585610D01*
X183477627Y-60565578D01*
X183478978Y-60558785D01*
X183481628Y-60552387D01*
X183516049Y-60469287D01*
X183517338Y-60466041D01*
X183551747Y-60375556D01*
X183555421Y-60369692D01*
X183564972Y-60351176D01*
X183567627Y-60344766D01*
X183621442Y-60264226D01*
X183623362Y-60261260D01*
X183674744Y-60179254D01*
X183679496Y-60174215D01*
X183692474Y-60157918D01*
X183696322Y-60152159D01*
X183764778Y-60083703D01*
X183767331Y-60081073D01*
X183787808Y-60059359D01*
X183833674Y-60010721D01*
X183839306Y-60006714D01*
X183855232Y-59993249D01*
X183860131Y-59988350D01*
X183940609Y-59934577D01*
X183943591Y-59932521D01*
X184022430Y-59876431D01*
X184028740Y-59873598D01*
X184046979Y-59863502D01*
X184052736Y-59859655D01*
X184052739Y-59859654D01*
X184052740Y-59859653D01*
X184142214Y-59822592D01*
X184145472Y-59821186D01*
X184233758Y-59781546D01*
X184240510Y-59779996D01*
X184260347Y-59773659D01*
X184266758Y-59771004D01*
X184361684Y-59752122D01*
X184365231Y-59751362D01*
X184459536Y-59729712D01*
X184461915Y-59729642D01*
X184466450Y-59729509D01*
X184487166Y-59727162D01*
X184493959Y-59725811D01*
X184590744Y-59725811D01*
X184594369Y-59725758D01*
X184691087Y-59722921D01*
X184697912Y-59724072D01*
X184697912Y-59724072D01*
G37*
G36*
X130227839Y-60300453D02*
G01*
X130382711Y-60364603D01*
X130522092Y-60457735D01*
X130640626Y-60576269D01*
X130733758Y-60715650D01*
X130797908Y-60870522D01*
X130830611Y-61034934D01*
X130830611Y-61202566D01*
X130797908Y-61366978D01*
X130733758Y-61521850D01*
X130640626Y-61661231D01*
X130522092Y-61779765D01*
X130382711Y-61872897D01*
X130227839Y-61937047D01*
X130063427Y-61969750D01*
X129895795Y-61969750D01*
X129731383Y-61937047D01*
X129576511Y-61872897D01*
X129437130Y-61779765D01*
X129318596Y-61661231D01*
X129225464Y-61521850D01*
X129161314Y-61366978D01*
X129128611Y-61202566D01*
X129128611Y-61034934D01*
X129161314Y-60870522D01*
X129225464Y-60715650D01*
X129318596Y-60576269D01*
X129437130Y-60457735D01*
X129576511Y-60364603D01*
X129731383Y-60300453D01*
X129895795Y-60267750D01*
X130063427Y-60267750D01*
X130227839Y-60300453D01*
X130227839Y-60300453D01*
G37*
G36*
X145467839Y-60300453D02*
G01*
X145622711Y-60364603D01*
X145762092Y-60457735D01*
X145880626Y-60576269D01*
X145973758Y-60715650D01*
X146037908Y-60870522D01*
X146070611Y-61034934D01*
X146070611Y-61202566D01*
X146037908Y-61366978D01*
X145973758Y-61521850D01*
X145880626Y-61661231D01*
X145762092Y-61779765D01*
X145622711Y-61872897D01*
X145467839Y-61937047D01*
X145303427Y-61969750D01*
X145135795Y-61969750D01*
X144971383Y-61937047D01*
X144816511Y-61872897D01*
X144677130Y-61779765D01*
X144558596Y-61661231D01*
X144465464Y-61521850D01*
X144401314Y-61366978D01*
X144368611Y-61202566D01*
X144368611Y-61034934D01*
X144401314Y-60870522D01*
X144465464Y-60715650D01*
X144558596Y-60576269D01*
X144677130Y-60457735D01*
X144816511Y-60364603D01*
X144971383Y-60300453D01*
X145135795Y-60267750D01*
X145303427Y-60267750D01*
X145467839Y-60300453D01*
X145467839Y-60300453D01*
G37*
G36*
X198622668Y-57758456D02*
G01*
X198628108Y-57758575D01*
X198715291Y-57758575D01*
X198731560Y-57761811D01*
X198750419Y-57764090D01*
X198766995Y-57764821D01*
X198851686Y-57785585D01*
X198856981Y-57786759D01*
X198942490Y-57803768D01*
X198957825Y-57810120D01*
X198975864Y-57816030D01*
X198991984Y-57819982D01*
X199070967Y-57856855D01*
X199075957Y-57859052D01*
X199156508Y-57892417D01*
X199170304Y-57901635D01*
X199186856Y-57910957D01*
X199201889Y-57917975D01*
X199272157Y-57969546D01*
X199276655Y-57972697D01*
X199349119Y-58021116D01*
X199360846Y-58032843D01*
X199375272Y-58045223D01*
X199388642Y-58055036D01*
X199388643Y-58055037D01*
X199447484Y-58119308D01*
X199451292Y-58123289D01*
X199512922Y-58184919D01*
X199522137Y-58198710D01*
X199533859Y-58213653D01*
X199545068Y-58225896D01*
X199590262Y-58300449D01*
X199593209Y-58305076D01*
X199610211Y-58330522D01*
X199641621Y-58377530D01*
X199647968Y-58392852D01*
X199656555Y-58409806D01*
X199665154Y-58423992D01*
X199694941Y-58505943D01*
X199696915Y-58511023D01*
X199730270Y-58591548D01*
X199730270Y-58591549D01*
X199733504Y-58607808D01*
X199738621Y-58626117D01*
X199744288Y-58641709D01*
X199757518Y-58727920D01*
X199758464Y-58733288D01*
X199775463Y-58818748D01*
X199775463Y-58835327D01*
X199776907Y-58854267D01*
X199779426Y-58870679D01*
X199775583Y-58957824D01*
X199775463Y-58963264D01*
X199775463Y-59050400D01*
X199772229Y-59066658D01*
X199769951Y-59085516D01*
X199769219Y-59102106D01*
X199748451Y-59186812D01*
X199747275Y-59192112D01*
X199730270Y-59277602D01*
X199723920Y-59292932D01*
X199718012Y-59310968D01*
X199714058Y-59327095D01*
X199677174Y-59406101D01*
X199674974Y-59411098D01*
X199641621Y-59491620D01*
X199632407Y-59505410D01*
X199623085Y-59521962D01*
X199616065Y-59536999D01*
X199564474Y-59607295D01*
X199561329Y-59611785D01*
X199512924Y-59684229D01*
X199455923Y-59741230D01*
X199451274Y-59746138D01*
X198494865Y-60812058D01*
X198126186Y-61222951D01*
X197998142Y-61340177D01*
X197953929Y-61366979D01*
X197800046Y-61460264D01*
X197582329Y-61539398D01*
X197353358Y-61574536D01*
X197121933Y-61564329D01*
X196896944Y-61509168D01*
X196788482Y-61458533D01*
X196687042Y-61411177D01*
X196606836Y-61352312D01*
X196500286Y-61274114D01*
X196405164Y-61170214D01*
X196343861Y-61103254D01*
X196262027Y-60968260D01*
X196223774Y-60905158D01*
X196144640Y-60687441D01*
X196109502Y-60458470D01*
X196119709Y-60227045D01*
X196174870Y-60002056D01*
X196241350Y-59859653D01*
X196272861Y-59792155D01*
X196272863Y-59792152D01*
X196375577Y-59652197D01*
X197108523Y-58835327D01*
X197662250Y-58218196D01*
X197673144Y-58204164D01*
X197686002Y-58184921D01*
X197743036Y-58127887D01*
X197747686Y-58122978D01*
X197762741Y-58106199D01*
X197784164Y-58086586D01*
X197788145Y-58082778D01*
X197849809Y-58021114D01*
X197863606Y-58011895D01*
X197878565Y-58000160D01*
X197890784Y-57988973D01*
X197922848Y-57969536D01*
X197965293Y-57943806D01*
X197969884Y-57940883D01*
X198042418Y-57892417D01*
X198057763Y-57886061D01*
X198074711Y-57877476D01*
X198088879Y-57868887D01*
X198088880Y-57868887D01*
X198088881Y-57868886D01*
X198170775Y-57839120D01*
X198175873Y-57837138D01*
X198256436Y-57803768D01*
X198272715Y-57800530D01*
X198291005Y-57795419D01*
X198306598Y-57789752D01*
X198392763Y-57776529D01*
X198398126Y-57775584D01*
X198483636Y-57758575D01*
X198500229Y-57758575D01*
X198519172Y-57757130D01*
X198535569Y-57754614D01*
X198622668Y-57758456D01*
X198622668Y-57758456D01*
G37*
G36*
X86958638Y-60995658D02*
G01*
X84951638Y-60995658D01*
X84951638Y-58988658D01*
X86958638Y-58988658D01*
X86958638Y-60995658D01*
X86958638Y-60995658D01*
G37*
G36*
X83541563Y-58994146D02*
G01*
X83707848Y-59027221D01*
X83890474Y-59102867D01*
X84054832Y-59212688D01*
X84194608Y-59352464D01*
X84304429Y-59516822D01*
X84380075Y-59699448D01*
X84418638Y-59893322D01*
X84418638Y-60090994D01*
X84380075Y-60284868D01*
X84304429Y-60467494D01*
X84194608Y-60631852D01*
X84054832Y-60771628D01*
X83890474Y-60881449D01*
X83707848Y-60957095D01*
X83541563Y-60990170D01*
X83513975Y-60995658D01*
X83316301Y-60995658D01*
X83288713Y-60990170D01*
X83122428Y-60957095D01*
X82939802Y-60881449D01*
X82775444Y-60771628D01*
X82635668Y-60631852D01*
X82525847Y-60467494D01*
X82450201Y-60284868D01*
X82411638Y-60090994D01*
X82411638Y-59893322D01*
X82450201Y-59699448D01*
X82525847Y-59516822D01*
X82635668Y-59352464D01*
X82775444Y-59212688D01*
X82939802Y-59102867D01*
X83122428Y-59027221D01*
X83288713Y-58994146D01*
X83316301Y-58988658D01*
X83513975Y-58988658D01*
X83541563Y-58994146D01*
X83541563Y-58994146D01*
G37*
G36*
X203727590Y-56676836D02*
G01*
X203748363Y-56678575D01*
X203755290Y-56678575D01*
X203850217Y-56697457D01*
X203853811Y-56698117D01*
X203949193Y-56714199D01*
X203955666Y-56716660D01*
X203975691Y-56722416D01*
X203982490Y-56723768D01*
X204044877Y-56749609D01*
X204071906Y-56760805D01*
X204075307Y-56762156D01*
X204165718Y-56796536D01*
X204171590Y-56800215D01*
X204190099Y-56809762D01*
X204196508Y-56812417D01*
X204277026Y-56866217D01*
X204280017Y-56868153D01*
X204362020Y-56919534D01*
X204367047Y-56924275D01*
X204383359Y-56937266D01*
X204389115Y-56941112D01*
X204457573Y-57009570D01*
X204460152Y-57012074D01*
X204530553Y-57078464D01*
X204534558Y-57084094D01*
X204548022Y-57100019D01*
X204552922Y-57104919D01*
X204606707Y-57185414D01*
X204608754Y-57188382D01*
X204664843Y-57267220D01*
X204667677Y-57273533D01*
X204677771Y-57291768D01*
X204681621Y-57297530D01*
X204718683Y-57387005D01*
X204720087Y-57390260D01*
X204759728Y-57478548D01*
X204761278Y-57485300D01*
X204767615Y-57505137D01*
X204770270Y-57511548D01*
X204789155Y-57606492D01*
X204789901Y-57609976D01*
X204811561Y-57704326D01*
X204811561Y-57704329D01*
X204811763Y-57711229D01*
X204814110Y-57731945D01*
X204815463Y-57738749D01*
X204815463Y-57835561D01*
X204815516Y-57839159D01*
X204816651Y-57877852D01*
X204815758Y-57890800D01*
X204815463Y-57899372D01*
X204815463Y-57970401D01*
X204809544Y-58000160D01*
X204809067Y-58002554D01*
X204806963Y-58018325D01*
X204768701Y-58573120D01*
X204739839Y-58744305D01*
X204657501Y-58960830D01*
X204534504Y-59157132D01*
X204375574Y-59325665D01*
X204186818Y-59459955D01*
X203975490Y-59554840D01*
X203749712Y-59606673D01*
X203518161Y-59613464D01*
X203518160Y-59613464D01*
X203472475Y-59605761D01*
X203289733Y-59574951D01*
X203073208Y-59492613D01*
X202876906Y-59369616D01*
X202708373Y-59210686D01*
X202574083Y-59021930D01*
X202479198Y-58810602D01*
X202427365Y-58584824D01*
X202422275Y-58411298D01*
X202463167Y-57818369D01*
X202463463Y-57809771D01*
X202463463Y-57738750D01*
X202482345Y-57643825D01*
X202483007Y-57640220D01*
X202488694Y-57606492D01*
X202499087Y-57544845D01*
X202501548Y-57538374D01*
X202507305Y-57518342D01*
X202508656Y-57511549D01*
X202511306Y-57505151D01*
X202545727Y-57422051D01*
X202547016Y-57418805D01*
X202581425Y-57328320D01*
X202585099Y-57322456D01*
X202594650Y-57303940D01*
X202597305Y-57297530D01*
X202651120Y-57216990D01*
X202653040Y-57214024D01*
X202704422Y-57132018D01*
X202709174Y-57126979D01*
X202722152Y-57110682D01*
X202726000Y-57104923D01*
X202794456Y-57036467D01*
X202797009Y-57033837D01*
X202817486Y-57012123D01*
X202863352Y-56963485D01*
X202868984Y-56959478D01*
X202884910Y-56946013D01*
X202889809Y-56941114D01*
X202951475Y-56899911D01*
X202970296Y-56887334D01*
X202973269Y-56885285D01*
X203052108Y-56829195D01*
X203058418Y-56826362D01*
X203076657Y-56816266D01*
X203082414Y-56812419D01*
X203082417Y-56812418D01*
X203082418Y-56812417D01*
X203171892Y-56775356D01*
X203175150Y-56773950D01*
X203263436Y-56734310D01*
X203270188Y-56732760D01*
X203290025Y-56726423D01*
X203296436Y-56723768D01*
X203391362Y-56704886D01*
X203394909Y-56704126D01*
X203489214Y-56682476D01*
X203491593Y-56682406D01*
X203496128Y-56682273D01*
X203516844Y-56679926D01*
X203523637Y-56678575D01*
X203620422Y-56678575D01*
X203624047Y-56678522D01*
X203720765Y-56675685D01*
X203727590Y-56676836D01*
X203727590Y-56676836D01*
G37*
G36*
X130227839Y-57760453D02*
G01*
X130382711Y-57824603D01*
X130522092Y-57917735D01*
X130640626Y-58036269D01*
X130733758Y-58175650D01*
X130797908Y-58330522D01*
X130830611Y-58494934D01*
X130830611Y-58662566D01*
X130797908Y-58826978D01*
X130733758Y-58981850D01*
X130640626Y-59121231D01*
X130522092Y-59239765D01*
X130382711Y-59332897D01*
X130227839Y-59397047D01*
X130063427Y-59429750D01*
X129895795Y-59429750D01*
X129731383Y-59397047D01*
X129576511Y-59332897D01*
X129437130Y-59239765D01*
X129318596Y-59121231D01*
X129225464Y-58981850D01*
X129161314Y-58826978D01*
X129128611Y-58662566D01*
X129128611Y-58494934D01*
X129161314Y-58330522D01*
X129225464Y-58175650D01*
X129318596Y-58036269D01*
X129437130Y-57917735D01*
X129576511Y-57824603D01*
X129731383Y-57760453D01*
X129895795Y-57727750D01*
X130063427Y-57727750D01*
X130227839Y-57760453D01*
X130227839Y-57760453D01*
G37*
G36*
X145467839Y-57760453D02*
G01*
X145622711Y-57824603D01*
X145762092Y-57917735D01*
X145880626Y-58036269D01*
X145973758Y-58175650D01*
X146037908Y-58330522D01*
X146070611Y-58494934D01*
X146070611Y-58662566D01*
X146037908Y-58826978D01*
X145973758Y-58981850D01*
X145880626Y-59121231D01*
X145762092Y-59239765D01*
X145622711Y-59332897D01*
X145467839Y-59397047D01*
X145303427Y-59429750D01*
X145135795Y-59429750D01*
X144971383Y-59397047D01*
X144816511Y-59332897D01*
X144677130Y-59239765D01*
X144558596Y-59121231D01*
X144465464Y-58981850D01*
X144401314Y-58826978D01*
X144368611Y-58662566D01*
X144368611Y-58494934D01*
X144401314Y-58330522D01*
X144465464Y-58175650D01*
X144558596Y-58036269D01*
X144677130Y-57917735D01*
X144816511Y-57824603D01*
X144971383Y-57760453D01*
X145135795Y-57727750D01*
X145303427Y-57727750D01*
X145467839Y-57760453D01*
X145467839Y-57760453D01*
G37*
G36*
X85281612Y-52945842D02*
G01*
X85499612Y-53036141D01*
X85653761Y-53099991D01*
X85988686Y-53323781D01*
X86273515Y-53608610D01*
X86497305Y-53943535D01*
X86529700Y-54021744D01*
X86651454Y-54315684D01*
X86730038Y-54710752D01*
X86730038Y-55113564D01*
X86651454Y-55508632D01*
X86600589Y-55631430D01*
X86497305Y-55880781D01*
X86273515Y-56215706D01*
X85988686Y-56500535D01*
X85653761Y-56724325D01*
X85565690Y-56760805D01*
X85281612Y-56878474D01*
X84886544Y-56957058D01*
X84483732Y-56957058D01*
X84088664Y-56878474D01*
X83804586Y-56760805D01*
X83716515Y-56724325D01*
X83381590Y-56500535D01*
X83096761Y-56215706D01*
X82872971Y-55880781D01*
X82769687Y-55631430D01*
X82718822Y-55508632D01*
X82640238Y-55113564D01*
X82640238Y-54710752D01*
X82718822Y-54315684D01*
X82840576Y-54021744D01*
X82872971Y-53943535D01*
X83096761Y-53608610D01*
X83381590Y-53323781D01*
X83716515Y-53099991D01*
X83870664Y-53036141D01*
X84088664Y-52945842D01*
X84483732Y-52867258D01*
X84886544Y-52867258D01*
X85281612Y-52945842D01*
X85281612Y-52945842D01*
G37*
G36*
X145467839Y-55220453D02*
G01*
X145622711Y-55284603D01*
X145762092Y-55377735D01*
X145880626Y-55496269D01*
X145973758Y-55635650D01*
X146037908Y-55790522D01*
X146070611Y-55954934D01*
X146070611Y-56122566D01*
X146037908Y-56286978D01*
X145973758Y-56441850D01*
X145880626Y-56581231D01*
X145762092Y-56699765D01*
X145622711Y-56792897D01*
X145467839Y-56857047D01*
X145303427Y-56889750D01*
X145135795Y-56889750D01*
X144971383Y-56857047D01*
X144816511Y-56792897D01*
X144677130Y-56699765D01*
X144558596Y-56581231D01*
X144465464Y-56441850D01*
X144401314Y-56286978D01*
X144368611Y-56122566D01*
X144368611Y-55954934D01*
X144401314Y-55790522D01*
X144465464Y-55635650D01*
X144558596Y-55496269D01*
X144677130Y-55377735D01*
X144816511Y-55284603D01*
X144971383Y-55220453D01*
X145135795Y-55187750D01*
X145303427Y-55187750D01*
X145467839Y-55220453D01*
X145467839Y-55220453D01*
G37*
G36*
X130227839Y-55220453D02*
G01*
X130382711Y-55284603D01*
X130522092Y-55377735D01*
X130640626Y-55496269D01*
X130733758Y-55635650D01*
X130797908Y-55790522D01*
X130830611Y-55954934D01*
X130830611Y-56122566D01*
X130797908Y-56286978D01*
X130733758Y-56441850D01*
X130640626Y-56581231D01*
X130522092Y-56699765D01*
X130382711Y-56792897D01*
X130227839Y-56857047D01*
X130063427Y-56889750D01*
X129895795Y-56889750D01*
X129731383Y-56857047D01*
X129576511Y-56792897D01*
X129437130Y-56699765D01*
X129318596Y-56581231D01*
X129225464Y-56441850D01*
X129161314Y-56286978D01*
X129128611Y-56122566D01*
X129128611Y-55954934D01*
X129161314Y-55790522D01*
X129225464Y-55635650D01*
X129318596Y-55496269D01*
X129437130Y-55377735D01*
X129576511Y-55284603D01*
X129731383Y-55220453D01*
X129895795Y-55187750D01*
X130063427Y-55187750D01*
X130227839Y-55220453D01*
X130227839Y-55220453D01*
G37*
G36*
X79875242Y-54021743D02*
G01*
X80043764Y-54091547D01*
X80195429Y-54192886D01*
X80324410Y-54321867D01*
X80425749Y-54473532D01*
X80495553Y-54642054D01*
X80531138Y-54820955D01*
X80531138Y-55003361D01*
X80495553Y-55182262D01*
X80425749Y-55350784D01*
X80324410Y-55502449D01*
X80195429Y-55631430D01*
X80043764Y-55732769D01*
X79875242Y-55802573D01*
X79696341Y-55838158D01*
X79513935Y-55838158D01*
X79335034Y-55802573D01*
X79166512Y-55732769D01*
X79014847Y-55631430D01*
X78885866Y-55502449D01*
X78784527Y-55350784D01*
X78714723Y-55182262D01*
X78679138Y-55003361D01*
X78679138Y-54820955D01*
X78714723Y-54642054D01*
X78784527Y-54473532D01*
X78885866Y-54321867D01*
X79014847Y-54192886D01*
X79166512Y-54091547D01*
X79335034Y-54021743D01*
X79513935Y-53986158D01*
X79696341Y-53986158D01*
X79875242Y-54021743D01*
X79875242Y-54021743D01*
G37*
G36*
X90035242Y-54021743D02*
G01*
X90203764Y-54091547D01*
X90355429Y-54192886D01*
X90484410Y-54321867D01*
X90585749Y-54473532D01*
X90655553Y-54642054D01*
X90691138Y-54820955D01*
X90691138Y-55003361D01*
X90655553Y-55182262D01*
X90585749Y-55350784D01*
X90484410Y-55502449D01*
X90355429Y-55631430D01*
X90203764Y-55732769D01*
X90035242Y-55802573D01*
X89856341Y-55838158D01*
X89673935Y-55838158D01*
X89495034Y-55802573D01*
X89326512Y-55732769D01*
X89174847Y-55631430D01*
X89045866Y-55502449D01*
X88944527Y-55350784D01*
X88874723Y-55182262D01*
X88839138Y-55003361D01*
X88839138Y-54820955D01*
X88874723Y-54642054D01*
X88944527Y-54473532D01*
X89045866Y-54321867D01*
X89174847Y-54192886D01*
X89326512Y-54091547D01*
X89495034Y-54021743D01*
X89673935Y-53986158D01*
X89856341Y-53986158D01*
X90035242Y-54021743D01*
X90035242Y-54021743D01*
G37*
G36*
X130227839Y-52680453D02*
G01*
X130382711Y-52744603D01*
X130522092Y-52837735D01*
X130640626Y-52956269D01*
X130733758Y-53095650D01*
X130797908Y-53250522D01*
X130830611Y-53414934D01*
X130830611Y-53582566D01*
X130797908Y-53746978D01*
X130733758Y-53901850D01*
X130640626Y-54041231D01*
X130522092Y-54159765D01*
X130382711Y-54252897D01*
X130227839Y-54317047D01*
X130063427Y-54349750D01*
X129895795Y-54349750D01*
X129731383Y-54317047D01*
X129576511Y-54252897D01*
X129437130Y-54159765D01*
X129318596Y-54041231D01*
X129225464Y-53901850D01*
X129161314Y-53746978D01*
X129128611Y-53582566D01*
X129128611Y-53414934D01*
X129161314Y-53250522D01*
X129225464Y-53095650D01*
X129318596Y-52956269D01*
X129437130Y-52837735D01*
X129576511Y-52744603D01*
X129731383Y-52680453D01*
X129895795Y-52647750D01*
X130063427Y-52647750D01*
X130227839Y-52680453D01*
X130227839Y-52680453D01*
G37*
G36*
X145467839Y-52680453D02*
G01*
X145622711Y-52744603D01*
X145762092Y-52837735D01*
X145880626Y-52956269D01*
X145973758Y-53095650D01*
X146037908Y-53250522D01*
X146070611Y-53414934D01*
X146070611Y-53582566D01*
X146037908Y-53746978D01*
X145973758Y-53901850D01*
X145880626Y-54041231D01*
X145762092Y-54159765D01*
X145622711Y-54252897D01*
X145467839Y-54317047D01*
X145303427Y-54349750D01*
X145135795Y-54349750D01*
X144971383Y-54317047D01*
X144816511Y-54252897D01*
X144677130Y-54159765D01*
X144558596Y-54041231D01*
X144465464Y-53901850D01*
X144401314Y-53746978D01*
X144368611Y-53582566D01*
X144368611Y-53414934D01*
X144401314Y-53250522D01*
X144465464Y-53095650D01*
X144558596Y-52956269D01*
X144677130Y-52837735D01*
X144816511Y-52744603D01*
X144971383Y-52680453D01*
X145135795Y-52647750D01*
X145303427Y-52647750D01*
X145467839Y-52680453D01*
X145467839Y-52680453D01*
G37*
G36*
X82208343Y-49736039D02*
G01*
X82213783Y-49736158D01*
X82300966Y-49736158D01*
X82317235Y-49739394D01*
X82336094Y-49741673D01*
X82352670Y-49742404D01*
X82437361Y-49763168D01*
X82442656Y-49764342D01*
X82528165Y-49781351D01*
X82543500Y-49787703D01*
X82561539Y-49793613D01*
X82577659Y-49797565D01*
X82656642Y-49834438D01*
X82661632Y-49836635D01*
X82742183Y-49870000D01*
X82755979Y-49879218D01*
X82772531Y-49888540D01*
X82787564Y-49895558D01*
X82857832Y-49947129D01*
X82862330Y-49950280D01*
X82934794Y-49998699D01*
X82946521Y-50010426D01*
X82960947Y-50022806D01*
X82974317Y-50032619D01*
X82974318Y-50032620D01*
X83033159Y-50096891D01*
X83036967Y-50100872D01*
X83098597Y-50162502D01*
X83107812Y-50176293D01*
X83119534Y-50191236D01*
X83130743Y-50203479D01*
X83175937Y-50278032D01*
X83178884Y-50282659D01*
X83227296Y-50355113D01*
X83233643Y-50370435D01*
X83242230Y-50387389D01*
X83250829Y-50401575D01*
X83280616Y-50483526D01*
X83282590Y-50488606D01*
X83315945Y-50569131D01*
X83315945Y-50569132D01*
X83319179Y-50585391D01*
X83324296Y-50603700D01*
X83329963Y-50619292D01*
X83343193Y-50705503D01*
X83344139Y-50710871D01*
X83361138Y-50796331D01*
X83361138Y-50812910D01*
X83362582Y-50831850D01*
X83365101Y-50848262D01*
X83361258Y-50935407D01*
X83361138Y-50940847D01*
X83361138Y-51027984D01*
X83358238Y-51042565D01*
X83357904Y-51044241D01*
X83355626Y-51063099D01*
X83354894Y-51079689D01*
X83334126Y-51164395D01*
X83332950Y-51169695D01*
X83315945Y-51255185D01*
X83309595Y-51270515D01*
X83303687Y-51288551D01*
X83299733Y-51304678D01*
X83262849Y-51383684D01*
X83260649Y-51388681D01*
X83227296Y-51469203D01*
X83218082Y-51482993D01*
X83208760Y-51499545D01*
X83201740Y-51514582D01*
X83150149Y-51584878D01*
X83147004Y-51589368D01*
X83098599Y-51661812D01*
X83041598Y-51718813D01*
X83036949Y-51723721D01*
X82605449Y-52204628D01*
X81711861Y-53200534D01*
X81583817Y-53317760D01*
X81484768Y-53377804D01*
X81385721Y-53437847D01*
X81168004Y-53516981D01*
X80939033Y-53552119D01*
X80707608Y-53541912D01*
X80482619Y-53486751D01*
X80377865Y-53437847D01*
X80272717Y-53388760D01*
X80175976Y-53317760D01*
X80085961Y-53251697D01*
X80011532Y-53170399D01*
X79929536Y-53080837D01*
X79854023Y-52956270D01*
X79809449Y-52882741D01*
X79730315Y-52665024D01*
X79695177Y-52436053D01*
X79705384Y-52204628D01*
X79760545Y-51979639D01*
X79812110Y-51869186D01*
X79858536Y-51769738D01*
X79858538Y-51769735D01*
X79961252Y-51629780D01*
X80638546Y-50874935D01*
X81247925Y-50195779D01*
X81258819Y-50181747D01*
X81271677Y-50162504D01*
X81328711Y-50105470D01*
X81333361Y-50100561D01*
X81348416Y-50083782D01*
X81369839Y-50064169D01*
X81373820Y-50060361D01*
X81435484Y-49998697D01*
X81449281Y-49989478D01*
X81464240Y-49977743D01*
X81476459Y-49966556D01*
X81508523Y-49947119D01*
X81550968Y-49921389D01*
X81555559Y-49918466D01*
X81628093Y-49870000D01*
X81643438Y-49863644D01*
X81660386Y-49855059D01*
X81674554Y-49846470D01*
X81674555Y-49846470D01*
X81674556Y-49846469D01*
X81756450Y-49816703D01*
X81761548Y-49814721D01*
X81842111Y-49781351D01*
X81858390Y-49778113D01*
X81876680Y-49773002D01*
X81892273Y-49767335D01*
X81978438Y-49754112D01*
X81983801Y-49753167D01*
X82069311Y-49736158D01*
X82085904Y-49736158D01*
X82104847Y-49734713D01*
X82121244Y-49732197D01*
X82208343Y-49736039D01*
X82208343Y-49736039D01*
G37*
G36*
X145467839Y-50140453D02*
G01*
X145622711Y-50204603D01*
X145762092Y-50297735D01*
X145880626Y-50416269D01*
X145973758Y-50555650D01*
X146037908Y-50710522D01*
X146070611Y-50874934D01*
X146070611Y-51042566D01*
X146037908Y-51206978D01*
X145973758Y-51361850D01*
X145880626Y-51501231D01*
X145762092Y-51619765D01*
X145622711Y-51712897D01*
X145467839Y-51777047D01*
X145303427Y-51809750D01*
X145135795Y-51809750D01*
X144971383Y-51777047D01*
X144816511Y-51712897D01*
X144677130Y-51619765D01*
X144558596Y-51501231D01*
X144465464Y-51361850D01*
X144401314Y-51206978D01*
X144368611Y-51042566D01*
X144368611Y-50874934D01*
X144401314Y-50710522D01*
X144465464Y-50555650D01*
X144558596Y-50416269D01*
X144677130Y-50297735D01*
X144816511Y-50204603D01*
X144971383Y-50140453D01*
X145135795Y-50107750D01*
X145303427Y-50107750D01*
X145467839Y-50140453D01*
X145467839Y-50140453D01*
G37*
G36*
X130227839Y-50140453D02*
G01*
X130382711Y-50204603D01*
X130522092Y-50297735D01*
X130640626Y-50416269D01*
X130733758Y-50555650D01*
X130797908Y-50710522D01*
X130830611Y-50874934D01*
X130830611Y-51042566D01*
X130797908Y-51206978D01*
X130733758Y-51361850D01*
X130640626Y-51501231D01*
X130522092Y-51619765D01*
X130382711Y-51712897D01*
X130227839Y-51777047D01*
X130063427Y-51809750D01*
X129895795Y-51809750D01*
X129731383Y-51777047D01*
X129576511Y-51712897D01*
X129437130Y-51619765D01*
X129318596Y-51501231D01*
X129225464Y-51361850D01*
X129161314Y-51206978D01*
X129128611Y-51042566D01*
X129128611Y-50874934D01*
X129161314Y-50710522D01*
X129225464Y-50555650D01*
X129318596Y-50416269D01*
X129437130Y-50297735D01*
X129576511Y-50204603D01*
X129731383Y-50140453D01*
X129895795Y-50107750D01*
X130063427Y-50107750D01*
X130227839Y-50140453D01*
X130227839Y-50140453D01*
G37*
G36*
X87313265Y-48654419D02*
G01*
X87334038Y-48656158D01*
X87340965Y-48656158D01*
X87435892Y-48675040D01*
X87439486Y-48675700D01*
X87534868Y-48691782D01*
X87541341Y-48694243D01*
X87561366Y-48699999D01*
X87568165Y-48701351D01*
X87630552Y-48727192D01*
X87657581Y-48738388D01*
X87660982Y-48739739D01*
X87751393Y-48774119D01*
X87757265Y-48777798D01*
X87775774Y-48787345D01*
X87782183Y-48790000D01*
X87862701Y-48843800D01*
X87865692Y-48845736D01*
X87947695Y-48897117D01*
X87952722Y-48901858D01*
X87969034Y-48914849D01*
X87974790Y-48918695D01*
X88043248Y-48987153D01*
X88045827Y-48989657D01*
X88116228Y-49056047D01*
X88120233Y-49061677D01*
X88133697Y-49077602D01*
X88138597Y-49082502D01*
X88192382Y-49162997D01*
X88194429Y-49165965D01*
X88250518Y-49244803D01*
X88253352Y-49251116D01*
X88263446Y-49269351D01*
X88267296Y-49275113D01*
X88304358Y-49364588D01*
X88305762Y-49367843D01*
X88345403Y-49456131D01*
X88346953Y-49462883D01*
X88353290Y-49482720D01*
X88355945Y-49489131D01*
X88374830Y-49584075D01*
X88375576Y-49587559D01*
X88397236Y-49681909D01*
X88397236Y-49681912D01*
X88397438Y-49688812D01*
X88399785Y-49709528D01*
X88401138Y-49716332D01*
X88401138Y-49813144D01*
X88401191Y-49816742D01*
X88402326Y-49855435D01*
X88401433Y-49868383D01*
X88401138Y-49876955D01*
X88401138Y-49947984D01*
X88395219Y-49977743D01*
X88394742Y-49980137D01*
X88392638Y-49995908D01*
X88354376Y-50550703D01*
X88325514Y-50721888D01*
X88243176Y-50938413D01*
X88120179Y-51134715D01*
X87961249Y-51303248D01*
X87772493Y-51437538D01*
X87561165Y-51532423D01*
X87335387Y-51584256D01*
X87103836Y-51591047D01*
X87103835Y-51591047D01*
X87058150Y-51583344D01*
X86875408Y-51552534D01*
X86658883Y-51470196D01*
X86462581Y-51347199D01*
X86294048Y-51188269D01*
X86159758Y-50999513D01*
X86064873Y-50788185D01*
X86013040Y-50562407D01*
X86007950Y-50388881D01*
X86048842Y-49795952D01*
X86049138Y-49787354D01*
X86049138Y-49716333D01*
X86068020Y-49621408D01*
X86068682Y-49617803D01*
X86074369Y-49584075D01*
X86084762Y-49522428D01*
X86087223Y-49515957D01*
X86092980Y-49495925D01*
X86094331Y-49489132D01*
X86096981Y-49482734D01*
X86131402Y-49399634D01*
X86132691Y-49396388D01*
X86167100Y-49305903D01*
X86170774Y-49300039D01*
X86180325Y-49281523D01*
X86182980Y-49275113D01*
X86236795Y-49194573D01*
X86238715Y-49191607D01*
X86290097Y-49109601D01*
X86294849Y-49104562D01*
X86307827Y-49088265D01*
X86311675Y-49082506D01*
X86380131Y-49014050D01*
X86382684Y-49011420D01*
X86403161Y-48989706D01*
X86449027Y-48941068D01*
X86454659Y-48937061D01*
X86470585Y-48923596D01*
X86475484Y-48918697D01*
X86555962Y-48864924D01*
X86558944Y-48862868D01*
X86637783Y-48806778D01*
X86644093Y-48803945D01*
X86662332Y-48793849D01*
X86668089Y-48790002D01*
X86668092Y-48790001D01*
X86668093Y-48790000D01*
X86757567Y-48752939D01*
X86760825Y-48751533D01*
X86849111Y-48711893D01*
X86855863Y-48710343D01*
X86875700Y-48704006D01*
X86882111Y-48701351D01*
X86977037Y-48682469D01*
X86980584Y-48681709D01*
X87074889Y-48660059D01*
X87077268Y-48659989D01*
X87081803Y-48659856D01*
X87102519Y-48657509D01*
X87109312Y-48656158D01*
X87206097Y-48656158D01*
X87209722Y-48656105D01*
X87306440Y-48653268D01*
X87313265Y-48654419D01*
X87313265Y-48654419D01*
G37*
G36*
X130227839Y-47600453D02*
G01*
X130382711Y-47664603D01*
X130522092Y-47757735D01*
X130640626Y-47876269D01*
X130733758Y-48015650D01*
X130797908Y-48170522D01*
X130830611Y-48334934D01*
X130830611Y-48502566D01*
X130797908Y-48666978D01*
X130733758Y-48821850D01*
X130640626Y-48961231D01*
X130522092Y-49079765D01*
X130382711Y-49172897D01*
X130227839Y-49237047D01*
X130063427Y-49269750D01*
X129895795Y-49269750D01*
X129731383Y-49237047D01*
X129576511Y-49172897D01*
X129437130Y-49079765D01*
X129318596Y-48961231D01*
X129225464Y-48821850D01*
X129161314Y-48666978D01*
X129128611Y-48502566D01*
X129128611Y-48334934D01*
X129161314Y-48170522D01*
X129225464Y-48015650D01*
X129318596Y-47876269D01*
X129437130Y-47757735D01*
X129576511Y-47664603D01*
X129731383Y-47600453D01*
X129895795Y-47567750D01*
X130063427Y-47567750D01*
X130227839Y-47600453D01*
X130227839Y-47600453D01*
G37*
G36*
X145467839Y-47600453D02*
G01*
X145622711Y-47664603D01*
X145762092Y-47757735D01*
X145880626Y-47876269D01*
X145973758Y-48015650D01*
X146037908Y-48170522D01*
X146070611Y-48334934D01*
X146070611Y-48502566D01*
X146037908Y-48666978D01*
X145973758Y-48821850D01*
X145880626Y-48961231D01*
X145762092Y-49079765D01*
X145622711Y-49172897D01*
X145467839Y-49237047D01*
X145303427Y-49269750D01*
X145135795Y-49269750D01*
X144971383Y-49237047D01*
X144816511Y-49172897D01*
X144677130Y-49079765D01*
X144558596Y-48961231D01*
X144465464Y-48821850D01*
X144401314Y-48666978D01*
X144368611Y-48502566D01*
X144368611Y-48334934D01*
X144401314Y-48170522D01*
X144465464Y-48015650D01*
X144558596Y-47876269D01*
X144677130Y-47757735D01*
X144816511Y-47664603D01*
X144971383Y-47600453D01*
X145135795Y-47567750D01*
X145303427Y-47567750D01*
X145467839Y-47600453D01*
X145467839Y-47600453D01*
G37*
G36*
X130227839Y-45060453D02*
G01*
X130382711Y-45124603D01*
X130522092Y-45217735D01*
X130640626Y-45336269D01*
X130733758Y-45475650D01*
X130797908Y-45630522D01*
X130830611Y-45794934D01*
X130830611Y-45962566D01*
X130797908Y-46126978D01*
X130733758Y-46281850D01*
X130640626Y-46421231D01*
X130522092Y-46539765D01*
X130382711Y-46632897D01*
X130227839Y-46697047D01*
X130063427Y-46729750D01*
X129895795Y-46729750D01*
X129731383Y-46697047D01*
X129576511Y-46632897D01*
X129437130Y-46539765D01*
X129318596Y-46421231D01*
X129225464Y-46281850D01*
X129161314Y-46126978D01*
X129128611Y-45962566D01*
X129128611Y-45794934D01*
X129161314Y-45630522D01*
X129225464Y-45475650D01*
X129318596Y-45336269D01*
X129437130Y-45217735D01*
X129576511Y-45124603D01*
X129731383Y-45060453D01*
X129895795Y-45027750D01*
X130063427Y-45027750D01*
X130227839Y-45060453D01*
X130227839Y-45060453D01*
G37*
G36*
X145467839Y-45060453D02*
G01*
X145622711Y-45124603D01*
X145762092Y-45217735D01*
X145880626Y-45336269D01*
X145973758Y-45475650D01*
X146037908Y-45630522D01*
X146070611Y-45794934D01*
X146070611Y-45962566D01*
X146037908Y-46126978D01*
X145973758Y-46281850D01*
X145880626Y-46421231D01*
X145762092Y-46539765D01*
X145622711Y-46632897D01*
X145467839Y-46697047D01*
X145303427Y-46729750D01*
X145135795Y-46729750D01*
X144971383Y-46697047D01*
X144816511Y-46632897D01*
X144677130Y-46539765D01*
X144558596Y-46421231D01*
X144465464Y-46281850D01*
X144401314Y-46126978D01*
X144368611Y-45962566D01*
X144368611Y-45794934D01*
X144401314Y-45630522D01*
X144465464Y-45475650D01*
X144558596Y-45336269D01*
X144677130Y-45217735D01*
X144816511Y-45124603D01*
X144971383Y-45060453D01*
X145135795Y-45027750D01*
X145303427Y-45027750D01*
X145467839Y-45060453D01*
X145467839Y-45060453D01*
G37*
G36*
X145467839Y-42520453D02*
G01*
X145622711Y-42584603D01*
X145762092Y-42677735D01*
X145880626Y-42796269D01*
X145973758Y-42935650D01*
X146037908Y-43090522D01*
X146070611Y-43254934D01*
X146070611Y-43422566D01*
X146037908Y-43586978D01*
X145973758Y-43741850D01*
X145880626Y-43881231D01*
X145762092Y-43999765D01*
X145622711Y-44092897D01*
X145467839Y-44157047D01*
X145303427Y-44189750D01*
X145135795Y-44189750D01*
X144971383Y-44157047D01*
X144816511Y-44092897D01*
X144677130Y-43999765D01*
X144558596Y-43881231D01*
X144465464Y-43741850D01*
X144401314Y-43586978D01*
X144368611Y-43422566D01*
X144368611Y-43254934D01*
X144401314Y-43090522D01*
X144465464Y-42935650D01*
X144558596Y-42796269D01*
X144677130Y-42677735D01*
X144816511Y-42584603D01*
X144971383Y-42520453D01*
X145135795Y-42487750D01*
X145303427Y-42487750D01*
X145467839Y-42520453D01*
X145467839Y-42520453D01*
G37*
G36*
X130830611Y-44189750D02*
G01*
X129128611Y-44189750D01*
X129128611Y-42487750D01*
X130830611Y-42487750D01*
X130830611Y-44189750D01*
X130830611Y-44189750D01*
G37*
M02*
