G04 #@! TF.GenerationSoftware,KiCad,Pcbnew,(5.1.4)-1*
G04 #@! TF.CreationDate,2022-05-26T12:08:07-08:00*
G04 #@! TF.ProjectId,No2 controller PCB,4e6f3220-636f-46e7-9472-6f6c6c657220,rev?*
G04 #@! TF.SameCoordinates,Original*
G04 #@! TF.FileFunction,Legend,Bot*
G04 #@! TF.FilePolarity,Positive*
%FSLAX46Y46*%
G04 Gerber Fmt 4.6, Leading zero omitted, Abs format (unit mm)*
G04 Created by KiCad (PCBNEW (5.1.4)-1) date 2022-05-26 12:08:07*
%MOMM*%
%LPD*%
G04 APERTURE LIST*
%ADD10C,0.150000*%
%ADD11C,1.852000*%
%ADD12R,2.007000X2.007000*%
%ADD13C,2.007000*%
%ADD14C,2.352000*%
%ADD15C,4.089800*%
%ADD16C,2.352000*%
%ADD17C,1.702000*%
%ADD18R,1.702000X1.702000*%
G04 APERTURE END LIST*
D10*
X146489611Y-42068750D02*
X146489611Y-72548750D01*
X141409611Y-42068750D02*
X146489611Y-42068750D01*
X141409611Y-39528750D02*
X141409611Y-42068750D01*
X133789611Y-39528750D02*
X141409611Y-39528750D01*
X133789611Y-42068750D02*
X133789611Y-39528750D01*
X128709611Y-42068750D02*
X133789611Y-42068750D01*
X128709611Y-72548750D02*
X128709611Y-42068750D01*
X146489611Y-72548750D02*
X128709611Y-72548750D01*
%LPC*%
D11*
X89777762Y-92990971D03*
X79617762Y-92990971D03*
D12*
X85967762Y-98070971D03*
D13*
X83427762Y-98070971D03*
D14*
X82197762Y-88990971D03*
D15*
X84697762Y-92990971D03*
D14*
X81542763Y-89720971D03*
D16*
X80887762Y-90450971D02*
X82197764Y-88990971D01*
D14*
X87237762Y-87910971D03*
X87217762Y-88200971D03*
D16*
X87197762Y-88490971D02*
X87237762Y-87910971D01*
D11*
X99320823Y-73874165D03*
X89160823Y-73874165D03*
D12*
X95510823Y-78954165D03*
D13*
X92970823Y-78954165D03*
D14*
X91740823Y-69874165D03*
D15*
X94240823Y-73874165D03*
D14*
X91085824Y-70604165D03*
D16*
X90430823Y-71334165D02*
X91740825Y-69874165D01*
D14*
X96780823Y-68794165D03*
X96760823Y-69084165D03*
D16*
X96740823Y-69374165D02*
X96780823Y-68794165D01*
D17*
X145219611Y-43338750D03*
X145219611Y-45878750D03*
X145219611Y-48418750D03*
X145219611Y-50958750D03*
X145219611Y-53498750D03*
X145219611Y-56038750D03*
X145219611Y-58578750D03*
X145219611Y-61118750D03*
X145219611Y-63658750D03*
X145219611Y-66198750D03*
X145219611Y-68738750D03*
X145219611Y-71278750D03*
X129979611Y-71278750D03*
X129979611Y-68738750D03*
X129979611Y-66198750D03*
X129979611Y-63658750D03*
X129979611Y-61118750D03*
X129979611Y-58578750D03*
X129979611Y-56038750D03*
X129979611Y-53498750D03*
X129979611Y-50958750D03*
X129979611Y-48418750D03*
X129979611Y-45878750D03*
D18*
X129979611Y-43338750D03*
D11*
X206249505Y-82013124D03*
X196089505Y-82013124D03*
D12*
X202439505Y-87093124D03*
D13*
X199899505Y-87093124D03*
D14*
X198669505Y-78013124D03*
D15*
X201169505Y-82013124D03*
D14*
X198014506Y-78743124D03*
D16*
X197359505Y-79473124D02*
X198669507Y-78013124D01*
D14*
X203709505Y-76933124D03*
X203689505Y-77223124D03*
D16*
X203669505Y-77513124D02*
X203709505Y-76933124D01*
D11*
X206179463Y-62934575D03*
X196019463Y-62934575D03*
D12*
X202369463Y-68014575D03*
D13*
X199829463Y-68014575D03*
D14*
X198599463Y-58934575D03*
D15*
X201099463Y-62934575D03*
D14*
X197944464Y-59664575D03*
D16*
X197289463Y-60394575D02*
X198599465Y-58934575D01*
D14*
X203639463Y-57854575D03*
X203619463Y-58144575D03*
D16*
X203599463Y-58434575D02*
X203639463Y-57854575D01*
D11*
X187198491Y-84985281D03*
X177038491Y-84985281D03*
D12*
X183388491Y-90065281D03*
D13*
X180848491Y-90065281D03*
D14*
X179618491Y-80985281D03*
D15*
X182118491Y-84985281D03*
D14*
X178963492Y-81715281D03*
D16*
X178308491Y-82445281D02*
X179618493Y-80985281D01*
D14*
X184658491Y-79905281D03*
X184638491Y-80195281D03*
D16*
X184618491Y-80485281D02*
X184658491Y-79905281D01*
D11*
X187149785Y-65981811D03*
X176989785Y-65981811D03*
D12*
X183339785Y-71061811D03*
D13*
X180799785Y-71061811D03*
D14*
X179569785Y-61981811D03*
D15*
X182069785Y-65981811D03*
D14*
X178914786Y-62711811D03*
D16*
X178259785Y-63441811D02*
X179569787Y-61981811D01*
D14*
X184609785Y-60901811D03*
X184589785Y-61191811D03*
D16*
X184569785Y-61481811D02*
X184609785Y-60901811D01*
D11*
X89765138Y-54912158D03*
X79605138Y-54912158D03*
D12*
X85955138Y-59992158D03*
D13*
X83415138Y-59992158D03*
D14*
X82185138Y-50912158D03*
D15*
X84685138Y-54912158D03*
D14*
X81530139Y-51642158D03*
D16*
X80875138Y-52372158D02*
X82185140Y-50912158D01*
D14*
X87225138Y-49832158D03*
X87205138Y-50122158D03*
D16*
X87185138Y-50412158D02*
X87225138Y-49832158D01*
D11*
X80234702Y-73935535D03*
X70074702Y-73935535D03*
D12*
X76424702Y-79015535D03*
D13*
X73884702Y-79015535D03*
D14*
X72654702Y-69935535D03*
D15*
X75154702Y-73935535D03*
D14*
X71999703Y-70665535D03*
D16*
X71344702Y-71395535D02*
X72654704Y-69935535D01*
D14*
X77694702Y-68855535D03*
X77674702Y-69145535D03*
D16*
X77654702Y-69435535D02*
X77694702Y-68855535D01*
M02*
