G04 #@! TF.GenerationSoftware,KiCad,Pcbnew,(5.1.4)-1*
G04 #@! TF.CreationDate,2022-05-26T12:08:07-08:00*
G04 #@! TF.ProjectId,No2 controller PCB,4e6f3220-636f-46e7-9472-6f6c6c657220,rev?*
G04 #@! TF.SameCoordinates,Original*
G04 #@! TF.FileFunction,Copper,L2,Bot*
G04 #@! TF.FilePolarity,Positive*
%FSLAX46Y46*%
G04 Gerber Fmt 4.6, Leading zero omitted, Abs format (unit mm)*
G04 Created by KiCad (PCBNEW (5.1.4)-1) date 2022-05-26 12:08:07*
%MOMM*%
%LPD*%
G04 APERTURE LIST*
%ADD10R,1.905000X1.905000*%
%ADD11C,1.905000*%
%ADD12C,2.250000*%
%ADD13C,2.250000*%
%ADD14C,1.600000*%
%ADD15R,1.600000X1.600000*%
%ADD16C,0.254000*%
G04 APERTURE END LIST*
D10*
X85967762Y-98070971D03*
D11*
X83427762Y-98070971D03*
D12*
X82197762Y-88990971D03*
X81542763Y-89720971D03*
D13*
X80887762Y-90450971D02*
X82197764Y-88990971D01*
D12*
X87237762Y-87910971D03*
X87217762Y-88200971D03*
D13*
X87197762Y-88490971D02*
X87237762Y-87910971D01*
D10*
X95510823Y-78954165D03*
D11*
X92970823Y-78954165D03*
D12*
X91740823Y-69874165D03*
X91085824Y-70604165D03*
D13*
X90430823Y-71334165D02*
X91740825Y-69874165D01*
D12*
X96780823Y-68794165D03*
X96760823Y-69084165D03*
D13*
X96740823Y-69374165D02*
X96780823Y-68794165D01*
D14*
X145219611Y-43338750D03*
X145219611Y-45878750D03*
X145219611Y-48418750D03*
X145219611Y-50958750D03*
X145219611Y-53498750D03*
X145219611Y-56038750D03*
X145219611Y-58578750D03*
X145219611Y-61118750D03*
X145219611Y-63658750D03*
X145219611Y-66198750D03*
X145219611Y-68738750D03*
X145219611Y-71278750D03*
X129979611Y-71278750D03*
X129979611Y-68738750D03*
X129979611Y-66198750D03*
X129979611Y-63658750D03*
X129979611Y-61118750D03*
X129979611Y-58578750D03*
X129979611Y-56038750D03*
X129979611Y-53498750D03*
X129979611Y-50958750D03*
X129979611Y-48418750D03*
X129979611Y-45878750D03*
D15*
X129979611Y-43338750D03*
D10*
X202439505Y-87093124D03*
D11*
X199899505Y-87093124D03*
D12*
X198669505Y-78013124D03*
X198014506Y-78743124D03*
D13*
X197359505Y-79473124D02*
X198669507Y-78013124D01*
D12*
X203709505Y-76933124D03*
X203689505Y-77223124D03*
D13*
X203669505Y-77513124D02*
X203709505Y-76933124D01*
D10*
X202369463Y-68014575D03*
D11*
X199829463Y-68014575D03*
D12*
X198599463Y-58934575D03*
X197944464Y-59664575D03*
D13*
X197289463Y-60394575D02*
X198599465Y-58934575D01*
D12*
X203639463Y-57854575D03*
X203619463Y-58144575D03*
D13*
X203599463Y-58434575D02*
X203639463Y-57854575D01*
D10*
X183388491Y-90065281D03*
D11*
X180848491Y-90065281D03*
D12*
X179618491Y-80985281D03*
X178963492Y-81715281D03*
D13*
X178308491Y-82445281D02*
X179618493Y-80985281D01*
D12*
X184658491Y-79905281D03*
X184638491Y-80195281D03*
D13*
X184618491Y-80485281D02*
X184658491Y-79905281D01*
D10*
X183339785Y-71061811D03*
D11*
X180799785Y-71061811D03*
D12*
X179569785Y-61981811D03*
X178914786Y-62711811D03*
D13*
X178259785Y-63441811D02*
X179569787Y-61981811D01*
D12*
X184609785Y-60901811D03*
X184589785Y-61191811D03*
D13*
X184569785Y-61481811D02*
X184609785Y-60901811D01*
D10*
X85955138Y-59992158D03*
D11*
X83415138Y-59992158D03*
D12*
X82185138Y-50912158D03*
X81530139Y-51642158D03*
D13*
X80875138Y-52372158D02*
X82185140Y-50912158D01*
D12*
X87225138Y-49832158D03*
X87205138Y-50122158D03*
D13*
X87185138Y-50412158D02*
X87225138Y-49832158D01*
D10*
X76424702Y-79015535D03*
D11*
X73884702Y-79015535D03*
D12*
X72654702Y-69935535D03*
X71999703Y-70665535D03*
D13*
X71344702Y-71395535D02*
X72654704Y-69935535D01*
D12*
X77694702Y-68855535D03*
X77674702Y-69145535D03*
D13*
X77654702Y-69435535D02*
X77694702Y-68855535D01*
D16*
G36*
X209503632Y-39712890D02*
G01*
X210432136Y-39923523D01*
X211319303Y-40269083D01*
X212145657Y-40741983D01*
X212893036Y-41331832D01*
X213545011Y-42025663D01*
X214087278Y-42808250D01*
X214507913Y-43662391D01*
X214797675Y-44569317D01*
X214951961Y-45519944D01*
X214976251Y-46072150D01*
X214959660Y-101795133D01*
X214886658Y-102770281D01*
X214676025Y-103698785D01*
X214330465Y-104585952D01*
X213857563Y-105412310D01*
X213267717Y-106159685D01*
X212573885Y-106811660D01*
X211791300Y-107353926D01*
X210937159Y-107774561D01*
X210030225Y-108064326D01*
X209079603Y-108218610D01*
X208527301Y-108242905D01*
X67808678Y-108247318D01*
X66833616Y-108174323D01*
X65905112Y-107963690D01*
X65017945Y-107618130D01*
X64191587Y-107145228D01*
X63444212Y-106555382D01*
X62792237Y-105861550D01*
X62249971Y-105078965D01*
X61829336Y-104224824D01*
X61539571Y-103317890D01*
X61385287Y-102367268D01*
X61360994Y-101815008D01*
X61361333Y-97914616D01*
X81840262Y-97914616D01*
X81840262Y-98227326D01*
X81901269Y-98534028D01*
X82020938Y-98822934D01*
X82194670Y-99082943D01*
X82415790Y-99304063D01*
X82675799Y-99477795D01*
X82964705Y-99597464D01*
X83271407Y-99658471D01*
X83584117Y-99658471D01*
X83890819Y-99597464D01*
X84179725Y-99477795D01*
X84439734Y-99304063D01*
X84443311Y-99300486D01*
X84484725Y-99377965D01*
X84564077Y-99474656D01*
X84660768Y-99554008D01*
X84771082Y-99612973D01*
X84890780Y-99649283D01*
X85015262Y-99661543D01*
X86920262Y-99661543D01*
X87044744Y-99649283D01*
X87164442Y-99612973D01*
X87274756Y-99554008D01*
X87371447Y-99474656D01*
X87450799Y-99377965D01*
X87509764Y-99267651D01*
X87546074Y-99147953D01*
X87558334Y-99023471D01*
X87558334Y-97118471D01*
X87546074Y-96993989D01*
X87509764Y-96874291D01*
X87450799Y-96763977D01*
X87371447Y-96667286D01*
X87274756Y-96587934D01*
X87164442Y-96528969D01*
X87044744Y-96492659D01*
X86920262Y-96480399D01*
X85015262Y-96480399D01*
X84890780Y-96492659D01*
X84771082Y-96528969D01*
X84660768Y-96587934D01*
X84564077Y-96667286D01*
X84484725Y-96763977D01*
X84443311Y-96841456D01*
X84439734Y-96837879D01*
X84179725Y-96664147D01*
X83890819Y-96544478D01*
X83584117Y-96483471D01*
X83271407Y-96483471D01*
X82964705Y-96544478D01*
X82675799Y-96664147D01*
X82415790Y-96837879D01*
X82194670Y-97058999D01*
X82020938Y-97319008D01*
X81901269Y-97607914D01*
X81840262Y-97914616D01*
X61361333Y-97914616D01*
X61361774Y-92842249D01*
X78107762Y-92842249D01*
X78107762Y-93139693D01*
X78165791Y-93431422D01*
X78279618Y-93706224D01*
X78444869Y-93953540D01*
X78655193Y-94163864D01*
X78902509Y-94329115D01*
X79177311Y-94442942D01*
X79469040Y-94500971D01*
X79766484Y-94500971D01*
X80058213Y-94442942D01*
X80333015Y-94329115D01*
X80580331Y-94163864D01*
X80790655Y-93953540D01*
X80955906Y-93706224D01*
X81069733Y-93431422D01*
X81127762Y-93139693D01*
X81127762Y-92842249D01*
X81105842Y-92732047D01*
X82068862Y-92732047D01*
X82068862Y-93249895D01*
X82169889Y-93757793D01*
X82368061Y-94236222D01*
X82655762Y-94666797D01*
X83021936Y-95032971D01*
X83452511Y-95320672D01*
X83930940Y-95518844D01*
X84438838Y-95619871D01*
X84956686Y-95619871D01*
X85464584Y-95518844D01*
X85943013Y-95320672D01*
X86373588Y-95032971D01*
X86739762Y-94666797D01*
X87027463Y-94236222D01*
X87225635Y-93757793D01*
X87326662Y-93249895D01*
X87326662Y-92842249D01*
X88267762Y-92842249D01*
X88267762Y-93139693D01*
X88325791Y-93431422D01*
X88439618Y-93706224D01*
X88604869Y-93953540D01*
X88815193Y-94163864D01*
X89062509Y-94329115D01*
X89337311Y-94442942D01*
X89629040Y-94500971D01*
X89926484Y-94500971D01*
X90218213Y-94442942D01*
X90493015Y-94329115D01*
X90740331Y-94163864D01*
X90950655Y-93953540D01*
X91115906Y-93706224D01*
X91229733Y-93431422D01*
X91287762Y-93139693D01*
X91287762Y-92842249D01*
X91229733Y-92550520D01*
X91115906Y-92275718D01*
X90950655Y-92028402D01*
X90740331Y-91818078D01*
X90493015Y-91652827D01*
X90218213Y-91539000D01*
X89926484Y-91480971D01*
X89629040Y-91480971D01*
X89337311Y-91539000D01*
X89062509Y-91652827D01*
X88815193Y-91818078D01*
X88604869Y-92028402D01*
X88439618Y-92275718D01*
X88325791Y-92550520D01*
X88267762Y-92842249D01*
X87326662Y-92842249D01*
X87326662Y-92732047D01*
X87225635Y-92224149D01*
X87027463Y-91745720D01*
X86739762Y-91315145D01*
X86373588Y-90948971D01*
X85943013Y-90661270D01*
X85464584Y-90463098D01*
X84956686Y-90362071D01*
X84438838Y-90362071D01*
X83930940Y-90463098D01*
X83452511Y-90661270D01*
X83021936Y-90948971D01*
X82655762Y-91315145D01*
X82368061Y-91745720D01*
X82169889Y-92224149D01*
X82068862Y-92732047D01*
X81105842Y-92732047D01*
X81069733Y-92550520D01*
X80955906Y-92275718D01*
X80914576Y-92213863D01*
X80983388Y-92216898D01*
X81326066Y-92164310D01*
X81651901Y-92045880D01*
X81948369Y-91866158D01*
X82140005Y-91690713D01*
X83475962Y-90201787D01*
X83564843Y-90112906D01*
X83639589Y-90001041D01*
X83719206Y-89892558D01*
X83735741Y-89857140D01*
X83757454Y-89824644D01*
X83808937Y-89700353D01*
X83865863Y-89578416D01*
X83875172Y-89540447D01*
X83890126Y-89504344D01*
X83916372Y-89372397D01*
X83948415Y-89241698D01*
X83950137Y-89202648D01*
X83957762Y-89164316D01*
X83957762Y-89029773D01*
X83963691Y-88895345D01*
X83957762Y-88856710D01*
X83957762Y-88817626D01*
X83931513Y-88685662D01*
X83911103Y-88552667D01*
X83897751Y-88515932D01*
X83893902Y-88496578D01*
X85433195Y-88496578D01*
X85468194Y-88840721D01*
X85569660Y-89171422D01*
X85733693Y-89475975D01*
X85953990Y-89742674D01*
X86222083Y-89961270D01*
X86527672Y-90123365D01*
X86680744Y-90173319D01*
X86961240Y-90074657D01*
X86989941Y-89658489D01*
X87243397Y-89675131D01*
X87214638Y-90092133D01*
X87478934Y-90228367D01*
X87637416Y-90199899D01*
X87962363Y-90081290D01*
X88245824Y-89908926D01*
X179260991Y-89908926D01*
X179260991Y-90221636D01*
X179321998Y-90528338D01*
X179441667Y-90817244D01*
X179615399Y-91077253D01*
X179836519Y-91298373D01*
X180096528Y-91472105D01*
X180385434Y-91591774D01*
X180692136Y-91652781D01*
X181004846Y-91652781D01*
X181311548Y-91591774D01*
X181600454Y-91472105D01*
X181860463Y-91298373D01*
X181864040Y-91294796D01*
X181905454Y-91372275D01*
X181984806Y-91468966D01*
X182081497Y-91548318D01*
X182191811Y-91607283D01*
X182311509Y-91643593D01*
X182435991Y-91655853D01*
X184340991Y-91655853D01*
X184465473Y-91643593D01*
X184585171Y-91607283D01*
X184695485Y-91548318D01*
X184792176Y-91468966D01*
X184871528Y-91372275D01*
X184930493Y-91261961D01*
X184966803Y-91142263D01*
X184979063Y-91017781D01*
X184979063Y-89112781D01*
X184966803Y-88988299D01*
X184930493Y-88868601D01*
X184871528Y-88758287D01*
X184792176Y-88661596D01*
X184695485Y-88582244D01*
X184585171Y-88523279D01*
X184465473Y-88486969D01*
X184340991Y-88474709D01*
X182435991Y-88474709D01*
X182311509Y-88486969D01*
X182191811Y-88523279D01*
X182081497Y-88582244D01*
X181984806Y-88661596D01*
X181905454Y-88758287D01*
X181864040Y-88835766D01*
X181860463Y-88832189D01*
X181600454Y-88658457D01*
X181311548Y-88538788D01*
X181004846Y-88477781D01*
X180692136Y-88477781D01*
X180385434Y-88538788D01*
X180096528Y-88658457D01*
X179836519Y-88832189D01*
X179615399Y-89053309D01*
X179441667Y-89313318D01*
X179321998Y-89602224D01*
X179260991Y-89908926D01*
X88245824Y-89908926D01*
X88257927Y-89901567D01*
X88512750Y-89667635D01*
X88717038Y-89388484D01*
X88862942Y-89074842D01*
X88944853Y-88738762D01*
X88964853Y-88448762D01*
X88916628Y-88445436D01*
X88982622Y-88199266D01*
X88993800Y-88029030D01*
X89002329Y-87905364D01*
X89002081Y-87902924D01*
X89005338Y-87853321D01*
X88968732Y-87575007D01*
X88967330Y-87561221D01*
X88966610Y-87558875D01*
X88960128Y-87509591D01*
X88869924Y-87243751D01*
X88865864Y-87230520D01*
X88864702Y-87228362D01*
X88848728Y-87181286D01*
X88739476Y-86976892D01*
X88726455Y-86971685D01*
X88701831Y-86925967D01*
X88481534Y-86659268D01*
X88213441Y-86440672D01*
X88176586Y-86421123D01*
X88171841Y-86409257D01*
X87920113Y-86285081D01*
X87907852Y-86278577D01*
X87905124Y-86277687D01*
X87860922Y-86255882D01*
X87526057Y-86166111D01*
X87355934Y-86154940D01*
X87232153Y-86146403D01*
X87232125Y-86146810D01*
X87180112Y-86143395D01*
X86836382Y-86188605D01*
X86508077Y-86300005D01*
X86303683Y-86409257D01*
X86296048Y-86428349D01*
X86177597Y-86500375D01*
X85922774Y-86734307D01*
X85749051Y-86971692D01*
X85736048Y-86976892D01*
X85582673Y-87287811D01*
X85492902Y-87622676D01*
X85481718Y-87792996D01*
X85470671Y-87953180D01*
X85471198Y-87953216D01*
X85470186Y-87968621D01*
X85501926Y-88209939D01*
X85453195Y-88206578D01*
X85433195Y-88496578D01*
X83893902Y-88496578D01*
X83890126Y-88477598D01*
X83838636Y-88353291D01*
X83792673Y-88226832D01*
X83772412Y-88193409D01*
X83757454Y-88157298D01*
X83682697Y-88045417D01*
X83612951Y-87930364D01*
X83586560Y-87901537D01*
X83564843Y-87869036D01*
X83469696Y-87773889D01*
X83378845Y-87674654D01*
X83347337Y-87651530D01*
X83319697Y-87623890D01*
X83207812Y-87549130D01*
X83099350Y-87469529D01*
X83063938Y-87452997D01*
X83031435Y-87431279D01*
X82907115Y-87379784D01*
X82785208Y-87322872D01*
X82747248Y-87313566D01*
X82711135Y-87298607D01*
X82579150Y-87272353D01*
X82448490Y-87240320D01*
X82409451Y-87238598D01*
X82371107Y-87230971D01*
X82236520Y-87230971D01*
X82102137Y-87225044D01*
X82063515Y-87230971D01*
X82024417Y-87230971D01*
X81892406Y-87257230D01*
X81759459Y-87277632D01*
X81722738Y-87290979D01*
X81684389Y-87298607D01*
X81560031Y-87350118D01*
X81433625Y-87396062D01*
X81400216Y-87416315D01*
X81364089Y-87431279D01*
X81252162Y-87506066D01*
X81137156Y-87575784D01*
X81108340Y-87602166D01*
X81075827Y-87623890D01*
X80980649Y-87719068D01*
X80945520Y-87751229D01*
X80919599Y-87780118D01*
X80830681Y-87869036D01*
X80804035Y-87908914D01*
X79520046Y-89339924D01*
X79366320Y-89549385D01*
X79219663Y-89863527D01*
X79137111Y-90200245D01*
X79121835Y-90546597D01*
X79174423Y-90889275D01*
X79292853Y-91215110D01*
X79455637Y-91483637D01*
X79177311Y-91539000D01*
X78902509Y-91652827D01*
X78655193Y-91818078D01*
X78444869Y-92028402D01*
X78279618Y-92275718D01*
X78165791Y-92550520D01*
X78107762Y-92842249D01*
X61361774Y-92842249D01*
X61362470Y-84836559D01*
X175528491Y-84836559D01*
X175528491Y-85134003D01*
X175586520Y-85425732D01*
X175700347Y-85700534D01*
X175865598Y-85947850D01*
X176075922Y-86158174D01*
X176323238Y-86323425D01*
X176598040Y-86437252D01*
X176889769Y-86495281D01*
X177187213Y-86495281D01*
X177478942Y-86437252D01*
X177753744Y-86323425D01*
X178001060Y-86158174D01*
X178211384Y-85947850D01*
X178376635Y-85700534D01*
X178490462Y-85425732D01*
X178548491Y-85134003D01*
X178548491Y-84836559D01*
X178526571Y-84726357D01*
X179489591Y-84726357D01*
X179489591Y-85244205D01*
X179590618Y-85752103D01*
X179788790Y-86230532D01*
X180076491Y-86661107D01*
X180442665Y-87027281D01*
X180873240Y-87314982D01*
X181351669Y-87513154D01*
X181859567Y-87614181D01*
X182377415Y-87614181D01*
X182885313Y-87513154D01*
X183363742Y-87314982D01*
X183794317Y-87027281D01*
X183884829Y-86936769D01*
X198312005Y-86936769D01*
X198312005Y-87249479D01*
X198373012Y-87556181D01*
X198492681Y-87845087D01*
X198666413Y-88105096D01*
X198887533Y-88326216D01*
X199147542Y-88499948D01*
X199436448Y-88619617D01*
X199743150Y-88680624D01*
X200055860Y-88680624D01*
X200362562Y-88619617D01*
X200651468Y-88499948D01*
X200911477Y-88326216D01*
X200915054Y-88322639D01*
X200956468Y-88400118D01*
X201035820Y-88496809D01*
X201132511Y-88576161D01*
X201242825Y-88635126D01*
X201362523Y-88671436D01*
X201487005Y-88683696D01*
X203392005Y-88683696D01*
X203516487Y-88671436D01*
X203636185Y-88635126D01*
X203746499Y-88576161D01*
X203843190Y-88496809D01*
X203922542Y-88400118D01*
X203981507Y-88289804D01*
X204017817Y-88170106D01*
X204030077Y-88045624D01*
X204030077Y-86140624D01*
X204017817Y-86016142D01*
X203981507Y-85896444D01*
X203922542Y-85786130D01*
X203843190Y-85689439D01*
X203746499Y-85610087D01*
X203636185Y-85551122D01*
X203516487Y-85514812D01*
X203392005Y-85502552D01*
X201487005Y-85502552D01*
X201362523Y-85514812D01*
X201242825Y-85551122D01*
X201132511Y-85610087D01*
X201035820Y-85689439D01*
X200956468Y-85786130D01*
X200915054Y-85863609D01*
X200911477Y-85860032D01*
X200651468Y-85686300D01*
X200362562Y-85566631D01*
X200055860Y-85505624D01*
X199743150Y-85505624D01*
X199436448Y-85566631D01*
X199147542Y-85686300D01*
X198887533Y-85860032D01*
X198666413Y-86081152D01*
X198492681Y-86341161D01*
X198373012Y-86630067D01*
X198312005Y-86936769D01*
X183884829Y-86936769D01*
X184160491Y-86661107D01*
X184448192Y-86230532D01*
X184646364Y-85752103D01*
X184747391Y-85244205D01*
X184747391Y-84836559D01*
X185688491Y-84836559D01*
X185688491Y-85134003D01*
X185746520Y-85425732D01*
X185860347Y-85700534D01*
X186025598Y-85947850D01*
X186235922Y-86158174D01*
X186483238Y-86323425D01*
X186758040Y-86437252D01*
X187049769Y-86495281D01*
X187347213Y-86495281D01*
X187638942Y-86437252D01*
X187913744Y-86323425D01*
X188161060Y-86158174D01*
X188371384Y-85947850D01*
X188536635Y-85700534D01*
X188650462Y-85425732D01*
X188708491Y-85134003D01*
X188708491Y-84836559D01*
X188650462Y-84544830D01*
X188536635Y-84270028D01*
X188371384Y-84022712D01*
X188161060Y-83812388D01*
X187913744Y-83647137D01*
X187638942Y-83533310D01*
X187347213Y-83475281D01*
X187049769Y-83475281D01*
X186758040Y-83533310D01*
X186483238Y-83647137D01*
X186235922Y-83812388D01*
X186025598Y-84022712D01*
X185860347Y-84270028D01*
X185746520Y-84544830D01*
X185688491Y-84836559D01*
X184747391Y-84836559D01*
X184747391Y-84726357D01*
X184646364Y-84218459D01*
X184448192Y-83740030D01*
X184160491Y-83309455D01*
X183794317Y-82943281D01*
X183363742Y-82655580D01*
X182885313Y-82457408D01*
X182377415Y-82356381D01*
X181859567Y-82356381D01*
X181351669Y-82457408D01*
X180873240Y-82655580D01*
X180442665Y-82943281D01*
X180076491Y-83309455D01*
X179788790Y-83740030D01*
X179590618Y-84218459D01*
X179489591Y-84726357D01*
X178526571Y-84726357D01*
X178490462Y-84544830D01*
X178376635Y-84270028D01*
X178333212Y-84205040D01*
X178621648Y-84181847D01*
X178954418Y-84087386D01*
X179262366Y-83929819D01*
X179533656Y-83715202D01*
X180188657Y-82985202D01*
X179897290Y-82723770D01*
X180019871Y-82707647D01*
X180193857Y-82648610D01*
X180358288Y-82796148D01*
X181013288Y-82066149D01*
X181100618Y-81927193D01*
X181120205Y-81919360D01*
X181173718Y-81810879D01*
X181197355Y-81773269D01*
X181214769Y-81727662D01*
X181273580Y-81608441D01*
X181304903Y-81491601D01*
X181320746Y-81450107D01*
X181328927Y-81401986D01*
X181363351Y-81273576D01*
X181371277Y-81152870D01*
X181378721Y-81109082D01*
X181377356Y-81060286D01*
X181386067Y-80927631D01*
X181370293Y-80807699D01*
X181369051Y-80763300D01*
X181358194Y-80715711D01*
X181340857Y-80583901D01*
X181301986Y-80469344D01*
X181297673Y-80450438D01*
X182856714Y-80450438D01*
X182864331Y-80710143D01*
X182941904Y-81048042D01*
X183083910Y-81364315D01*
X183284887Y-81646807D01*
X183537115Y-81884662D01*
X183830899Y-82068740D01*
X184154950Y-82191965D01*
X184496814Y-82249605D01*
X184843353Y-82239441D01*
X185181252Y-82161868D01*
X185497525Y-82019862D01*
X185716038Y-81864402D01*
X194579505Y-81864402D01*
X194579505Y-82161846D01*
X194637534Y-82453575D01*
X194751361Y-82728377D01*
X194916612Y-82975693D01*
X195126936Y-83186017D01*
X195374252Y-83351268D01*
X195649054Y-83465095D01*
X195940783Y-83523124D01*
X196238227Y-83523124D01*
X196529956Y-83465095D01*
X196804758Y-83351268D01*
X197052074Y-83186017D01*
X197262398Y-82975693D01*
X197427649Y-82728377D01*
X197541476Y-82453575D01*
X197599505Y-82161846D01*
X197599505Y-81864402D01*
X197577585Y-81754200D01*
X198540605Y-81754200D01*
X198540605Y-82272048D01*
X198641632Y-82779946D01*
X198839804Y-83258375D01*
X199127505Y-83688950D01*
X199493679Y-84055124D01*
X199924254Y-84342825D01*
X200402683Y-84540997D01*
X200910581Y-84642024D01*
X201428429Y-84642024D01*
X201936327Y-84540997D01*
X202414756Y-84342825D01*
X202845331Y-84055124D01*
X203211505Y-83688950D01*
X203499206Y-83258375D01*
X203697378Y-82779946D01*
X203798405Y-82272048D01*
X203798405Y-81864402D01*
X204739505Y-81864402D01*
X204739505Y-82161846D01*
X204797534Y-82453575D01*
X204911361Y-82728377D01*
X205076612Y-82975693D01*
X205286936Y-83186017D01*
X205534252Y-83351268D01*
X205809054Y-83465095D01*
X206100783Y-83523124D01*
X206398227Y-83523124D01*
X206689956Y-83465095D01*
X206964758Y-83351268D01*
X207212074Y-83186017D01*
X207422398Y-82975693D01*
X207587649Y-82728377D01*
X207701476Y-82453575D01*
X207759505Y-82161846D01*
X207759505Y-81864402D01*
X207701476Y-81572673D01*
X207587649Y-81297871D01*
X207422398Y-81050555D01*
X207212074Y-80840231D01*
X206964758Y-80674980D01*
X206689956Y-80561153D01*
X206398227Y-80503124D01*
X206100783Y-80503124D01*
X205809054Y-80561153D01*
X205534252Y-80674980D01*
X205286936Y-80840231D01*
X205076612Y-81050555D01*
X204911361Y-81297871D01*
X204797534Y-81572673D01*
X204739505Y-81864402D01*
X203798405Y-81864402D01*
X203798405Y-81754200D01*
X203697378Y-81246302D01*
X203499206Y-80767873D01*
X203211505Y-80337298D01*
X202845331Y-79971124D01*
X202414756Y-79683423D01*
X201936327Y-79485251D01*
X201428429Y-79384224D01*
X200910581Y-79384224D01*
X200402683Y-79485251D01*
X199924254Y-79683423D01*
X199493679Y-79971124D01*
X199127505Y-80337298D01*
X198839804Y-80767873D01*
X198641632Y-81246302D01*
X198540605Y-81754200D01*
X197577585Y-81754200D01*
X197541476Y-81572673D01*
X197427649Y-81297871D01*
X197384226Y-81232883D01*
X197672662Y-81209690D01*
X198005432Y-81115229D01*
X198313380Y-80957662D01*
X198584670Y-80743045D01*
X199239671Y-80013045D01*
X198948304Y-79751613D01*
X199070885Y-79735490D01*
X199244871Y-79676453D01*
X199409302Y-79823991D01*
X200064302Y-79093992D01*
X200151632Y-78955036D01*
X200171219Y-78947203D01*
X200224732Y-78838722D01*
X200248369Y-78801112D01*
X200265783Y-78755505D01*
X200324594Y-78636284D01*
X200355917Y-78519444D01*
X200371760Y-78477950D01*
X200379941Y-78429829D01*
X200414365Y-78301419D01*
X200422291Y-78180713D01*
X200429735Y-78136925D01*
X200428370Y-78088129D01*
X200437081Y-77955474D01*
X200421307Y-77835542D01*
X200420065Y-77791143D01*
X200409208Y-77743554D01*
X200391871Y-77611744D01*
X200353000Y-77497187D01*
X200348687Y-77478281D01*
X201907728Y-77478281D01*
X201915345Y-77737986D01*
X201992918Y-78075885D01*
X202134924Y-78392158D01*
X202335901Y-78674650D01*
X202588129Y-78912505D01*
X202881913Y-79096583D01*
X203205964Y-79219808D01*
X203547828Y-79277448D01*
X203894367Y-79267284D01*
X204232266Y-79189711D01*
X204548539Y-79047705D01*
X204831031Y-78846728D01*
X205068886Y-78594500D01*
X205252964Y-78300716D01*
X205376189Y-77976665D01*
X205419386Y-77720463D01*
X205457604Y-77166299D01*
X205469505Y-77106469D01*
X205469505Y-76993735D01*
X205471282Y-76967968D01*
X205469505Y-76907380D01*
X205469505Y-76759779D01*
X205464427Y-76734252D01*
X205463665Y-76708261D01*
X205430664Y-76564511D01*
X205401869Y-76419751D01*
X205391912Y-76395712D01*
X205386092Y-76370362D01*
X205325682Y-76235818D01*
X205269197Y-76099451D01*
X205254735Y-76077807D01*
X205244086Y-76054090D01*
X205158601Y-75933933D01*
X205076586Y-75811189D01*
X205058183Y-75792786D01*
X205043109Y-75771598D01*
X204935816Y-75670419D01*
X204831440Y-75566043D01*
X204809799Y-75551583D01*
X204790881Y-75533743D01*
X204665912Y-75455440D01*
X204543178Y-75373432D01*
X204519133Y-75363472D01*
X204497097Y-75349665D01*
X204359245Y-75297245D01*
X204222878Y-75240760D01*
X204197351Y-75235682D01*
X204173046Y-75226440D01*
X204027613Y-75201919D01*
X203882850Y-75173124D01*
X203856828Y-75173124D01*
X203831182Y-75168800D01*
X203683742Y-75173124D01*
X203536160Y-75173124D01*
X203510638Y-75178201D01*
X203484643Y-75178963D01*
X203340880Y-75211968D01*
X203196132Y-75240760D01*
X203172092Y-75250718D01*
X203146744Y-75256537D01*
X203012194Y-75316949D01*
X202875832Y-75373432D01*
X202854192Y-75387891D01*
X202830471Y-75398542D01*
X202710301Y-75484037D01*
X202587570Y-75566043D01*
X202569167Y-75584446D01*
X202547979Y-75599520D01*
X202446793Y-75706820D01*
X202342424Y-75811189D01*
X202327966Y-75832827D01*
X202310124Y-75851747D01*
X202231815Y-75976726D01*
X202149813Y-76099451D01*
X202139853Y-76123496D01*
X202126046Y-76145532D01*
X202073624Y-76283388D01*
X202017141Y-76419751D01*
X202012064Y-76445276D01*
X202002821Y-76469582D01*
X201978299Y-76615022D01*
X201949505Y-76759779D01*
X201949505Y-76872510D01*
X201907728Y-77478281D01*
X200348687Y-77478281D01*
X200343122Y-77453892D01*
X200323193Y-77409343D01*
X200280471Y-77283439D01*
X200171219Y-77079045D01*
X200158671Y-77074027D01*
X200111890Y-77004596D01*
X199830040Y-76909872D01*
X198674500Y-78197724D01*
X198669505Y-78192729D01*
X197965543Y-78896691D01*
X197821807Y-78767722D01*
X197835164Y-78752836D01*
X197790375Y-78712649D01*
X197970243Y-78532781D01*
X198004794Y-78563782D01*
X198664511Y-77828525D01*
X198669505Y-77833519D01*
X199714431Y-76788593D01*
X199603584Y-76511410D01*
X199460101Y-76440631D01*
X199373911Y-76395242D01*
X199357046Y-76389794D01*
X199292665Y-76358035D01*
X199093244Y-76304574D01*
X199044743Y-76288906D01*
X199027141Y-76286853D01*
X198957800Y-76268264D01*
X198751768Y-76254735D01*
X198701155Y-76248832D01*
X198683494Y-76250252D01*
X198611855Y-76245548D01*
X198407135Y-76272474D01*
X198356350Y-76276558D01*
X198339309Y-76281395D01*
X198268125Y-76290758D01*
X198072586Y-76357108D01*
X198023580Y-76371019D01*
X198007812Y-76379087D01*
X197939820Y-76402158D01*
X197735426Y-76511410D01*
X197731882Y-76520271D01*
X197715632Y-76528586D01*
X197444342Y-76743203D01*
X196789341Y-77473203D01*
X196952786Y-77619856D01*
X196924645Y-77724829D01*
X196911559Y-77924121D01*
X196619710Y-77662257D01*
X195964710Y-78392256D01*
X195780643Y-78685136D01*
X195657252Y-79008298D01*
X195599277Y-79349323D01*
X195608947Y-79695105D01*
X195685890Y-80032356D01*
X195827149Y-80348117D01*
X195917122Y-80481652D01*
X195981012Y-80503124D01*
X195940783Y-80503124D01*
X195649054Y-80561153D01*
X195374252Y-80674980D01*
X195126936Y-80840231D01*
X194916612Y-81050555D01*
X194751361Y-81297871D01*
X194637534Y-81572673D01*
X194579505Y-81864402D01*
X185716038Y-81864402D01*
X185780017Y-81818885D01*
X186017872Y-81566657D01*
X186201950Y-81272873D01*
X186325175Y-80948822D01*
X186368372Y-80692620D01*
X186406590Y-80138456D01*
X186418491Y-80078626D01*
X186418491Y-79965892D01*
X186420268Y-79940125D01*
X186418491Y-79879537D01*
X186418491Y-79731936D01*
X186413413Y-79706409D01*
X186412651Y-79680418D01*
X186379650Y-79536668D01*
X186350855Y-79391908D01*
X186340898Y-79367869D01*
X186335078Y-79342519D01*
X186274668Y-79207975D01*
X186218183Y-79071608D01*
X186203721Y-79049964D01*
X186193072Y-79026247D01*
X186107587Y-78906090D01*
X186025572Y-78783346D01*
X186007169Y-78764943D01*
X185992095Y-78743755D01*
X185884802Y-78642576D01*
X185780426Y-78538200D01*
X185758785Y-78523740D01*
X185739867Y-78505900D01*
X185614898Y-78427597D01*
X185492164Y-78345589D01*
X185468119Y-78335629D01*
X185446083Y-78321822D01*
X185308231Y-78269402D01*
X185171864Y-78212917D01*
X185146337Y-78207839D01*
X185122032Y-78198597D01*
X184976599Y-78174076D01*
X184831836Y-78145281D01*
X184805814Y-78145281D01*
X184780168Y-78140957D01*
X184632728Y-78145281D01*
X184485146Y-78145281D01*
X184459624Y-78150358D01*
X184433629Y-78151120D01*
X184289866Y-78184125D01*
X184145118Y-78212917D01*
X184121078Y-78222875D01*
X184095730Y-78228694D01*
X183961180Y-78289106D01*
X183824818Y-78345589D01*
X183803178Y-78360048D01*
X183779457Y-78370699D01*
X183659287Y-78456194D01*
X183536556Y-78538200D01*
X183518153Y-78556603D01*
X183496965Y-78571677D01*
X183395779Y-78678977D01*
X183291410Y-78783346D01*
X183276952Y-78804984D01*
X183259110Y-78823904D01*
X183180801Y-78948883D01*
X183098799Y-79071608D01*
X183088839Y-79095653D01*
X183075032Y-79117689D01*
X183022610Y-79255545D01*
X182966127Y-79391908D01*
X182961050Y-79417433D01*
X182951807Y-79441739D01*
X182927285Y-79587179D01*
X182898491Y-79731936D01*
X182898491Y-79844667D01*
X182856714Y-80450438D01*
X181297673Y-80450438D01*
X181292108Y-80426049D01*
X181272179Y-80381500D01*
X181229457Y-80255596D01*
X181120205Y-80051202D01*
X181107657Y-80046184D01*
X181060876Y-79976753D01*
X180779026Y-79882029D01*
X179623486Y-81169881D01*
X179618491Y-81164886D01*
X178914529Y-81868848D01*
X178770793Y-81739879D01*
X178784150Y-81724993D01*
X178739361Y-81684806D01*
X178919229Y-81504938D01*
X178953780Y-81535939D01*
X179613497Y-80800682D01*
X179618491Y-80805676D01*
X180663417Y-79760750D01*
X180552570Y-79483567D01*
X180409087Y-79412788D01*
X180322897Y-79367399D01*
X180306032Y-79361951D01*
X180241651Y-79330192D01*
X180042230Y-79276731D01*
X179993729Y-79261063D01*
X179976127Y-79259010D01*
X179906786Y-79240421D01*
X179700754Y-79226892D01*
X179650141Y-79220989D01*
X179632480Y-79222409D01*
X179560841Y-79217705D01*
X179356121Y-79244631D01*
X179305336Y-79248715D01*
X179288295Y-79253552D01*
X179217111Y-79262915D01*
X179021572Y-79329265D01*
X178972566Y-79343176D01*
X178956798Y-79351244D01*
X178888806Y-79374315D01*
X178684412Y-79483567D01*
X178680868Y-79492428D01*
X178664618Y-79500743D01*
X178393328Y-79715360D01*
X177738327Y-80445360D01*
X177901772Y-80592013D01*
X177873631Y-80696986D01*
X177860545Y-80896278D01*
X177568696Y-80634414D01*
X176913696Y-81364413D01*
X176729629Y-81657293D01*
X176606238Y-81980455D01*
X176548263Y-82321480D01*
X176557933Y-82667262D01*
X176634876Y-83004513D01*
X176776135Y-83320274D01*
X176866108Y-83453809D01*
X176929998Y-83475281D01*
X176889769Y-83475281D01*
X176598040Y-83533310D01*
X176323238Y-83647137D01*
X176075922Y-83812388D01*
X175865598Y-84022712D01*
X175700347Y-84270028D01*
X175586520Y-84544830D01*
X175528491Y-84836559D01*
X61362470Y-84836559D01*
X61362991Y-78859180D01*
X72297202Y-78859180D01*
X72297202Y-79171890D01*
X72358209Y-79478592D01*
X72477878Y-79767498D01*
X72651610Y-80027507D01*
X72872730Y-80248627D01*
X73132739Y-80422359D01*
X73421645Y-80542028D01*
X73728347Y-80603035D01*
X74041057Y-80603035D01*
X74347759Y-80542028D01*
X74636665Y-80422359D01*
X74896674Y-80248627D01*
X74900251Y-80245050D01*
X74941665Y-80322529D01*
X75021017Y-80419220D01*
X75117708Y-80498572D01*
X75228022Y-80557537D01*
X75347720Y-80593847D01*
X75472202Y-80606107D01*
X77377202Y-80606107D01*
X77501684Y-80593847D01*
X77621382Y-80557537D01*
X77731696Y-80498572D01*
X77828387Y-80419220D01*
X77907739Y-80322529D01*
X77966704Y-80212215D01*
X78003014Y-80092517D01*
X78015274Y-79968035D01*
X78015274Y-78797810D01*
X91383323Y-78797810D01*
X91383323Y-79110520D01*
X91444330Y-79417222D01*
X91563999Y-79706128D01*
X91737731Y-79966137D01*
X91958851Y-80187257D01*
X92218860Y-80360989D01*
X92507766Y-80480658D01*
X92814468Y-80541665D01*
X93127178Y-80541665D01*
X93433880Y-80480658D01*
X93722786Y-80360989D01*
X93982795Y-80187257D01*
X93986372Y-80183680D01*
X94027786Y-80261159D01*
X94107138Y-80357850D01*
X94203829Y-80437202D01*
X94314143Y-80496167D01*
X94433841Y-80532477D01*
X94558323Y-80544737D01*
X96463323Y-80544737D01*
X96587805Y-80532477D01*
X96707503Y-80496167D01*
X96817817Y-80437202D01*
X96914508Y-80357850D01*
X96993860Y-80261159D01*
X97052825Y-80150845D01*
X97089135Y-80031147D01*
X97101395Y-79906665D01*
X97101395Y-78001665D01*
X97089135Y-77877183D01*
X97052825Y-77757485D01*
X96993860Y-77647171D01*
X96914508Y-77550480D01*
X96817817Y-77471128D01*
X96707503Y-77412163D01*
X96587805Y-77375853D01*
X96463323Y-77363593D01*
X94558323Y-77363593D01*
X94433841Y-77375853D01*
X94314143Y-77412163D01*
X94203829Y-77471128D01*
X94107138Y-77550480D01*
X94027786Y-77647171D01*
X93986372Y-77724650D01*
X93982795Y-77721073D01*
X93722786Y-77547341D01*
X93433880Y-77427672D01*
X93127178Y-77366665D01*
X92814468Y-77366665D01*
X92507766Y-77427672D01*
X92218860Y-77547341D01*
X91958851Y-77721073D01*
X91737731Y-77942193D01*
X91563999Y-78202202D01*
X91444330Y-78491108D01*
X91383323Y-78797810D01*
X78015274Y-78797810D01*
X78015274Y-78063035D01*
X78003014Y-77938553D01*
X77966704Y-77818855D01*
X77907739Y-77708541D01*
X77828387Y-77611850D01*
X77731696Y-77532498D01*
X77621382Y-77473533D01*
X77501684Y-77437223D01*
X77377202Y-77424963D01*
X75472202Y-77424963D01*
X75347720Y-77437223D01*
X75228022Y-77473533D01*
X75117708Y-77532498D01*
X75021017Y-77611850D01*
X74941665Y-77708541D01*
X74900251Y-77786020D01*
X74896674Y-77782443D01*
X74636665Y-77608711D01*
X74347759Y-77489042D01*
X74041057Y-77428035D01*
X73728347Y-77428035D01*
X73421645Y-77489042D01*
X73132739Y-77608711D01*
X72872730Y-77782443D01*
X72651610Y-78003563D01*
X72477878Y-78263572D01*
X72358209Y-78552478D01*
X72297202Y-78859180D01*
X61362991Y-78859180D01*
X61363433Y-73786813D01*
X68564702Y-73786813D01*
X68564702Y-74084257D01*
X68622731Y-74375986D01*
X68736558Y-74650788D01*
X68901809Y-74898104D01*
X69112133Y-75108428D01*
X69359449Y-75273679D01*
X69634251Y-75387506D01*
X69925980Y-75445535D01*
X70223424Y-75445535D01*
X70515153Y-75387506D01*
X70789955Y-75273679D01*
X71037271Y-75108428D01*
X71247595Y-74898104D01*
X71412846Y-74650788D01*
X71526673Y-74375986D01*
X71584702Y-74084257D01*
X71584702Y-73786813D01*
X71562782Y-73676611D01*
X72525802Y-73676611D01*
X72525802Y-74194459D01*
X72626829Y-74702357D01*
X72825001Y-75180786D01*
X73112702Y-75611361D01*
X73478876Y-75977535D01*
X73909451Y-76265236D01*
X74387880Y-76463408D01*
X74895778Y-76564435D01*
X75413626Y-76564435D01*
X75921524Y-76463408D01*
X76399953Y-76265236D01*
X76830528Y-75977535D01*
X77196702Y-75611361D01*
X77484403Y-75180786D01*
X77682575Y-74702357D01*
X77783602Y-74194459D01*
X77783602Y-73786813D01*
X78724702Y-73786813D01*
X78724702Y-74084257D01*
X78782731Y-74375986D01*
X78896558Y-74650788D01*
X79061809Y-74898104D01*
X79272133Y-75108428D01*
X79519449Y-75273679D01*
X79794251Y-75387506D01*
X80085980Y-75445535D01*
X80383424Y-75445535D01*
X80675153Y-75387506D01*
X80949955Y-75273679D01*
X81197271Y-75108428D01*
X81407595Y-74898104D01*
X81572846Y-74650788D01*
X81686673Y-74375986D01*
X81744702Y-74084257D01*
X81744702Y-73786813D01*
X81732495Y-73725443D01*
X87650823Y-73725443D01*
X87650823Y-74022887D01*
X87708852Y-74314616D01*
X87822679Y-74589418D01*
X87987930Y-74836734D01*
X88198254Y-75047058D01*
X88445570Y-75212309D01*
X88720372Y-75326136D01*
X89012101Y-75384165D01*
X89309545Y-75384165D01*
X89601274Y-75326136D01*
X89876076Y-75212309D01*
X90123392Y-75047058D01*
X90333716Y-74836734D01*
X90498967Y-74589418D01*
X90612794Y-74314616D01*
X90670823Y-74022887D01*
X90670823Y-73725443D01*
X90648903Y-73615241D01*
X91611923Y-73615241D01*
X91611923Y-74133089D01*
X91712950Y-74640987D01*
X91911122Y-75119416D01*
X92198823Y-75549991D01*
X92564997Y-75916165D01*
X92995572Y-76203866D01*
X93474001Y-76402038D01*
X93981899Y-76503065D01*
X94499747Y-76503065D01*
X95007645Y-76402038D01*
X95486074Y-76203866D01*
X95916649Y-75916165D01*
X96282823Y-75549991D01*
X96570524Y-75119416D01*
X96768696Y-74640987D01*
X96869723Y-74133089D01*
X96869723Y-73725443D01*
X97810823Y-73725443D01*
X97810823Y-74022887D01*
X97868852Y-74314616D01*
X97982679Y-74589418D01*
X98147930Y-74836734D01*
X98358254Y-75047058D01*
X98605570Y-75212309D01*
X98880372Y-75326136D01*
X99172101Y-75384165D01*
X99469545Y-75384165D01*
X99761274Y-75326136D01*
X100036076Y-75212309D01*
X100283392Y-75047058D01*
X100493716Y-74836734D01*
X100658967Y-74589418D01*
X100772794Y-74314616D01*
X100830823Y-74022887D01*
X100830823Y-73725443D01*
X100772794Y-73433714D01*
X100658967Y-73158912D01*
X100493716Y-72911596D01*
X100283392Y-72701272D01*
X100036076Y-72536021D01*
X99761274Y-72422194D01*
X99469545Y-72364165D01*
X99172101Y-72364165D01*
X98880372Y-72422194D01*
X98605570Y-72536021D01*
X98358254Y-72701272D01*
X98147930Y-72911596D01*
X97982679Y-73158912D01*
X97868852Y-73433714D01*
X97810823Y-73725443D01*
X96869723Y-73725443D01*
X96869723Y-73615241D01*
X96768696Y-73107343D01*
X96570524Y-72628914D01*
X96282823Y-72198339D01*
X95916649Y-71832165D01*
X95486074Y-71544464D01*
X95007645Y-71346292D01*
X94499747Y-71245265D01*
X93981899Y-71245265D01*
X93474001Y-71346292D01*
X92995572Y-71544464D01*
X92564997Y-71832165D01*
X92198823Y-72198339D01*
X91911122Y-72628914D01*
X91712950Y-73107343D01*
X91611923Y-73615241D01*
X90648903Y-73615241D01*
X90612794Y-73433714D01*
X90498967Y-73158912D01*
X90457637Y-73097057D01*
X90526449Y-73100092D01*
X90869127Y-73047504D01*
X91194962Y-72929074D01*
X91491430Y-72749352D01*
X91683066Y-72573907D01*
X93019023Y-71084981D01*
X93107904Y-70996100D01*
X93182650Y-70884235D01*
X93262267Y-70775752D01*
X93278802Y-70740334D01*
X93300515Y-70707838D01*
X93351998Y-70583547D01*
X93408924Y-70461610D01*
X93418233Y-70423641D01*
X93433187Y-70387538D01*
X93459433Y-70255591D01*
X93491476Y-70124892D01*
X93493198Y-70085842D01*
X93500823Y-70047510D01*
X93500823Y-69912967D01*
X93506752Y-69778539D01*
X93500823Y-69739904D01*
X93500823Y-69700820D01*
X93474574Y-69568856D01*
X93454164Y-69435861D01*
X93440812Y-69399126D01*
X93436963Y-69379772D01*
X94976256Y-69379772D01*
X95011255Y-69723915D01*
X95112721Y-70054616D01*
X95276754Y-70359169D01*
X95497051Y-70625868D01*
X95765144Y-70844464D01*
X96070733Y-71006559D01*
X96223805Y-71056513D01*
X96504301Y-70957851D01*
X96533002Y-70541683D01*
X96786458Y-70558325D01*
X96757699Y-70975327D01*
X97021995Y-71111561D01*
X97180477Y-71083093D01*
X97505424Y-70964484D01*
X97800988Y-70784761D01*
X98055811Y-70550829D01*
X98260099Y-70271678D01*
X98406003Y-69958036D01*
X98487914Y-69621956D01*
X98507914Y-69331956D01*
X98459689Y-69328630D01*
X98525683Y-69082460D01*
X98536861Y-68912224D01*
X98545390Y-68788558D01*
X98545142Y-68786118D01*
X98548399Y-68736515D01*
X98511793Y-68458201D01*
X98510391Y-68444415D01*
X98509671Y-68442069D01*
X98503189Y-68392785D01*
X98412985Y-68126945D01*
X98408925Y-68113714D01*
X98407763Y-68111556D01*
X98391789Y-68064480D01*
X98282537Y-67860086D01*
X98269516Y-67854879D01*
X98244892Y-67809161D01*
X98024595Y-67542462D01*
X97756502Y-67323866D01*
X97719647Y-67304317D01*
X97714902Y-67292451D01*
X97463174Y-67168275D01*
X97450913Y-67161771D01*
X97448185Y-67160881D01*
X97403983Y-67139076D01*
X97069118Y-67049305D01*
X96898995Y-67038134D01*
X96775214Y-67029597D01*
X96775186Y-67030004D01*
X96723173Y-67026589D01*
X96379443Y-67071799D01*
X96051138Y-67183199D01*
X95846744Y-67292451D01*
X95839109Y-67311543D01*
X95720658Y-67383569D01*
X95465835Y-67617501D01*
X95292112Y-67854886D01*
X95279109Y-67860086D01*
X95125734Y-68171005D01*
X95035963Y-68505870D01*
X95024779Y-68676190D01*
X95013732Y-68836374D01*
X95014259Y-68836410D01*
X95013247Y-68851815D01*
X95044987Y-69093133D01*
X94996256Y-69089772D01*
X94976256Y-69379772D01*
X93436963Y-69379772D01*
X93433187Y-69360792D01*
X93381697Y-69236485D01*
X93335734Y-69110026D01*
X93315473Y-69076603D01*
X93300515Y-69040492D01*
X93225758Y-68928611D01*
X93156012Y-68813558D01*
X93129621Y-68784731D01*
X93107904Y-68752230D01*
X93012757Y-68657083D01*
X92921906Y-68557848D01*
X92890398Y-68534724D01*
X92862758Y-68507084D01*
X92750873Y-68432324D01*
X92642411Y-68352723D01*
X92606999Y-68336191D01*
X92574496Y-68314473D01*
X92450176Y-68262978D01*
X92328269Y-68206066D01*
X92290309Y-68196760D01*
X92254196Y-68181801D01*
X92122211Y-68155547D01*
X91991551Y-68123514D01*
X91952512Y-68121792D01*
X91914168Y-68114165D01*
X91779581Y-68114165D01*
X91645198Y-68108238D01*
X91606576Y-68114165D01*
X91567478Y-68114165D01*
X91435467Y-68140424D01*
X91302520Y-68160826D01*
X91265799Y-68174173D01*
X91227450Y-68181801D01*
X91103092Y-68233312D01*
X90976686Y-68279256D01*
X90943277Y-68299509D01*
X90907150Y-68314473D01*
X90795223Y-68389260D01*
X90680217Y-68458978D01*
X90651401Y-68485360D01*
X90618888Y-68507084D01*
X90523710Y-68602262D01*
X90488581Y-68634423D01*
X90462660Y-68663312D01*
X90373742Y-68752230D01*
X90347096Y-68792108D01*
X89063107Y-70223118D01*
X88909381Y-70432579D01*
X88762724Y-70746721D01*
X88680172Y-71083439D01*
X88664896Y-71429791D01*
X88717484Y-71772469D01*
X88835914Y-72098304D01*
X88998698Y-72366831D01*
X88720372Y-72422194D01*
X88445570Y-72536021D01*
X88198254Y-72701272D01*
X87987930Y-72911596D01*
X87822679Y-73158912D01*
X87708852Y-73433714D01*
X87650823Y-73725443D01*
X81732495Y-73725443D01*
X81686673Y-73495084D01*
X81572846Y-73220282D01*
X81407595Y-72972966D01*
X81197271Y-72762642D01*
X80949955Y-72597391D01*
X80675153Y-72483564D01*
X80383424Y-72425535D01*
X80085980Y-72425535D01*
X79794251Y-72483564D01*
X79519449Y-72597391D01*
X79272133Y-72762642D01*
X79061809Y-72972966D01*
X78896558Y-73220282D01*
X78782731Y-73495084D01*
X78724702Y-73786813D01*
X77783602Y-73786813D01*
X77783602Y-73676611D01*
X77682575Y-73168713D01*
X77484403Y-72690284D01*
X77196702Y-72259709D01*
X76830528Y-71893535D01*
X76399953Y-71605834D01*
X75921524Y-71407662D01*
X75413626Y-71306635D01*
X74895778Y-71306635D01*
X74387880Y-71407662D01*
X73909451Y-71605834D01*
X73478876Y-71893535D01*
X73112702Y-72259709D01*
X72825001Y-72690284D01*
X72626829Y-73168713D01*
X72525802Y-73676611D01*
X71562782Y-73676611D01*
X71526673Y-73495084D01*
X71412846Y-73220282D01*
X71371516Y-73158427D01*
X71440328Y-73161462D01*
X71783006Y-73108874D01*
X72108841Y-72990444D01*
X72405309Y-72810722D01*
X72596945Y-72635277D01*
X73932902Y-71146351D01*
X74021783Y-71057470D01*
X74096529Y-70945605D01*
X74176146Y-70837122D01*
X74192681Y-70801704D01*
X74214394Y-70769208D01*
X74265877Y-70644917D01*
X74322803Y-70522980D01*
X74332112Y-70485011D01*
X74347066Y-70448908D01*
X74373312Y-70316961D01*
X74405355Y-70186262D01*
X74407077Y-70147212D01*
X74414702Y-70108880D01*
X74414702Y-69974337D01*
X74420631Y-69839909D01*
X74414702Y-69801274D01*
X74414702Y-69762190D01*
X74388453Y-69630226D01*
X74368043Y-69497231D01*
X74354691Y-69460496D01*
X74350842Y-69441142D01*
X75890135Y-69441142D01*
X75925134Y-69785285D01*
X76026600Y-70115986D01*
X76190633Y-70420539D01*
X76410930Y-70687238D01*
X76679023Y-70905834D01*
X76984612Y-71067929D01*
X77137684Y-71117883D01*
X77418180Y-71019221D01*
X77446881Y-70603053D01*
X77700337Y-70619695D01*
X77671578Y-71036697D01*
X77935874Y-71172931D01*
X78094356Y-71144463D01*
X78419303Y-71025854D01*
X78714867Y-70846131D01*
X78969690Y-70612199D01*
X79173978Y-70333048D01*
X79319882Y-70019406D01*
X79401793Y-69683326D01*
X79421793Y-69393326D01*
X79373568Y-69390000D01*
X79439562Y-69143830D01*
X79450740Y-68973594D01*
X79459269Y-68849928D01*
X79459021Y-68847488D01*
X79462278Y-68797885D01*
X79425672Y-68519571D01*
X79424270Y-68505785D01*
X79423550Y-68503439D01*
X79417068Y-68454155D01*
X79326864Y-68188315D01*
X79322804Y-68175084D01*
X79321642Y-68172926D01*
X79305668Y-68125850D01*
X79196416Y-67921456D01*
X79183395Y-67916249D01*
X79158771Y-67870531D01*
X78938474Y-67603832D01*
X78670381Y-67385236D01*
X78633526Y-67365687D01*
X78628781Y-67353821D01*
X78377053Y-67229645D01*
X78364792Y-67223141D01*
X78362064Y-67222251D01*
X78317862Y-67200446D01*
X77982997Y-67110675D01*
X77812874Y-67099504D01*
X77689093Y-67090967D01*
X77689065Y-67091374D01*
X77637052Y-67087959D01*
X77293322Y-67133169D01*
X76965017Y-67244569D01*
X76760623Y-67353821D01*
X76752988Y-67372913D01*
X76634537Y-67444939D01*
X76379714Y-67678871D01*
X76205991Y-67916256D01*
X76192988Y-67921456D01*
X76039613Y-68232375D01*
X75949842Y-68567240D01*
X75938658Y-68737560D01*
X75927611Y-68897744D01*
X75928138Y-68897780D01*
X75927126Y-68913185D01*
X75958866Y-69154503D01*
X75910135Y-69151142D01*
X75890135Y-69441142D01*
X74350842Y-69441142D01*
X74347066Y-69422162D01*
X74295576Y-69297855D01*
X74249613Y-69171396D01*
X74229352Y-69137973D01*
X74214394Y-69101862D01*
X74139637Y-68989981D01*
X74069891Y-68874928D01*
X74043500Y-68846101D01*
X74021783Y-68813600D01*
X73926636Y-68718453D01*
X73835785Y-68619218D01*
X73804277Y-68596094D01*
X73776637Y-68568454D01*
X73664752Y-68493694D01*
X73556290Y-68414093D01*
X73520878Y-68397561D01*
X73488375Y-68375843D01*
X73364055Y-68324348D01*
X73242148Y-68267436D01*
X73204188Y-68258130D01*
X73168075Y-68243171D01*
X73036090Y-68216917D01*
X72905430Y-68184884D01*
X72866391Y-68183162D01*
X72828047Y-68175535D01*
X72693460Y-68175535D01*
X72559077Y-68169608D01*
X72520455Y-68175535D01*
X72481357Y-68175535D01*
X72349346Y-68201794D01*
X72216399Y-68222196D01*
X72179678Y-68235543D01*
X72141329Y-68243171D01*
X72016971Y-68294682D01*
X71890565Y-68340626D01*
X71857156Y-68360879D01*
X71821029Y-68375843D01*
X71709102Y-68450630D01*
X71594096Y-68520348D01*
X71565280Y-68546730D01*
X71532767Y-68568454D01*
X71437589Y-68663632D01*
X71402460Y-68695793D01*
X71376539Y-68724682D01*
X71287621Y-68813600D01*
X71260975Y-68853478D01*
X69976986Y-70284488D01*
X69823260Y-70493949D01*
X69676603Y-70808091D01*
X69594051Y-71144809D01*
X69578775Y-71491161D01*
X69631363Y-71833839D01*
X69749793Y-72159674D01*
X69912577Y-72428201D01*
X69634251Y-72483564D01*
X69359449Y-72597391D01*
X69112133Y-72762642D01*
X68901809Y-72972966D01*
X68736558Y-73220282D01*
X68622731Y-73495084D01*
X68564702Y-73786813D01*
X61363433Y-73786813D01*
X61364647Y-59835803D01*
X81827638Y-59835803D01*
X81827638Y-60148513D01*
X81888645Y-60455215D01*
X82008314Y-60744121D01*
X82182046Y-61004130D01*
X82403166Y-61225250D01*
X82663175Y-61398982D01*
X82952081Y-61518651D01*
X83258783Y-61579658D01*
X83571493Y-61579658D01*
X83878195Y-61518651D01*
X84167101Y-61398982D01*
X84427110Y-61225250D01*
X84430687Y-61221673D01*
X84472101Y-61299152D01*
X84551453Y-61395843D01*
X84648144Y-61475195D01*
X84758458Y-61534160D01*
X84878156Y-61570470D01*
X85002638Y-61582730D01*
X86907638Y-61582730D01*
X87032120Y-61570470D01*
X87151818Y-61534160D01*
X87262132Y-61475195D01*
X87358823Y-61395843D01*
X87438175Y-61299152D01*
X87497140Y-61188838D01*
X87533450Y-61069140D01*
X87545710Y-60944658D01*
X87545710Y-59039658D01*
X87533450Y-58915176D01*
X87497140Y-58795478D01*
X87438175Y-58685164D01*
X87358823Y-58588473D01*
X87262132Y-58509121D01*
X87151818Y-58450156D01*
X87032120Y-58413846D01*
X86907638Y-58401586D01*
X85002638Y-58401586D01*
X84878156Y-58413846D01*
X84758458Y-58450156D01*
X84648144Y-58509121D01*
X84551453Y-58588473D01*
X84472101Y-58685164D01*
X84430687Y-58762643D01*
X84427110Y-58759066D01*
X84167101Y-58585334D01*
X83878195Y-58465665D01*
X83571493Y-58404658D01*
X83258783Y-58404658D01*
X82952081Y-58465665D01*
X82663175Y-58585334D01*
X82403166Y-58759066D01*
X82182046Y-58980186D01*
X82008314Y-59240195D01*
X81888645Y-59529101D01*
X81827638Y-59835803D01*
X61364647Y-59835803D01*
X61365089Y-54763436D01*
X78095138Y-54763436D01*
X78095138Y-55060880D01*
X78153167Y-55352609D01*
X78266994Y-55627411D01*
X78432245Y-55874727D01*
X78642569Y-56085051D01*
X78889885Y-56250302D01*
X79164687Y-56364129D01*
X79456416Y-56422158D01*
X79753860Y-56422158D01*
X80045589Y-56364129D01*
X80320391Y-56250302D01*
X80567707Y-56085051D01*
X80778031Y-55874727D01*
X80943282Y-55627411D01*
X81057109Y-55352609D01*
X81115138Y-55060880D01*
X81115138Y-54763436D01*
X81093218Y-54653234D01*
X82056238Y-54653234D01*
X82056238Y-55171082D01*
X82157265Y-55678980D01*
X82355437Y-56157409D01*
X82643138Y-56587984D01*
X83009312Y-56954158D01*
X83439887Y-57241859D01*
X83918316Y-57440031D01*
X84426214Y-57541058D01*
X84944062Y-57541058D01*
X85451960Y-57440031D01*
X85930389Y-57241859D01*
X86360964Y-56954158D01*
X86727138Y-56587984D01*
X87014839Y-56157409D01*
X87213011Y-55678980D01*
X87314038Y-55171082D01*
X87314038Y-54763436D01*
X88255138Y-54763436D01*
X88255138Y-55060880D01*
X88313167Y-55352609D01*
X88426994Y-55627411D01*
X88592245Y-55874727D01*
X88802569Y-56085051D01*
X89049885Y-56250302D01*
X89324687Y-56364129D01*
X89616416Y-56422158D01*
X89913860Y-56422158D01*
X90205589Y-56364129D01*
X90480391Y-56250302D01*
X90727707Y-56085051D01*
X90938031Y-55874727D01*
X91103282Y-55627411D01*
X91217109Y-55352609D01*
X91275138Y-55060880D01*
X91275138Y-54763436D01*
X91217109Y-54471707D01*
X91103282Y-54196905D01*
X90938031Y-53949589D01*
X90727707Y-53739265D01*
X90480391Y-53574014D01*
X90205589Y-53460187D01*
X89913860Y-53402158D01*
X89616416Y-53402158D01*
X89324687Y-53460187D01*
X89049885Y-53574014D01*
X88802569Y-53739265D01*
X88592245Y-53949589D01*
X88426994Y-54196905D01*
X88313167Y-54471707D01*
X88255138Y-54763436D01*
X87314038Y-54763436D01*
X87314038Y-54653234D01*
X87213011Y-54145336D01*
X87014839Y-53666907D01*
X86808044Y-53357415D01*
X128544611Y-53357415D01*
X128544611Y-53640085D01*
X128599758Y-53917324D01*
X128707931Y-54178477D01*
X128864974Y-54413509D01*
X129064852Y-54613387D01*
X129297370Y-54768750D01*
X129064852Y-54924113D01*
X128864974Y-55123991D01*
X128707931Y-55359023D01*
X128599758Y-55620176D01*
X128544611Y-55897415D01*
X128544611Y-56180085D01*
X128599758Y-56457324D01*
X128707931Y-56718477D01*
X128864974Y-56953509D01*
X129064852Y-57153387D01*
X129297370Y-57308750D01*
X129064852Y-57464113D01*
X128864974Y-57663991D01*
X128707931Y-57899023D01*
X128599758Y-58160176D01*
X128544611Y-58437415D01*
X128544611Y-58720085D01*
X128599758Y-58997324D01*
X128707931Y-59258477D01*
X128864974Y-59493509D01*
X129064852Y-59693387D01*
X129297370Y-59848750D01*
X129064852Y-60004113D01*
X128864974Y-60203991D01*
X128707931Y-60439023D01*
X128599758Y-60700176D01*
X128544611Y-60977415D01*
X128544611Y-61260085D01*
X128599758Y-61537324D01*
X128707931Y-61798477D01*
X128864974Y-62033509D01*
X129064852Y-62233387D01*
X129297370Y-62388750D01*
X129064852Y-62544113D01*
X128864974Y-62743991D01*
X128707931Y-62979023D01*
X128599758Y-63240176D01*
X128544611Y-63517415D01*
X128544611Y-63800085D01*
X128599758Y-64077324D01*
X128707931Y-64338477D01*
X128864974Y-64573509D01*
X129064852Y-64773387D01*
X129297370Y-64928750D01*
X129064852Y-65084113D01*
X128864974Y-65283991D01*
X128707931Y-65519023D01*
X128599758Y-65780176D01*
X128544611Y-66057415D01*
X128544611Y-66340085D01*
X128599758Y-66617324D01*
X128707931Y-66878477D01*
X128864974Y-67113509D01*
X129064852Y-67313387D01*
X129297370Y-67468750D01*
X129064852Y-67624113D01*
X128864974Y-67823991D01*
X128707931Y-68059023D01*
X128599758Y-68320176D01*
X128544611Y-68597415D01*
X128544611Y-68880085D01*
X128599758Y-69157324D01*
X128707931Y-69418477D01*
X128864974Y-69653509D01*
X129064852Y-69853387D01*
X129297370Y-70008750D01*
X129064852Y-70164113D01*
X128864974Y-70363991D01*
X128707931Y-70599023D01*
X128599758Y-70860176D01*
X128544611Y-71137415D01*
X128544611Y-71420085D01*
X128599758Y-71697324D01*
X128707931Y-71958477D01*
X128864974Y-72193509D01*
X129064852Y-72393387D01*
X129299884Y-72550430D01*
X129561037Y-72658603D01*
X129838276Y-72713750D01*
X130120946Y-72713750D01*
X130398185Y-72658603D01*
X130659338Y-72550430D01*
X130894370Y-72393387D01*
X131094248Y-72193509D01*
X131251291Y-71958477D01*
X131359464Y-71697324D01*
X131414611Y-71420085D01*
X131414611Y-71137415D01*
X131359464Y-70860176D01*
X131251291Y-70599023D01*
X131094248Y-70363991D01*
X130894370Y-70164113D01*
X130661852Y-70008750D01*
X130894370Y-69853387D01*
X131094248Y-69653509D01*
X131251291Y-69418477D01*
X131359464Y-69157324D01*
X131414611Y-68880085D01*
X131414611Y-68597415D01*
X131359464Y-68320176D01*
X131251291Y-68059023D01*
X131094248Y-67823991D01*
X130894370Y-67624113D01*
X130661852Y-67468750D01*
X130894370Y-67313387D01*
X131094248Y-67113509D01*
X131251291Y-66878477D01*
X131359464Y-66617324D01*
X131414611Y-66340085D01*
X131414611Y-66057415D01*
X131359464Y-65780176D01*
X131251291Y-65519023D01*
X131094248Y-65283991D01*
X130894370Y-65084113D01*
X130661852Y-64928750D01*
X130894370Y-64773387D01*
X131094248Y-64573509D01*
X131251291Y-64338477D01*
X131359464Y-64077324D01*
X131414611Y-63800085D01*
X131414611Y-63517415D01*
X131359464Y-63240176D01*
X131251291Y-62979023D01*
X131094248Y-62743991D01*
X130894370Y-62544113D01*
X130661852Y-62388750D01*
X130894370Y-62233387D01*
X131094248Y-62033509D01*
X131251291Y-61798477D01*
X131359464Y-61537324D01*
X131414611Y-61260085D01*
X131414611Y-60977415D01*
X131359464Y-60700176D01*
X131251291Y-60439023D01*
X131094248Y-60203991D01*
X130894370Y-60004113D01*
X130661852Y-59848750D01*
X130894370Y-59693387D01*
X131094248Y-59493509D01*
X131251291Y-59258477D01*
X131359464Y-58997324D01*
X131414611Y-58720085D01*
X131414611Y-58437415D01*
X131359464Y-58160176D01*
X131251291Y-57899023D01*
X131094248Y-57663991D01*
X130894370Y-57464113D01*
X130661852Y-57308750D01*
X130894370Y-57153387D01*
X131094248Y-56953509D01*
X131251291Y-56718477D01*
X131359464Y-56457324D01*
X131414611Y-56180085D01*
X131414611Y-55897415D01*
X131359464Y-55620176D01*
X131251291Y-55359023D01*
X131094248Y-55123991D01*
X130894370Y-54924113D01*
X130661852Y-54768750D01*
X130894370Y-54613387D01*
X131094248Y-54413509D01*
X131251291Y-54178477D01*
X131359464Y-53917324D01*
X131414611Y-53640085D01*
X131414611Y-53357415D01*
X131359464Y-53080176D01*
X131251291Y-52819023D01*
X131094248Y-52583991D01*
X130894370Y-52384113D01*
X130660483Y-52227835D01*
X130721125Y-52195421D01*
X130792708Y-51951452D01*
X129979611Y-51138355D01*
X129166514Y-51951452D01*
X129238097Y-52195421D01*
X129302603Y-52225944D01*
X129299884Y-52227070D01*
X129064852Y-52384113D01*
X128864974Y-52583991D01*
X128707931Y-52819023D01*
X128599758Y-53080176D01*
X128544611Y-53357415D01*
X86808044Y-53357415D01*
X86727138Y-53236332D01*
X86360964Y-52870158D01*
X85930389Y-52582457D01*
X85451960Y-52384285D01*
X84944062Y-52283258D01*
X84426214Y-52283258D01*
X83918316Y-52384285D01*
X83439887Y-52582457D01*
X83009312Y-52870158D01*
X82643138Y-53236332D01*
X82355437Y-53666907D01*
X82157265Y-54145336D01*
X82056238Y-54653234D01*
X81093218Y-54653234D01*
X81057109Y-54471707D01*
X80943282Y-54196905D01*
X80901952Y-54135050D01*
X80970764Y-54138085D01*
X81313442Y-54085497D01*
X81639277Y-53967067D01*
X81935745Y-53787345D01*
X82127381Y-53611900D01*
X83463338Y-52122974D01*
X83552219Y-52034093D01*
X83626965Y-51922228D01*
X83706582Y-51813745D01*
X83723117Y-51778327D01*
X83744830Y-51745831D01*
X83796313Y-51621540D01*
X83853239Y-51499603D01*
X83862548Y-51461634D01*
X83877502Y-51425531D01*
X83903748Y-51293584D01*
X83935791Y-51162885D01*
X83937513Y-51123835D01*
X83945138Y-51085503D01*
X83945138Y-50950960D01*
X83951067Y-50816532D01*
X83945138Y-50777897D01*
X83945138Y-50738813D01*
X83918889Y-50606849D01*
X83898479Y-50473854D01*
X83885127Y-50437119D01*
X83881278Y-50417765D01*
X85420571Y-50417765D01*
X85455570Y-50761908D01*
X85557036Y-51092609D01*
X85721069Y-51397162D01*
X85941366Y-51663861D01*
X86209459Y-51882457D01*
X86515048Y-52044552D01*
X86668120Y-52094506D01*
X86948616Y-51995844D01*
X86977317Y-51579676D01*
X87230773Y-51596318D01*
X87202014Y-52013320D01*
X87466310Y-52149554D01*
X87624792Y-52121086D01*
X87949739Y-52002477D01*
X88245303Y-51822754D01*
X88500126Y-51588822D01*
X88704414Y-51309671D01*
X88834858Y-51029262D01*
X128539394Y-51029262D01*
X128580824Y-51308880D01*
X128676008Y-51575042D01*
X128742940Y-51700264D01*
X128986909Y-51771847D01*
X129800006Y-50958750D01*
X130159216Y-50958750D01*
X130972313Y-51771847D01*
X131216282Y-51700264D01*
X131337182Y-51444754D01*
X131405911Y-51170566D01*
X131419828Y-50888238D01*
X131378398Y-50608620D01*
X131283214Y-50342458D01*
X131216282Y-50217236D01*
X130972313Y-50145653D01*
X130159216Y-50958750D01*
X129800006Y-50958750D01*
X128986909Y-50145653D01*
X128742940Y-50217236D01*
X128622040Y-50472746D01*
X128553311Y-50746934D01*
X128539394Y-51029262D01*
X88834858Y-51029262D01*
X88850318Y-50996029D01*
X88932229Y-50659949D01*
X88952229Y-50369949D01*
X88904004Y-50366623D01*
X88969998Y-50120453D01*
X88981176Y-49950217D01*
X88989705Y-49826551D01*
X88989457Y-49824111D01*
X88992714Y-49774508D01*
X88956108Y-49496194D01*
X88954706Y-49482408D01*
X88953986Y-49480062D01*
X88947504Y-49430778D01*
X88940947Y-49411452D01*
X129166514Y-49411452D01*
X129238097Y-49655421D01*
X129304247Y-49686721D01*
X129238097Y-49722079D01*
X129166514Y-49966048D01*
X129979611Y-50779145D01*
X130792708Y-49966048D01*
X130721125Y-49722079D01*
X130654975Y-49690779D01*
X130721125Y-49655421D01*
X130792708Y-49411452D01*
X129979611Y-48598355D01*
X129166514Y-49411452D01*
X88940947Y-49411452D01*
X88857300Y-49164938D01*
X88853240Y-49151707D01*
X88852078Y-49149549D01*
X88836104Y-49102473D01*
X88726852Y-48898079D01*
X88713831Y-48892872D01*
X88689207Y-48847154D01*
X88468910Y-48580455D01*
X88357069Y-48489262D01*
X128539394Y-48489262D01*
X128580824Y-48768880D01*
X128676008Y-49035042D01*
X128742940Y-49160264D01*
X128986909Y-49231847D01*
X129800006Y-48418750D01*
X130159216Y-48418750D01*
X130972313Y-49231847D01*
X131216282Y-49160264D01*
X131337182Y-48904754D01*
X131405911Y-48630566D01*
X131419828Y-48348238D01*
X131409335Y-48277415D01*
X143784611Y-48277415D01*
X143784611Y-48560085D01*
X143839758Y-48837324D01*
X143947931Y-49098477D01*
X144104974Y-49333509D01*
X144304852Y-49533387D01*
X144537370Y-49688750D01*
X144304852Y-49844113D01*
X144104974Y-50043991D01*
X143947931Y-50279023D01*
X143839758Y-50540176D01*
X143784611Y-50817415D01*
X143784611Y-51100085D01*
X143839758Y-51377324D01*
X143947931Y-51638477D01*
X144104974Y-51873509D01*
X144304852Y-52073387D01*
X144537370Y-52228750D01*
X144304852Y-52384113D01*
X144104974Y-52583991D01*
X143947931Y-52819023D01*
X143839758Y-53080176D01*
X143784611Y-53357415D01*
X143784611Y-53640085D01*
X143839758Y-53917324D01*
X143947931Y-54178477D01*
X144104974Y-54413509D01*
X144304852Y-54613387D01*
X144537370Y-54768750D01*
X144304852Y-54924113D01*
X144104974Y-55123991D01*
X143947931Y-55359023D01*
X143839758Y-55620176D01*
X143784611Y-55897415D01*
X143784611Y-56180085D01*
X143839758Y-56457324D01*
X143947931Y-56718477D01*
X144104974Y-56953509D01*
X144304852Y-57153387D01*
X144537370Y-57308750D01*
X144304852Y-57464113D01*
X144104974Y-57663991D01*
X143947931Y-57899023D01*
X143839758Y-58160176D01*
X143784611Y-58437415D01*
X143784611Y-58720085D01*
X143839758Y-58997324D01*
X143947931Y-59258477D01*
X144104974Y-59493509D01*
X144304852Y-59693387D01*
X144537370Y-59848750D01*
X144304852Y-60004113D01*
X144104974Y-60203991D01*
X143947931Y-60439023D01*
X143839758Y-60700176D01*
X143784611Y-60977415D01*
X143784611Y-61260085D01*
X143839758Y-61537324D01*
X143947931Y-61798477D01*
X144104974Y-62033509D01*
X144304852Y-62233387D01*
X144537370Y-62388750D01*
X144304852Y-62544113D01*
X144104974Y-62743991D01*
X143947931Y-62979023D01*
X143839758Y-63240176D01*
X143784611Y-63517415D01*
X143784611Y-63800085D01*
X143839758Y-64077324D01*
X143947931Y-64338477D01*
X144104974Y-64573509D01*
X144304852Y-64773387D01*
X144537370Y-64928750D01*
X144304852Y-65084113D01*
X144104974Y-65283991D01*
X143947931Y-65519023D01*
X143839758Y-65780176D01*
X143784611Y-66057415D01*
X143784611Y-66340085D01*
X143839758Y-66617324D01*
X143947931Y-66878477D01*
X144104974Y-67113509D01*
X144304852Y-67313387D01*
X144537370Y-67468750D01*
X144304852Y-67624113D01*
X144104974Y-67823991D01*
X143947931Y-68059023D01*
X143839758Y-68320176D01*
X143784611Y-68597415D01*
X143784611Y-68880085D01*
X143839758Y-69157324D01*
X143947931Y-69418477D01*
X144104974Y-69653509D01*
X144304852Y-69853387D01*
X144537370Y-70008750D01*
X144304852Y-70164113D01*
X144104974Y-70363991D01*
X143947931Y-70599023D01*
X143839758Y-70860176D01*
X143784611Y-71137415D01*
X143784611Y-71420085D01*
X143839758Y-71697324D01*
X143947931Y-71958477D01*
X144104974Y-72193509D01*
X144304852Y-72393387D01*
X144539884Y-72550430D01*
X144801037Y-72658603D01*
X145078276Y-72713750D01*
X145360946Y-72713750D01*
X145638185Y-72658603D01*
X145899338Y-72550430D01*
X146134370Y-72393387D01*
X146334248Y-72193509D01*
X146491291Y-71958477D01*
X146599464Y-71697324D01*
X146654611Y-71420085D01*
X146654611Y-71137415D01*
X146608471Y-70905456D01*
X179212285Y-70905456D01*
X179212285Y-71218166D01*
X179273292Y-71524868D01*
X179392961Y-71813774D01*
X179566693Y-72073783D01*
X179787813Y-72294903D01*
X180047822Y-72468635D01*
X180336728Y-72588304D01*
X180643430Y-72649311D01*
X180956140Y-72649311D01*
X181262842Y-72588304D01*
X181551748Y-72468635D01*
X181811757Y-72294903D01*
X181815334Y-72291326D01*
X181856748Y-72368805D01*
X181936100Y-72465496D01*
X182032791Y-72544848D01*
X182143105Y-72603813D01*
X182262803Y-72640123D01*
X182387285Y-72652383D01*
X184292285Y-72652383D01*
X184416767Y-72640123D01*
X184536465Y-72603813D01*
X184646779Y-72544848D01*
X184743470Y-72465496D01*
X184822822Y-72368805D01*
X184881787Y-72258491D01*
X184918097Y-72138793D01*
X184930357Y-72014311D01*
X184930357Y-70109311D01*
X184918097Y-69984829D01*
X184881787Y-69865131D01*
X184822822Y-69754817D01*
X184743470Y-69658126D01*
X184646779Y-69578774D01*
X184536465Y-69519809D01*
X184416767Y-69483499D01*
X184292285Y-69471239D01*
X182387285Y-69471239D01*
X182262803Y-69483499D01*
X182143105Y-69519809D01*
X182032791Y-69578774D01*
X181936100Y-69658126D01*
X181856748Y-69754817D01*
X181815334Y-69832296D01*
X181811757Y-69828719D01*
X181551748Y-69654987D01*
X181262842Y-69535318D01*
X180956140Y-69474311D01*
X180643430Y-69474311D01*
X180336728Y-69535318D01*
X180047822Y-69654987D01*
X179787813Y-69828719D01*
X179566693Y-70049839D01*
X179392961Y-70309848D01*
X179273292Y-70598754D01*
X179212285Y-70905456D01*
X146608471Y-70905456D01*
X146599464Y-70860176D01*
X146491291Y-70599023D01*
X146334248Y-70363991D01*
X146134370Y-70164113D01*
X145901852Y-70008750D01*
X146134370Y-69853387D01*
X146334248Y-69653509D01*
X146491291Y-69418477D01*
X146599464Y-69157324D01*
X146654611Y-68880085D01*
X146654611Y-68597415D01*
X146599464Y-68320176D01*
X146491291Y-68059023D01*
X146334248Y-67823991D01*
X146134370Y-67624113D01*
X145901852Y-67468750D01*
X146134370Y-67313387D01*
X146334248Y-67113509D01*
X146491291Y-66878477D01*
X146599464Y-66617324D01*
X146654611Y-66340085D01*
X146654611Y-66057415D01*
X146609990Y-65833089D01*
X175479785Y-65833089D01*
X175479785Y-66130533D01*
X175537814Y-66422262D01*
X175651641Y-66697064D01*
X175816892Y-66944380D01*
X176027216Y-67154704D01*
X176274532Y-67319955D01*
X176549334Y-67433782D01*
X176841063Y-67491811D01*
X177138507Y-67491811D01*
X177430236Y-67433782D01*
X177705038Y-67319955D01*
X177952354Y-67154704D01*
X178162678Y-66944380D01*
X178327929Y-66697064D01*
X178441756Y-66422262D01*
X178499785Y-66130533D01*
X178499785Y-65833089D01*
X178477865Y-65722887D01*
X179440885Y-65722887D01*
X179440885Y-66240735D01*
X179541912Y-66748633D01*
X179740084Y-67227062D01*
X180027785Y-67657637D01*
X180393959Y-68023811D01*
X180824534Y-68311512D01*
X181302963Y-68509684D01*
X181810861Y-68610711D01*
X182328709Y-68610711D01*
X182836607Y-68509684D01*
X183315036Y-68311512D01*
X183745611Y-68023811D01*
X183911202Y-67858220D01*
X198241963Y-67858220D01*
X198241963Y-68170930D01*
X198302970Y-68477632D01*
X198422639Y-68766538D01*
X198596371Y-69026547D01*
X198817491Y-69247667D01*
X199077500Y-69421399D01*
X199366406Y-69541068D01*
X199673108Y-69602075D01*
X199985818Y-69602075D01*
X200292520Y-69541068D01*
X200581426Y-69421399D01*
X200841435Y-69247667D01*
X200845012Y-69244090D01*
X200886426Y-69321569D01*
X200965778Y-69418260D01*
X201062469Y-69497612D01*
X201172783Y-69556577D01*
X201292481Y-69592887D01*
X201416963Y-69605147D01*
X203321963Y-69605147D01*
X203446445Y-69592887D01*
X203566143Y-69556577D01*
X203676457Y-69497612D01*
X203773148Y-69418260D01*
X203852500Y-69321569D01*
X203911465Y-69211255D01*
X203947775Y-69091557D01*
X203960035Y-68967075D01*
X203960035Y-67062075D01*
X203947775Y-66937593D01*
X203911465Y-66817895D01*
X203852500Y-66707581D01*
X203773148Y-66610890D01*
X203676457Y-66531538D01*
X203566143Y-66472573D01*
X203446445Y-66436263D01*
X203321963Y-66424003D01*
X201416963Y-66424003D01*
X201292481Y-66436263D01*
X201172783Y-66472573D01*
X201062469Y-66531538D01*
X200965778Y-66610890D01*
X200886426Y-66707581D01*
X200845012Y-66785060D01*
X200841435Y-66781483D01*
X200581426Y-66607751D01*
X200292520Y-66488082D01*
X199985818Y-66427075D01*
X199673108Y-66427075D01*
X199366406Y-66488082D01*
X199077500Y-66607751D01*
X198817491Y-66781483D01*
X198596371Y-67002603D01*
X198422639Y-67262612D01*
X198302970Y-67551518D01*
X198241963Y-67858220D01*
X183911202Y-67858220D01*
X184111785Y-67657637D01*
X184399486Y-67227062D01*
X184597658Y-66748633D01*
X184698685Y-66240735D01*
X184698685Y-65833089D01*
X185639785Y-65833089D01*
X185639785Y-66130533D01*
X185697814Y-66422262D01*
X185811641Y-66697064D01*
X185976892Y-66944380D01*
X186187216Y-67154704D01*
X186434532Y-67319955D01*
X186709334Y-67433782D01*
X187001063Y-67491811D01*
X187298507Y-67491811D01*
X187590236Y-67433782D01*
X187865038Y-67319955D01*
X188112354Y-67154704D01*
X188322678Y-66944380D01*
X188487929Y-66697064D01*
X188601756Y-66422262D01*
X188659785Y-66130533D01*
X188659785Y-65833089D01*
X188601756Y-65541360D01*
X188487929Y-65266558D01*
X188322678Y-65019242D01*
X188112354Y-64808918D01*
X187865038Y-64643667D01*
X187590236Y-64529840D01*
X187298507Y-64471811D01*
X187001063Y-64471811D01*
X186709334Y-64529840D01*
X186434532Y-64643667D01*
X186187216Y-64808918D01*
X185976892Y-65019242D01*
X185811641Y-65266558D01*
X185697814Y-65541360D01*
X185639785Y-65833089D01*
X184698685Y-65833089D01*
X184698685Y-65722887D01*
X184597658Y-65214989D01*
X184399486Y-64736560D01*
X184111785Y-64305985D01*
X183745611Y-63939811D01*
X183315036Y-63652110D01*
X182836607Y-63453938D01*
X182328709Y-63352911D01*
X181810861Y-63352911D01*
X181302963Y-63453938D01*
X180824534Y-63652110D01*
X180393959Y-63939811D01*
X180027785Y-64305985D01*
X179740084Y-64736560D01*
X179541912Y-65214989D01*
X179440885Y-65722887D01*
X178477865Y-65722887D01*
X178441756Y-65541360D01*
X178327929Y-65266558D01*
X178284506Y-65201570D01*
X178572942Y-65178377D01*
X178905712Y-65083916D01*
X179213660Y-64926349D01*
X179484950Y-64711732D01*
X180139951Y-63981732D01*
X179848584Y-63720300D01*
X179971165Y-63704177D01*
X180145151Y-63645140D01*
X180309582Y-63792678D01*
X180964582Y-63062679D01*
X181051912Y-62923723D01*
X181071499Y-62915890D01*
X181125012Y-62807409D01*
X181148649Y-62769799D01*
X181166063Y-62724192D01*
X181224874Y-62604971D01*
X181256197Y-62488131D01*
X181272040Y-62446637D01*
X181280221Y-62398516D01*
X181314645Y-62270106D01*
X181322571Y-62149400D01*
X181330015Y-62105612D01*
X181328650Y-62056816D01*
X181337361Y-61924161D01*
X181321587Y-61804229D01*
X181320345Y-61759830D01*
X181309488Y-61712241D01*
X181292151Y-61580431D01*
X181253280Y-61465874D01*
X181248967Y-61446968D01*
X182808008Y-61446968D01*
X182815625Y-61706673D01*
X182893198Y-62044572D01*
X183035204Y-62360845D01*
X183236181Y-62643337D01*
X183488409Y-62881192D01*
X183782193Y-63065270D01*
X184106244Y-63188495D01*
X184448108Y-63246135D01*
X184794647Y-63235971D01*
X185132546Y-63158398D01*
X185448819Y-63016392D01*
X185731311Y-62815415D01*
X185759188Y-62785853D01*
X194509463Y-62785853D01*
X194509463Y-63083297D01*
X194567492Y-63375026D01*
X194681319Y-63649828D01*
X194846570Y-63897144D01*
X195056894Y-64107468D01*
X195304210Y-64272719D01*
X195579012Y-64386546D01*
X195870741Y-64444575D01*
X196168185Y-64444575D01*
X196459914Y-64386546D01*
X196734716Y-64272719D01*
X196982032Y-64107468D01*
X197192356Y-63897144D01*
X197357607Y-63649828D01*
X197471434Y-63375026D01*
X197529463Y-63083297D01*
X197529463Y-62785853D01*
X197507543Y-62675651D01*
X198470563Y-62675651D01*
X198470563Y-63193499D01*
X198571590Y-63701397D01*
X198769762Y-64179826D01*
X199057463Y-64610401D01*
X199423637Y-64976575D01*
X199854212Y-65264276D01*
X200332641Y-65462448D01*
X200840539Y-65563475D01*
X201358387Y-65563475D01*
X201866285Y-65462448D01*
X202344714Y-65264276D01*
X202775289Y-64976575D01*
X203141463Y-64610401D01*
X203429164Y-64179826D01*
X203627336Y-63701397D01*
X203728363Y-63193499D01*
X203728363Y-62785853D01*
X204669463Y-62785853D01*
X204669463Y-63083297D01*
X204727492Y-63375026D01*
X204841319Y-63649828D01*
X205006570Y-63897144D01*
X205216894Y-64107468D01*
X205464210Y-64272719D01*
X205739012Y-64386546D01*
X206030741Y-64444575D01*
X206328185Y-64444575D01*
X206619914Y-64386546D01*
X206894716Y-64272719D01*
X207142032Y-64107468D01*
X207352356Y-63897144D01*
X207517607Y-63649828D01*
X207631434Y-63375026D01*
X207689463Y-63083297D01*
X207689463Y-62785853D01*
X207631434Y-62494124D01*
X207517607Y-62219322D01*
X207352356Y-61972006D01*
X207142032Y-61761682D01*
X206894716Y-61596431D01*
X206619914Y-61482604D01*
X206328185Y-61424575D01*
X206030741Y-61424575D01*
X205739012Y-61482604D01*
X205464210Y-61596431D01*
X205216894Y-61761682D01*
X205006570Y-61972006D01*
X204841319Y-62219322D01*
X204727492Y-62494124D01*
X204669463Y-62785853D01*
X203728363Y-62785853D01*
X203728363Y-62675651D01*
X203627336Y-62167753D01*
X203429164Y-61689324D01*
X203141463Y-61258749D01*
X202775289Y-60892575D01*
X202344714Y-60604874D01*
X201866285Y-60406702D01*
X201358387Y-60305675D01*
X200840539Y-60305675D01*
X200332641Y-60406702D01*
X199854212Y-60604874D01*
X199423637Y-60892575D01*
X199057463Y-61258749D01*
X198769762Y-61689324D01*
X198571590Y-62167753D01*
X198470563Y-62675651D01*
X197507543Y-62675651D01*
X197471434Y-62494124D01*
X197357607Y-62219322D01*
X197314184Y-62154334D01*
X197602620Y-62131141D01*
X197935390Y-62036680D01*
X198243338Y-61879113D01*
X198514628Y-61664496D01*
X199169629Y-60934496D01*
X198878262Y-60673064D01*
X199000843Y-60656941D01*
X199174829Y-60597904D01*
X199339260Y-60745442D01*
X199994260Y-60015443D01*
X200081590Y-59876487D01*
X200101177Y-59868654D01*
X200154690Y-59760173D01*
X200178327Y-59722563D01*
X200195741Y-59676956D01*
X200254552Y-59557735D01*
X200285875Y-59440895D01*
X200301718Y-59399401D01*
X200309899Y-59351280D01*
X200344323Y-59222870D01*
X200352249Y-59102164D01*
X200359693Y-59058376D01*
X200358328Y-59009580D01*
X200367039Y-58876925D01*
X200351265Y-58756993D01*
X200350023Y-58712594D01*
X200339166Y-58665005D01*
X200321829Y-58533195D01*
X200282958Y-58418638D01*
X200278645Y-58399732D01*
X201837686Y-58399732D01*
X201845303Y-58659437D01*
X201922876Y-58997336D01*
X202064882Y-59313609D01*
X202265859Y-59596101D01*
X202518087Y-59833956D01*
X202811871Y-60018034D01*
X203135922Y-60141259D01*
X203477786Y-60198899D01*
X203824325Y-60188735D01*
X204162224Y-60111162D01*
X204478497Y-59969156D01*
X204760989Y-59768179D01*
X204998844Y-59515951D01*
X205182922Y-59222167D01*
X205306147Y-58898116D01*
X205349344Y-58641914D01*
X205387562Y-58087750D01*
X205399463Y-58027920D01*
X205399463Y-57915186D01*
X205401240Y-57889419D01*
X205399463Y-57828831D01*
X205399463Y-57681230D01*
X205394385Y-57655703D01*
X205393623Y-57629712D01*
X205360622Y-57485962D01*
X205331827Y-57341202D01*
X205321870Y-57317163D01*
X205316050Y-57291813D01*
X205255640Y-57157269D01*
X205199155Y-57020902D01*
X205184693Y-56999258D01*
X205174044Y-56975541D01*
X205088559Y-56855384D01*
X205006544Y-56732640D01*
X204988141Y-56714237D01*
X204973067Y-56693049D01*
X204865774Y-56591870D01*
X204761398Y-56487494D01*
X204739757Y-56473034D01*
X204720839Y-56455194D01*
X204595870Y-56376891D01*
X204473136Y-56294883D01*
X204449091Y-56284923D01*
X204427055Y-56271116D01*
X204289203Y-56218696D01*
X204152836Y-56162211D01*
X204127309Y-56157133D01*
X204103004Y-56147891D01*
X203957571Y-56123370D01*
X203812808Y-56094575D01*
X203786786Y-56094575D01*
X203761140Y-56090251D01*
X203613700Y-56094575D01*
X203466118Y-56094575D01*
X203440596Y-56099652D01*
X203414601Y-56100414D01*
X203270838Y-56133419D01*
X203126090Y-56162211D01*
X203102050Y-56172169D01*
X203076702Y-56177988D01*
X202942152Y-56238400D01*
X202805790Y-56294883D01*
X202784150Y-56309342D01*
X202760429Y-56319993D01*
X202640259Y-56405488D01*
X202517528Y-56487494D01*
X202499125Y-56505897D01*
X202477937Y-56520971D01*
X202376751Y-56628271D01*
X202272382Y-56732640D01*
X202257924Y-56754278D01*
X202240082Y-56773198D01*
X202161773Y-56898177D01*
X202079771Y-57020902D01*
X202069811Y-57044947D01*
X202056004Y-57066983D01*
X202003582Y-57204839D01*
X201947099Y-57341202D01*
X201942022Y-57366727D01*
X201932779Y-57391033D01*
X201908257Y-57536473D01*
X201879463Y-57681230D01*
X201879463Y-57793961D01*
X201837686Y-58399732D01*
X200278645Y-58399732D01*
X200273080Y-58375343D01*
X200253151Y-58330794D01*
X200210429Y-58204890D01*
X200101177Y-58000496D01*
X200088629Y-57995478D01*
X200041848Y-57926047D01*
X199759998Y-57831323D01*
X198604458Y-59119175D01*
X198599463Y-59114180D01*
X197895501Y-59818142D01*
X197751765Y-59689173D01*
X197765122Y-59674287D01*
X197720333Y-59634100D01*
X197900201Y-59454232D01*
X197934752Y-59485233D01*
X198594469Y-58749976D01*
X198599463Y-58754970D01*
X199644389Y-57710044D01*
X199533542Y-57432861D01*
X199390059Y-57362082D01*
X199303869Y-57316693D01*
X199287004Y-57311245D01*
X199222623Y-57279486D01*
X199023202Y-57226025D01*
X198974701Y-57210357D01*
X198957099Y-57208304D01*
X198887758Y-57189715D01*
X198681726Y-57176186D01*
X198631113Y-57170283D01*
X198613452Y-57171703D01*
X198541813Y-57166999D01*
X198337093Y-57193925D01*
X198286308Y-57198009D01*
X198269267Y-57202846D01*
X198198083Y-57212209D01*
X198002544Y-57278559D01*
X197953538Y-57292470D01*
X197937770Y-57300538D01*
X197869778Y-57323609D01*
X197665384Y-57432861D01*
X197661840Y-57441722D01*
X197645590Y-57450037D01*
X197374300Y-57664654D01*
X196719299Y-58394654D01*
X196882744Y-58541307D01*
X196854603Y-58646280D01*
X196841517Y-58845572D01*
X196549668Y-58583708D01*
X195894668Y-59313707D01*
X195710601Y-59606587D01*
X195587210Y-59929749D01*
X195529235Y-60270774D01*
X195538905Y-60616556D01*
X195615848Y-60953807D01*
X195757107Y-61269568D01*
X195847080Y-61403103D01*
X195910970Y-61424575D01*
X195870741Y-61424575D01*
X195579012Y-61482604D01*
X195304210Y-61596431D01*
X195056894Y-61761682D01*
X194846570Y-61972006D01*
X194681319Y-62219322D01*
X194567492Y-62494124D01*
X194509463Y-62785853D01*
X185759188Y-62785853D01*
X185969166Y-62563187D01*
X186153244Y-62269403D01*
X186276469Y-61945352D01*
X186319666Y-61689150D01*
X186357884Y-61134986D01*
X186369785Y-61075156D01*
X186369785Y-60962422D01*
X186371562Y-60936655D01*
X186369785Y-60876067D01*
X186369785Y-60728466D01*
X186364707Y-60702939D01*
X186363945Y-60676948D01*
X186330944Y-60533198D01*
X186302149Y-60388438D01*
X186292192Y-60364399D01*
X186286372Y-60339049D01*
X186225962Y-60204505D01*
X186169477Y-60068138D01*
X186155015Y-60046494D01*
X186144366Y-60022777D01*
X186058881Y-59902620D01*
X185976866Y-59779876D01*
X185958463Y-59761473D01*
X185943389Y-59740285D01*
X185836096Y-59639106D01*
X185731720Y-59534730D01*
X185710079Y-59520270D01*
X185691161Y-59502430D01*
X185566192Y-59424127D01*
X185443458Y-59342119D01*
X185419413Y-59332159D01*
X185397377Y-59318352D01*
X185259525Y-59265932D01*
X185123158Y-59209447D01*
X185097631Y-59204369D01*
X185073326Y-59195127D01*
X184927893Y-59170606D01*
X184783130Y-59141811D01*
X184757108Y-59141811D01*
X184731462Y-59137487D01*
X184584022Y-59141811D01*
X184436440Y-59141811D01*
X184410918Y-59146888D01*
X184384923Y-59147650D01*
X184241160Y-59180655D01*
X184096412Y-59209447D01*
X184072372Y-59219405D01*
X184047024Y-59225224D01*
X183912474Y-59285636D01*
X183776112Y-59342119D01*
X183754472Y-59356578D01*
X183730751Y-59367229D01*
X183610581Y-59452724D01*
X183487850Y-59534730D01*
X183469447Y-59553133D01*
X183448259Y-59568207D01*
X183347073Y-59675507D01*
X183242704Y-59779876D01*
X183228246Y-59801514D01*
X183210404Y-59820434D01*
X183132095Y-59945413D01*
X183050093Y-60068138D01*
X183040133Y-60092183D01*
X183026326Y-60114219D01*
X182973904Y-60252075D01*
X182917421Y-60388438D01*
X182912344Y-60413963D01*
X182903101Y-60438269D01*
X182878579Y-60583709D01*
X182849785Y-60728466D01*
X182849785Y-60841197D01*
X182808008Y-61446968D01*
X181248967Y-61446968D01*
X181243402Y-61422579D01*
X181223473Y-61378030D01*
X181180751Y-61252126D01*
X181071499Y-61047732D01*
X181058951Y-61042714D01*
X181012170Y-60973283D01*
X180730320Y-60878559D01*
X179574780Y-62166411D01*
X179569785Y-62161416D01*
X178865823Y-62865378D01*
X178722087Y-62736409D01*
X178735444Y-62721523D01*
X178690655Y-62681336D01*
X178870523Y-62501468D01*
X178905074Y-62532469D01*
X179564791Y-61797212D01*
X179569785Y-61802206D01*
X180614711Y-60757280D01*
X180503864Y-60480097D01*
X180360381Y-60409318D01*
X180274191Y-60363929D01*
X180257326Y-60358481D01*
X180192945Y-60326722D01*
X179993524Y-60273261D01*
X179945023Y-60257593D01*
X179927421Y-60255540D01*
X179858080Y-60236951D01*
X179652048Y-60223422D01*
X179601435Y-60217519D01*
X179583774Y-60218939D01*
X179512135Y-60214235D01*
X179307415Y-60241161D01*
X179256630Y-60245245D01*
X179239589Y-60250082D01*
X179168405Y-60259445D01*
X178972866Y-60325795D01*
X178923860Y-60339706D01*
X178908092Y-60347774D01*
X178840100Y-60370845D01*
X178635706Y-60480097D01*
X178632162Y-60488958D01*
X178615912Y-60497273D01*
X178344622Y-60711890D01*
X177689621Y-61441890D01*
X177853066Y-61588543D01*
X177824925Y-61693516D01*
X177811839Y-61892808D01*
X177519990Y-61630944D01*
X176864990Y-62360943D01*
X176680923Y-62653823D01*
X176557532Y-62976985D01*
X176499557Y-63318010D01*
X176509227Y-63663792D01*
X176586170Y-64001043D01*
X176727429Y-64316804D01*
X176817402Y-64450339D01*
X176881292Y-64471811D01*
X176841063Y-64471811D01*
X176549334Y-64529840D01*
X176274532Y-64643667D01*
X176027216Y-64808918D01*
X175816892Y-65019242D01*
X175651641Y-65266558D01*
X175537814Y-65541360D01*
X175479785Y-65833089D01*
X146609990Y-65833089D01*
X146599464Y-65780176D01*
X146491291Y-65519023D01*
X146334248Y-65283991D01*
X146134370Y-65084113D01*
X145901852Y-64928750D01*
X146134370Y-64773387D01*
X146334248Y-64573509D01*
X146491291Y-64338477D01*
X146599464Y-64077324D01*
X146654611Y-63800085D01*
X146654611Y-63517415D01*
X146599464Y-63240176D01*
X146491291Y-62979023D01*
X146334248Y-62743991D01*
X146134370Y-62544113D01*
X145901852Y-62388750D01*
X146134370Y-62233387D01*
X146334248Y-62033509D01*
X146491291Y-61798477D01*
X146599464Y-61537324D01*
X146654611Y-61260085D01*
X146654611Y-60977415D01*
X146599464Y-60700176D01*
X146491291Y-60439023D01*
X146334248Y-60203991D01*
X146134370Y-60004113D01*
X145901852Y-59848750D01*
X146134370Y-59693387D01*
X146334248Y-59493509D01*
X146491291Y-59258477D01*
X146599464Y-58997324D01*
X146654611Y-58720085D01*
X146654611Y-58437415D01*
X146599464Y-58160176D01*
X146491291Y-57899023D01*
X146334248Y-57663991D01*
X146134370Y-57464113D01*
X145901852Y-57308750D01*
X146134370Y-57153387D01*
X146334248Y-56953509D01*
X146491291Y-56718477D01*
X146599464Y-56457324D01*
X146654611Y-56180085D01*
X146654611Y-55897415D01*
X146599464Y-55620176D01*
X146491291Y-55359023D01*
X146334248Y-55123991D01*
X146134370Y-54924113D01*
X145901852Y-54768750D01*
X146134370Y-54613387D01*
X146334248Y-54413509D01*
X146491291Y-54178477D01*
X146599464Y-53917324D01*
X146654611Y-53640085D01*
X146654611Y-53357415D01*
X146599464Y-53080176D01*
X146491291Y-52819023D01*
X146334248Y-52583991D01*
X146134370Y-52384113D01*
X145901852Y-52228750D01*
X146134370Y-52073387D01*
X146334248Y-51873509D01*
X146491291Y-51638477D01*
X146599464Y-51377324D01*
X146654611Y-51100085D01*
X146654611Y-50817415D01*
X146599464Y-50540176D01*
X146491291Y-50279023D01*
X146334248Y-50043991D01*
X146134370Y-49844113D01*
X145901852Y-49688750D01*
X146134370Y-49533387D01*
X146334248Y-49333509D01*
X146491291Y-49098477D01*
X146599464Y-48837324D01*
X146654611Y-48560085D01*
X146654611Y-48277415D01*
X146599464Y-48000176D01*
X146491291Y-47739023D01*
X146334248Y-47503991D01*
X146134370Y-47304113D01*
X145900483Y-47147835D01*
X145961125Y-47115421D01*
X146032708Y-46871452D01*
X145219611Y-46058355D01*
X144406514Y-46871452D01*
X144478097Y-47115421D01*
X144542603Y-47145944D01*
X144539884Y-47147070D01*
X144304852Y-47304113D01*
X144104974Y-47503991D01*
X143947931Y-47739023D01*
X143839758Y-48000176D01*
X143784611Y-48277415D01*
X131409335Y-48277415D01*
X131378398Y-48068620D01*
X131283214Y-47802458D01*
X131216282Y-47677236D01*
X130972313Y-47605653D01*
X130159216Y-48418750D01*
X129800006Y-48418750D01*
X128986909Y-47605653D01*
X128742940Y-47677236D01*
X128622040Y-47932746D01*
X128553311Y-48206934D01*
X128539394Y-48489262D01*
X88357069Y-48489262D01*
X88200817Y-48361859D01*
X88163962Y-48342310D01*
X88159217Y-48330444D01*
X87907489Y-48206268D01*
X87895228Y-48199764D01*
X87892500Y-48198874D01*
X87848298Y-48177069D01*
X87513433Y-48087298D01*
X87343310Y-48076127D01*
X87219529Y-48067590D01*
X87219501Y-48067997D01*
X87167488Y-48064582D01*
X86823758Y-48109792D01*
X86495453Y-48221192D01*
X86291059Y-48330444D01*
X86283424Y-48349536D01*
X86164973Y-48421562D01*
X85910150Y-48655494D01*
X85736427Y-48892879D01*
X85723424Y-48898079D01*
X85570049Y-49208998D01*
X85480278Y-49543863D01*
X85469094Y-49714183D01*
X85458047Y-49874367D01*
X85458574Y-49874403D01*
X85457562Y-49889808D01*
X85489302Y-50131126D01*
X85440571Y-50127765D01*
X85420571Y-50417765D01*
X83881278Y-50417765D01*
X83877502Y-50398785D01*
X83826012Y-50274478D01*
X83780049Y-50148019D01*
X83759788Y-50114596D01*
X83744830Y-50078485D01*
X83670073Y-49966604D01*
X83600327Y-49851551D01*
X83573936Y-49822724D01*
X83552219Y-49790223D01*
X83457072Y-49695076D01*
X83366221Y-49595841D01*
X83334713Y-49572717D01*
X83307073Y-49545077D01*
X83195188Y-49470317D01*
X83086726Y-49390716D01*
X83051314Y-49374184D01*
X83018811Y-49352466D01*
X82894491Y-49300971D01*
X82772584Y-49244059D01*
X82734624Y-49234753D01*
X82698511Y-49219794D01*
X82566526Y-49193540D01*
X82435866Y-49161507D01*
X82396827Y-49159785D01*
X82358483Y-49152158D01*
X82223896Y-49152158D01*
X82089513Y-49146231D01*
X82050891Y-49152158D01*
X82011793Y-49152158D01*
X81879782Y-49178417D01*
X81746835Y-49198819D01*
X81710114Y-49212166D01*
X81671765Y-49219794D01*
X81547407Y-49271305D01*
X81421001Y-49317249D01*
X81387592Y-49337502D01*
X81351465Y-49352466D01*
X81239538Y-49427253D01*
X81124532Y-49496971D01*
X81095716Y-49523353D01*
X81063203Y-49545077D01*
X80968025Y-49640255D01*
X80932896Y-49672416D01*
X80906975Y-49701305D01*
X80818057Y-49790223D01*
X80791411Y-49830101D01*
X79507422Y-51261111D01*
X79353696Y-51470572D01*
X79207039Y-51784714D01*
X79124487Y-52121432D01*
X79109211Y-52467784D01*
X79161799Y-52810462D01*
X79280229Y-53136297D01*
X79443013Y-53404824D01*
X79164687Y-53460187D01*
X78889885Y-53574014D01*
X78642569Y-53739265D01*
X78432245Y-53949589D01*
X78266994Y-54196905D01*
X78153167Y-54471707D01*
X78095138Y-54763436D01*
X61365089Y-54763436D01*
X61365841Y-46126531D01*
X61438573Y-45147796D01*
X61649456Y-44215828D01*
X61995777Y-43325263D01*
X62445307Y-42538750D01*
X128541539Y-42538750D01*
X128541539Y-44138750D01*
X128553799Y-44263232D01*
X128590109Y-44382930D01*
X128649074Y-44493244D01*
X128728426Y-44589935D01*
X128825117Y-44669287D01*
X128935431Y-44728252D01*
X129055129Y-44764562D01*
X129063572Y-44765393D01*
X128864974Y-44963991D01*
X128707931Y-45199023D01*
X128599758Y-45460176D01*
X128544611Y-45737415D01*
X128544611Y-46020085D01*
X128599758Y-46297324D01*
X128707931Y-46558477D01*
X128864974Y-46793509D01*
X129064852Y-46993387D01*
X129298739Y-47149665D01*
X129238097Y-47182079D01*
X129166514Y-47426048D01*
X129979611Y-48239145D01*
X130792708Y-47426048D01*
X130721125Y-47182079D01*
X130656619Y-47151556D01*
X130659338Y-47150430D01*
X130894370Y-46993387D01*
X131094248Y-46793509D01*
X131251291Y-46558477D01*
X131359464Y-46297324D01*
X131414611Y-46020085D01*
X131414611Y-45949262D01*
X143779394Y-45949262D01*
X143820824Y-46228880D01*
X143916008Y-46495042D01*
X143982940Y-46620264D01*
X144226909Y-46691847D01*
X145040006Y-45878750D01*
X145399216Y-45878750D01*
X146212313Y-46691847D01*
X146456282Y-46620264D01*
X146577182Y-46364754D01*
X146645911Y-46090566D01*
X146659828Y-45808238D01*
X146618398Y-45528620D01*
X146523214Y-45262458D01*
X146456282Y-45137236D01*
X146212313Y-45065653D01*
X145399216Y-45878750D01*
X145040006Y-45878750D01*
X144226909Y-45065653D01*
X143982940Y-45137236D01*
X143862040Y-45392746D01*
X143793311Y-45666934D01*
X143779394Y-45949262D01*
X131414611Y-45949262D01*
X131414611Y-45737415D01*
X131359464Y-45460176D01*
X131251291Y-45199023D01*
X131094248Y-44963991D01*
X130895650Y-44765393D01*
X130904093Y-44764562D01*
X131023791Y-44728252D01*
X131134105Y-44669287D01*
X131230796Y-44589935D01*
X131310148Y-44493244D01*
X131369113Y-44382930D01*
X131405423Y-44263232D01*
X131417683Y-44138750D01*
X131417683Y-43197415D01*
X143784611Y-43197415D01*
X143784611Y-43480085D01*
X143839758Y-43757324D01*
X143947931Y-44018477D01*
X144104974Y-44253509D01*
X144304852Y-44453387D01*
X144538739Y-44609665D01*
X144478097Y-44642079D01*
X144406514Y-44886048D01*
X145219611Y-45699145D01*
X146032708Y-44886048D01*
X145961125Y-44642079D01*
X145896619Y-44611556D01*
X145899338Y-44610430D01*
X146134370Y-44453387D01*
X146334248Y-44253509D01*
X146491291Y-44018477D01*
X146599464Y-43757324D01*
X146654611Y-43480085D01*
X146654611Y-43197415D01*
X146599464Y-42920176D01*
X146491291Y-42659023D01*
X146334248Y-42423991D01*
X146134370Y-42224113D01*
X145899338Y-42067070D01*
X145638185Y-41958897D01*
X145360946Y-41903750D01*
X145078276Y-41903750D01*
X144801037Y-41958897D01*
X144539884Y-42067070D01*
X144304852Y-42224113D01*
X144104974Y-42423991D01*
X143947931Y-42659023D01*
X143839758Y-42920176D01*
X143784611Y-43197415D01*
X131417683Y-43197415D01*
X131417683Y-42538750D01*
X131405423Y-42414268D01*
X131369113Y-42294570D01*
X131310148Y-42184256D01*
X131230796Y-42087565D01*
X131134105Y-42008213D01*
X131023791Y-41949248D01*
X130904093Y-41912938D01*
X130779611Y-41900678D01*
X129179611Y-41900678D01*
X129055129Y-41912938D01*
X128935431Y-41949248D01*
X128825117Y-42008213D01*
X128728426Y-42087565D01*
X128649074Y-42184256D01*
X128590109Y-42294570D01*
X128553799Y-42414268D01*
X128541539Y-42538750D01*
X62445307Y-42538750D01*
X62469926Y-42495676D01*
X63061492Y-41745278D01*
X63757467Y-41090570D01*
X64542584Y-40545916D01*
X65399565Y-40123298D01*
X66309614Y-39831990D01*
X67263230Y-39676684D01*
X67829820Y-39651946D01*
X208528598Y-39639897D01*
X209503632Y-39712890D01*
X209503632Y-39712890D01*
G37*
X209503632Y-39712890D02*
X210432136Y-39923523D01*
X211319303Y-40269083D01*
X212145657Y-40741983D01*
X212893036Y-41331832D01*
X213545011Y-42025663D01*
X214087278Y-42808250D01*
X214507913Y-43662391D01*
X214797675Y-44569317D01*
X214951961Y-45519944D01*
X214976251Y-46072150D01*
X214959660Y-101795133D01*
X214886658Y-102770281D01*
X214676025Y-103698785D01*
X214330465Y-104585952D01*
X213857563Y-105412310D01*
X213267717Y-106159685D01*
X212573885Y-106811660D01*
X211791300Y-107353926D01*
X210937159Y-107774561D01*
X210030225Y-108064326D01*
X209079603Y-108218610D01*
X208527301Y-108242905D01*
X67808678Y-108247318D01*
X66833616Y-108174323D01*
X65905112Y-107963690D01*
X65017945Y-107618130D01*
X64191587Y-107145228D01*
X63444212Y-106555382D01*
X62792237Y-105861550D01*
X62249971Y-105078965D01*
X61829336Y-104224824D01*
X61539571Y-103317890D01*
X61385287Y-102367268D01*
X61360994Y-101815008D01*
X61361333Y-97914616D01*
X81840262Y-97914616D01*
X81840262Y-98227326D01*
X81901269Y-98534028D01*
X82020938Y-98822934D01*
X82194670Y-99082943D01*
X82415790Y-99304063D01*
X82675799Y-99477795D01*
X82964705Y-99597464D01*
X83271407Y-99658471D01*
X83584117Y-99658471D01*
X83890819Y-99597464D01*
X84179725Y-99477795D01*
X84439734Y-99304063D01*
X84443311Y-99300486D01*
X84484725Y-99377965D01*
X84564077Y-99474656D01*
X84660768Y-99554008D01*
X84771082Y-99612973D01*
X84890780Y-99649283D01*
X85015262Y-99661543D01*
X86920262Y-99661543D01*
X87044744Y-99649283D01*
X87164442Y-99612973D01*
X87274756Y-99554008D01*
X87371447Y-99474656D01*
X87450799Y-99377965D01*
X87509764Y-99267651D01*
X87546074Y-99147953D01*
X87558334Y-99023471D01*
X87558334Y-97118471D01*
X87546074Y-96993989D01*
X87509764Y-96874291D01*
X87450799Y-96763977D01*
X87371447Y-96667286D01*
X87274756Y-96587934D01*
X87164442Y-96528969D01*
X87044744Y-96492659D01*
X86920262Y-96480399D01*
X85015262Y-96480399D01*
X84890780Y-96492659D01*
X84771082Y-96528969D01*
X84660768Y-96587934D01*
X84564077Y-96667286D01*
X84484725Y-96763977D01*
X84443311Y-96841456D01*
X84439734Y-96837879D01*
X84179725Y-96664147D01*
X83890819Y-96544478D01*
X83584117Y-96483471D01*
X83271407Y-96483471D01*
X82964705Y-96544478D01*
X82675799Y-96664147D01*
X82415790Y-96837879D01*
X82194670Y-97058999D01*
X82020938Y-97319008D01*
X81901269Y-97607914D01*
X81840262Y-97914616D01*
X61361333Y-97914616D01*
X61361774Y-92842249D01*
X78107762Y-92842249D01*
X78107762Y-93139693D01*
X78165791Y-93431422D01*
X78279618Y-93706224D01*
X78444869Y-93953540D01*
X78655193Y-94163864D01*
X78902509Y-94329115D01*
X79177311Y-94442942D01*
X79469040Y-94500971D01*
X79766484Y-94500971D01*
X80058213Y-94442942D01*
X80333015Y-94329115D01*
X80580331Y-94163864D01*
X80790655Y-93953540D01*
X80955906Y-93706224D01*
X81069733Y-93431422D01*
X81127762Y-93139693D01*
X81127762Y-92842249D01*
X81105842Y-92732047D01*
X82068862Y-92732047D01*
X82068862Y-93249895D01*
X82169889Y-93757793D01*
X82368061Y-94236222D01*
X82655762Y-94666797D01*
X83021936Y-95032971D01*
X83452511Y-95320672D01*
X83930940Y-95518844D01*
X84438838Y-95619871D01*
X84956686Y-95619871D01*
X85464584Y-95518844D01*
X85943013Y-95320672D01*
X86373588Y-95032971D01*
X86739762Y-94666797D01*
X87027463Y-94236222D01*
X87225635Y-93757793D01*
X87326662Y-93249895D01*
X87326662Y-92842249D01*
X88267762Y-92842249D01*
X88267762Y-93139693D01*
X88325791Y-93431422D01*
X88439618Y-93706224D01*
X88604869Y-93953540D01*
X88815193Y-94163864D01*
X89062509Y-94329115D01*
X89337311Y-94442942D01*
X89629040Y-94500971D01*
X89926484Y-94500971D01*
X90218213Y-94442942D01*
X90493015Y-94329115D01*
X90740331Y-94163864D01*
X90950655Y-93953540D01*
X91115906Y-93706224D01*
X91229733Y-93431422D01*
X91287762Y-93139693D01*
X91287762Y-92842249D01*
X91229733Y-92550520D01*
X91115906Y-92275718D01*
X90950655Y-92028402D01*
X90740331Y-91818078D01*
X90493015Y-91652827D01*
X90218213Y-91539000D01*
X89926484Y-91480971D01*
X89629040Y-91480971D01*
X89337311Y-91539000D01*
X89062509Y-91652827D01*
X88815193Y-91818078D01*
X88604869Y-92028402D01*
X88439618Y-92275718D01*
X88325791Y-92550520D01*
X88267762Y-92842249D01*
X87326662Y-92842249D01*
X87326662Y-92732047D01*
X87225635Y-92224149D01*
X87027463Y-91745720D01*
X86739762Y-91315145D01*
X86373588Y-90948971D01*
X85943013Y-90661270D01*
X85464584Y-90463098D01*
X84956686Y-90362071D01*
X84438838Y-90362071D01*
X83930940Y-90463098D01*
X83452511Y-90661270D01*
X83021936Y-90948971D01*
X82655762Y-91315145D01*
X82368061Y-91745720D01*
X82169889Y-92224149D01*
X82068862Y-92732047D01*
X81105842Y-92732047D01*
X81069733Y-92550520D01*
X80955906Y-92275718D01*
X80914576Y-92213863D01*
X80983388Y-92216898D01*
X81326066Y-92164310D01*
X81651901Y-92045880D01*
X81948369Y-91866158D01*
X82140005Y-91690713D01*
X83475962Y-90201787D01*
X83564843Y-90112906D01*
X83639589Y-90001041D01*
X83719206Y-89892558D01*
X83735741Y-89857140D01*
X83757454Y-89824644D01*
X83808937Y-89700353D01*
X83865863Y-89578416D01*
X83875172Y-89540447D01*
X83890126Y-89504344D01*
X83916372Y-89372397D01*
X83948415Y-89241698D01*
X83950137Y-89202648D01*
X83957762Y-89164316D01*
X83957762Y-89029773D01*
X83963691Y-88895345D01*
X83957762Y-88856710D01*
X83957762Y-88817626D01*
X83931513Y-88685662D01*
X83911103Y-88552667D01*
X83897751Y-88515932D01*
X83893902Y-88496578D01*
X85433195Y-88496578D01*
X85468194Y-88840721D01*
X85569660Y-89171422D01*
X85733693Y-89475975D01*
X85953990Y-89742674D01*
X86222083Y-89961270D01*
X86527672Y-90123365D01*
X86680744Y-90173319D01*
X86961240Y-90074657D01*
X86989941Y-89658489D01*
X87243397Y-89675131D01*
X87214638Y-90092133D01*
X87478934Y-90228367D01*
X87637416Y-90199899D01*
X87962363Y-90081290D01*
X88245824Y-89908926D01*
X179260991Y-89908926D01*
X179260991Y-90221636D01*
X179321998Y-90528338D01*
X179441667Y-90817244D01*
X179615399Y-91077253D01*
X179836519Y-91298373D01*
X180096528Y-91472105D01*
X180385434Y-91591774D01*
X180692136Y-91652781D01*
X181004846Y-91652781D01*
X181311548Y-91591774D01*
X181600454Y-91472105D01*
X181860463Y-91298373D01*
X181864040Y-91294796D01*
X181905454Y-91372275D01*
X181984806Y-91468966D01*
X182081497Y-91548318D01*
X182191811Y-91607283D01*
X182311509Y-91643593D01*
X182435991Y-91655853D01*
X184340991Y-91655853D01*
X184465473Y-91643593D01*
X184585171Y-91607283D01*
X184695485Y-91548318D01*
X184792176Y-91468966D01*
X184871528Y-91372275D01*
X184930493Y-91261961D01*
X184966803Y-91142263D01*
X184979063Y-91017781D01*
X184979063Y-89112781D01*
X184966803Y-88988299D01*
X184930493Y-88868601D01*
X184871528Y-88758287D01*
X184792176Y-88661596D01*
X184695485Y-88582244D01*
X184585171Y-88523279D01*
X184465473Y-88486969D01*
X184340991Y-88474709D01*
X182435991Y-88474709D01*
X182311509Y-88486969D01*
X182191811Y-88523279D01*
X182081497Y-88582244D01*
X181984806Y-88661596D01*
X181905454Y-88758287D01*
X181864040Y-88835766D01*
X181860463Y-88832189D01*
X181600454Y-88658457D01*
X181311548Y-88538788D01*
X181004846Y-88477781D01*
X180692136Y-88477781D01*
X180385434Y-88538788D01*
X180096528Y-88658457D01*
X179836519Y-88832189D01*
X179615399Y-89053309D01*
X179441667Y-89313318D01*
X179321998Y-89602224D01*
X179260991Y-89908926D01*
X88245824Y-89908926D01*
X88257927Y-89901567D01*
X88512750Y-89667635D01*
X88717038Y-89388484D01*
X88862942Y-89074842D01*
X88944853Y-88738762D01*
X88964853Y-88448762D01*
X88916628Y-88445436D01*
X88982622Y-88199266D01*
X88993800Y-88029030D01*
X89002329Y-87905364D01*
X89002081Y-87902924D01*
X89005338Y-87853321D01*
X88968732Y-87575007D01*
X88967330Y-87561221D01*
X88966610Y-87558875D01*
X88960128Y-87509591D01*
X88869924Y-87243751D01*
X88865864Y-87230520D01*
X88864702Y-87228362D01*
X88848728Y-87181286D01*
X88739476Y-86976892D01*
X88726455Y-86971685D01*
X88701831Y-86925967D01*
X88481534Y-86659268D01*
X88213441Y-86440672D01*
X88176586Y-86421123D01*
X88171841Y-86409257D01*
X87920113Y-86285081D01*
X87907852Y-86278577D01*
X87905124Y-86277687D01*
X87860922Y-86255882D01*
X87526057Y-86166111D01*
X87355934Y-86154940D01*
X87232153Y-86146403D01*
X87232125Y-86146810D01*
X87180112Y-86143395D01*
X86836382Y-86188605D01*
X86508077Y-86300005D01*
X86303683Y-86409257D01*
X86296048Y-86428349D01*
X86177597Y-86500375D01*
X85922774Y-86734307D01*
X85749051Y-86971692D01*
X85736048Y-86976892D01*
X85582673Y-87287811D01*
X85492902Y-87622676D01*
X85481718Y-87792996D01*
X85470671Y-87953180D01*
X85471198Y-87953216D01*
X85470186Y-87968621D01*
X85501926Y-88209939D01*
X85453195Y-88206578D01*
X85433195Y-88496578D01*
X83893902Y-88496578D01*
X83890126Y-88477598D01*
X83838636Y-88353291D01*
X83792673Y-88226832D01*
X83772412Y-88193409D01*
X83757454Y-88157298D01*
X83682697Y-88045417D01*
X83612951Y-87930364D01*
X83586560Y-87901537D01*
X83564843Y-87869036D01*
X83469696Y-87773889D01*
X83378845Y-87674654D01*
X83347337Y-87651530D01*
X83319697Y-87623890D01*
X83207812Y-87549130D01*
X83099350Y-87469529D01*
X83063938Y-87452997D01*
X83031435Y-87431279D01*
X82907115Y-87379784D01*
X82785208Y-87322872D01*
X82747248Y-87313566D01*
X82711135Y-87298607D01*
X82579150Y-87272353D01*
X82448490Y-87240320D01*
X82409451Y-87238598D01*
X82371107Y-87230971D01*
X82236520Y-87230971D01*
X82102137Y-87225044D01*
X82063515Y-87230971D01*
X82024417Y-87230971D01*
X81892406Y-87257230D01*
X81759459Y-87277632D01*
X81722738Y-87290979D01*
X81684389Y-87298607D01*
X81560031Y-87350118D01*
X81433625Y-87396062D01*
X81400216Y-87416315D01*
X81364089Y-87431279D01*
X81252162Y-87506066D01*
X81137156Y-87575784D01*
X81108340Y-87602166D01*
X81075827Y-87623890D01*
X80980649Y-87719068D01*
X80945520Y-87751229D01*
X80919599Y-87780118D01*
X80830681Y-87869036D01*
X80804035Y-87908914D01*
X79520046Y-89339924D01*
X79366320Y-89549385D01*
X79219663Y-89863527D01*
X79137111Y-90200245D01*
X79121835Y-90546597D01*
X79174423Y-90889275D01*
X79292853Y-91215110D01*
X79455637Y-91483637D01*
X79177311Y-91539000D01*
X78902509Y-91652827D01*
X78655193Y-91818078D01*
X78444869Y-92028402D01*
X78279618Y-92275718D01*
X78165791Y-92550520D01*
X78107762Y-92842249D01*
X61361774Y-92842249D01*
X61362470Y-84836559D01*
X175528491Y-84836559D01*
X175528491Y-85134003D01*
X175586520Y-85425732D01*
X175700347Y-85700534D01*
X175865598Y-85947850D01*
X176075922Y-86158174D01*
X176323238Y-86323425D01*
X176598040Y-86437252D01*
X176889769Y-86495281D01*
X177187213Y-86495281D01*
X177478942Y-86437252D01*
X177753744Y-86323425D01*
X178001060Y-86158174D01*
X178211384Y-85947850D01*
X178376635Y-85700534D01*
X178490462Y-85425732D01*
X178548491Y-85134003D01*
X178548491Y-84836559D01*
X178526571Y-84726357D01*
X179489591Y-84726357D01*
X179489591Y-85244205D01*
X179590618Y-85752103D01*
X179788790Y-86230532D01*
X180076491Y-86661107D01*
X180442665Y-87027281D01*
X180873240Y-87314982D01*
X181351669Y-87513154D01*
X181859567Y-87614181D01*
X182377415Y-87614181D01*
X182885313Y-87513154D01*
X183363742Y-87314982D01*
X183794317Y-87027281D01*
X183884829Y-86936769D01*
X198312005Y-86936769D01*
X198312005Y-87249479D01*
X198373012Y-87556181D01*
X198492681Y-87845087D01*
X198666413Y-88105096D01*
X198887533Y-88326216D01*
X199147542Y-88499948D01*
X199436448Y-88619617D01*
X199743150Y-88680624D01*
X200055860Y-88680624D01*
X200362562Y-88619617D01*
X200651468Y-88499948D01*
X200911477Y-88326216D01*
X200915054Y-88322639D01*
X200956468Y-88400118D01*
X201035820Y-88496809D01*
X201132511Y-88576161D01*
X201242825Y-88635126D01*
X201362523Y-88671436D01*
X201487005Y-88683696D01*
X203392005Y-88683696D01*
X203516487Y-88671436D01*
X203636185Y-88635126D01*
X203746499Y-88576161D01*
X203843190Y-88496809D01*
X203922542Y-88400118D01*
X203981507Y-88289804D01*
X204017817Y-88170106D01*
X204030077Y-88045624D01*
X204030077Y-86140624D01*
X204017817Y-86016142D01*
X203981507Y-85896444D01*
X203922542Y-85786130D01*
X203843190Y-85689439D01*
X203746499Y-85610087D01*
X203636185Y-85551122D01*
X203516487Y-85514812D01*
X203392005Y-85502552D01*
X201487005Y-85502552D01*
X201362523Y-85514812D01*
X201242825Y-85551122D01*
X201132511Y-85610087D01*
X201035820Y-85689439D01*
X200956468Y-85786130D01*
X200915054Y-85863609D01*
X200911477Y-85860032D01*
X200651468Y-85686300D01*
X200362562Y-85566631D01*
X200055860Y-85505624D01*
X199743150Y-85505624D01*
X199436448Y-85566631D01*
X199147542Y-85686300D01*
X198887533Y-85860032D01*
X198666413Y-86081152D01*
X198492681Y-86341161D01*
X198373012Y-86630067D01*
X198312005Y-86936769D01*
X183884829Y-86936769D01*
X184160491Y-86661107D01*
X184448192Y-86230532D01*
X184646364Y-85752103D01*
X184747391Y-85244205D01*
X184747391Y-84836559D01*
X185688491Y-84836559D01*
X185688491Y-85134003D01*
X185746520Y-85425732D01*
X185860347Y-85700534D01*
X186025598Y-85947850D01*
X186235922Y-86158174D01*
X186483238Y-86323425D01*
X186758040Y-86437252D01*
X187049769Y-86495281D01*
X187347213Y-86495281D01*
X187638942Y-86437252D01*
X187913744Y-86323425D01*
X188161060Y-86158174D01*
X188371384Y-85947850D01*
X188536635Y-85700534D01*
X188650462Y-85425732D01*
X188708491Y-85134003D01*
X188708491Y-84836559D01*
X188650462Y-84544830D01*
X188536635Y-84270028D01*
X188371384Y-84022712D01*
X188161060Y-83812388D01*
X187913744Y-83647137D01*
X187638942Y-83533310D01*
X187347213Y-83475281D01*
X187049769Y-83475281D01*
X186758040Y-83533310D01*
X186483238Y-83647137D01*
X186235922Y-83812388D01*
X186025598Y-84022712D01*
X185860347Y-84270028D01*
X185746520Y-84544830D01*
X185688491Y-84836559D01*
X184747391Y-84836559D01*
X184747391Y-84726357D01*
X184646364Y-84218459D01*
X184448192Y-83740030D01*
X184160491Y-83309455D01*
X183794317Y-82943281D01*
X183363742Y-82655580D01*
X182885313Y-82457408D01*
X182377415Y-82356381D01*
X181859567Y-82356381D01*
X181351669Y-82457408D01*
X180873240Y-82655580D01*
X180442665Y-82943281D01*
X180076491Y-83309455D01*
X179788790Y-83740030D01*
X179590618Y-84218459D01*
X179489591Y-84726357D01*
X178526571Y-84726357D01*
X178490462Y-84544830D01*
X178376635Y-84270028D01*
X178333212Y-84205040D01*
X178621648Y-84181847D01*
X178954418Y-84087386D01*
X179262366Y-83929819D01*
X179533656Y-83715202D01*
X180188657Y-82985202D01*
X179897290Y-82723770D01*
X180019871Y-82707647D01*
X180193857Y-82648610D01*
X180358288Y-82796148D01*
X181013288Y-82066149D01*
X181100618Y-81927193D01*
X181120205Y-81919360D01*
X181173718Y-81810879D01*
X181197355Y-81773269D01*
X181214769Y-81727662D01*
X181273580Y-81608441D01*
X181304903Y-81491601D01*
X181320746Y-81450107D01*
X181328927Y-81401986D01*
X181363351Y-81273576D01*
X181371277Y-81152870D01*
X181378721Y-81109082D01*
X181377356Y-81060286D01*
X181386067Y-80927631D01*
X181370293Y-80807699D01*
X181369051Y-80763300D01*
X181358194Y-80715711D01*
X181340857Y-80583901D01*
X181301986Y-80469344D01*
X181297673Y-80450438D01*
X182856714Y-80450438D01*
X182864331Y-80710143D01*
X182941904Y-81048042D01*
X183083910Y-81364315D01*
X183284887Y-81646807D01*
X183537115Y-81884662D01*
X183830899Y-82068740D01*
X184154950Y-82191965D01*
X184496814Y-82249605D01*
X184843353Y-82239441D01*
X185181252Y-82161868D01*
X185497525Y-82019862D01*
X185716038Y-81864402D01*
X194579505Y-81864402D01*
X194579505Y-82161846D01*
X194637534Y-82453575D01*
X194751361Y-82728377D01*
X194916612Y-82975693D01*
X195126936Y-83186017D01*
X195374252Y-83351268D01*
X195649054Y-83465095D01*
X195940783Y-83523124D01*
X196238227Y-83523124D01*
X196529956Y-83465095D01*
X196804758Y-83351268D01*
X197052074Y-83186017D01*
X197262398Y-82975693D01*
X197427649Y-82728377D01*
X197541476Y-82453575D01*
X197599505Y-82161846D01*
X197599505Y-81864402D01*
X197577585Y-81754200D01*
X198540605Y-81754200D01*
X198540605Y-82272048D01*
X198641632Y-82779946D01*
X198839804Y-83258375D01*
X199127505Y-83688950D01*
X199493679Y-84055124D01*
X199924254Y-84342825D01*
X200402683Y-84540997D01*
X200910581Y-84642024D01*
X201428429Y-84642024D01*
X201936327Y-84540997D01*
X202414756Y-84342825D01*
X202845331Y-84055124D01*
X203211505Y-83688950D01*
X203499206Y-83258375D01*
X203697378Y-82779946D01*
X203798405Y-82272048D01*
X203798405Y-81864402D01*
X204739505Y-81864402D01*
X204739505Y-82161846D01*
X204797534Y-82453575D01*
X204911361Y-82728377D01*
X205076612Y-82975693D01*
X205286936Y-83186017D01*
X205534252Y-83351268D01*
X205809054Y-83465095D01*
X206100783Y-83523124D01*
X206398227Y-83523124D01*
X206689956Y-83465095D01*
X206964758Y-83351268D01*
X207212074Y-83186017D01*
X207422398Y-82975693D01*
X207587649Y-82728377D01*
X207701476Y-82453575D01*
X207759505Y-82161846D01*
X207759505Y-81864402D01*
X207701476Y-81572673D01*
X207587649Y-81297871D01*
X207422398Y-81050555D01*
X207212074Y-80840231D01*
X206964758Y-80674980D01*
X206689956Y-80561153D01*
X206398227Y-80503124D01*
X206100783Y-80503124D01*
X205809054Y-80561153D01*
X205534252Y-80674980D01*
X205286936Y-80840231D01*
X205076612Y-81050555D01*
X204911361Y-81297871D01*
X204797534Y-81572673D01*
X204739505Y-81864402D01*
X203798405Y-81864402D01*
X203798405Y-81754200D01*
X203697378Y-81246302D01*
X203499206Y-80767873D01*
X203211505Y-80337298D01*
X202845331Y-79971124D01*
X202414756Y-79683423D01*
X201936327Y-79485251D01*
X201428429Y-79384224D01*
X200910581Y-79384224D01*
X200402683Y-79485251D01*
X199924254Y-79683423D01*
X199493679Y-79971124D01*
X199127505Y-80337298D01*
X198839804Y-80767873D01*
X198641632Y-81246302D01*
X198540605Y-81754200D01*
X197577585Y-81754200D01*
X197541476Y-81572673D01*
X197427649Y-81297871D01*
X197384226Y-81232883D01*
X197672662Y-81209690D01*
X198005432Y-81115229D01*
X198313380Y-80957662D01*
X198584670Y-80743045D01*
X199239671Y-80013045D01*
X198948304Y-79751613D01*
X199070885Y-79735490D01*
X199244871Y-79676453D01*
X199409302Y-79823991D01*
X200064302Y-79093992D01*
X200151632Y-78955036D01*
X200171219Y-78947203D01*
X200224732Y-78838722D01*
X200248369Y-78801112D01*
X200265783Y-78755505D01*
X200324594Y-78636284D01*
X200355917Y-78519444D01*
X200371760Y-78477950D01*
X200379941Y-78429829D01*
X200414365Y-78301419D01*
X200422291Y-78180713D01*
X200429735Y-78136925D01*
X200428370Y-78088129D01*
X200437081Y-77955474D01*
X200421307Y-77835542D01*
X200420065Y-77791143D01*
X200409208Y-77743554D01*
X200391871Y-77611744D01*
X200353000Y-77497187D01*
X200348687Y-77478281D01*
X201907728Y-77478281D01*
X201915345Y-77737986D01*
X201992918Y-78075885D01*
X202134924Y-78392158D01*
X202335901Y-78674650D01*
X202588129Y-78912505D01*
X202881913Y-79096583D01*
X203205964Y-79219808D01*
X203547828Y-79277448D01*
X203894367Y-79267284D01*
X204232266Y-79189711D01*
X204548539Y-79047705D01*
X204831031Y-78846728D01*
X205068886Y-78594500D01*
X205252964Y-78300716D01*
X205376189Y-77976665D01*
X205419386Y-77720463D01*
X205457604Y-77166299D01*
X205469505Y-77106469D01*
X205469505Y-76993735D01*
X205471282Y-76967968D01*
X205469505Y-76907380D01*
X205469505Y-76759779D01*
X205464427Y-76734252D01*
X205463665Y-76708261D01*
X205430664Y-76564511D01*
X205401869Y-76419751D01*
X205391912Y-76395712D01*
X205386092Y-76370362D01*
X205325682Y-76235818D01*
X205269197Y-76099451D01*
X205254735Y-76077807D01*
X205244086Y-76054090D01*
X205158601Y-75933933D01*
X205076586Y-75811189D01*
X205058183Y-75792786D01*
X205043109Y-75771598D01*
X204935816Y-75670419D01*
X204831440Y-75566043D01*
X204809799Y-75551583D01*
X204790881Y-75533743D01*
X204665912Y-75455440D01*
X204543178Y-75373432D01*
X204519133Y-75363472D01*
X204497097Y-75349665D01*
X204359245Y-75297245D01*
X204222878Y-75240760D01*
X204197351Y-75235682D01*
X204173046Y-75226440D01*
X204027613Y-75201919D01*
X203882850Y-75173124D01*
X203856828Y-75173124D01*
X203831182Y-75168800D01*
X203683742Y-75173124D01*
X203536160Y-75173124D01*
X203510638Y-75178201D01*
X203484643Y-75178963D01*
X203340880Y-75211968D01*
X203196132Y-75240760D01*
X203172092Y-75250718D01*
X203146744Y-75256537D01*
X203012194Y-75316949D01*
X202875832Y-75373432D01*
X202854192Y-75387891D01*
X202830471Y-75398542D01*
X202710301Y-75484037D01*
X202587570Y-75566043D01*
X202569167Y-75584446D01*
X202547979Y-75599520D01*
X202446793Y-75706820D01*
X202342424Y-75811189D01*
X202327966Y-75832827D01*
X202310124Y-75851747D01*
X202231815Y-75976726D01*
X202149813Y-76099451D01*
X202139853Y-76123496D01*
X202126046Y-76145532D01*
X202073624Y-76283388D01*
X202017141Y-76419751D01*
X202012064Y-76445276D01*
X202002821Y-76469582D01*
X201978299Y-76615022D01*
X201949505Y-76759779D01*
X201949505Y-76872510D01*
X201907728Y-77478281D01*
X200348687Y-77478281D01*
X200343122Y-77453892D01*
X200323193Y-77409343D01*
X200280471Y-77283439D01*
X200171219Y-77079045D01*
X200158671Y-77074027D01*
X200111890Y-77004596D01*
X199830040Y-76909872D01*
X198674500Y-78197724D01*
X198669505Y-78192729D01*
X197965543Y-78896691D01*
X197821807Y-78767722D01*
X197835164Y-78752836D01*
X197790375Y-78712649D01*
X197970243Y-78532781D01*
X198004794Y-78563782D01*
X198664511Y-77828525D01*
X198669505Y-77833519D01*
X199714431Y-76788593D01*
X199603584Y-76511410D01*
X199460101Y-76440631D01*
X199373911Y-76395242D01*
X199357046Y-76389794D01*
X199292665Y-76358035D01*
X199093244Y-76304574D01*
X199044743Y-76288906D01*
X199027141Y-76286853D01*
X198957800Y-76268264D01*
X198751768Y-76254735D01*
X198701155Y-76248832D01*
X198683494Y-76250252D01*
X198611855Y-76245548D01*
X198407135Y-76272474D01*
X198356350Y-76276558D01*
X198339309Y-76281395D01*
X198268125Y-76290758D01*
X198072586Y-76357108D01*
X198023580Y-76371019D01*
X198007812Y-76379087D01*
X197939820Y-76402158D01*
X197735426Y-76511410D01*
X197731882Y-76520271D01*
X197715632Y-76528586D01*
X197444342Y-76743203D01*
X196789341Y-77473203D01*
X196952786Y-77619856D01*
X196924645Y-77724829D01*
X196911559Y-77924121D01*
X196619710Y-77662257D01*
X195964710Y-78392256D01*
X195780643Y-78685136D01*
X195657252Y-79008298D01*
X195599277Y-79349323D01*
X195608947Y-79695105D01*
X195685890Y-80032356D01*
X195827149Y-80348117D01*
X195917122Y-80481652D01*
X195981012Y-80503124D01*
X195940783Y-80503124D01*
X195649054Y-80561153D01*
X195374252Y-80674980D01*
X195126936Y-80840231D01*
X194916612Y-81050555D01*
X194751361Y-81297871D01*
X194637534Y-81572673D01*
X194579505Y-81864402D01*
X185716038Y-81864402D01*
X185780017Y-81818885D01*
X186017872Y-81566657D01*
X186201950Y-81272873D01*
X186325175Y-80948822D01*
X186368372Y-80692620D01*
X186406590Y-80138456D01*
X186418491Y-80078626D01*
X186418491Y-79965892D01*
X186420268Y-79940125D01*
X186418491Y-79879537D01*
X186418491Y-79731936D01*
X186413413Y-79706409D01*
X186412651Y-79680418D01*
X186379650Y-79536668D01*
X186350855Y-79391908D01*
X186340898Y-79367869D01*
X186335078Y-79342519D01*
X186274668Y-79207975D01*
X186218183Y-79071608D01*
X186203721Y-79049964D01*
X186193072Y-79026247D01*
X186107587Y-78906090D01*
X186025572Y-78783346D01*
X186007169Y-78764943D01*
X185992095Y-78743755D01*
X185884802Y-78642576D01*
X185780426Y-78538200D01*
X185758785Y-78523740D01*
X185739867Y-78505900D01*
X185614898Y-78427597D01*
X185492164Y-78345589D01*
X185468119Y-78335629D01*
X185446083Y-78321822D01*
X185308231Y-78269402D01*
X185171864Y-78212917D01*
X185146337Y-78207839D01*
X185122032Y-78198597D01*
X184976599Y-78174076D01*
X184831836Y-78145281D01*
X184805814Y-78145281D01*
X184780168Y-78140957D01*
X184632728Y-78145281D01*
X184485146Y-78145281D01*
X184459624Y-78150358D01*
X184433629Y-78151120D01*
X184289866Y-78184125D01*
X184145118Y-78212917D01*
X184121078Y-78222875D01*
X184095730Y-78228694D01*
X183961180Y-78289106D01*
X183824818Y-78345589D01*
X183803178Y-78360048D01*
X183779457Y-78370699D01*
X183659287Y-78456194D01*
X183536556Y-78538200D01*
X183518153Y-78556603D01*
X183496965Y-78571677D01*
X183395779Y-78678977D01*
X183291410Y-78783346D01*
X183276952Y-78804984D01*
X183259110Y-78823904D01*
X183180801Y-78948883D01*
X183098799Y-79071608D01*
X183088839Y-79095653D01*
X183075032Y-79117689D01*
X183022610Y-79255545D01*
X182966127Y-79391908D01*
X182961050Y-79417433D01*
X182951807Y-79441739D01*
X182927285Y-79587179D01*
X182898491Y-79731936D01*
X182898491Y-79844667D01*
X182856714Y-80450438D01*
X181297673Y-80450438D01*
X181292108Y-80426049D01*
X181272179Y-80381500D01*
X181229457Y-80255596D01*
X181120205Y-80051202D01*
X181107657Y-80046184D01*
X181060876Y-79976753D01*
X180779026Y-79882029D01*
X179623486Y-81169881D01*
X179618491Y-81164886D01*
X178914529Y-81868848D01*
X178770793Y-81739879D01*
X178784150Y-81724993D01*
X178739361Y-81684806D01*
X178919229Y-81504938D01*
X178953780Y-81535939D01*
X179613497Y-80800682D01*
X179618491Y-80805676D01*
X180663417Y-79760750D01*
X180552570Y-79483567D01*
X180409087Y-79412788D01*
X180322897Y-79367399D01*
X180306032Y-79361951D01*
X180241651Y-79330192D01*
X180042230Y-79276731D01*
X179993729Y-79261063D01*
X179976127Y-79259010D01*
X179906786Y-79240421D01*
X179700754Y-79226892D01*
X179650141Y-79220989D01*
X179632480Y-79222409D01*
X179560841Y-79217705D01*
X179356121Y-79244631D01*
X179305336Y-79248715D01*
X179288295Y-79253552D01*
X179217111Y-79262915D01*
X179021572Y-79329265D01*
X178972566Y-79343176D01*
X178956798Y-79351244D01*
X178888806Y-79374315D01*
X178684412Y-79483567D01*
X178680868Y-79492428D01*
X178664618Y-79500743D01*
X178393328Y-79715360D01*
X177738327Y-80445360D01*
X177901772Y-80592013D01*
X177873631Y-80696986D01*
X177860545Y-80896278D01*
X177568696Y-80634414D01*
X176913696Y-81364413D01*
X176729629Y-81657293D01*
X176606238Y-81980455D01*
X176548263Y-82321480D01*
X176557933Y-82667262D01*
X176634876Y-83004513D01*
X176776135Y-83320274D01*
X176866108Y-83453809D01*
X176929998Y-83475281D01*
X176889769Y-83475281D01*
X176598040Y-83533310D01*
X176323238Y-83647137D01*
X176075922Y-83812388D01*
X175865598Y-84022712D01*
X175700347Y-84270028D01*
X175586520Y-84544830D01*
X175528491Y-84836559D01*
X61362470Y-84836559D01*
X61362991Y-78859180D01*
X72297202Y-78859180D01*
X72297202Y-79171890D01*
X72358209Y-79478592D01*
X72477878Y-79767498D01*
X72651610Y-80027507D01*
X72872730Y-80248627D01*
X73132739Y-80422359D01*
X73421645Y-80542028D01*
X73728347Y-80603035D01*
X74041057Y-80603035D01*
X74347759Y-80542028D01*
X74636665Y-80422359D01*
X74896674Y-80248627D01*
X74900251Y-80245050D01*
X74941665Y-80322529D01*
X75021017Y-80419220D01*
X75117708Y-80498572D01*
X75228022Y-80557537D01*
X75347720Y-80593847D01*
X75472202Y-80606107D01*
X77377202Y-80606107D01*
X77501684Y-80593847D01*
X77621382Y-80557537D01*
X77731696Y-80498572D01*
X77828387Y-80419220D01*
X77907739Y-80322529D01*
X77966704Y-80212215D01*
X78003014Y-80092517D01*
X78015274Y-79968035D01*
X78015274Y-78797810D01*
X91383323Y-78797810D01*
X91383323Y-79110520D01*
X91444330Y-79417222D01*
X91563999Y-79706128D01*
X91737731Y-79966137D01*
X91958851Y-80187257D01*
X92218860Y-80360989D01*
X92507766Y-80480658D01*
X92814468Y-80541665D01*
X93127178Y-80541665D01*
X93433880Y-80480658D01*
X93722786Y-80360989D01*
X93982795Y-80187257D01*
X93986372Y-80183680D01*
X94027786Y-80261159D01*
X94107138Y-80357850D01*
X94203829Y-80437202D01*
X94314143Y-80496167D01*
X94433841Y-80532477D01*
X94558323Y-80544737D01*
X96463323Y-80544737D01*
X96587805Y-80532477D01*
X96707503Y-80496167D01*
X96817817Y-80437202D01*
X96914508Y-80357850D01*
X96993860Y-80261159D01*
X97052825Y-80150845D01*
X97089135Y-80031147D01*
X97101395Y-79906665D01*
X97101395Y-78001665D01*
X97089135Y-77877183D01*
X97052825Y-77757485D01*
X96993860Y-77647171D01*
X96914508Y-77550480D01*
X96817817Y-77471128D01*
X96707503Y-77412163D01*
X96587805Y-77375853D01*
X96463323Y-77363593D01*
X94558323Y-77363593D01*
X94433841Y-77375853D01*
X94314143Y-77412163D01*
X94203829Y-77471128D01*
X94107138Y-77550480D01*
X94027786Y-77647171D01*
X93986372Y-77724650D01*
X93982795Y-77721073D01*
X93722786Y-77547341D01*
X93433880Y-77427672D01*
X93127178Y-77366665D01*
X92814468Y-77366665D01*
X92507766Y-77427672D01*
X92218860Y-77547341D01*
X91958851Y-77721073D01*
X91737731Y-77942193D01*
X91563999Y-78202202D01*
X91444330Y-78491108D01*
X91383323Y-78797810D01*
X78015274Y-78797810D01*
X78015274Y-78063035D01*
X78003014Y-77938553D01*
X77966704Y-77818855D01*
X77907739Y-77708541D01*
X77828387Y-77611850D01*
X77731696Y-77532498D01*
X77621382Y-77473533D01*
X77501684Y-77437223D01*
X77377202Y-77424963D01*
X75472202Y-77424963D01*
X75347720Y-77437223D01*
X75228022Y-77473533D01*
X75117708Y-77532498D01*
X75021017Y-77611850D01*
X74941665Y-77708541D01*
X74900251Y-77786020D01*
X74896674Y-77782443D01*
X74636665Y-77608711D01*
X74347759Y-77489042D01*
X74041057Y-77428035D01*
X73728347Y-77428035D01*
X73421645Y-77489042D01*
X73132739Y-77608711D01*
X72872730Y-77782443D01*
X72651610Y-78003563D01*
X72477878Y-78263572D01*
X72358209Y-78552478D01*
X72297202Y-78859180D01*
X61362991Y-78859180D01*
X61363433Y-73786813D01*
X68564702Y-73786813D01*
X68564702Y-74084257D01*
X68622731Y-74375986D01*
X68736558Y-74650788D01*
X68901809Y-74898104D01*
X69112133Y-75108428D01*
X69359449Y-75273679D01*
X69634251Y-75387506D01*
X69925980Y-75445535D01*
X70223424Y-75445535D01*
X70515153Y-75387506D01*
X70789955Y-75273679D01*
X71037271Y-75108428D01*
X71247595Y-74898104D01*
X71412846Y-74650788D01*
X71526673Y-74375986D01*
X71584702Y-74084257D01*
X71584702Y-73786813D01*
X71562782Y-73676611D01*
X72525802Y-73676611D01*
X72525802Y-74194459D01*
X72626829Y-74702357D01*
X72825001Y-75180786D01*
X73112702Y-75611361D01*
X73478876Y-75977535D01*
X73909451Y-76265236D01*
X74387880Y-76463408D01*
X74895778Y-76564435D01*
X75413626Y-76564435D01*
X75921524Y-76463408D01*
X76399953Y-76265236D01*
X76830528Y-75977535D01*
X77196702Y-75611361D01*
X77484403Y-75180786D01*
X77682575Y-74702357D01*
X77783602Y-74194459D01*
X77783602Y-73786813D01*
X78724702Y-73786813D01*
X78724702Y-74084257D01*
X78782731Y-74375986D01*
X78896558Y-74650788D01*
X79061809Y-74898104D01*
X79272133Y-75108428D01*
X79519449Y-75273679D01*
X79794251Y-75387506D01*
X80085980Y-75445535D01*
X80383424Y-75445535D01*
X80675153Y-75387506D01*
X80949955Y-75273679D01*
X81197271Y-75108428D01*
X81407595Y-74898104D01*
X81572846Y-74650788D01*
X81686673Y-74375986D01*
X81744702Y-74084257D01*
X81744702Y-73786813D01*
X81732495Y-73725443D01*
X87650823Y-73725443D01*
X87650823Y-74022887D01*
X87708852Y-74314616D01*
X87822679Y-74589418D01*
X87987930Y-74836734D01*
X88198254Y-75047058D01*
X88445570Y-75212309D01*
X88720372Y-75326136D01*
X89012101Y-75384165D01*
X89309545Y-75384165D01*
X89601274Y-75326136D01*
X89876076Y-75212309D01*
X90123392Y-75047058D01*
X90333716Y-74836734D01*
X90498967Y-74589418D01*
X90612794Y-74314616D01*
X90670823Y-74022887D01*
X90670823Y-73725443D01*
X90648903Y-73615241D01*
X91611923Y-73615241D01*
X91611923Y-74133089D01*
X91712950Y-74640987D01*
X91911122Y-75119416D01*
X92198823Y-75549991D01*
X92564997Y-75916165D01*
X92995572Y-76203866D01*
X93474001Y-76402038D01*
X93981899Y-76503065D01*
X94499747Y-76503065D01*
X95007645Y-76402038D01*
X95486074Y-76203866D01*
X95916649Y-75916165D01*
X96282823Y-75549991D01*
X96570524Y-75119416D01*
X96768696Y-74640987D01*
X96869723Y-74133089D01*
X96869723Y-73725443D01*
X97810823Y-73725443D01*
X97810823Y-74022887D01*
X97868852Y-74314616D01*
X97982679Y-74589418D01*
X98147930Y-74836734D01*
X98358254Y-75047058D01*
X98605570Y-75212309D01*
X98880372Y-75326136D01*
X99172101Y-75384165D01*
X99469545Y-75384165D01*
X99761274Y-75326136D01*
X100036076Y-75212309D01*
X100283392Y-75047058D01*
X100493716Y-74836734D01*
X100658967Y-74589418D01*
X100772794Y-74314616D01*
X100830823Y-74022887D01*
X100830823Y-73725443D01*
X100772794Y-73433714D01*
X100658967Y-73158912D01*
X100493716Y-72911596D01*
X100283392Y-72701272D01*
X100036076Y-72536021D01*
X99761274Y-72422194D01*
X99469545Y-72364165D01*
X99172101Y-72364165D01*
X98880372Y-72422194D01*
X98605570Y-72536021D01*
X98358254Y-72701272D01*
X98147930Y-72911596D01*
X97982679Y-73158912D01*
X97868852Y-73433714D01*
X97810823Y-73725443D01*
X96869723Y-73725443D01*
X96869723Y-73615241D01*
X96768696Y-73107343D01*
X96570524Y-72628914D01*
X96282823Y-72198339D01*
X95916649Y-71832165D01*
X95486074Y-71544464D01*
X95007645Y-71346292D01*
X94499747Y-71245265D01*
X93981899Y-71245265D01*
X93474001Y-71346292D01*
X92995572Y-71544464D01*
X92564997Y-71832165D01*
X92198823Y-72198339D01*
X91911122Y-72628914D01*
X91712950Y-73107343D01*
X91611923Y-73615241D01*
X90648903Y-73615241D01*
X90612794Y-73433714D01*
X90498967Y-73158912D01*
X90457637Y-73097057D01*
X90526449Y-73100092D01*
X90869127Y-73047504D01*
X91194962Y-72929074D01*
X91491430Y-72749352D01*
X91683066Y-72573907D01*
X93019023Y-71084981D01*
X93107904Y-70996100D01*
X93182650Y-70884235D01*
X93262267Y-70775752D01*
X93278802Y-70740334D01*
X93300515Y-70707838D01*
X93351998Y-70583547D01*
X93408924Y-70461610D01*
X93418233Y-70423641D01*
X93433187Y-70387538D01*
X93459433Y-70255591D01*
X93491476Y-70124892D01*
X93493198Y-70085842D01*
X93500823Y-70047510D01*
X93500823Y-69912967D01*
X93506752Y-69778539D01*
X93500823Y-69739904D01*
X93500823Y-69700820D01*
X93474574Y-69568856D01*
X93454164Y-69435861D01*
X93440812Y-69399126D01*
X93436963Y-69379772D01*
X94976256Y-69379772D01*
X95011255Y-69723915D01*
X95112721Y-70054616D01*
X95276754Y-70359169D01*
X95497051Y-70625868D01*
X95765144Y-70844464D01*
X96070733Y-71006559D01*
X96223805Y-71056513D01*
X96504301Y-70957851D01*
X96533002Y-70541683D01*
X96786458Y-70558325D01*
X96757699Y-70975327D01*
X97021995Y-71111561D01*
X97180477Y-71083093D01*
X97505424Y-70964484D01*
X97800988Y-70784761D01*
X98055811Y-70550829D01*
X98260099Y-70271678D01*
X98406003Y-69958036D01*
X98487914Y-69621956D01*
X98507914Y-69331956D01*
X98459689Y-69328630D01*
X98525683Y-69082460D01*
X98536861Y-68912224D01*
X98545390Y-68788558D01*
X98545142Y-68786118D01*
X98548399Y-68736515D01*
X98511793Y-68458201D01*
X98510391Y-68444415D01*
X98509671Y-68442069D01*
X98503189Y-68392785D01*
X98412985Y-68126945D01*
X98408925Y-68113714D01*
X98407763Y-68111556D01*
X98391789Y-68064480D01*
X98282537Y-67860086D01*
X98269516Y-67854879D01*
X98244892Y-67809161D01*
X98024595Y-67542462D01*
X97756502Y-67323866D01*
X97719647Y-67304317D01*
X97714902Y-67292451D01*
X97463174Y-67168275D01*
X97450913Y-67161771D01*
X97448185Y-67160881D01*
X97403983Y-67139076D01*
X97069118Y-67049305D01*
X96898995Y-67038134D01*
X96775214Y-67029597D01*
X96775186Y-67030004D01*
X96723173Y-67026589D01*
X96379443Y-67071799D01*
X96051138Y-67183199D01*
X95846744Y-67292451D01*
X95839109Y-67311543D01*
X95720658Y-67383569D01*
X95465835Y-67617501D01*
X95292112Y-67854886D01*
X95279109Y-67860086D01*
X95125734Y-68171005D01*
X95035963Y-68505870D01*
X95024779Y-68676190D01*
X95013732Y-68836374D01*
X95014259Y-68836410D01*
X95013247Y-68851815D01*
X95044987Y-69093133D01*
X94996256Y-69089772D01*
X94976256Y-69379772D01*
X93436963Y-69379772D01*
X93433187Y-69360792D01*
X93381697Y-69236485D01*
X93335734Y-69110026D01*
X93315473Y-69076603D01*
X93300515Y-69040492D01*
X93225758Y-68928611D01*
X93156012Y-68813558D01*
X93129621Y-68784731D01*
X93107904Y-68752230D01*
X93012757Y-68657083D01*
X92921906Y-68557848D01*
X92890398Y-68534724D01*
X92862758Y-68507084D01*
X92750873Y-68432324D01*
X92642411Y-68352723D01*
X92606999Y-68336191D01*
X92574496Y-68314473D01*
X92450176Y-68262978D01*
X92328269Y-68206066D01*
X92290309Y-68196760D01*
X92254196Y-68181801D01*
X92122211Y-68155547D01*
X91991551Y-68123514D01*
X91952512Y-68121792D01*
X91914168Y-68114165D01*
X91779581Y-68114165D01*
X91645198Y-68108238D01*
X91606576Y-68114165D01*
X91567478Y-68114165D01*
X91435467Y-68140424D01*
X91302520Y-68160826D01*
X91265799Y-68174173D01*
X91227450Y-68181801D01*
X91103092Y-68233312D01*
X90976686Y-68279256D01*
X90943277Y-68299509D01*
X90907150Y-68314473D01*
X90795223Y-68389260D01*
X90680217Y-68458978D01*
X90651401Y-68485360D01*
X90618888Y-68507084D01*
X90523710Y-68602262D01*
X90488581Y-68634423D01*
X90462660Y-68663312D01*
X90373742Y-68752230D01*
X90347096Y-68792108D01*
X89063107Y-70223118D01*
X88909381Y-70432579D01*
X88762724Y-70746721D01*
X88680172Y-71083439D01*
X88664896Y-71429791D01*
X88717484Y-71772469D01*
X88835914Y-72098304D01*
X88998698Y-72366831D01*
X88720372Y-72422194D01*
X88445570Y-72536021D01*
X88198254Y-72701272D01*
X87987930Y-72911596D01*
X87822679Y-73158912D01*
X87708852Y-73433714D01*
X87650823Y-73725443D01*
X81732495Y-73725443D01*
X81686673Y-73495084D01*
X81572846Y-73220282D01*
X81407595Y-72972966D01*
X81197271Y-72762642D01*
X80949955Y-72597391D01*
X80675153Y-72483564D01*
X80383424Y-72425535D01*
X80085980Y-72425535D01*
X79794251Y-72483564D01*
X79519449Y-72597391D01*
X79272133Y-72762642D01*
X79061809Y-72972966D01*
X78896558Y-73220282D01*
X78782731Y-73495084D01*
X78724702Y-73786813D01*
X77783602Y-73786813D01*
X77783602Y-73676611D01*
X77682575Y-73168713D01*
X77484403Y-72690284D01*
X77196702Y-72259709D01*
X76830528Y-71893535D01*
X76399953Y-71605834D01*
X75921524Y-71407662D01*
X75413626Y-71306635D01*
X74895778Y-71306635D01*
X74387880Y-71407662D01*
X73909451Y-71605834D01*
X73478876Y-71893535D01*
X73112702Y-72259709D01*
X72825001Y-72690284D01*
X72626829Y-73168713D01*
X72525802Y-73676611D01*
X71562782Y-73676611D01*
X71526673Y-73495084D01*
X71412846Y-73220282D01*
X71371516Y-73158427D01*
X71440328Y-73161462D01*
X71783006Y-73108874D01*
X72108841Y-72990444D01*
X72405309Y-72810722D01*
X72596945Y-72635277D01*
X73932902Y-71146351D01*
X74021783Y-71057470D01*
X74096529Y-70945605D01*
X74176146Y-70837122D01*
X74192681Y-70801704D01*
X74214394Y-70769208D01*
X74265877Y-70644917D01*
X74322803Y-70522980D01*
X74332112Y-70485011D01*
X74347066Y-70448908D01*
X74373312Y-70316961D01*
X74405355Y-70186262D01*
X74407077Y-70147212D01*
X74414702Y-70108880D01*
X74414702Y-69974337D01*
X74420631Y-69839909D01*
X74414702Y-69801274D01*
X74414702Y-69762190D01*
X74388453Y-69630226D01*
X74368043Y-69497231D01*
X74354691Y-69460496D01*
X74350842Y-69441142D01*
X75890135Y-69441142D01*
X75925134Y-69785285D01*
X76026600Y-70115986D01*
X76190633Y-70420539D01*
X76410930Y-70687238D01*
X76679023Y-70905834D01*
X76984612Y-71067929D01*
X77137684Y-71117883D01*
X77418180Y-71019221D01*
X77446881Y-70603053D01*
X77700337Y-70619695D01*
X77671578Y-71036697D01*
X77935874Y-71172931D01*
X78094356Y-71144463D01*
X78419303Y-71025854D01*
X78714867Y-70846131D01*
X78969690Y-70612199D01*
X79173978Y-70333048D01*
X79319882Y-70019406D01*
X79401793Y-69683326D01*
X79421793Y-69393326D01*
X79373568Y-69390000D01*
X79439562Y-69143830D01*
X79450740Y-68973594D01*
X79459269Y-68849928D01*
X79459021Y-68847488D01*
X79462278Y-68797885D01*
X79425672Y-68519571D01*
X79424270Y-68505785D01*
X79423550Y-68503439D01*
X79417068Y-68454155D01*
X79326864Y-68188315D01*
X79322804Y-68175084D01*
X79321642Y-68172926D01*
X79305668Y-68125850D01*
X79196416Y-67921456D01*
X79183395Y-67916249D01*
X79158771Y-67870531D01*
X78938474Y-67603832D01*
X78670381Y-67385236D01*
X78633526Y-67365687D01*
X78628781Y-67353821D01*
X78377053Y-67229645D01*
X78364792Y-67223141D01*
X78362064Y-67222251D01*
X78317862Y-67200446D01*
X77982997Y-67110675D01*
X77812874Y-67099504D01*
X77689093Y-67090967D01*
X77689065Y-67091374D01*
X77637052Y-67087959D01*
X77293322Y-67133169D01*
X76965017Y-67244569D01*
X76760623Y-67353821D01*
X76752988Y-67372913D01*
X76634537Y-67444939D01*
X76379714Y-67678871D01*
X76205991Y-67916256D01*
X76192988Y-67921456D01*
X76039613Y-68232375D01*
X75949842Y-68567240D01*
X75938658Y-68737560D01*
X75927611Y-68897744D01*
X75928138Y-68897780D01*
X75927126Y-68913185D01*
X75958866Y-69154503D01*
X75910135Y-69151142D01*
X75890135Y-69441142D01*
X74350842Y-69441142D01*
X74347066Y-69422162D01*
X74295576Y-69297855D01*
X74249613Y-69171396D01*
X74229352Y-69137973D01*
X74214394Y-69101862D01*
X74139637Y-68989981D01*
X74069891Y-68874928D01*
X74043500Y-68846101D01*
X74021783Y-68813600D01*
X73926636Y-68718453D01*
X73835785Y-68619218D01*
X73804277Y-68596094D01*
X73776637Y-68568454D01*
X73664752Y-68493694D01*
X73556290Y-68414093D01*
X73520878Y-68397561D01*
X73488375Y-68375843D01*
X73364055Y-68324348D01*
X73242148Y-68267436D01*
X73204188Y-68258130D01*
X73168075Y-68243171D01*
X73036090Y-68216917D01*
X72905430Y-68184884D01*
X72866391Y-68183162D01*
X72828047Y-68175535D01*
X72693460Y-68175535D01*
X72559077Y-68169608D01*
X72520455Y-68175535D01*
X72481357Y-68175535D01*
X72349346Y-68201794D01*
X72216399Y-68222196D01*
X72179678Y-68235543D01*
X72141329Y-68243171D01*
X72016971Y-68294682D01*
X71890565Y-68340626D01*
X71857156Y-68360879D01*
X71821029Y-68375843D01*
X71709102Y-68450630D01*
X71594096Y-68520348D01*
X71565280Y-68546730D01*
X71532767Y-68568454D01*
X71437589Y-68663632D01*
X71402460Y-68695793D01*
X71376539Y-68724682D01*
X71287621Y-68813600D01*
X71260975Y-68853478D01*
X69976986Y-70284488D01*
X69823260Y-70493949D01*
X69676603Y-70808091D01*
X69594051Y-71144809D01*
X69578775Y-71491161D01*
X69631363Y-71833839D01*
X69749793Y-72159674D01*
X69912577Y-72428201D01*
X69634251Y-72483564D01*
X69359449Y-72597391D01*
X69112133Y-72762642D01*
X68901809Y-72972966D01*
X68736558Y-73220282D01*
X68622731Y-73495084D01*
X68564702Y-73786813D01*
X61363433Y-73786813D01*
X61364647Y-59835803D01*
X81827638Y-59835803D01*
X81827638Y-60148513D01*
X81888645Y-60455215D01*
X82008314Y-60744121D01*
X82182046Y-61004130D01*
X82403166Y-61225250D01*
X82663175Y-61398982D01*
X82952081Y-61518651D01*
X83258783Y-61579658D01*
X83571493Y-61579658D01*
X83878195Y-61518651D01*
X84167101Y-61398982D01*
X84427110Y-61225250D01*
X84430687Y-61221673D01*
X84472101Y-61299152D01*
X84551453Y-61395843D01*
X84648144Y-61475195D01*
X84758458Y-61534160D01*
X84878156Y-61570470D01*
X85002638Y-61582730D01*
X86907638Y-61582730D01*
X87032120Y-61570470D01*
X87151818Y-61534160D01*
X87262132Y-61475195D01*
X87358823Y-61395843D01*
X87438175Y-61299152D01*
X87497140Y-61188838D01*
X87533450Y-61069140D01*
X87545710Y-60944658D01*
X87545710Y-59039658D01*
X87533450Y-58915176D01*
X87497140Y-58795478D01*
X87438175Y-58685164D01*
X87358823Y-58588473D01*
X87262132Y-58509121D01*
X87151818Y-58450156D01*
X87032120Y-58413846D01*
X86907638Y-58401586D01*
X85002638Y-58401586D01*
X84878156Y-58413846D01*
X84758458Y-58450156D01*
X84648144Y-58509121D01*
X84551453Y-58588473D01*
X84472101Y-58685164D01*
X84430687Y-58762643D01*
X84427110Y-58759066D01*
X84167101Y-58585334D01*
X83878195Y-58465665D01*
X83571493Y-58404658D01*
X83258783Y-58404658D01*
X82952081Y-58465665D01*
X82663175Y-58585334D01*
X82403166Y-58759066D01*
X82182046Y-58980186D01*
X82008314Y-59240195D01*
X81888645Y-59529101D01*
X81827638Y-59835803D01*
X61364647Y-59835803D01*
X61365089Y-54763436D01*
X78095138Y-54763436D01*
X78095138Y-55060880D01*
X78153167Y-55352609D01*
X78266994Y-55627411D01*
X78432245Y-55874727D01*
X78642569Y-56085051D01*
X78889885Y-56250302D01*
X79164687Y-56364129D01*
X79456416Y-56422158D01*
X79753860Y-56422158D01*
X80045589Y-56364129D01*
X80320391Y-56250302D01*
X80567707Y-56085051D01*
X80778031Y-55874727D01*
X80943282Y-55627411D01*
X81057109Y-55352609D01*
X81115138Y-55060880D01*
X81115138Y-54763436D01*
X81093218Y-54653234D01*
X82056238Y-54653234D01*
X82056238Y-55171082D01*
X82157265Y-55678980D01*
X82355437Y-56157409D01*
X82643138Y-56587984D01*
X83009312Y-56954158D01*
X83439887Y-57241859D01*
X83918316Y-57440031D01*
X84426214Y-57541058D01*
X84944062Y-57541058D01*
X85451960Y-57440031D01*
X85930389Y-57241859D01*
X86360964Y-56954158D01*
X86727138Y-56587984D01*
X87014839Y-56157409D01*
X87213011Y-55678980D01*
X87314038Y-55171082D01*
X87314038Y-54763436D01*
X88255138Y-54763436D01*
X88255138Y-55060880D01*
X88313167Y-55352609D01*
X88426994Y-55627411D01*
X88592245Y-55874727D01*
X88802569Y-56085051D01*
X89049885Y-56250302D01*
X89324687Y-56364129D01*
X89616416Y-56422158D01*
X89913860Y-56422158D01*
X90205589Y-56364129D01*
X90480391Y-56250302D01*
X90727707Y-56085051D01*
X90938031Y-55874727D01*
X91103282Y-55627411D01*
X91217109Y-55352609D01*
X91275138Y-55060880D01*
X91275138Y-54763436D01*
X91217109Y-54471707D01*
X91103282Y-54196905D01*
X90938031Y-53949589D01*
X90727707Y-53739265D01*
X90480391Y-53574014D01*
X90205589Y-53460187D01*
X89913860Y-53402158D01*
X89616416Y-53402158D01*
X89324687Y-53460187D01*
X89049885Y-53574014D01*
X88802569Y-53739265D01*
X88592245Y-53949589D01*
X88426994Y-54196905D01*
X88313167Y-54471707D01*
X88255138Y-54763436D01*
X87314038Y-54763436D01*
X87314038Y-54653234D01*
X87213011Y-54145336D01*
X87014839Y-53666907D01*
X86808044Y-53357415D01*
X128544611Y-53357415D01*
X128544611Y-53640085D01*
X128599758Y-53917324D01*
X128707931Y-54178477D01*
X128864974Y-54413509D01*
X129064852Y-54613387D01*
X129297370Y-54768750D01*
X129064852Y-54924113D01*
X128864974Y-55123991D01*
X128707931Y-55359023D01*
X128599758Y-55620176D01*
X128544611Y-55897415D01*
X128544611Y-56180085D01*
X128599758Y-56457324D01*
X128707931Y-56718477D01*
X128864974Y-56953509D01*
X129064852Y-57153387D01*
X129297370Y-57308750D01*
X129064852Y-57464113D01*
X128864974Y-57663991D01*
X128707931Y-57899023D01*
X128599758Y-58160176D01*
X128544611Y-58437415D01*
X128544611Y-58720085D01*
X128599758Y-58997324D01*
X128707931Y-59258477D01*
X128864974Y-59493509D01*
X129064852Y-59693387D01*
X129297370Y-59848750D01*
X129064852Y-60004113D01*
X128864974Y-60203991D01*
X128707931Y-60439023D01*
X128599758Y-60700176D01*
X128544611Y-60977415D01*
X128544611Y-61260085D01*
X128599758Y-61537324D01*
X128707931Y-61798477D01*
X128864974Y-62033509D01*
X129064852Y-62233387D01*
X129297370Y-62388750D01*
X129064852Y-62544113D01*
X128864974Y-62743991D01*
X128707931Y-62979023D01*
X128599758Y-63240176D01*
X128544611Y-63517415D01*
X128544611Y-63800085D01*
X128599758Y-64077324D01*
X128707931Y-64338477D01*
X128864974Y-64573509D01*
X129064852Y-64773387D01*
X129297370Y-64928750D01*
X129064852Y-65084113D01*
X128864974Y-65283991D01*
X128707931Y-65519023D01*
X128599758Y-65780176D01*
X128544611Y-66057415D01*
X128544611Y-66340085D01*
X128599758Y-66617324D01*
X128707931Y-66878477D01*
X128864974Y-67113509D01*
X129064852Y-67313387D01*
X129297370Y-67468750D01*
X129064852Y-67624113D01*
X128864974Y-67823991D01*
X128707931Y-68059023D01*
X128599758Y-68320176D01*
X128544611Y-68597415D01*
X128544611Y-68880085D01*
X128599758Y-69157324D01*
X128707931Y-69418477D01*
X128864974Y-69653509D01*
X129064852Y-69853387D01*
X129297370Y-70008750D01*
X129064852Y-70164113D01*
X128864974Y-70363991D01*
X128707931Y-70599023D01*
X128599758Y-70860176D01*
X128544611Y-71137415D01*
X128544611Y-71420085D01*
X128599758Y-71697324D01*
X128707931Y-71958477D01*
X128864974Y-72193509D01*
X129064852Y-72393387D01*
X129299884Y-72550430D01*
X129561037Y-72658603D01*
X129838276Y-72713750D01*
X130120946Y-72713750D01*
X130398185Y-72658603D01*
X130659338Y-72550430D01*
X130894370Y-72393387D01*
X131094248Y-72193509D01*
X131251291Y-71958477D01*
X131359464Y-71697324D01*
X131414611Y-71420085D01*
X131414611Y-71137415D01*
X131359464Y-70860176D01*
X131251291Y-70599023D01*
X131094248Y-70363991D01*
X130894370Y-70164113D01*
X130661852Y-70008750D01*
X130894370Y-69853387D01*
X131094248Y-69653509D01*
X131251291Y-69418477D01*
X131359464Y-69157324D01*
X131414611Y-68880085D01*
X131414611Y-68597415D01*
X131359464Y-68320176D01*
X131251291Y-68059023D01*
X131094248Y-67823991D01*
X130894370Y-67624113D01*
X130661852Y-67468750D01*
X130894370Y-67313387D01*
X131094248Y-67113509D01*
X131251291Y-66878477D01*
X131359464Y-66617324D01*
X131414611Y-66340085D01*
X131414611Y-66057415D01*
X131359464Y-65780176D01*
X131251291Y-65519023D01*
X131094248Y-65283991D01*
X130894370Y-65084113D01*
X130661852Y-64928750D01*
X130894370Y-64773387D01*
X131094248Y-64573509D01*
X131251291Y-64338477D01*
X131359464Y-64077324D01*
X131414611Y-63800085D01*
X131414611Y-63517415D01*
X131359464Y-63240176D01*
X131251291Y-62979023D01*
X131094248Y-62743991D01*
X130894370Y-62544113D01*
X130661852Y-62388750D01*
X130894370Y-62233387D01*
X131094248Y-62033509D01*
X131251291Y-61798477D01*
X131359464Y-61537324D01*
X131414611Y-61260085D01*
X131414611Y-60977415D01*
X131359464Y-60700176D01*
X131251291Y-60439023D01*
X131094248Y-60203991D01*
X130894370Y-60004113D01*
X130661852Y-59848750D01*
X130894370Y-59693387D01*
X131094248Y-59493509D01*
X131251291Y-59258477D01*
X131359464Y-58997324D01*
X131414611Y-58720085D01*
X131414611Y-58437415D01*
X131359464Y-58160176D01*
X131251291Y-57899023D01*
X131094248Y-57663991D01*
X130894370Y-57464113D01*
X130661852Y-57308750D01*
X130894370Y-57153387D01*
X131094248Y-56953509D01*
X131251291Y-56718477D01*
X131359464Y-56457324D01*
X131414611Y-56180085D01*
X131414611Y-55897415D01*
X131359464Y-55620176D01*
X131251291Y-55359023D01*
X131094248Y-55123991D01*
X130894370Y-54924113D01*
X130661852Y-54768750D01*
X130894370Y-54613387D01*
X131094248Y-54413509D01*
X131251291Y-54178477D01*
X131359464Y-53917324D01*
X131414611Y-53640085D01*
X131414611Y-53357415D01*
X131359464Y-53080176D01*
X131251291Y-52819023D01*
X131094248Y-52583991D01*
X130894370Y-52384113D01*
X130660483Y-52227835D01*
X130721125Y-52195421D01*
X130792708Y-51951452D01*
X129979611Y-51138355D01*
X129166514Y-51951452D01*
X129238097Y-52195421D01*
X129302603Y-52225944D01*
X129299884Y-52227070D01*
X129064852Y-52384113D01*
X128864974Y-52583991D01*
X128707931Y-52819023D01*
X128599758Y-53080176D01*
X128544611Y-53357415D01*
X86808044Y-53357415D01*
X86727138Y-53236332D01*
X86360964Y-52870158D01*
X85930389Y-52582457D01*
X85451960Y-52384285D01*
X84944062Y-52283258D01*
X84426214Y-52283258D01*
X83918316Y-52384285D01*
X83439887Y-52582457D01*
X83009312Y-52870158D01*
X82643138Y-53236332D01*
X82355437Y-53666907D01*
X82157265Y-54145336D01*
X82056238Y-54653234D01*
X81093218Y-54653234D01*
X81057109Y-54471707D01*
X80943282Y-54196905D01*
X80901952Y-54135050D01*
X80970764Y-54138085D01*
X81313442Y-54085497D01*
X81639277Y-53967067D01*
X81935745Y-53787345D01*
X82127381Y-53611900D01*
X83463338Y-52122974D01*
X83552219Y-52034093D01*
X83626965Y-51922228D01*
X83706582Y-51813745D01*
X83723117Y-51778327D01*
X83744830Y-51745831D01*
X83796313Y-51621540D01*
X83853239Y-51499603D01*
X83862548Y-51461634D01*
X83877502Y-51425531D01*
X83903748Y-51293584D01*
X83935791Y-51162885D01*
X83937513Y-51123835D01*
X83945138Y-51085503D01*
X83945138Y-50950960D01*
X83951067Y-50816532D01*
X83945138Y-50777897D01*
X83945138Y-50738813D01*
X83918889Y-50606849D01*
X83898479Y-50473854D01*
X83885127Y-50437119D01*
X83881278Y-50417765D01*
X85420571Y-50417765D01*
X85455570Y-50761908D01*
X85557036Y-51092609D01*
X85721069Y-51397162D01*
X85941366Y-51663861D01*
X86209459Y-51882457D01*
X86515048Y-52044552D01*
X86668120Y-52094506D01*
X86948616Y-51995844D01*
X86977317Y-51579676D01*
X87230773Y-51596318D01*
X87202014Y-52013320D01*
X87466310Y-52149554D01*
X87624792Y-52121086D01*
X87949739Y-52002477D01*
X88245303Y-51822754D01*
X88500126Y-51588822D01*
X88704414Y-51309671D01*
X88834858Y-51029262D01*
X128539394Y-51029262D01*
X128580824Y-51308880D01*
X128676008Y-51575042D01*
X128742940Y-51700264D01*
X128986909Y-51771847D01*
X129800006Y-50958750D01*
X130159216Y-50958750D01*
X130972313Y-51771847D01*
X131216282Y-51700264D01*
X131337182Y-51444754D01*
X131405911Y-51170566D01*
X131419828Y-50888238D01*
X131378398Y-50608620D01*
X131283214Y-50342458D01*
X131216282Y-50217236D01*
X130972313Y-50145653D01*
X130159216Y-50958750D01*
X129800006Y-50958750D01*
X128986909Y-50145653D01*
X128742940Y-50217236D01*
X128622040Y-50472746D01*
X128553311Y-50746934D01*
X128539394Y-51029262D01*
X88834858Y-51029262D01*
X88850318Y-50996029D01*
X88932229Y-50659949D01*
X88952229Y-50369949D01*
X88904004Y-50366623D01*
X88969998Y-50120453D01*
X88981176Y-49950217D01*
X88989705Y-49826551D01*
X88989457Y-49824111D01*
X88992714Y-49774508D01*
X88956108Y-49496194D01*
X88954706Y-49482408D01*
X88953986Y-49480062D01*
X88947504Y-49430778D01*
X88940947Y-49411452D01*
X129166514Y-49411452D01*
X129238097Y-49655421D01*
X129304247Y-49686721D01*
X129238097Y-49722079D01*
X129166514Y-49966048D01*
X129979611Y-50779145D01*
X130792708Y-49966048D01*
X130721125Y-49722079D01*
X130654975Y-49690779D01*
X130721125Y-49655421D01*
X130792708Y-49411452D01*
X129979611Y-48598355D01*
X129166514Y-49411452D01*
X88940947Y-49411452D01*
X88857300Y-49164938D01*
X88853240Y-49151707D01*
X88852078Y-49149549D01*
X88836104Y-49102473D01*
X88726852Y-48898079D01*
X88713831Y-48892872D01*
X88689207Y-48847154D01*
X88468910Y-48580455D01*
X88357069Y-48489262D01*
X128539394Y-48489262D01*
X128580824Y-48768880D01*
X128676008Y-49035042D01*
X128742940Y-49160264D01*
X128986909Y-49231847D01*
X129800006Y-48418750D01*
X130159216Y-48418750D01*
X130972313Y-49231847D01*
X131216282Y-49160264D01*
X131337182Y-48904754D01*
X131405911Y-48630566D01*
X131419828Y-48348238D01*
X131409335Y-48277415D01*
X143784611Y-48277415D01*
X143784611Y-48560085D01*
X143839758Y-48837324D01*
X143947931Y-49098477D01*
X144104974Y-49333509D01*
X144304852Y-49533387D01*
X144537370Y-49688750D01*
X144304852Y-49844113D01*
X144104974Y-50043991D01*
X143947931Y-50279023D01*
X143839758Y-50540176D01*
X143784611Y-50817415D01*
X143784611Y-51100085D01*
X143839758Y-51377324D01*
X143947931Y-51638477D01*
X144104974Y-51873509D01*
X144304852Y-52073387D01*
X144537370Y-52228750D01*
X144304852Y-52384113D01*
X144104974Y-52583991D01*
X143947931Y-52819023D01*
X143839758Y-53080176D01*
X143784611Y-53357415D01*
X143784611Y-53640085D01*
X143839758Y-53917324D01*
X143947931Y-54178477D01*
X144104974Y-54413509D01*
X144304852Y-54613387D01*
X144537370Y-54768750D01*
X144304852Y-54924113D01*
X144104974Y-55123991D01*
X143947931Y-55359023D01*
X143839758Y-55620176D01*
X143784611Y-55897415D01*
X143784611Y-56180085D01*
X143839758Y-56457324D01*
X143947931Y-56718477D01*
X144104974Y-56953509D01*
X144304852Y-57153387D01*
X144537370Y-57308750D01*
X144304852Y-57464113D01*
X144104974Y-57663991D01*
X143947931Y-57899023D01*
X143839758Y-58160176D01*
X143784611Y-58437415D01*
X143784611Y-58720085D01*
X143839758Y-58997324D01*
X143947931Y-59258477D01*
X144104974Y-59493509D01*
X144304852Y-59693387D01*
X144537370Y-59848750D01*
X144304852Y-60004113D01*
X144104974Y-60203991D01*
X143947931Y-60439023D01*
X143839758Y-60700176D01*
X143784611Y-60977415D01*
X143784611Y-61260085D01*
X143839758Y-61537324D01*
X143947931Y-61798477D01*
X144104974Y-62033509D01*
X144304852Y-62233387D01*
X144537370Y-62388750D01*
X144304852Y-62544113D01*
X144104974Y-62743991D01*
X143947931Y-62979023D01*
X143839758Y-63240176D01*
X143784611Y-63517415D01*
X143784611Y-63800085D01*
X143839758Y-64077324D01*
X143947931Y-64338477D01*
X144104974Y-64573509D01*
X144304852Y-64773387D01*
X144537370Y-64928750D01*
X144304852Y-65084113D01*
X144104974Y-65283991D01*
X143947931Y-65519023D01*
X143839758Y-65780176D01*
X143784611Y-66057415D01*
X143784611Y-66340085D01*
X143839758Y-66617324D01*
X143947931Y-66878477D01*
X144104974Y-67113509D01*
X144304852Y-67313387D01*
X144537370Y-67468750D01*
X144304852Y-67624113D01*
X144104974Y-67823991D01*
X143947931Y-68059023D01*
X143839758Y-68320176D01*
X143784611Y-68597415D01*
X143784611Y-68880085D01*
X143839758Y-69157324D01*
X143947931Y-69418477D01*
X144104974Y-69653509D01*
X144304852Y-69853387D01*
X144537370Y-70008750D01*
X144304852Y-70164113D01*
X144104974Y-70363991D01*
X143947931Y-70599023D01*
X143839758Y-70860176D01*
X143784611Y-71137415D01*
X143784611Y-71420085D01*
X143839758Y-71697324D01*
X143947931Y-71958477D01*
X144104974Y-72193509D01*
X144304852Y-72393387D01*
X144539884Y-72550430D01*
X144801037Y-72658603D01*
X145078276Y-72713750D01*
X145360946Y-72713750D01*
X145638185Y-72658603D01*
X145899338Y-72550430D01*
X146134370Y-72393387D01*
X146334248Y-72193509D01*
X146491291Y-71958477D01*
X146599464Y-71697324D01*
X146654611Y-71420085D01*
X146654611Y-71137415D01*
X146608471Y-70905456D01*
X179212285Y-70905456D01*
X179212285Y-71218166D01*
X179273292Y-71524868D01*
X179392961Y-71813774D01*
X179566693Y-72073783D01*
X179787813Y-72294903D01*
X180047822Y-72468635D01*
X180336728Y-72588304D01*
X180643430Y-72649311D01*
X180956140Y-72649311D01*
X181262842Y-72588304D01*
X181551748Y-72468635D01*
X181811757Y-72294903D01*
X181815334Y-72291326D01*
X181856748Y-72368805D01*
X181936100Y-72465496D01*
X182032791Y-72544848D01*
X182143105Y-72603813D01*
X182262803Y-72640123D01*
X182387285Y-72652383D01*
X184292285Y-72652383D01*
X184416767Y-72640123D01*
X184536465Y-72603813D01*
X184646779Y-72544848D01*
X184743470Y-72465496D01*
X184822822Y-72368805D01*
X184881787Y-72258491D01*
X184918097Y-72138793D01*
X184930357Y-72014311D01*
X184930357Y-70109311D01*
X184918097Y-69984829D01*
X184881787Y-69865131D01*
X184822822Y-69754817D01*
X184743470Y-69658126D01*
X184646779Y-69578774D01*
X184536465Y-69519809D01*
X184416767Y-69483499D01*
X184292285Y-69471239D01*
X182387285Y-69471239D01*
X182262803Y-69483499D01*
X182143105Y-69519809D01*
X182032791Y-69578774D01*
X181936100Y-69658126D01*
X181856748Y-69754817D01*
X181815334Y-69832296D01*
X181811757Y-69828719D01*
X181551748Y-69654987D01*
X181262842Y-69535318D01*
X180956140Y-69474311D01*
X180643430Y-69474311D01*
X180336728Y-69535318D01*
X180047822Y-69654987D01*
X179787813Y-69828719D01*
X179566693Y-70049839D01*
X179392961Y-70309848D01*
X179273292Y-70598754D01*
X179212285Y-70905456D01*
X146608471Y-70905456D01*
X146599464Y-70860176D01*
X146491291Y-70599023D01*
X146334248Y-70363991D01*
X146134370Y-70164113D01*
X145901852Y-70008750D01*
X146134370Y-69853387D01*
X146334248Y-69653509D01*
X146491291Y-69418477D01*
X146599464Y-69157324D01*
X146654611Y-68880085D01*
X146654611Y-68597415D01*
X146599464Y-68320176D01*
X146491291Y-68059023D01*
X146334248Y-67823991D01*
X146134370Y-67624113D01*
X145901852Y-67468750D01*
X146134370Y-67313387D01*
X146334248Y-67113509D01*
X146491291Y-66878477D01*
X146599464Y-66617324D01*
X146654611Y-66340085D01*
X146654611Y-66057415D01*
X146609990Y-65833089D01*
X175479785Y-65833089D01*
X175479785Y-66130533D01*
X175537814Y-66422262D01*
X175651641Y-66697064D01*
X175816892Y-66944380D01*
X176027216Y-67154704D01*
X176274532Y-67319955D01*
X176549334Y-67433782D01*
X176841063Y-67491811D01*
X177138507Y-67491811D01*
X177430236Y-67433782D01*
X177705038Y-67319955D01*
X177952354Y-67154704D01*
X178162678Y-66944380D01*
X178327929Y-66697064D01*
X178441756Y-66422262D01*
X178499785Y-66130533D01*
X178499785Y-65833089D01*
X178477865Y-65722887D01*
X179440885Y-65722887D01*
X179440885Y-66240735D01*
X179541912Y-66748633D01*
X179740084Y-67227062D01*
X180027785Y-67657637D01*
X180393959Y-68023811D01*
X180824534Y-68311512D01*
X181302963Y-68509684D01*
X181810861Y-68610711D01*
X182328709Y-68610711D01*
X182836607Y-68509684D01*
X183315036Y-68311512D01*
X183745611Y-68023811D01*
X183911202Y-67858220D01*
X198241963Y-67858220D01*
X198241963Y-68170930D01*
X198302970Y-68477632D01*
X198422639Y-68766538D01*
X198596371Y-69026547D01*
X198817491Y-69247667D01*
X199077500Y-69421399D01*
X199366406Y-69541068D01*
X199673108Y-69602075D01*
X199985818Y-69602075D01*
X200292520Y-69541068D01*
X200581426Y-69421399D01*
X200841435Y-69247667D01*
X200845012Y-69244090D01*
X200886426Y-69321569D01*
X200965778Y-69418260D01*
X201062469Y-69497612D01*
X201172783Y-69556577D01*
X201292481Y-69592887D01*
X201416963Y-69605147D01*
X203321963Y-69605147D01*
X203446445Y-69592887D01*
X203566143Y-69556577D01*
X203676457Y-69497612D01*
X203773148Y-69418260D01*
X203852500Y-69321569D01*
X203911465Y-69211255D01*
X203947775Y-69091557D01*
X203960035Y-68967075D01*
X203960035Y-67062075D01*
X203947775Y-66937593D01*
X203911465Y-66817895D01*
X203852500Y-66707581D01*
X203773148Y-66610890D01*
X203676457Y-66531538D01*
X203566143Y-66472573D01*
X203446445Y-66436263D01*
X203321963Y-66424003D01*
X201416963Y-66424003D01*
X201292481Y-66436263D01*
X201172783Y-66472573D01*
X201062469Y-66531538D01*
X200965778Y-66610890D01*
X200886426Y-66707581D01*
X200845012Y-66785060D01*
X200841435Y-66781483D01*
X200581426Y-66607751D01*
X200292520Y-66488082D01*
X199985818Y-66427075D01*
X199673108Y-66427075D01*
X199366406Y-66488082D01*
X199077500Y-66607751D01*
X198817491Y-66781483D01*
X198596371Y-67002603D01*
X198422639Y-67262612D01*
X198302970Y-67551518D01*
X198241963Y-67858220D01*
X183911202Y-67858220D01*
X184111785Y-67657637D01*
X184399486Y-67227062D01*
X184597658Y-66748633D01*
X184698685Y-66240735D01*
X184698685Y-65833089D01*
X185639785Y-65833089D01*
X185639785Y-66130533D01*
X185697814Y-66422262D01*
X185811641Y-66697064D01*
X185976892Y-66944380D01*
X186187216Y-67154704D01*
X186434532Y-67319955D01*
X186709334Y-67433782D01*
X187001063Y-67491811D01*
X187298507Y-67491811D01*
X187590236Y-67433782D01*
X187865038Y-67319955D01*
X188112354Y-67154704D01*
X188322678Y-66944380D01*
X188487929Y-66697064D01*
X188601756Y-66422262D01*
X188659785Y-66130533D01*
X188659785Y-65833089D01*
X188601756Y-65541360D01*
X188487929Y-65266558D01*
X188322678Y-65019242D01*
X188112354Y-64808918D01*
X187865038Y-64643667D01*
X187590236Y-64529840D01*
X187298507Y-64471811D01*
X187001063Y-64471811D01*
X186709334Y-64529840D01*
X186434532Y-64643667D01*
X186187216Y-64808918D01*
X185976892Y-65019242D01*
X185811641Y-65266558D01*
X185697814Y-65541360D01*
X185639785Y-65833089D01*
X184698685Y-65833089D01*
X184698685Y-65722887D01*
X184597658Y-65214989D01*
X184399486Y-64736560D01*
X184111785Y-64305985D01*
X183745611Y-63939811D01*
X183315036Y-63652110D01*
X182836607Y-63453938D01*
X182328709Y-63352911D01*
X181810861Y-63352911D01*
X181302963Y-63453938D01*
X180824534Y-63652110D01*
X180393959Y-63939811D01*
X180027785Y-64305985D01*
X179740084Y-64736560D01*
X179541912Y-65214989D01*
X179440885Y-65722887D01*
X178477865Y-65722887D01*
X178441756Y-65541360D01*
X178327929Y-65266558D01*
X178284506Y-65201570D01*
X178572942Y-65178377D01*
X178905712Y-65083916D01*
X179213660Y-64926349D01*
X179484950Y-64711732D01*
X180139951Y-63981732D01*
X179848584Y-63720300D01*
X179971165Y-63704177D01*
X180145151Y-63645140D01*
X180309582Y-63792678D01*
X180964582Y-63062679D01*
X181051912Y-62923723D01*
X181071499Y-62915890D01*
X181125012Y-62807409D01*
X181148649Y-62769799D01*
X181166063Y-62724192D01*
X181224874Y-62604971D01*
X181256197Y-62488131D01*
X181272040Y-62446637D01*
X181280221Y-62398516D01*
X181314645Y-62270106D01*
X181322571Y-62149400D01*
X181330015Y-62105612D01*
X181328650Y-62056816D01*
X181337361Y-61924161D01*
X181321587Y-61804229D01*
X181320345Y-61759830D01*
X181309488Y-61712241D01*
X181292151Y-61580431D01*
X181253280Y-61465874D01*
X181248967Y-61446968D01*
X182808008Y-61446968D01*
X182815625Y-61706673D01*
X182893198Y-62044572D01*
X183035204Y-62360845D01*
X183236181Y-62643337D01*
X183488409Y-62881192D01*
X183782193Y-63065270D01*
X184106244Y-63188495D01*
X184448108Y-63246135D01*
X184794647Y-63235971D01*
X185132546Y-63158398D01*
X185448819Y-63016392D01*
X185731311Y-62815415D01*
X185759188Y-62785853D01*
X194509463Y-62785853D01*
X194509463Y-63083297D01*
X194567492Y-63375026D01*
X194681319Y-63649828D01*
X194846570Y-63897144D01*
X195056894Y-64107468D01*
X195304210Y-64272719D01*
X195579012Y-64386546D01*
X195870741Y-64444575D01*
X196168185Y-64444575D01*
X196459914Y-64386546D01*
X196734716Y-64272719D01*
X196982032Y-64107468D01*
X197192356Y-63897144D01*
X197357607Y-63649828D01*
X197471434Y-63375026D01*
X197529463Y-63083297D01*
X197529463Y-62785853D01*
X197507543Y-62675651D01*
X198470563Y-62675651D01*
X198470563Y-63193499D01*
X198571590Y-63701397D01*
X198769762Y-64179826D01*
X199057463Y-64610401D01*
X199423637Y-64976575D01*
X199854212Y-65264276D01*
X200332641Y-65462448D01*
X200840539Y-65563475D01*
X201358387Y-65563475D01*
X201866285Y-65462448D01*
X202344714Y-65264276D01*
X202775289Y-64976575D01*
X203141463Y-64610401D01*
X203429164Y-64179826D01*
X203627336Y-63701397D01*
X203728363Y-63193499D01*
X203728363Y-62785853D01*
X204669463Y-62785853D01*
X204669463Y-63083297D01*
X204727492Y-63375026D01*
X204841319Y-63649828D01*
X205006570Y-63897144D01*
X205216894Y-64107468D01*
X205464210Y-64272719D01*
X205739012Y-64386546D01*
X206030741Y-64444575D01*
X206328185Y-64444575D01*
X206619914Y-64386546D01*
X206894716Y-64272719D01*
X207142032Y-64107468D01*
X207352356Y-63897144D01*
X207517607Y-63649828D01*
X207631434Y-63375026D01*
X207689463Y-63083297D01*
X207689463Y-62785853D01*
X207631434Y-62494124D01*
X207517607Y-62219322D01*
X207352356Y-61972006D01*
X207142032Y-61761682D01*
X206894716Y-61596431D01*
X206619914Y-61482604D01*
X206328185Y-61424575D01*
X206030741Y-61424575D01*
X205739012Y-61482604D01*
X205464210Y-61596431D01*
X205216894Y-61761682D01*
X205006570Y-61972006D01*
X204841319Y-62219322D01*
X204727492Y-62494124D01*
X204669463Y-62785853D01*
X203728363Y-62785853D01*
X203728363Y-62675651D01*
X203627336Y-62167753D01*
X203429164Y-61689324D01*
X203141463Y-61258749D01*
X202775289Y-60892575D01*
X202344714Y-60604874D01*
X201866285Y-60406702D01*
X201358387Y-60305675D01*
X200840539Y-60305675D01*
X200332641Y-60406702D01*
X199854212Y-60604874D01*
X199423637Y-60892575D01*
X199057463Y-61258749D01*
X198769762Y-61689324D01*
X198571590Y-62167753D01*
X198470563Y-62675651D01*
X197507543Y-62675651D01*
X197471434Y-62494124D01*
X197357607Y-62219322D01*
X197314184Y-62154334D01*
X197602620Y-62131141D01*
X197935390Y-62036680D01*
X198243338Y-61879113D01*
X198514628Y-61664496D01*
X199169629Y-60934496D01*
X198878262Y-60673064D01*
X199000843Y-60656941D01*
X199174829Y-60597904D01*
X199339260Y-60745442D01*
X199994260Y-60015443D01*
X200081590Y-59876487D01*
X200101177Y-59868654D01*
X200154690Y-59760173D01*
X200178327Y-59722563D01*
X200195741Y-59676956D01*
X200254552Y-59557735D01*
X200285875Y-59440895D01*
X200301718Y-59399401D01*
X200309899Y-59351280D01*
X200344323Y-59222870D01*
X200352249Y-59102164D01*
X200359693Y-59058376D01*
X200358328Y-59009580D01*
X200367039Y-58876925D01*
X200351265Y-58756993D01*
X200350023Y-58712594D01*
X200339166Y-58665005D01*
X200321829Y-58533195D01*
X200282958Y-58418638D01*
X200278645Y-58399732D01*
X201837686Y-58399732D01*
X201845303Y-58659437D01*
X201922876Y-58997336D01*
X202064882Y-59313609D01*
X202265859Y-59596101D01*
X202518087Y-59833956D01*
X202811871Y-60018034D01*
X203135922Y-60141259D01*
X203477786Y-60198899D01*
X203824325Y-60188735D01*
X204162224Y-60111162D01*
X204478497Y-59969156D01*
X204760989Y-59768179D01*
X204998844Y-59515951D01*
X205182922Y-59222167D01*
X205306147Y-58898116D01*
X205349344Y-58641914D01*
X205387562Y-58087750D01*
X205399463Y-58027920D01*
X205399463Y-57915186D01*
X205401240Y-57889419D01*
X205399463Y-57828831D01*
X205399463Y-57681230D01*
X205394385Y-57655703D01*
X205393623Y-57629712D01*
X205360622Y-57485962D01*
X205331827Y-57341202D01*
X205321870Y-57317163D01*
X205316050Y-57291813D01*
X205255640Y-57157269D01*
X205199155Y-57020902D01*
X205184693Y-56999258D01*
X205174044Y-56975541D01*
X205088559Y-56855384D01*
X205006544Y-56732640D01*
X204988141Y-56714237D01*
X204973067Y-56693049D01*
X204865774Y-56591870D01*
X204761398Y-56487494D01*
X204739757Y-56473034D01*
X204720839Y-56455194D01*
X204595870Y-56376891D01*
X204473136Y-56294883D01*
X204449091Y-56284923D01*
X204427055Y-56271116D01*
X204289203Y-56218696D01*
X204152836Y-56162211D01*
X204127309Y-56157133D01*
X204103004Y-56147891D01*
X203957571Y-56123370D01*
X203812808Y-56094575D01*
X203786786Y-56094575D01*
X203761140Y-56090251D01*
X203613700Y-56094575D01*
X203466118Y-56094575D01*
X203440596Y-56099652D01*
X203414601Y-56100414D01*
X203270838Y-56133419D01*
X203126090Y-56162211D01*
X203102050Y-56172169D01*
X203076702Y-56177988D01*
X202942152Y-56238400D01*
X202805790Y-56294883D01*
X202784150Y-56309342D01*
X202760429Y-56319993D01*
X202640259Y-56405488D01*
X202517528Y-56487494D01*
X202499125Y-56505897D01*
X202477937Y-56520971D01*
X202376751Y-56628271D01*
X202272382Y-56732640D01*
X202257924Y-56754278D01*
X202240082Y-56773198D01*
X202161773Y-56898177D01*
X202079771Y-57020902D01*
X202069811Y-57044947D01*
X202056004Y-57066983D01*
X202003582Y-57204839D01*
X201947099Y-57341202D01*
X201942022Y-57366727D01*
X201932779Y-57391033D01*
X201908257Y-57536473D01*
X201879463Y-57681230D01*
X201879463Y-57793961D01*
X201837686Y-58399732D01*
X200278645Y-58399732D01*
X200273080Y-58375343D01*
X200253151Y-58330794D01*
X200210429Y-58204890D01*
X200101177Y-58000496D01*
X200088629Y-57995478D01*
X200041848Y-57926047D01*
X199759998Y-57831323D01*
X198604458Y-59119175D01*
X198599463Y-59114180D01*
X197895501Y-59818142D01*
X197751765Y-59689173D01*
X197765122Y-59674287D01*
X197720333Y-59634100D01*
X197900201Y-59454232D01*
X197934752Y-59485233D01*
X198594469Y-58749976D01*
X198599463Y-58754970D01*
X199644389Y-57710044D01*
X199533542Y-57432861D01*
X199390059Y-57362082D01*
X199303869Y-57316693D01*
X199287004Y-57311245D01*
X199222623Y-57279486D01*
X199023202Y-57226025D01*
X198974701Y-57210357D01*
X198957099Y-57208304D01*
X198887758Y-57189715D01*
X198681726Y-57176186D01*
X198631113Y-57170283D01*
X198613452Y-57171703D01*
X198541813Y-57166999D01*
X198337093Y-57193925D01*
X198286308Y-57198009D01*
X198269267Y-57202846D01*
X198198083Y-57212209D01*
X198002544Y-57278559D01*
X197953538Y-57292470D01*
X197937770Y-57300538D01*
X197869778Y-57323609D01*
X197665384Y-57432861D01*
X197661840Y-57441722D01*
X197645590Y-57450037D01*
X197374300Y-57664654D01*
X196719299Y-58394654D01*
X196882744Y-58541307D01*
X196854603Y-58646280D01*
X196841517Y-58845572D01*
X196549668Y-58583708D01*
X195894668Y-59313707D01*
X195710601Y-59606587D01*
X195587210Y-59929749D01*
X195529235Y-60270774D01*
X195538905Y-60616556D01*
X195615848Y-60953807D01*
X195757107Y-61269568D01*
X195847080Y-61403103D01*
X195910970Y-61424575D01*
X195870741Y-61424575D01*
X195579012Y-61482604D01*
X195304210Y-61596431D01*
X195056894Y-61761682D01*
X194846570Y-61972006D01*
X194681319Y-62219322D01*
X194567492Y-62494124D01*
X194509463Y-62785853D01*
X185759188Y-62785853D01*
X185969166Y-62563187D01*
X186153244Y-62269403D01*
X186276469Y-61945352D01*
X186319666Y-61689150D01*
X186357884Y-61134986D01*
X186369785Y-61075156D01*
X186369785Y-60962422D01*
X186371562Y-60936655D01*
X186369785Y-60876067D01*
X186369785Y-60728466D01*
X186364707Y-60702939D01*
X186363945Y-60676948D01*
X186330944Y-60533198D01*
X186302149Y-60388438D01*
X186292192Y-60364399D01*
X186286372Y-60339049D01*
X186225962Y-60204505D01*
X186169477Y-60068138D01*
X186155015Y-60046494D01*
X186144366Y-60022777D01*
X186058881Y-59902620D01*
X185976866Y-59779876D01*
X185958463Y-59761473D01*
X185943389Y-59740285D01*
X185836096Y-59639106D01*
X185731720Y-59534730D01*
X185710079Y-59520270D01*
X185691161Y-59502430D01*
X185566192Y-59424127D01*
X185443458Y-59342119D01*
X185419413Y-59332159D01*
X185397377Y-59318352D01*
X185259525Y-59265932D01*
X185123158Y-59209447D01*
X185097631Y-59204369D01*
X185073326Y-59195127D01*
X184927893Y-59170606D01*
X184783130Y-59141811D01*
X184757108Y-59141811D01*
X184731462Y-59137487D01*
X184584022Y-59141811D01*
X184436440Y-59141811D01*
X184410918Y-59146888D01*
X184384923Y-59147650D01*
X184241160Y-59180655D01*
X184096412Y-59209447D01*
X184072372Y-59219405D01*
X184047024Y-59225224D01*
X183912474Y-59285636D01*
X183776112Y-59342119D01*
X183754472Y-59356578D01*
X183730751Y-59367229D01*
X183610581Y-59452724D01*
X183487850Y-59534730D01*
X183469447Y-59553133D01*
X183448259Y-59568207D01*
X183347073Y-59675507D01*
X183242704Y-59779876D01*
X183228246Y-59801514D01*
X183210404Y-59820434D01*
X183132095Y-59945413D01*
X183050093Y-60068138D01*
X183040133Y-60092183D01*
X183026326Y-60114219D01*
X182973904Y-60252075D01*
X182917421Y-60388438D01*
X182912344Y-60413963D01*
X182903101Y-60438269D01*
X182878579Y-60583709D01*
X182849785Y-60728466D01*
X182849785Y-60841197D01*
X182808008Y-61446968D01*
X181248967Y-61446968D01*
X181243402Y-61422579D01*
X181223473Y-61378030D01*
X181180751Y-61252126D01*
X181071499Y-61047732D01*
X181058951Y-61042714D01*
X181012170Y-60973283D01*
X180730320Y-60878559D01*
X179574780Y-62166411D01*
X179569785Y-62161416D01*
X178865823Y-62865378D01*
X178722087Y-62736409D01*
X178735444Y-62721523D01*
X178690655Y-62681336D01*
X178870523Y-62501468D01*
X178905074Y-62532469D01*
X179564791Y-61797212D01*
X179569785Y-61802206D01*
X180614711Y-60757280D01*
X180503864Y-60480097D01*
X180360381Y-60409318D01*
X180274191Y-60363929D01*
X180257326Y-60358481D01*
X180192945Y-60326722D01*
X179993524Y-60273261D01*
X179945023Y-60257593D01*
X179927421Y-60255540D01*
X179858080Y-60236951D01*
X179652048Y-60223422D01*
X179601435Y-60217519D01*
X179583774Y-60218939D01*
X179512135Y-60214235D01*
X179307415Y-60241161D01*
X179256630Y-60245245D01*
X179239589Y-60250082D01*
X179168405Y-60259445D01*
X178972866Y-60325795D01*
X178923860Y-60339706D01*
X178908092Y-60347774D01*
X178840100Y-60370845D01*
X178635706Y-60480097D01*
X178632162Y-60488958D01*
X178615912Y-60497273D01*
X178344622Y-60711890D01*
X177689621Y-61441890D01*
X177853066Y-61588543D01*
X177824925Y-61693516D01*
X177811839Y-61892808D01*
X177519990Y-61630944D01*
X176864990Y-62360943D01*
X176680923Y-62653823D01*
X176557532Y-62976985D01*
X176499557Y-63318010D01*
X176509227Y-63663792D01*
X176586170Y-64001043D01*
X176727429Y-64316804D01*
X176817402Y-64450339D01*
X176881292Y-64471811D01*
X176841063Y-64471811D01*
X176549334Y-64529840D01*
X176274532Y-64643667D01*
X176027216Y-64808918D01*
X175816892Y-65019242D01*
X175651641Y-65266558D01*
X175537814Y-65541360D01*
X175479785Y-65833089D01*
X146609990Y-65833089D01*
X146599464Y-65780176D01*
X146491291Y-65519023D01*
X146334248Y-65283991D01*
X146134370Y-65084113D01*
X145901852Y-64928750D01*
X146134370Y-64773387D01*
X146334248Y-64573509D01*
X146491291Y-64338477D01*
X146599464Y-64077324D01*
X146654611Y-63800085D01*
X146654611Y-63517415D01*
X146599464Y-63240176D01*
X146491291Y-62979023D01*
X146334248Y-62743991D01*
X146134370Y-62544113D01*
X145901852Y-62388750D01*
X146134370Y-62233387D01*
X146334248Y-62033509D01*
X146491291Y-61798477D01*
X146599464Y-61537324D01*
X146654611Y-61260085D01*
X146654611Y-60977415D01*
X146599464Y-60700176D01*
X146491291Y-60439023D01*
X146334248Y-60203991D01*
X146134370Y-60004113D01*
X145901852Y-59848750D01*
X146134370Y-59693387D01*
X146334248Y-59493509D01*
X146491291Y-59258477D01*
X146599464Y-58997324D01*
X146654611Y-58720085D01*
X146654611Y-58437415D01*
X146599464Y-58160176D01*
X146491291Y-57899023D01*
X146334248Y-57663991D01*
X146134370Y-57464113D01*
X145901852Y-57308750D01*
X146134370Y-57153387D01*
X146334248Y-56953509D01*
X146491291Y-56718477D01*
X146599464Y-56457324D01*
X146654611Y-56180085D01*
X146654611Y-55897415D01*
X146599464Y-55620176D01*
X146491291Y-55359023D01*
X146334248Y-55123991D01*
X146134370Y-54924113D01*
X145901852Y-54768750D01*
X146134370Y-54613387D01*
X146334248Y-54413509D01*
X146491291Y-54178477D01*
X146599464Y-53917324D01*
X146654611Y-53640085D01*
X146654611Y-53357415D01*
X146599464Y-53080176D01*
X146491291Y-52819023D01*
X146334248Y-52583991D01*
X146134370Y-52384113D01*
X145901852Y-52228750D01*
X146134370Y-52073387D01*
X146334248Y-51873509D01*
X146491291Y-51638477D01*
X146599464Y-51377324D01*
X146654611Y-51100085D01*
X146654611Y-50817415D01*
X146599464Y-50540176D01*
X146491291Y-50279023D01*
X146334248Y-50043991D01*
X146134370Y-49844113D01*
X145901852Y-49688750D01*
X146134370Y-49533387D01*
X146334248Y-49333509D01*
X146491291Y-49098477D01*
X146599464Y-48837324D01*
X146654611Y-48560085D01*
X146654611Y-48277415D01*
X146599464Y-48000176D01*
X146491291Y-47739023D01*
X146334248Y-47503991D01*
X146134370Y-47304113D01*
X145900483Y-47147835D01*
X145961125Y-47115421D01*
X146032708Y-46871452D01*
X145219611Y-46058355D01*
X144406514Y-46871452D01*
X144478097Y-47115421D01*
X144542603Y-47145944D01*
X144539884Y-47147070D01*
X144304852Y-47304113D01*
X144104974Y-47503991D01*
X143947931Y-47739023D01*
X143839758Y-48000176D01*
X143784611Y-48277415D01*
X131409335Y-48277415D01*
X131378398Y-48068620D01*
X131283214Y-47802458D01*
X131216282Y-47677236D01*
X130972313Y-47605653D01*
X130159216Y-48418750D01*
X129800006Y-48418750D01*
X128986909Y-47605653D01*
X128742940Y-47677236D01*
X128622040Y-47932746D01*
X128553311Y-48206934D01*
X128539394Y-48489262D01*
X88357069Y-48489262D01*
X88200817Y-48361859D01*
X88163962Y-48342310D01*
X88159217Y-48330444D01*
X87907489Y-48206268D01*
X87895228Y-48199764D01*
X87892500Y-48198874D01*
X87848298Y-48177069D01*
X87513433Y-48087298D01*
X87343310Y-48076127D01*
X87219529Y-48067590D01*
X87219501Y-48067997D01*
X87167488Y-48064582D01*
X86823758Y-48109792D01*
X86495453Y-48221192D01*
X86291059Y-48330444D01*
X86283424Y-48349536D01*
X86164973Y-48421562D01*
X85910150Y-48655494D01*
X85736427Y-48892879D01*
X85723424Y-48898079D01*
X85570049Y-49208998D01*
X85480278Y-49543863D01*
X85469094Y-49714183D01*
X85458047Y-49874367D01*
X85458574Y-49874403D01*
X85457562Y-49889808D01*
X85489302Y-50131126D01*
X85440571Y-50127765D01*
X85420571Y-50417765D01*
X83881278Y-50417765D01*
X83877502Y-50398785D01*
X83826012Y-50274478D01*
X83780049Y-50148019D01*
X83759788Y-50114596D01*
X83744830Y-50078485D01*
X83670073Y-49966604D01*
X83600327Y-49851551D01*
X83573936Y-49822724D01*
X83552219Y-49790223D01*
X83457072Y-49695076D01*
X83366221Y-49595841D01*
X83334713Y-49572717D01*
X83307073Y-49545077D01*
X83195188Y-49470317D01*
X83086726Y-49390716D01*
X83051314Y-49374184D01*
X83018811Y-49352466D01*
X82894491Y-49300971D01*
X82772584Y-49244059D01*
X82734624Y-49234753D01*
X82698511Y-49219794D01*
X82566526Y-49193540D01*
X82435866Y-49161507D01*
X82396827Y-49159785D01*
X82358483Y-49152158D01*
X82223896Y-49152158D01*
X82089513Y-49146231D01*
X82050891Y-49152158D01*
X82011793Y-49152158D01*
X81879782Y-49178417D01*
X81746835Y-49198819D01*
X81710114Y-49212166D01*
X81671765Y-49219794D01*
X81547407Y-49271305D01*
X81421001Y-49317249D01*
X81387592Y-49337502D01*
X81351465Y-49352466D01*
X81239538Y-49427253D01*
X81124532Y-49496971D01*
X81095716Y-49523353D01*
X81063203Y-49545077D01*
X80968025Y-49640255D01*
X80932896Y-49672416D01*
X80906975Y-49701305D01*
X80818057Y-49790223D01*
X80791411Y-49830101D01*
X79507422Y-51261111D01*
X79353696Y-51470572D01*
X79207039Y-51784714D01*
X79124487Y-52121432D01*
X79109211Y-52467784D01*
X79161799Y-52810462D01*
X79280229Y-53136297D01*
X79443013Y-53404824D01*
X79164687Y-53460187D01*
X78889885Y-53574014D01*
X78642569Y-53739265D01*
X78432245Y-53949589D01*
X78266994Y-54196905D01*
X78153167Y-54471707D01*
X78095138Y-54763436D01*
X61365089Y-54763436D01*
X61365841Y-46126531D01*
X61438573Y-45147796D01*
X61649456Y-44215828D01*
X61995777Y-43325263D01*
X62445307Y-42538750D01*
X128541539Y-42538750D01*
X128541539Y-44138750D01*
X128553799Y-44263232D01*
X128590109Y-44382930D01*
X128649074Y-44493244D01*
X128728426Y-44589935D01*
X128825117Y-44669287D01*
X128935431Y-44728252D01*
X129055129Y-44764562D01*
X129063572Y-44765393D01*
X128864974Y-44963991D01*
X128707931Y-45199023D01*
X128599758Y-45460176D01*
X128544611Y-45737415D01*
X128544611Y-46020085D01*
X128599758Y-46297324D01*
X128707931Y-46558477D01*
X128864974Y-46793509D01*
X129064852Y-46993387D01*
X129298739Y-47149665D01*
X129238097Y-47182079D01*
X129166514Y-47426048D01*
X129979611Y-48239145D01*
X130792708Y-47426048D01*
X130721125Y-47182079D01*
X130656619Y-47151556D01*
X130659338Y-47150430D01*
X130894370Y-46993387D01*
X131094248Y-46793509D01*
X131251291Y-46558477D01*
X131359464Y-46297324D01*
X131414611Y-46020085D01*
X131414611Y-45949262D01*
X143779394Y-45949262D01*
X143820824Y-46228880D01*
X143916008Y-46495042D01*
X143982940Y-46620264D01*
X144226909Y-46691847D01*
X145040006Y-45878750D01*
X145399216Y-45878750D01*
X146212313Y-46691847D01*
X146456282Y-46620264D01*
X146577182Y-46364754D01*
X146645911Y-46090566D01*
X146659828Y-45808238D01*
X146618398Y-45528620D01*
X146523214Y-45262458D01*
X146456282Y-45137236D01*
X146212313Y-45065653D01*
X145399216Y-45878750D01*
X145040006Y-45878750D01*
X144226909Y-45065653D01*
X143982940Y-45137236D01*
X143862040Y-45392746D01*
X143793311Y-45666934D01*
X143779394Y-45949262D01*
X131414611Y-45949262D01*
X131414611Y-45737415D01*
X131359464Y-45460176D01*
X131251291Y-45199023D01*
X131094248Y-44963991D01*
X130895650Y-44765393D01*
X130904093Y-44764562D01*
X131023791Y-44728252D01*
X131134105Y-44669287D01*
X131230796Y-44589935D01*
X131310148Y-44493244D01*
X131369113Y-44382930D01*
X131405423Y-44263232D01*
X131417683Y-44138750D01*
X131417683Y-43197415D01*
X143784611Y-43197415D01*
X143784611Y-43480085D01*
X143839758Y-43757324D01*
X143947931Y-44018477D01*
X144104974Y-44253509D01*
X144304852Y-44453387D01*
X144538739Y-44609665D01*
X144478097Y-44642079D01*
X144406514Y-44886048D01*
X145219611Y-45699145D01*
X146032708Y-44886048D01*
X145961125Y-44642079D01*
X145896619Y-44611556D01*
X145899338Y-44610430D01*
X146134370Y-44453387D01*
X146334248Y-44253509D01*
X146491291Y-44018477D01*
X146599464Y-43757324D01*
X146654611Y-43480085D01*
X146654611Y-43197415D01*
X146599464Y-42920176D01*
X146491291Y-42659023D01*
X146334248Y-42423991D01*
X146134370Y-42224113D01*
X145899338Y-42067070D01*
X145638185Y-41958897D01*
X145360946Y-41903750D01*
X145078276Y-41903750D01*
X144801037Y-41958897D01*
X144539884Y-42067070D01*
X144304852Y-42224113D01*
X144104974Y-42423991D01*
X143947931Y-42659023D01*
X143839758Y-42920176D01*
X143784611Y-43197415D01*
X131417683Y-43197415D01*
X131417683Y-42538750D01*
X131405423Y-42414268D01*
X131369113Y-42294570D01*
X131310148Y-42184256D01*
X131230796Y-42087565D01*
X131134105Y-42008213D01*
X131023791Y-41949248D01*
X130904093Y-41912938D01*
X130779611Y-41900678D01*
X129179611Y-41900678D01*
X129055129Y-41912938D01*
X128935431Y-41949248D01*
X128825117Y-42008213D01*
X128728426Y-42087565D01*
X128649074Y-42184256D01*
X128590109Y-42294570D01*
X128553799Y-42414268D01*
X128541539Y-42538750D01*
X62445307Y-42538750D01*
X62469926Y-42495676D01*
X63061492Y-41745278D01*
X63757467Y-41090570D01*
X64542584Y-40545916D01*
X65399565Y-40123298D01*
X66309614Y-39831990D01*
X67263230Y-39676684D01*
X67829820Y-39651946D01*
X208528598Y-39639897D01*
X209503632Y-39712890D01*
G36*
X87297502Y-88059121D02*
G01*
X87251905Y-88104719D01*
X87237762Y-88090576D01*
X87223620Y-88104719D01*
X87169171Y-88050270D01*
X87297502Y-88059121D01*
X87297502Y-88059121D01*
G37*
X87297502Y-88059121D02*
X87251905Y-88104719D01*
X87237762Y-88090576D01*
X87223620Y-88104719D01*
X87169171Y-88050270D01*
X87297502Y-88059121D01*
G36*
X77754442Y-69003685D02*
G01*
X77708845Y-69049283D01*
X77694702Y-69035140D01*
X77680560Y-69049283D01*
X77626111Y-68994834D01*
X77754442Y-69003685D01*
X77754442Y-69003685D01*
G37*
X77754442Y-69003685D02*
X77708845Y-69049283D01*
X77694702Y-69035140D01*
X77680560Y-69049283D01*
X77626111Y-68994834D01*
X77754442Y-69003685D01*
G36*
X96840563Y-68942315D02*
G01*
X96794966Y-68987913D01*
X96780823Y-68973770D01*
X96766681Y-68987913D01*
X96712232Y-68933464D01*
X96840563Y-68942315D01*
X96840563Y-68942315D01*
G37*
X96840563Y-68942315D02*
X96794966Y-68987913D01*
X96780823Y-68973770D01*
X96766681Y-68987913D01*
X96712232Y-68933464D01*
X96840563Y-68942315D01*
G36*
X87284878Y-49980308D02*
G01*
X87239281Y-50025906D01*
X87225138Y-50011763D01*
X87210996Y-50025906D01*
X87156547Y-49971457D01*
X87284878Y-49980308D01*
X87284878Y-49980308D01*
G37*
X87284878Y-49980308D02*
X87239281Y-50025906D01*
X87225138Y-50011763D01*
X87210996Y-50025906D01*
X87156547Y-49971457D01*
X87284878Y-49980308D01*
M02*
