G04 #@! TF.GenerationSoftware,KiCad,Pcbnew,(5.1.4)-1*
G04 #@! TF.CreationDate,2022-05-26T19:20:09-08:00*
G04 #@! TF.ProjectId,No2 controller PCB,4e6f3220-636f-46e7-9472-6f6c6c657220,rev?*
G04 #@! TF.SameCoordinates,Original*
G04 #@! TF.FileFunction,Legend,Top*
G04 #@! TF.FilePolarity,Positive*
%FSLAX46Y46*%
G04 Gerber Fmt 4.6, Leading zero omitted, Abs format (unit mm)*
G04 Created by KiCad (PCBNEW (5.1.4)-1) date 2022-05-26 19:20:09*
%MOMM*%
%LPD*%
G04 APERTURE LIST*
%ADD10C,0.150000*%
%ADD11C,0.100000*%
%ADD12C,1.852000*%
%ADD13C,4.089800*%
%ADD14C,1.702000*%
%ADD15R,1.702000X1.702000*%
%ADD16R,1.902000X1.202000*%
G04 APERTURE END LIST*
D10*
X159411306Y-105802326D02*
X159411306Y-104802326D01*
X159982735Y-105802326D01*
X159982735Y-104802326D01*
X160601783Y-105802326D02*
X160506544Y-105754707D01*
X160458925Y-105707088D01*
X160411306Y-105611850D01*
X160411306Y-105326136D01*
X160458925Y-105230898D01*
X160506544Y-105183279D01*
X160601783Y-105135660D01*
X160744640Y-105135660D01*
X160839878Y-105183279D01*
X160887497Y-105230898D01*
X160935116Y-105326136D01*
X160935116Y-105611850D01*
X160887497Y-105707088D01*
X160839878Y-105754707D01*
X160744640Y-105802326D01*
X160601783Y-105802326D01*
X161316068Y-104897565D02*
X161363687Y-104849946D01*
X161458925Y-104802326D01*
X161697021Y-104802326D01*
X161792259Y-104849946D01*
X161839878Y-104897565D01*
X161887497Y-104992803D01*
X161887497Y-105088041D01*
X161839878Y-105230898D01*
X161268449Y-105802326D01*
X161887497Y-105802326D01*
X163506544Y-105754707D02*
X163411306Y-105802326D01*
X163220830Y-105802326D01*
X163125592Y-105754707D01*
X163077973Y-105707088D01*
X163030354Y-105611850D01*
X163030354Y-105326136D01*
X163077973Y-105230898D01*
X163125592Y-105183279D01*
X163220830Y-105135660D01*
X163411306Y-105135660D01*
X163506544Y-105183279D01*
X164077973Y-105802326D02*
X163982735Y-105754707D01*
X163935116Y-105707088D01*
X163887497Y-105611850D01*
X163887497Y-105326136D01*
X163935116Y-105230898D01*
X163982735Y-105183279D01*
X164077973Y-105135660D01*
X164220830Y-105135660D01*
X164316068Y-105183279D01*
X164363687Y-105230898D01*
X164411306Y-105326136D01*
X164411306Y-105611850D01*
X164363687Y-105707088D01*
X164316068Y-105754707D01*
X164220830Y-105802326D01*
X164077973Y-105802326D01*
X164839878Y-105135660D02*
X164839878Y-105802326D01*
X164839878Y-105230898D02*
X164887497Y-105183279D01*
X164982735Y-105135660D01*
X165125592Y-105135660D01*
X165220830Y-105183279D01*
X165268449Y-105278517D01*
X165268449Y-105802326D01*
X165601783Y-105135660D02*
X165982735Y-105135660D01*
X165744640Y-104802326D02*
X165744640Y-105659469D01*
X165792259Y-105754707D01*
X165887497Y-105802326D01*
X165982735Y-105802326D01*
X166316068Y-105802326D02*
X166316068Y-105135660D01*
X166316068Y-105326136D02*
X166363687Y-105230898D01*
X166411306Y-105183279D01*
X166506544Y-105135660D01*
X166601783Y-105135660D01*
X167077973Y-105802326D02*
X166982735Y-105754707D01*
X166935116Y-105707088D01*
X166887497Y-105611850D01*
X166887497Y-105326136D01*
X166935116Y-105230898D01*
X166982735Y-105183279D01*
X167077973Y-105135660D01*
X167220830Y-105135660D01*
X167316068Y-105183279D01*
X167363687Y-105230898D01*
X167411306Y-105326136D01*
X167411306Y-105611850D01*
X167363687Y-105707088D01*
X167316068Y-105754707D01*
X167220830Y-105802326D01*
X167077973Y-105802326D01*
X167982735Y-105802326D02*
X167887497Y-105754707D01*
X167839878Y-105659469D01*
X167839878Y-104802326D01*
X168506544Y-105802326D02*
X168411306Y-105754707D01*
X168363687Y-105659469D01*
X168363687Y-104802326D01*
X169268449Y-105754707D02*
X169173211Y-105802326D01*
X168982735Y-105802326D01*
X168887497Y-105754707D01*
X168839878Y-105659469D01*
X168839878Y-105278517D01*
X168887497Y-105183279D01*
X168982735Y-105135660D01*
X169173211Y-105135660D01*
X169268449Y-105183279D01*
X169316068Y-105278517D01*
X169316068Y-105373755D01*
X168839878Y-105468993D01*
X169744640Y-105802326D02*
X169744640Y-105135660D01*
X169744640Y-105326136D02*
X169792259Y-105230898D01*
X169839878Y-105183279D01*
X169935116Y-105135660D01*
X170030354Y-105135660D01*
X171030354Y-105135660D02*
X171268449Y-105802326D01*
X171506544Y-105135660D01*
X172411306Y-105802326D02*
X171839878Y-105802326D01*
X172125592Y-105802326D02*
X172125592Y-104802326D01*
X172030354Y-104945184D01*
X171935116Y-105040422D01*
X171839878Y-105088041D01*
X172839878Y-105707088D02*
X172887497Y-105754707D01*
X172839878Y-105802326D01*
X172792259Y-105754707D01*
X172839878Y-105707088D01*
X172839878Y-105802326D01*
X173506544Y-104802326D02*
X173601783Y-104802326D01*
X173697021Y-104849946D01*
X173744640Y-104897565D01*
X173792259Y-104992803D01*
X173839878Y-105183279D01*
X173839878Y-105421374D01*
X173792259Y-105611850D01*
X173744640Y-105707088D01*
X173697021Y-105754707D01*
X173601783Y-105802326D01*
X173506544Y-105802326D01*
X173411306Y-105754707D01*
X173363687Y-105707088D01*
X173316068Y-105611850D01*
X173268449Y-105421374D01*
X173268449Y-105183279D01*
X173316068Y-104992803D01*
X173363687Y-104897565D01*
X173411306Y-104849946D01*
X173506544Y-104802326D01*
D11*
G36*
X173355000Y-104140000D02*
G01*
X158115000Y-104140000D01*
X158115000Y-102870000D01*
X173355000Y-102870000D01*
X173355000Y-104140000D01*
G37*
X173355000Y-104140000D02*
X158115000Y-104140000D01*
X158115000Y-102870000D01*
X173355000Y-102870000D01*
X173355000Y-104140000D01*
G36*
X174625000Y-104140000D02*
G01*
X173355000Y-104140000D01*
X173355000Y-88900000D01*
X174625000Y-88900000D01*
X174625000Y-104140000D01*
G37*
X174625000Y-104140000D02*
X173355000Y-104140000D01*
X173355000Y-88900000D01*
X174625000Y-88900000D01*
X174625000Y-104140000D01*
G36*
X159385000Y-102870000D02*
G01*
X158115000Y-102870000D01*
X158115000Y-88900000D01*
X159385000Y-88900000D01*
X159385000Y-102870000D01*
G37*
X159385000Y-102870000D02*
X158115000Y-102870000D01*
X158115000Y-88900000D01*
X159385000Y-88900000D01*
X159385000Y-102870000D01*
G36*
X173355000Y-90170000D02*
G01*
X159385000Y-90170000D01*
X159385000Y-88900000D01*
X173355000Y-88900000D01*
X173355000Y-90170000D01*
G37*
X173355000Y-90170000D02*
X159385000Y-90170000D01*
X159385000Y-88900000D01*
X173355000Y-88900000D01*
X173355000Y-90170000D01*
D10*
X162075649Y-101184862D02*
X162075649Y-99184862D01*
X162075649Y-101089624D02*
X161885173Y-101184862D01*
X161504221Y-101184862D01*
X161313744Y-101089624D01*
X161218506Y-100994386D01*
X161123268Y-100803910D01*
X161123268Y-100232481D01*
X161218506Y-100042005D01*
X161313744Y-99946767D01*
X161504221Y-99851529D01*
X161885173Y-99851529D01*
X162075649Y-99946767D01*
X163789935Y-101089624D02*
X163599459Y-101184862D01*
X163218506Y-101184862D01*
X163028030Y-101089624D01*
X162932792Y-100899148D01*
X162932792Y-100137243D01*
X163028030Y-99946767D01*
X163218506Y-99851529D01*
X163599459Y-99851529D01*
X163789935Y-99946767D01*
X163885173Y-100137243D01*
X163885173Y-100327720D01*
X162932792Y-100518196D01*
X164647078Y-101089624D02*
X164837554Y-101184862D01*
X165218506Y-101184862D01*
X165408983Y-101089624D01*
X165504221Y-100899148D01*
X165504221Y-100803910D01*
X165408983Y-100613434D01*
X165218506Y-100518196D01*
X164932792Y-100518196D01*
X164742316Y-100422958D01*
X164647078Y-100232481D01*
X164647078Y-100137243D01*
X164742316Y-99946767D01*
X164932792Y-99851529D01*
X165218506Y-99851529D01*
X165408983Y-99946767D01*
X166361363Y-101184862D02*
X166361363Y-99851529D01*
X166361363Y-99184862D02*
X166266125Y-99280101D01*
X166361363Y-99375339D01*
X166456602Y-99280101D01*
X166361363Y-99184862D01*
X166361363Y-99375339D01*
X168170887Y-99851529D02*
X168170887Y-101470577D01*
X168075649Y-101661053D01*
X167980411Y-101756291D01*
X167789935Y-101851529D01*
X167504221Y-101851529D01*
X167313744Y-101756291D01*
X168170887Y-101089624D02*
X167980411Y-101184862D01*
X167599459Y-101184862D01*
X167408983Y-101089624D01*
X167313744Y-100994386D01*
X167218506Y-100803910D01*
X167218506Y-100232481D01*
X167313744Y-100042005D01*
X167408983Y-99946767D01*
X167599459Y-99851529D01*
X167980411Y-99851529D01*
X168170887Y-99946767D01*
X169123268Y-99851529D02*
X169123268Y-101184862D01*
X169123268Y-100042005D02*
X169218506Y-99946767D01*
X169408983Y-99851529D01*
X169694697Y-99851529D01*
X169885173Y-99946767D01*
X169980411Y-100137243D01*
X169980411Y-101184862D01*
X170837554Y-101089624D02*
X171028030Y-101184862D01*
X171408983Y-101184862D01*
X171599459Y-101089624D01*
X171694697Y-100899148D01*
X171694697Y-100803910D01*
X171599459Y-100613434D01*
X171408983Y-100518196D01*
X171123268Y-100518196D01*
X170932792Y-100422958D01*
X170837554Y-100232481D01*
X170837554Y-100137243D01*
X170932792Y-99946767D01*
X171123268Y-99851529D01*
X171408983Y-99851529D01*
X171599459Y-99946767D01*
X170634068Y-95118590D02*
X170729306Y-94975733D01*
X170919782Y-94832875D01*
X171395973Y-94832875D01*
X171586449Y-94975733D01*
X171681687Y-95118590D01*
X171776925Y-95404304D01*
X171776925Y-95690018D01*
X171681687Y-96118590D01*
X170538830Y-97832875D01*
X171776925Y-97832875D01*
X161165020Y-96197637D02*
X161165020Y-91197637D01*
X164022163Y-96197637D01*
X164022163Y-91197637D01*
X167117401Y-96197637D02*
X166641211Y-95959542D01*
X166403116Y-95721447D01*
X166165020Y-95245256D01*
X166165020Y-93816685D01*
X166403116Y-93340494D01*
X166641211Y-93102399D01*
X167117401Y-92864304D01*
X167831687Y-92864304D01*
X168307877Y-93102399D01*
X168545973Y-93340494D01*
X168784068Y-93816685D01*
X168784068Y-95245256D01*
X168545973Y-95721447D01*
X168307877Y-95959542D01*
X167831687Y-96197637D01*
X167117401Y-96197637D01*
X146489611Y-72548750D02*
X128709611Y-72548750D01*
X146489611Y-42068750D02*
X146489611Y-72548750D01*
X141409611Y-42068750D02*
X146489611Y-42068750D01*
X141409611Y-39528750D02*
X141409611Y-42068750D01*
X133789611Y-39528750D02*
X141409611Y-39528750D01*
X133789611Y-42068750D02*
X133789611Y-39528750D01*
X128709611Y-42068750D02*
X133789611Y-42068750D01*
X128709611Y-42068750D02*
X128709611Y-72548750D01*
X149323750Y-80108750D02*
X154523750Y-80108750D01*
X154523750Y-80108750D02*
X154523750Y-85308750D01*
X154523750Y-85308750D02*
X149323750Y-85308750D01*
X149323750Y-85308750D02*
X149323750Y-80108750D01*
X152923750Y-82708750D02*
G75*
G03X152923750Y-82708750I-1000000J0D01*
G01*
X121542500Y-80108750D02*
X126742500Y-80108750D01*
X126742500Y-80108750D02*
X126742500Y-85308750D01*
X126742500Y-85308750D02*
X121542500Y-85308750D01*
X121542500Y-85308750D02*
X121542500Y-80108750D01*
X125142500Y-82708750D02*
G75*
G03X125142500Y-82708750I-1000000J0D01*
G01*
X150590416Y-87177511D02*
X150733273Y-87225130D01*
X150971369Y-87225130D01*
X151066607Y-87177511D01*
X151114226Y-87129892D01*
X151161845Y-87034654D01*
X151161845Y-86939416D01*
X151114226Y-86844178D01*
X151066607Y-86796559D01*
X150971369Y-86748940D01*
X150780892Y-86701321D01*
X150685654Y-86653702D01*
X150638035Y-86606083D01*
X150590416Y-86510845D01*
X150590416Y-86415607D01*
X150638035Y-86320369D01*
X150685654Y-86272750D01*
X150780892Y-86225130D01*
X151018988Y-86225130D01*
X151161845Y-86272750D01*
X151495178Y-86225130D02*
X151733273Y-87225130D01*
X151923750Y-86510845D01*
X152114226Y-87225130D01*
X152352321Y-86225130D01*
X152685654Y-86320369D02*
X152733273Y-86272750D01*
X152828511Y-86225130D01*
X153066607Y-86225130D01*
X153161845Y-86272750D01*
X153209464Y-86320369D01*
X153257083Y-86415607D01*
X153257083Y-86510845D01*
X153209464Y-86653702D01*
X152638035Y-87225130D01*
X153257083Y-87225130D01*
X122809166Y-87177511D02*
X122952023Y-87225130D01*
X123190119Y-87225130D01*
X123285357Y-87177511D01*
X123332976Y-87129892D01*
X123380595Y-87034654D01*
X123380595Y-86939416D01*
X123332976Y-86844178D01*
X123285357Y-86796559D01*
X123190119Y-86748940D01*
X122999642Y-86701321D01*
X122904404Y-86653702D01*
X122856785Y-86606083D01*
X122809166Y-86510845D01*
X122809166Y-86415607D01*
X122856785Y-86320369D01*
X122904404Y-86272750D01*
X122999642Y-86225130D01*
X123237738Y-86225130D01*
X123380595Y-86272750D01*
X123713928Y-86225130D02*
X123952023Y-87225130D01*
X124142500Y-86510845D01*
X124332976Y-87225130D01*
X124571071Y-86225130D01*
X125475833Y-87225130D02*
X124904404Y-87225130D01*
X125190119Y-87225130D02*
X125190119Y-86225130D01*
X125094880Y-86367988D01*
X124999642Y-86463226D01*
X124904404Y-86510845D01*
%LPC*%
D12*
X89777762Y-92990971D03*
X79617762Y-92990971D03*
D13*
X84697762Y-92990971D03*
D12*
X99320823Y-73874165D03*
X89160823Y-73874165D03*
D13*
X94240823Y-73874165D03*
D14*
X145219611Y-43338750D03*
X145219611Y-45878750D03*
X145219611Y-48418750D03*
X145219611Y-50958750D03*
X145219611Y-53498750D03*
X145219611Y-56038750D03*
X145219611Y-58578750D03*
X145219611Y-61118750D03*
X145219611Y-63658750D03*
X145219611Y-66198750D03*
X145219611Y-68738750D03*
X145219611Y-71278750D03*
X129979611Y-71278750D03*
X129979611Y-68738750D03*
X129979611Y-66198750D03*
X129979611Y-63658750D03*
X129979611Y-61118750D03*
X129979611Y-58578750D03*
X129979611Y-56038750D03*
X129979611Y-53498750D03*
X129979611Y-50958750D03*
X129979611Y-48418750D03*
X129979611Y-45878750D03*
D15*
X129979611Y-43338750D03*
D16*
X148823750Y-84558750D03*
X155023750Y-80858750D03*
X148823750Y-80858750D03*
X155023750Y-84558750D03*
X121042500Y-84558750D03*
X127242500Y-80858750D03*
X121042500Y-80858750D03*
X127242500Y-84558750D03*
D12*
X206249505Y-82013124D03*
X196089505Y-82013124D03*
D13*
X201169505Y-82013124D03*
D12*
X206179463Y-62934575D03*
X196019463Y-62934575D03*
D13*
X201099463Y-62934575D03*
D12*
X187198491Y-84985281D03*
X177038491Y-84985281D03*
D13*
X182118491Y-84985281D03*
D12*
X187149785Y-65981811D03*
X176989785Y-65981811D03*
D13*
X182069785Y-65981811D03*
D12*
X89765138Y-54912158D03*
X79605138Y-54912158D03*
D13*
X84685138Y-54912158D03*
D12*
X80234702Y-73935535D03*
X70074702Y-73935535D03*
D13*
X75154702Y-73935535D03*
M02*
