M48
; DRILL file {KiCad (5.1.4)-1} date 05/26/22 19:20:16
; FORMAT={-:-/ absolute / inch / decimal}
; #@! TF.CreationDate,2022-05-26T19:20:16-08:00
; #@! TF.GenerationSoftware,Kicad,Pcbnew,(5.1.4)-1
; #@! TF.FileFunction,Plated,1,2,PTH
FMAT,2
INCH
T1C0.0409
T2C0.0433
T3C0.0579
%
G90
G05
T1
X3.2841Y-2.3619
X3.3841Y-2.3619
X7.12Y-3.5459
X7.1181Y-2.7977
X7.2181Y-2.7977
X7.8701Y-3.4289
X7.9701Y-3.4289
X3.6603Y-3.1084
X3.7603Y-3.1084
X3.2846Y-3.8611
X3.3846Y-3.8611
X7.22Y-3.5459
X7.8673Y-2.6777
X7.9673Y-2.6777
X2.9088Y-3.1108
X3.0088Y-3.1108
T2
X5.1173Y-1.7063
X5.1173Y-1.8062
X5.1173Y-1.9062
X5.1173Y-2.0063
X5.1173Y-2.1062
X5.1173Y-2.2062
X5.1173Y-2.3062
X5.1173Y-2.4062
X5.1173Y-2.5063
X5.1173Y-2.6062
X5.1173Y-2.7062
X5.1173Y-2.8062
X5.7173Y-1.7063
X5.7173Y-1.8062
X5.7173Y-1.9062
X5.7173Y-2.0063
X5.7173Y-2.1062
X5.7173Y-2.2062
X5.7173Y-2.3062
X5.7173Y-2.4062
X5.7173Y-2.5063
X5.7173Y-2.6062
X5.7173Y-2.7062
X5.7173Y-2.8062
T3
X7.02Y-3.2459
X7.0716Y-3.1884
X7.2684Y-3.1687
X7.27Y-3.1459
X7.7673Y-2.3777
X7.8189Y-2.3203
X8.0157Y-2.3006
X8.0173Y-2.2777
X2.8088Y-2.8108
X2.8604Y-2.7534
X3.0573Y-2.7337
X3.0588Y-2.7108
X7.0181Y-2.4977
X7.0697Y-2.4402
X7.2665Y-2.4205
X7.2681Y-2.3977
X7.7701Y-3.1289
X7.8216Y-3.0714
X8.0185Y-3.0517
X8.0201Y-3.0289
X3.5603Y-2.8084
X3.6118Y-2.751
X3.8087Y-2.7313
X3.8103Y-2.7084
X3.1846Y-3.5611
X3.2361Y-3.5036
X3.433Y-3.4839
X3.4346Y-3.4611
X3.1841Y-2.0619
X3.2356Y-2.0044
X3.4325Y-1.9847
X3.4341Y-1.9619
T0
M30
